<mxfile host="app.diagrams.net" agent="Mozilla/5.0 (Windows NT 10.0; Win64; x64) AppleWebKit/537.36 (KHTML, like Gecko) Chrome/135.0.0.0 Safari/537.36 Edg/135.0.0.0" version="27.0.3">
  <diagram name="Page-1" id="o_4QnZYMXbeu27XMxY5v">
    <mxGraphModel dx="2122" dy="950" grid="1" gridSize="10" guides="1" tooltips="1" connect="1" arrows="1" fold="1" page="1" pageScale="1" pageWidth="827" pageHeight="1169" math="0" shadow="0">
      <root>
        <mxCell id="0" />
        <mxCell id="1" parent="0" />
        <mxCell id="FhRJj4_u_BITY9b72M2X-1" value="" style="shape=image;verticalLabelPosition=bottom;labelBackgroundColor=default;verticalAlign=top;aspect=fixed;imageAspect=0;image=data:image/png,iVBORw0KGgoAAAANSUhEUgAAAYUAAAM7CAYAAAClfIxkAAAAAXNSR0IArs4c6QAAAARnQU1BAACxjwv8YQUAAAAJcEhZcwAADsMAAA7DAcdvqGQAAKplSURBVHhe7Z0FnFXV9seXNGIhGKAgaYCEoAImdiJ2d7c+u7u7u5/19D0L668+uwjFAlRawcSm4/G/vz3nd2fNnnPvDMwwcMbfl89mr7322vuce+fctc7e+8Rinbt0n2sLhLm2SuvWttqqHW3GjOk2atQo++GHH3LyDKtTp04+LbbYYla3bt2Qowx8Pnfu3FCHHPzvf/8LuSe2gYwEWOdTjNcXsvGgT/YLkPvtxDrkgDnw+vgzxe3S+vKwjnjbQm1iPWR+32wHfI799GXasQ6wD8CcbQDbFcLbsn/mHpR9X9gu989vl229HuA4XH755csca2jP/f/jjz+C3n9mEvcFUIYttzdnzpzQF2TqkQOWvQ4ygD3aoT3LzFkHuJ9ozzok9oMcZYIy24K4nrD9vNRBz/5o4/F6to3taBP3ndYnbZDj88N/8Hugngn4fn0eb4864Oso+3rWUe9BmX977BsSy8j5d2Dutwnwt581a5ZNmzYtpMmTJ9vMmTPDZ0SqV7+B1albL9dvvWBf3VRrUKhXr56t1a2rLbXUEvbOO++ED9O4cWNr1KiRNW3a1JZbbjlbdtllrUmTJtagQQOrX79++MLQDgngi8KXwy8MUJf25XtgQzsmfIlsz34p82Ai7I+5b8MyDz4kX4+cOtoDlIFv49tSD1imQyHsg9th7ttzvzwosy2gPWEdcvYJ+J2wPfK0dnH/cTkG9ezbfz6/PdogB377lAttg23Svgu2QY5t//nnnyEw+P7YBnmzZs2Cnva+T+/wkVgX9xOXAXSxLWXC/nwd25G4DUB92mf3sM73TVhOqwPch9iOehLX82/t9THsg208vo7BEqT1W+jzsw/a+rZI/HvGf0vgZfYNHeRCtrQDtPG2LGN7HpS9DsFh9uzZIeF4/fnnn+2bb76xX375xaZOnZrrJ+d3GzTM9VX6e6oq1RIUlsg5+a223Myef/75sKNLLLGEtW/f3lZaaSVr2LBh+MIRABgE8GXwjwCYQ+f/qHEO/Jcb6wH6gIx+uA3WQU7TE9b5viF7HXLaeeI2gGX/mQD7A74N+wfenu25zTQbUEiPMvqgTDvmgPq43pcBykjcJyTq/edk21gGKPM78H0D2LEe+HrIcT8oe138XUOGzp8AIMdIAD8w1LMf3//qq69exgF5aBvDtnEd9Nw2Phf30dv7bXsZOctp7fg9oY7fKaEdgJ727M/3AzktJ7FMG09sg3r2E5cp+8/EOiT2EQMbwnp+B2lwW5SJ74fg7019Wr3fHvcbxPvp9Uz+e/f2lFmHfglkJNRh3yAjx6gBAQK+FsfwmDFjwgn4YrmRQ716DZLW80+VggKCwXp91rXXXnstfOhWrVpZmzZtQiDASIAjAPwgGRAYFJAg88tgIpD5x4bsv0gAnf/D+DL7ZJu4Lj6IaE+ZfwjaI9GpQEdb5gRl/NHYP9oR2nqdh3rYcZu+f8peF9vF9thfQBuWQVznZR7AhLLXedAmtmcfcRts13//qOe++X2M9wnQSXN7cd/A62jnQRnb/+233+zLL7/M2zDnfq+zzjp5J8E+kHtb6oD/PoH/HNQBytD7z5xmAyDThnbMKftteDn+OxK0AbD1wJbbYjn+O3obrwOxHkBGH34/kSMR6JgA62M9QZntfT+QuS3CfmhHGX9b36+X2Yafnf3SBjJgH7T39f7YQU7890B7fmcsw2eiD+SYZVl66aXDTAtkjBw4tYQcAQLyX3/9ZWPHjg1Bom69+rkPUTf0NT/MV1CoU2cx22arLeyVV14JH2SVVVax1q1bh6kiBAMEhcUXXzzIiGATJ04Mw3V+mchRB0eLYRG/ECR+YQA5vjB++cjjL5CgjqCOfwhvR5l9sF/aI0/rHzr2B9mXaYcy9JQZABEMYYPP7G2B3wZktmf/1FFmOxwMtPV9QvbbQc5EfL++jnKhfqgHlH09bQD65t+aem/Pz+RBmZ+J+0YbtmM/gP3FfcdgP/gDJZBx3FHP/aFNWl+o4/Y80GEb/My0YY7E/tkv2yCnDlD2bQjr+N2wPfB23Je07QJvC1BHHWXaI6cOfVHnc0AbysD3Q2jjie1Z9jllADntuwO+j7RtpeH7iPsr1A/tCm2D++Hr08rx3xgyPhsST6jhPxAMllxyyTD1jlkYHLvwr2ussUbwMRgxIE2ZMiWMgMeNG2e///671anXMOl53pjnoNC+XRubM3uWffvtt7bCCitY27ZtbZlllgnRDPOwGMp8/vnnwXb69OnhjAw7imiGLwEfDiMKtMEHBvzCeOAhqKDML5+gjC+MDtfXsw/Cvgnq2Y520CHhy/dtibclaTpAfbxP0BPW8w9PHUCkHzlyZDh7xR+X7djG9+37YR3xttxGbONBnaeQHWC/xNvGdYQ67isSbX37QvpC4FhBn/6HhbYgrV/2jeS/N28LeAz6fgH7BtTHfXkbynH/tJ0XfJt4O4XwbWgft/M2nrR2sa4QrIc9EspszzLA7xNObs0117TVVlstnAnju/Q2yPn9VgS3QdnDOuq97CnUjqCMhN8mjxPg20HGPlOOifcx3i/0jcQ+EADg4L/++msbOHCgjR49OvgrBAX4UPjg5s2bW58+fUI/8LXwuRgxwJ/MmZM7qZ5b+hkqwzwFha222NTefvvtsNOdOnWyli1b2oorrhjOuJ599tkwz/Xrr7+GncLO9uvXz9q1axd2livoXDjhmb3/4rycBurjLxXwi2XuZZ97fJ0vE+rj9rGeMmC5GL4NHY/vC/CgQD3PZmMbAB1z2PIH5G1j2QM97YGv9/1QZhl4W2wb+0xbT9yGfRFf5z8D4XdEfH/sy7ejjjntfA58XbE2IE1Pe8L9TGsPUPZ/H+oKQbvY3pcJ+0mzB9QXauvbsQ3w9pBZ9jrKxPcR5zG0LXaMA+jivy9AHh8fgH0U6g+wH9b7foHXg3gbHvbDPliO9QAyPgv2G8T2SKhncECZU/E4WUbCaAH5sGHD7F//+lc4iUSAgC/eZJNNrEWLFsEP//jjjyEwIJ8zt+zvqhiVDgo77rBdWEjGyADDFpztY2cefvjh4OSx4Z49e9pee+0VznoRsTCkQaBAMEDCFwFb5DgQ+IXxC+FOQ/awHsR28ZfLsse3KYTvM7bl9tk/cupJ3I5l2gLW+zrfhvg2gLa0R+KPhPWetH592fdTaFtpMijUd2wHCuloH/cDXdrfD9CWfRLfF9sjp87jbQvh62O7uK0vQwbcPvT4G9HhAW8by8j9sUU965iTWB+3RdkfIzG+P8h0VOwzhrYA9XH7+SGtD+Tcb8rYL+D3AaS1LwRt4zbUgbivuA4yyx5vVwjfPq1f5Ej4vMh5YogcoyomBAjkCAqYrseVnLi0Gv735ptvDn0hOOy2224hUEyYMCGsNeCWgNm58/CZuZPyiqgwKGAH+223tb344ou27rrrhqEehis33XRTCAoYphx99NEhSOA+BAQETBshoR65HyEUGiXwgESC3n9pxeAX6vsCaTraknhb/mAErPc5oA3KrCsGbNJ+tGxLfUzcb2wb90N8v75NbEOgR+Lnpy5ux/4oA5ZJWhvgPz/xbdm3t4n7BrQD3t7rC0H72A66tP1Ls/XbJLFuXvtCnvbds+z7og7E7Qjbk3jbrI/bM4/t04htfY6E74BlD8u+fdr3FZPWl9dRLvTde33cF2TuD+zwnXhYR7u4P68HlJF7fRqoB7ChHXLsA3OMEhAcuMaAwICAwKDANYellloqXPF56aWXBj+MK0APPvjgsKaL6SeMGmbN/p9NmTotbKcQRYMCdhgjBFxdtMEGG4QpI3SMqaKffvrJDjzwwLDAPGnSpLCQjB1BQjDgKIGLogwG8QiB28EXwDK/HEDZ18Vt/R8RZdj4/khamT8KtiOsI3HbNOI+KoJ9cl99nnZwAt+GBybbeXzZ94vcf+a0euTE6wtRqF0xYOt/WMBvK01PWEZCH8S35feHMkDO75M2rAMoA79PbEMd27GO+DpvQ2gb21UG2GL7cAr8rGjrPxuIt+HlWOdhvZfj9h5vD9JsPKxHzv0H8f6nkVbvt8f9YP/Mgf+bxccBbQBtQGwLvH3cllDv23lYF7f19t6GdsixPz4xQPjRAtYXMKWEoMAFaUztn3rqqWGdd//99w91n376qY0YMcKmz5xt06ZND9tIo2hQwBrC+++/b3379g0LQvfff39Y6ICzv+6668IGcBMFpoqwGIKAgGCA0QFHBvjjIBAg9wc14RfhdTH8kmKbitqRYnasq8gGsJ72lAl1HtZ7e27L28d2ADp/kMZtfZtidYQ/lJjYnnaxnjLgdmJ9Gqz3n4WktacOCTKgjbf3ddRjG9z/2A54W5+TuI0vUwaQ/edJswe+DYj7YRmJMvJCdoX0xWC7WAZs63WFqMy22X/adry9rwO+Pu04YX0acZ3vq1DuZW4vtgGQPWl66ohvXxn8dj3UY/8gI1FmcMCogSMHjBowZYSEwIBppY8++sjeffdd23LLLcNi9IcffhjWIiZPnZGfsYkpGBR6rtXNfvjh+7BO0LVrV7viiivCVNE222wT1hQwJEFAQEIwwEIyrjBCwGAwYOIXBLkY/BLSSPvSCsEvks6BOt++WH/Q+7aVwfcHmXhdWj3wPwJvVxkqa8/+C9lCz77izx5vg+W4T6/3OhDrQdyeFNP7ftJyUKyOQAcqo/f9gLgNoI3/WwLKbEt8fyTN1ut8vzHF2rDOyyCuI2znZZ+DQjqQ1sbbAdoS2sTEvw0S90nZ55WlMvbx9si8tCtk6/uMt+HbUY8cCd8NEhehERwwYkDC1VwYJXTv3j1M32NKaaONNgr+G0ECaw0Tvvsx9BdTd/kVVrwgkfMst1xzW6llixBpevToYVdeeWVYL7jsssvCsAULFwgKWNxAUMDVRggK8foBAwJSsYDAD84Pnwa/EEA75qzz7Yv15SnUNtanleNtpOnSbNgX8TaQ0/ohld0udcgrE+DYPq0fT0VlT0XbjIF9oe0X26+0dmkU259idYDbQF7MlvtBe8qA7f2+FusrJrZNawud10P22wPF9jEm1qf1B6CDg6pO0rbF/Sm0vx62x35BTmtDm8r0R9iGMtv6PqiP959422Jw33w/+D3HCX4XPpc+mCfoOJHv0KFDWA/GRUH4LjbeeOPgz9fs3MnGjhuf9FpKalBYv8+6obNNN93UbrzxxhBVMF2EtQMMPRAQsKaAKSMfDPyaAYg/DL8oyhXhbdO+XP6x4zrfd2W2U4hC/fjPRyCn7eO8bH9ebGO4ffbh+4r79XagmC2hHnlsgzI/O3LvHLxt3DatHw/7jPWg2GcoBuxiW5S5LeDr4+2QtD48LCP3fRPoWVfIJo1C/bI/4PeZOamoTArp0/C2kFmO8zQqsp2XtqCi9rFt/L3H9oWgnc+Lfe8xvr6YLfuljADA3xfrmHgijpNyJM7aIAB07NgxnOA/+uij4Rl0mAHCVNLiizexv3I+3FMuKKzdo1tYF8A6Ai5BRRA4/fTTwxAF6wvff/99uAYWC8tcTI5HBaDYB/VU1g7ANs2eetal2aXpsK+xLg3Y8HMB36ZYe9bNzzZIRW19fSE5pjJ90ibN1td70nSEdYW+R+D7LdRXofpC9qRYfaHjADomD8rx34p9eFtvF/dB4r7iPjyxXTEqqifcHlNFVLZfAvv4u/L4/iDDjxTbRlpdrCtWjuvS/m6kmD7+TGl2MbRJax/jbREEaF+oD34OfH9IPEFngEAfuJ0AT5948sknbf311w9XkX43cYL98edfSS8llBnvYU4Kq9e4+QFTQkOGDLH11lsvLFpgHgoBAaMFjBAQEDg6wA4xcadZjmF9RXg7yL7fmDggFdo2deyv0DYIy76vuN+07RDW+e36vDKgbZp92r7FoK5YfSF8uzgHvj6m0GfzbWCD5MuANqyjHfA2hfSEumIU6sPr2KfXA+q9zvdRqB2gztt7fHtvB+IzRF8H4jIp1B/g9pgK9UHYFylmz7p4uywj+f4g4zPSlvvkYZntAXQsU+dhPWUQ28fbSYP23pZyZdqT2Jb7ACjDpxEve3w74AMCfDNmcDCTA1+OBWfkWA/GRUO33HJLGD1g7QEzQ54yC8291+0ZOtp2223t4osvDlcVoTGepfHCCy+EEQKnizA6iKeKSPyhN+27se23717Wa911Eo0QQojKMnDQYHv4kcftv2+8GcpxcAL0wdBDRsIMD69OQhDAegIWonG5KpYH+vfvb/fcc4/99sfkfPt8UEDjdXp2D4sSgwcPDu9DuPvuu8Mzjl5//fUQGBAkMF2E4QjPzgvRvVtXe/Sf9yclIYQQ1cVe+x5on33+RT4AeF/MMgMDLl3lPQ277rprmELCc5Refvllu+SSS+zNN9/MneD/zz4a+mlon58+6tG9SxhyYOro448/DlEFQQBrBwgIuOy0MgGhQ4f2NvyzjxQQhBBiAfHYww/YsE+HBH/LAACYA+iR/HQSHriJi4S23nrrYHvHHXeEEcO3336T9+n5oAAFAgEWIRAALrjggrB+gKeepi0o+41DRnrvrdfsuaeeSLRCCCEWJPC38Lt06IAyfDJkJPhunNAPHTo0rAkjbbbZZuEtbqjHHc+tVm4Z2oWg0K5tm1DAszJwtRGGF4gmGClg1IAIwxEC8TuBjSNqYdFCCCFEzQG/i9mZ+ColyD4wwIfz/gWc8O+xxx5hBPHAAw+EdeRVWrcKbUNQaNlihTDnhEtOMSrAIjMWlSFjxRqd+auMPNjoF58MTkpCCCEWBvDD8MeAftrnSPDjeFQR/DpmhPCAU8wG4X04X331VTjxD0EB0aJbt2723nvvhVEBwPACIwV0gqGHhxtGZMIIQQghxMIH/hgLy4B+miAowOnjmXU44YePP+yww8K6MQICnrDaJjdaqLP8cs2DISIFHlmx/fbbhyiCS0/DM7hzAYFRBomda4QgagPvvPu+7bL73tZ1rXVDjrIQWebzoYOCf+Z0vw8O8N3w7RgIYDYISwYIIni1Mh6F0arVSlanNSIDzviHDQtzTXgcNiIH5p7Gjx8fOmYw8J2/88YriSREtnjv/Q+sRau21m7VznbUsSfYV1+PNBzhX48cZUcec3zQox52QmQR+Gf6a57EU4ZPRxmvOICvx4PzsIaMx19gEFBnySWahFdnYlUaU0dYW8BcEyqRM9p4cBkU7nIWImustEoHO/yo46x58+XCc+g9/PFA36xZ82AHeyGyBvwz/DTAMY1j2wcHTB0hKCDhbZnI4fPxXLs6GEa0adMmPPQOHdEQi8sAHfkc6LJTkTVwnK+wUptwjPMqDfxA+CPxxzdBHezRDu2FyBLw0wwIPM4ByrgpGT4eawu48gizRFiAxm+jDirwvCPMM2211VbBCCMGLDAT/4PBncpCZI1WbVcNw2McyzyevezxPyCAR8ijvRBZo1vXLvnAAJjjtQc40cEAADrMCGENGbNGdTBkQAUMNt988/xdywgS/gfDH8rf6U5lrKu88eZbqY5DZIeV23QMjj0GxzQe78JUH6l+/XJ/b5QRUNCPEFVh9Jgx+VQTwF/HxzOOe/p3+HskHPcIFHiixWL77LPPXNzJfOutt9qAAQPC5Up4oh5e9Ix1BjRkQICMmyRqmr/+mpwbzSyRlOaPKbkRUKOGDfOXaxVieu4LeunlV+y998pfhXLwgftbp05rJKV5486777WRI0clpVKuueryRBILArxEZPv+u4RhMeDxHIbJiY6wDjkSRss89gHOpp5/9j/Wts0qiUZkDfxdb7/jbhszdmyiKaXVyivbscccWaGPKMS1199oJ//jhKSUzimnnZlINffb79xt7ZBzgZnH9I477hiedbfOOuvYySefHD73nnvuWRIU8NS8xx9/PLygHwHhs88+C3cy46YGfIkA+Wab9LWbb7w2lGuCu++9PzjSVVZpbWPHjrO1e65le+6xe1JbFv9lgz122yX3YdcOl9deevlV1rpVK/t50qRw9l/oj3Hv/Q/mguKXSakw8/rHZEBAu9def8NWywXhVq1WDvt85eWXVPog/G+uLQJWIbbacgvbYvNNk5IAy7dcJYwS+EPAcYxRAWEQoIyEHw90kDGSpg1ynE399F35t1WJRZ+nn3muUleUde2ypu2/3z5JqXLgt9yixYoFg8JpZ5ydetEOWNDB4djjT7LX33wryDiGAfZl5513zvmhVta7d2975pln7O2337bjjz/e6uAHgsuReJMaEhr46SPmePx1TYEhzVdffW1XXXGpHXPUEeGLG/LR0KS2LNw/2DAhIAAEhCsvv9SOP+5ou/jC86xRo0a5UdDIUBczenTlhnT4jioLzkrSRgjzw+AhHydSOh99nP79/J3BCQ+dOhIXmQGOfdaBivTI0Z/IHqefeU6lLzHG00fhxCsLAkI86owpFBBqAu+3cQzzeMY+0+fjHgX4XFx9WgfP2sady3CWqOQjLXBG7TvAj2TdxNHWBNiHY48+MimVB3+IH3JnbQAjAETpNI48/NDcmXjpH2zZpk1tZnJlVTEWq7NYbih5VD6yzg//fPjRMnOHzz73vH054it7+513g1wVsF+XXXpR7g87//tX2/nmm2+tSZMm4Rjm3xE/BMg43pHjmK9Tt37u750LBHXq56eM8Jhh5AwQBP2hX5EtFl+8cSJVjgYNGyRSceCHll5qKduh33aJZtGj0Hts8LtAsELCiAG/BcxahKCAAICDnaMFgIVn/BiYGBxqClwr3sbN3X7//Q+5H2jpNMsF551tK66wQpC//XZCqMcfCOmCiy4JesBrdcl3338fXlhdEfhy2qzS2q6+8jLbeKMNEm3VeOfd92zc+PE29JNPg1wV9t5rj7AwusXmmycaEfPl11+HPO34xRk/jvUll29pdRs1zg2ZG1j9RsvYksuuEo59BAUSt/0q6Vdkh/PPPbtMcC8G7C658PykVBj4GnDuOWWnrrMAfxMICPD7eKIFBgQ4aaqDVWcMG3A9NoyYGBxYruwXuiDAvmAR54rLSp29H8b37LGWnXPWGfmpo8mTp9j7HwxMakvBEBJTUYUoNATst/12duAB+yalwnY1CS41u+iSy2zzzTZJNCJm6tRpiVQCfwhICPqzcz+ILU44wf43e0Yuzcyl6da2+9FWt96S+REF23mmRP2KbIATvMpQGTsGhKyAY5jHMY5/goCAwIDfA2TUhZECBJyZcygB+OMB8Y+ipjnjrHPD2kIxlllm6UQyO/rIw+31199ISiWcf+HFttmmm1jb5DHhaRQaQaDtAw8+nJQWflCogyFebh/OPfvM8LdZrnnzpEZ4MFXI4xjfE3OAE6Hcr8Am5M76cz+XErucfspv42z2rKnhrInHP3OCfkU2ueiC8xIpnTNOPyWRCpO1gADC8Z0cx96fUw8dfX9YaEYBwYEVMKIBO2CHNQ3+ABddcG5RR3zZFVeHKEdw+am3v+ra68I7IrbcYrNEk86O/fslUm50Mmu23f/gP8P2p0yZmmhLppUWNocdcpA99/wLYTHszbfets11xVEq3bquGY5fHsPIcRzj2MClxw0aNrRP//MEKkKgXWyxOrkg8YTlfhIhKBQC/YpsgrWFgw86ICmVZfvtt7XmzZolpXSyGBAIfwcAsh8AMA+/Dzg5VHoj4IMAZN9hTYERwoknHBtGMTHPPDcgv79r9+xhl195dZDBgw89bMccXTJN9J+nn805+DnhHoOKwOKjZ9iw4YlUysn/OD6RFh533nWPvf32u0F+4cWX7bHH9diRNDBPijv0/UGPYwZpRvKI+FlTp9is6dNszuxZufwPmzn116DHOhvgNCrB3f7oV2SXTmusHi4J9yy//HLWd6MNk1I6WQ4IgL8Dnhyx7IEujBT8WTWdP/O0hjUBF71vuPGW8Mdg+tcT/w71Q4Z8nD+Dxwhg00365m2OOPzQ/A/3gw8+DI+I9X0gFeLyyy5OpPJg4Tvtztiawl9FBfB367Lmmnb4oQfbobnRQ1wvzFZcofTvxR+D/1HgO6yTK+MiLhzyrPNAx98DHjUvss8Jxx1Txu+ddspJiZROMZ+RNXh8+2OdchggXHTRRXP/85//WPPmze2ss84Kb/nHTWu4uxkG/geyMO5mXhggIGFR2tO+XTs76sjDklLlwCWpn372eVJKZ15uXsPf4uefJyWl8iyXc1h0XqIEnNmv3bv0DJAHP06GABwDykj87njMc0qSdciHfPhOuRGlyC5w9lhYLva7qWxAKHbzGmY94lEnwcUxCxrc1czjmuywww7B7+MeBdzZvMUWW9i1115ri11yySVz8bJ+BoVBgwaFByMhKKAT39HfJSiQa6670X744Qc7/tijDe+dmB9++/33cn8MgnWcJZo0SUpiQbH3vgfaZ18Myzt2QCfAgIzgwOlIXoUR03XNzvboww8kJSGyQ6euPROpFAQFvEuhT58+4WU7CApXX301Rs6lQ2PgfwyFnNnfhVNOOiFE8fkNCKDpMsuEq1XSkgJCzQBHjheVpx3bnKbEvQnIOTqIQXsFBJFVvI+nzBy/BSTGgnxQ4I+EZSFqEz9MGBteLOLxQQLwuI/1f+Taob0QWSU+pgF1vg6j5bDSgqGzDwY0UnAQtYkJ40baOj17lPkRQPbHva8DsP82106IrFPIv/scdfnld8ytxsZxWYisc/+9d9qwT4fYKq1bhUVoEAcC6FH/xSeDg70QtQGumXl/Hh/7ydV4ZR1+bMToIURt4oXnnrJRX34eHH+coEe9ELUJfwkuof+nn0eqg/9Y4WWigCCEENmHvtznsYwUggJAMGC08MRBQgghRDahP6e/T/PvYTzBCgSEWC7UUAghRLbgST9yyt6/Q1dmTQEyjb0shBAi+8Cve58PvI+HnJ8+8hVpjWKdEEKI7EFfzxN/+nY+1ih/85p3+j5AUPY6IYQQ2cH7d8KAwLv4GQfCSCHN8dOAshBCiGwSn9T7sr9UFfoyC80MBEioRKJMGyGEENkkvoGNvp1l5EUfiEd8vRBCiOxBX+/9OWT4fAYLUAeFNCMCmUkIIUQ2oQ+vyJeXGykIIYSonfiAkDYAAGXuaAYoK1AIIUTtI/btlP2TslPvU4DM4AB8J0IIIbJL7PORl1lT8BGCgYCJsLEQQojagff1vCw1yPHLyZEgMwHohBBC1C7o972vz9+n4IOBDwK+gRBCiNpBHBCY59cUgA8GIA4OQgghagdp/h5rC/mnpCI4+AQ9A4aXhRBCZIs0/x3r6PeLjhQA6tM6FEIIkQ3g22P/jrK/6oj1ZUYKaTmIOxNCCJEd0nw4fLzX0+eXuXmNRt6QstcJIYTIFv5Ev5Cvhz7/zFQaUSaUvU4IIUS2SAsAMWGhGRVIbIA8lhUQhBAi26T5cfp/An9fZqRAKMcNhBBCZI80P86TfwKbfFDwK9AkbhCXhRBCZBee9NO3I0c5vE/BVxQCNkIIIbIJfLz387FPx/OPZs6cWTJS4EPxAAME87gjIYQQ2YI+3QcCPgSP1K9f32bPnm116tatGxR+CokN2YnvSAghRLagD49P8H25Xr16NmbMGKuD4QICAxRoqFGBEELUTuIT/DgoIBaUW1Pwsm+gYCGEENkm9u3w9wwUyDGlFCaVEB18MCA0VkAQQojs4wNAnDPlg4KPIDT0pOmEEEIs+sT+mwHA+32Sv6PZN/IGhYKEEEKIbOB9OkA51uEtnFhXqNOsWbO8Ig0GhLgDIYQQ2cP7ch8cZs2aZcstt5zV+e2338rcpwB8IKBeowUhhMg+3pdDpo/HRUcNGzYsWVNABZMnLgshhMgu8cm/9/sICg0aNCgNCkSBQAghaifw7wgMzOMggcAQ3ryGhEJsBBQkhBAi+9C3MyB4fJAII4UQHaLnYHjiDoQQQmSLeHTAkQF1SNCVe0czoI74OiGEENkEvjz29QgMlEH+Hc0kbiSEECLbxCf6hYBdmYVm5FDGHVS2QyGEEIsehU7003x9fiGBwcCPFLxOCCFE7YH+HcmTf8xFfAMbQV2aXgghRLbwgQBrCd6/M8/Fgjr5K4+4Ek04QmAuhBAi28Cf+2AQ+/nwPgWSdlkqGvpAIYQQInvAj3t/T78e52WigI8gNPA6IYQQ2ST24wwQzMsEBW8IGY2FEELUHuITe5SZAAcA+cdcIFFJmcYAZSGEELUH+nXv+8NIgQrAgBDjA4QQQojskObX6dO9PgQF/Bc3SDMWQgiRTeDL0/w5dIwBLOcfc+ErYqBP61AIIcSiD3x4satL4d/p48NIwSu8jDrAshBCiOzh/Trwvh2JZeT5+xS8krAT6LxeCCFEdqDjp09PCwYk/+jsQviOhBBCZA/6eUwheZ9PGYMD+vr8JJOPIMQ3VmAQQojskubDqfO+PkwfzZkzJxRgEAcCBQMhhMg29OuxP6ePZ4JdmZvXkOJG0AkhhMgusV8n9PuUYRcuSfWOPzYSQgiRfejPGSBQhuxjAPL8Jam+ARvFDYQQQmQT+nVPCALR/Qv5l+wQGKUFAQUGIYSoPdDvY13Zx4DUq4947wJAMIDONxJCCFF74GAAfj7/mAvmrCQKBkIIkX0K+XJ/4g85/5RUBgIvk7gshBAiO8CHez/u/T3w9alPSfUUqxNCCLHoE/vwQj4di85hpMAIQXwDyAwcQgghsg19eezXIeNG5nJXH3nYoJiNEEKI7OB9uQ8K1IeRgn9IEnIfDIQQQmQb79eZgzQfH0YK8XWqHnbmOxJCCJEt6OOLnezDz+fvU5DTF0KI2gkCQSEfjzpfn3rzGmXAstcJIYTIHnD8dP706X75ALNG4dHZNKSRb0jishBCiOzAJ1V4P88TfupAWFOIH4jkDUiaTgghxKIPAgD8vPfj3vf7gUCd+AU7rGBjloUQQmQT+HMfEIjX54MCFD5apKHAIIQQ2Sb247HfZywIawoQUOGjRowCgxBCZBf4du/H6euZMwaEkQILxEeQuKEQQohsEvtx+Hj6exDKDAqEgcAHBCGEELUL+Hf6eOYhKFDw8A5n6r0shBAie9CH+xyJ/p15WFOgAaHM6CGEECLb0J97vx7rkJdOJiXwZjbgA4XvSAghRHaJ/Tl8Pf19eMkODGjEMkBOYzYQQgiRbbw/9/4e5B9z4a84YgPmNBZCCJFd0oKB9/fhPoXY8SNHgt43oiyEECKb0LcT+nbv88PwgFcb0chTSC+EECIbpPlv6pAjMQ6UuU+hWGBgnRBCiGyR5r+9zvv+MH3kEwMAEspCCCFqD3EwiH19PihggcEbg7gshBAiu/DEn3Kch1jgowSVaY0oCyGEyBbet3t/Hvt11OeDAisZEDzQpemFEEIs+tCHez/vZfp36EJQAF7JRB1gB0IIIbJH7NMh+zJAOX9HM3MaUcdgQL0QQojsEfvw2MczBuSnj0IhWmyG7MtCCCGyCwMAif076vM3r/loAbwxdHFnQgghskHsv+nT4wTCSMEnVjAHPkAIIYTIFvThPoePj59mAbnMo7NZSWDkg4MQQojs4f04ZQYGynwoav6BeMAb+NzbCCGEyBb+hB+jA+B1nvz0EYDzh4yIAZkLz95GCCFENoFfj0/yvf8HRaeP0haghRBCZJN4DQFwEMBUZvoIoMyRAWUQBwwhhBDZgo6feB8PUA5vXuMCQwwDQ9yREEKI7OH9Ofx72sl+ejRwsFFaYyGEENnAB4LYr3tdCAqMHDHU0VgIIUR2if08y4wBSKkjBd+QhkIIIbKLX2T2xKOFMs8+8hVeBxQYhBAiu6T5cPh43npACo4UaIScSQghRLZhcEBOX+/zckHBBwA2oiyEECK7eOfvc0/+JTuENzIAHxxiOyGEENkgDgDM/SMvqAsjhdiQOaAxA4UQQohsUejEHnqfQOoD8WKgT+tQCCHEoo93+sT7dZ74I+WvPqJBmvOnjRBCiOxDf8+nWXj/HkYKNPBQX6heCCFENoD/9j4cMvy6f+gpgFzm6iNWMgiwE9+ZEEKI2kt+TSHOiQKCEEJkm9iP88Sf/t7L+TUFgnIZg5Q5JyGEENkh9t/w8cRPIUGfnz5iMAAwoMwGvhMhhBDZJs2vQ1fmPgUoaIicxGUhhBDZg37c+3mvAyEo1K1bN1/JAOEbeL0QQohsE/t36kBYU+AjVXnLsw8ETEIIIbILfXoa0NPvh5ECBEKZjWnobYQQQmSLOCCgHPt5UC4oxLBh3KEQQohskObjoYNf50wRA0OZZx/5ly3QwNcLIYTIHoVO6unfmcOujr/k1Ms+CSGEyC7z4sfDSAENkHtZCCFE7SDtJmQGCvp9Eq4+YmJgIJS9TgghRLagf/fOH1CHHAnBoyR85GAlEi9NZQdxR0IIIbIFnT+B7H09/XxYU4idPqIFG/tOhBBCZJe0E3z4eKR8UCg010QD5AoMQgiRbej8Pb6MWAB/X+4lO3EjIYQQtQP6eeBP/AEfd5R/zEUaDBCwUbAQQojsQufv/TpzyiDMHfk1BAAZyXfiGwkhhMgWdP705X7pgP4fedB6p+8b0pB1Qgghsol3/oQ6+nukEBSgwHwSjYQQQtR+uHTAwIAU1hQ4jIAMGBhQpqxgIYQQ2SfNvwOWy7y43xsTLwshhMgu8PGxf2diuWSI4PANCIOFEEKI2gH9Oi80ou8P00cVAZvK2AkhhFj0SJsFArxhDeSDhC/I8QshRO0Dvp1+nnh/z3qk/NVHgEpPXBZCCFE78IGBVyKVCQrAywoIQghRO/C+ncDHIxggZ31+TYF5HAigV3AQQojaBQOBDwig3EIzytT5BgoMQgiRfbwvp6/3gaHc9BHgirQ3jG2EEEJkg0KBgMn793L3KYA4IAghhMgu9OlIhDqAnGsL+ZGCNwYVlYUQQmQH+Hl/ou9lwBmiXF568wKA80eKGwghhMg+3rfzMlToIM+ZM6ckKEDgSACVcZAQQgiRXbx/j2UmMGvWrJLpIz42G8RGALIPFEIIIbJDmv+mj8cIgQECg4Q6Sy+9tP3111+h4GEnyNlACCFE9qD/jv08QB0DwujRo61OvXr1rEGDBvmKmDSdEEKI7OBP8oH399BhtMA4kAsOpe9njhsCyAoMQgiRfXwwAJSRIxaExGtT0wICgS5NL4QQIhvQz3tfzquPCOpCUMDVR8RHERCXhRBCZAt/4g8oQ08fjzgwdepUqzNlyhSbPn16PmKkBQHfUAghRLbwAYFQx3zatGnWpUsXq4OAsMQSS5QzUBAQQojaQVpQoI/nujISBgfh+qT69euHSoDGPiCkdSaEECI7pJ3k+4EAE65GDVcf+cUGNKaBEEKI7MORAGWfA/p95HX8IjOJjYUQQmQXnPjzRJ+5Hwz4QUCYPsJoIQ1GD+AbCSGEyC7w5/D7yOHnmUC5aOCdvwKBEEJkn/jEn2UGBk9OV1LJijQjBQchhMguaT7d61gOj872c00gLsdDCyGEENmikA9P8/X5MQUbpDVmFBFCCJE9KvLh9PmwCUGBDXxgINTHgUIIIUQ28AHBy4D+n5RZfSjUMG4khBAiO/iTeq4jE9bBx2P5oA5HAb4RKln2eiGEENkj9u/A67y/DyEDAg0ZEJioF0IIkU28f/c5gMwEwkgB+Dw2Yp0QQojswqkj7+chex+fDwo+CADq2dg3EkIIkR28byfw6bFfh10IG4gesUFagBBiYTNh4sREEkJUFu/D6eu9j+eJP1J+oZkVINYxCbEwmTp1mvVcd31r1XZV+/bbCYlWCFEZ4NO9L6ePJ7jyKFx9hIKvLBQA4g6EqC5uufWORCrO62++GZ73fu1Vl1nPXuvb1GnTkhohREV4v045DhDI8xesohIKVsaBIS4LUR28+dbbdtGll1vrdqvZX3/9lWjTWXqppWzppZe03Xfb1W6+4Tpr17FTeIWgEKJy+JN779O9XMc/AA8NIPuGQixI1lln7XC8nXTCsdZh9S7276eeTmrK07FjB5s5c1aQ99h9FzvvnLOs4xpdw0O8hBDFwe8M00P078i5nswyCGsKDAoMCD5qEDYQojppsvjiIT/+uGNs3Kgv7YR/nGK333VP0MUss/TSNmPGzKRkdvSRh9lO/XewLt3XSTRCiELAr/OSVOJ9PeW8hQ8GDAA+EKQFCiGqAxxns3Nn+40bN7Jvxoy0Sy+9ws4+94KktpR69erbrFklIwVy843X2jJNl7F+O+6SaIQQMfTl8ONI3t973w59CAo0oiGHGN5YiAUFjrXcwRbkunXr2DdjR9rDjz5mJ592ZtAR1KUdk++//bp9+ulndvW1NyQaIUQx+DsKv70cKDPlb17zawt169bNy4R2Qixo6tRZzEZ/NcyeG/CCnXPehYkW4BhMPw5Hfz3CrrvhJnv62QGJRghBYn8OvE/ntFL+klQ2gBESKmLSOhViQYFLT4d9OsTuvvd+K3vkpR+H9evXs8+GDrKjjz3Bhn7yaaIVQhSDvh7+HQnBoQ4LhLJGBqKmKHSsNWjQIASHv/4suVR17tzyJyue5Zo3t6+GfWLb9dvRRnz5VaIVQqRBX+/9PwjTR35Fmj9QHxyYhFgQwPHzUlMPLjWdPXu2LbXUkqE8ZcrUYFuMpZZaygZ+8K5tsvnWNmr0mEQrxN8b+O/Y+YPYt8Mmv6ZAfEN2xCTEgmD99frY/Q8+lJRKwLB24023tD12K72q6KRTTrduXbskpcK0Wnkle/yRh2yDjTez8eO/SbRC/L2JL0eNAwLL5YICoI6BIM1GiOrivnvusEsvv8pmJpebDhs2PNzhvNxyy9lNN1wbAsR+Bxxsr7z2X3vhuaeCTUX03XhDe+Deu6zX+hvbtxP0ED0hYujfkTMgIOVDR5rjVzAQNUHjRo3s/HPOslZtOtoKK7Wx7frvbDdef4099eRjdtfd91rL1u2tVevWNm7UiHk6Jrfeagt75KH7bd0+G9jUqVMTrdmRxxwfHqq3bb+dbMDzL4YpKiFqM8VmevCbQj2DQxgp+B8aDYDPvY0Q1c1RRx5m40Z/aV8P/zzc2bxWty650cKq9syAF2zsyBF22cUXzNcxuNmmfe38c8+2Tl16JBqzgw7Yz2bMmGF9+vS2cy+4KASdAw4+3GbOLL1bWojaDqaTePUR4wB8fU5fcn9CHAiA/xF6vRALAowY8MC78ePH23obbWYPP3i/vfjcU+FO56pw5OGH2mab9bWuPdYN5V7rrmPLLts03Az3yZAP7YcJY23SpJ/D6GHn3fcqd9e0ELWB2IcjIMQnWijn71NgigNB3EiIBcnkKVOs1/p9bdD779jGG22QaKvOvXfdYYs3amwH5kYEYGguGNx0861h6ggnRi8897RNGD/KZs+cZSu36WhnnXN+/ixKiKxTkR+nr0de7uY1Rg92oh+GqEnW6b2+PXT/Pda69cqJpvr48P237P9efc1eevn/wqhkyy02D+sLpH69evbcM/+28WO+Co/0XnHltnZWyjOYhKgN+EDBgADKLTT76SToUPaNhVhQ/PTTz/b773/knPVmiab6GTtyuB14yBE2ffp0e/C+u+3FF1+2EV9+mdSW0KhhQ3v/nTfsm1xw+M9Tz4TF7yf/XbmrnoRYFKHDL0Y+BkCIRwM+CDBACLGgWX+jTcMoYUHSKDdCOP3Uk6zrWuuG4/zhh+637funP2EVtrhD+uPB79upZ5xlbTqsYdNywUSI2gB9u/fvkPMjhUIGQCMFsaDB3P7kKZNti80X3CiBnHTi8bZM06bWb6ddbdNNNrYmizexO+++N6ktz0otW4Yrog45cH9r0351u+mW25IaIbJL7OuRMDMUggKcvp8m8sYAZQUGsSA58NAjbZ+99kxKC54P3nndBg/+KDwj6f2cfMFFlyY1hTn3nDNt+Gcf2+133m1rdFnLpkyZktQIsehDP05fHvt9gFmjcvcpAN9IiJrgjTdet0sv8Y/JXrDg8fB77LarbdtvR1tiiSWsdetWdvW11ye1hWnWbFkb8flQO/SgA63dap1ttz331etAxSIPfLlfL6bODwDo7/NPSfWVlJHT0NcLUZ1Mnjw551jnWsMGDRJNzXD9tVfatKnTbPiIL8PjM/A+hspy8kkn2LdjR4ZHduORHF+PGpnUCLHoQR8fn+izjDwfFML/jmINhVgQHHrE0XbxBeclpZoDZ04HHrifHXP8P6x5s2a5g9/s558nJbUV06B+fXv0nw/Yww/eZxtuvIVddfV1SY0QiybxyT2DhSd/nwIcP3L8UHg1km+gwCAWBDi+3nzrHTvowP0TTc1yyYXn24gRw8NdzHvsvpudc96835ewSd+NwkL0Aw89bG07rmFTc6MPIRYl6L/pzwFk6On7keD/y0wfsZLAALBeiOrmjz/+CMdZvXp1E828M2PG/D+zCO9naNumrT32ryfsrDNOtedffCmpmTfwKI7hn39shx9yUAgMY8aOS2qEWHTwJ/fw6fHtCGGhGYJ3/iAuC7Gg+OzzL3Jn2hsnpcozYsRX4UU6LVq1s1ZtO9oVV12T1Mw7hx16kN1ww822/PLL2Zw5/6vSs4/OPOM0e/et16zPBn3trdwISIhFFfh5P0pAQjl4/zhaxPjoIkR1cu11N9mhhxyYlCrHjrvsbhtvtqUNGz4if+XPnrvvFvL5Ya89drffciMW0L59O/vPU88GeX7p2KGDffDum7b73vvZrnvuk2iFWHjEJ/g+CDCREBRiJTugPu5QiOpi4vffWYd27ZJSxeBtau9/MDAplbDF5ptamzarJKV5p3HjxjZtWsn7Fvbdaw978qmqP9KiXds2tuQSS9jbb5e8GlSIRQn6e+/rmeffvOajBlEwEAua77773lZaqWVSKs7YceNt5KjRSamE1VbtGF6kU1Ua1G8YHmGx1ZZb2BdfDE+0VWOXXXYKOUY0O+66R5CFWFh4307o431wKFk8iPDBgcFCiOoGj7aYO/d/+TWsijj3/IvKHI9333GLvfPma0GuKk2bLmPvvfe+rbDCCvbXXyVTSVVli802DfmtN19nI4Z/aRdefFkoC7Ew8MsE9PH8LTHH7ys/fUTiyCHEguKHH3+yFVdskZQq5s5bb7JDDz7A7rz9Zvv+2zHWf4d+SU3V2WnH/vbyy69YkyaL5348ibKKbLDBevhx2YrLt7DPPhlsd91zn731thafRc0TBwD4dyZAGXX5U7S4AWUhFhTXXHdDeF1mZWmyRBO77JKLbMdcMMBjKqqT3Xbd2T4e+kmQ69erWy1vX8MjuPELatlyxXC39tuvv2J77L2/TZlS+r5oIRYm3u+TguN2b8QIIkR18vL/vWK77lwy776w6dC+Xf69Co0aN7Y33nw7yFWBw/WVW5W8MAhXNuFeiHX6bBjKQtQUPNEHPC7h0+nXUQ89Urmg4I08cVmIqoCD7/fff7fevdZJNAuXBrkzeR7hm27S1z4aOjQpzT8ll8uWfabT8ccebYvngs4559Xcw/+EID4QAPp1r6+DRT5UsNI7fwUCsaDAFTlY1F1UKPlBLGbfffedNWzY0IYNG1ZSUQWGfPRx7gdWfprrrTdesbvvvd/GjRufaISoGThKAGn+HfEgjBR4ZxuhMXW+Tojq4PwLL7G7br8lKS0a4JEX3//wYziz//33PxPt/PP4v560E447JimV0mTxxe2xfz5gG/TdTCdeosbAseZ9OWTqeBwiD88+8hRqGNsJURUGDR5ivdZdNKaOSJ3csT5n9hyrU7dumd/A/PLGG2/Zrsm9CjGbbtrXOq2xRnhCrBA1QdoxHetCUIinj0gcDKrjRyIE+HnSJFu26TJJadFhdi4gLLnkEuGR2GvkHHZV+fmXX6xli8KX3A545t/2/Asv2YyZ8/9APyEqC3x4WhCIfX+4o9m/OYoNY0MhqgtMq2y37TZJadHhf3P/Zx07drApU6da2zatEu38g99Vo0YNk1J5sHZx6CEHWLcevRKNEAsGOv80vx4HijBS8PiAwAAhRHVy3fU3hSeTLkpwAQ73P3zw4SBrMQ831aWBexHw24p/XzGXXHih/fnnn/bOu+8lGiGqnzQ/Dj/v/T1+AyiHIzZekWYHkH1ZiKry++9/hOmSdm3bJppFA7ySs23bNuFYHzdunPXfYfukZv44/cyzbeMNN0hKhcFP66PB79uue+hpqmLBQuefBo57JNiE6aP4bIaNvSFyIarKqWecZUcfeXhSWnQ4+dTTbf9997bvf/jBGjSoX+Xj/ZnnBthVV1yalIrTYoUVwlNVDzj4sEQjRPVDf068DB9Pvx+CAocNadCQuRDzC46h5wa8EO7qXZTAIy0+/ewLO/LwQ22v/Q60C887J6mZP7CWMGfWHGvdunWiqRg82A93ePv1PSGqG+/8vQz/Dxl5fohAAxoBLwtRVZ5+7jlbbbVVK5xnr2m22Hp7O/fsM2zq1Kn21Zdf24EH7JfUzB+XX3WN9d1k49wPLFFUAtwjsXbPnnbI4UcmGiGqFzp9DgAoY1DgfX3u91n6on7fQIjq5tTTzrKH7rs7KS0a4CU447/51o456gjbvv8udv65ZyU188+tt91p999zR1KqPM889S97+eVXNVoQCwT4eu/84esZKABP1sL0UUWBoDI2QhTj9TfetIYNGlbpDWnVzV9//RVemfneW/+10WPG2MSJ34UppKqAB+ktueSS1qhRo0RTeerXq28rrLC8vff+B4lGiOrF+3EuG1DHwUG5cbyPHL6BjzBCzAv/yx07WER95qknEs2iQfe1e9n1115lLVu2sK2362/3zcfZvQe/kf0POsQGvvdmopl3rrziUjvuhH8kJSGqD/pw+vQ0YBOCQhwI2Bg5kxDzy22332ldunSxVTt2SDQLn4023cL23Xtv22uP3ezOu++1Zssuaxusv15SO3/gJTorrrCiNW3aNNHMO1ttsbn99NNP+s2JBYL353FwoD5MH3lD5p40nRCV5fIrr7EH77srKS189txnP1tqqaXswvPPsUm//GLnXXCJvfHay0nt/DFz5sxcPxfZ22+8kmjmD/wemyy+pH09cmSiEaL6iAOBh3UhKAC+ySpuhHKxjoQoxsBBg8Mc+3LNmyeahcte++xvI0eNseef+U842em93kZ2z523WuPGjROL+WOr7frbgfvvV+V+wM4797drr7sxKQmxYODJfuzj89NHhIsNAIa+oRDzyvH/OMWuuXLReGH9Djvtau9/OMg+GljySIk+G25i22yztfXbfttQnl9GfPmVjRo12q68/JJEUzUuueh8+79XX01KQlQfaf6cPp91+ekjANlfQw49G9NGiMoyZcoU+2b8eNtu260TzcLhf/+ba13WWtu+HjnKxo0ueeXmxptsaUvlRjA333BtKM8v+F1stsU29vqrLyWaqlO/fn2bPn2GzZihp6eKBQP9uc/zl6SigOQjh5fjOiEqy577HmCnnXLyQj1+cLfyKu1WtVVatbYvv/gkvEh/05wTn/TrL/bKSwNKjKrAZltuY9tvv5117NA+0VQdfF+4r/TzL75INEJUD/FvMRxriY6+Pn+fAhR+6oiwAXMhKgOOpcGDh9ixxyy8O3RHfDnCWrVdNee0t7Xnn3sq6P77+hs2adIv9sUnQ0K5KvzjpNPs2wnf2V2335xoqpO59sCD/0xkIaqG9/OEPp063twWxgtswEa+YVwWojKcd+FF1qd37zAVsjA4+JDDre9m29h111xpt99Sumi7z/4H26AP3s7/IOYXPKfo8Sf/bSM+/zjRVC/4xb2WC2BCVBf043FOUMbvIj99FBsIURXuufdBe/jBe5NSzfHpZ5/Zym062A8//WwTxo20vffcPanByOFLW3rppebrbmPPmLFj7YCDD88FhKHhmUXVTclvca79+utvJQohqgj9O3J/QhSCQG6EgJxyfqSQRiG9EMX493+esdatWlmTJk0SzYLnu+++t/U23MT23u9g++zjwfbigKfLjVL23f8Qe/SfDySl+WPSpEm2/kab2Zuv/Z8ts8zSibZ6wTpI7tcXZJ2sierEX0gEcHzxGMOUbz4oAAaAOJIQHZyispx48qn27DNPJqUFC47L9Tfqaz3WXc+OO/ZoG/bpEFt22fQ7iid+952t1b1bUpp3cEVQ1x697MH77rY11lgt0VY/F196Rf73NnnKlJALUR14Pw4/zwQ4YigbNnJAiYZxEGBDIYqBRVycceDFMZ7TzzzH3v/gw6RUPeCBdqu0X81atlzJvv92THhkRSHw5FEc0/GZUmWZPn26dVh9TTv3rNNtyy02S7QLhoceftQevP+e3Einnv3xxx+JVojqg/6dvt6n1KAA8OOBAcoMFEJUxLkXXGRHH1X+zWr/fOQx22nXPW3mTEyNVJ2Ro0ZZx9W72llnnGZPPv5IhSctv/zyq9VJ7tqfVxB82q3ayS6+4Dw7qgbeGjdzxkzbZqstrEWLFuFeDyGqA+/H/e+FwYB1+cdc+ArfmDohKsPTzzxnJ594fFIqhScZhx15dKKZf4YNH2Eb9t3C3n7z1Uo/6nrGrJnWsMG8XwmFKadV1+hmV195uR10YNVevlMZ/vnIo7bXXiWL482bNbOhQz8LshBVhb49BjrqkYerj1hgRRwEfJ0QhZg8ueSsttjzf/AAuqrw5ptvhxvGXn7h2Xl66iqmtBZbbN6mjj4eOtR6rLOePffMk7bPXnsk2gXL6Weea1dcelGQO62xerhiSogFAfy89/8A5dwJXPkfig8AkH1jIQqBJ4VWdPJwxKGHJNK888UXw8I7lD/9eJB179Y10VaOubmgULdu5YMCXrqzzfY72ZCB79k6a/dMtAuWU88429Zdp6c1aNAglFdffbVwtZMQVQW/y0K/zTg4pP5KfABQMBCVZamllsz9n368rNSyhbVt28526Lddopk3xo//xjbdclsb+P7btsLyyyfaeSC3WxUFLDJ8xAhbb8NNw+O0W628UqJdsGAh/KF/PmKPPfxQoimZcsMCtxBVhY7f/wYYKDgwoK8vExSorOyPRwgPbuTCGXkacOYD35u/O3QnTJhg6663kb3131esdauVE+28MWcO9qvi4xqv5Nxk823sw/feCtM3NUXPXutb/x22t8aNS2+sw+PGBw35KCkJUXXSTvL9441Qn3/2EfCyEPMDpj5+++33pFQ97Lz7XnbwgftX6d6AadOn5c6Iih/b33//g/VYd3175t//srY1+C5pvJP5xx9/srtuvyXRlDA9t8+zZ89OSkLMP2l+PT8ySEYKyGGXv/oIxFEEdWmRRYhCXHHZpbb7XvskpeoBj3vYd5+9k9L8gWBV7FAe/803ttY6ve3VlwZYnz69Eu2C59dff7Wdd9vLRn35eaIpZeasWda4io/kEILEgYG+Pc7LvU8BMhN1IG1BWoiYvffa3YYNGx7OuqsDvAth6pSp1rlT1aZy6uEeheSYjvnrr8m2bp+N7JWXnreuXddMtAserCN0WWtde/jB+1IfCYI7qFdbbcHdOS3+PsCfl1yBV35miL6e5B+IR2CEAIDk9XFDIQrx4ftv5866+9io0WMSzfxz+plnW9+NN0pK889imDoqe6IU+OPPP22NNbvZU08+Zl271FxAwO+pU5cedtQRh9kWm2+aaMvy+htvWfcqPJZDCMIAgMBAXx4HBMrh9D92+L4hictCFAIPw/u/FwfYRn03r1JgmDx5cvLIh7sTzfxTt149mxXdTT116rRcQFjLrr/uGlt/vT6JtmbYMPfdrLvu2nbOWacnmvJ8+ulntutO/ZOSEFXHBwLm0DFHCkGBSk+sS7MRohDduq5pY0aNsH32O9AOP+pYm1PgqqRC4IBdb6NN7bWXn6+WdzK0XHHFsHDrWbVTV7vognNst112SjQLnvC5NtwkPL77nw8Uf7T4r7/9Zq1yAVaIquIDAH25lwFk2OXvaPb4RiTNTohiNGrYMFyKuvWWW1jrtqvaMcf/IzxHqBhwhFddc721bN3ezj7jNOtSTVM64XLZ3D9efnfMcSda3403tEMPPiiUawJcSdS5Ww9bqWVLe+3/Xki06fz8889Wt25dazAfj+YQohDej0P2l6OSctNHkH0iPkAIMS/svFN/mzh+lHVo1y53dt7NVuvcLdy9e/c999qjj//LTj7ldFs/d/a8cpuO1qX7OuFhdyNHfG577L5r0kP1sNSSS9mPP/0c5Keeec7uv+fOINcEP+W226bDGrb1VlvZk/96JNEW5u77HrBNN9k4KQlRPcQjA15ABJn+vsw7mj2+MYjrhZhX/nHicfbdN6Pt7jtutaWXXMKefe4Fu/Oue+3biRPt9NNOtpFffh6CB+qXWKL6X9CD9y0cevhRNmjwkHCnck29KvS999+3bj3WtZuuv8auu/qKRFuc++570M447ZSkJETVoU/3vj3txD+/pqAgIGoCHGcbbbiBnXP2meFl+m+9/oo98djDtkO/7Rf4NflHH3m4DfnoY9t51z3t2ko656py/Y0326577GNvv/laGDFVBlyGO2Xq1Bq9o1rUfuDTmUBacICuzPQRch8gfCMhsg7m6JFwU9iSS+A5TQuWPfba16674SYbP/or69ihfaKtmPMvvMg23aSvfn+i2kgLBGnrCSA/UmBAQO6DBNEBKmoDxx97dO5gNps9p3pe9pMG3rHcfrVONnL0WPtmzNf5p55WFryQ6JorL0tKQlQfPjgweT8Pyjzmgngd5bihEFnk5H8cH47pkgfkVT8jR40OC+YHH3igfTzovTK/pcqAl/pMmzbdWrRYMdEIUXVwHDIB+vPUq49gBAN/8PpowjpfL0RWweJywwYNcwd3oqhGLrn8inDDHp6wevaZpyXaeWOPvfazfffZKykJUb34k3sEBPh1PgiPhPsU6PyBDwDUIfedCZFl9tx9V7vl1tuTUtXBdNFaa/e2e+97yMaO+nK+n7CK+xgw0rjq8ksSjRDVR+zDvZ/3Pj4fFGiQRrE6IbLGySedYK+/8WZSqhqP/+sJa9V2Vdt2m61t7Mjh1qhRbhQynxxz/InhnQpYDBeiJvDBAH4ecpmFZuLlvKGekipqCXxzG56tNL9gdLB27/XtrHMvCK/svPTiC5Ka+WPWrNnhvo3bbr4h0QhR/cS+nif8Pq/DhQYq0cAbsOw7EiLrdFlzTbvltjuS0rzx/Q8/WLtVO9kG669vY74ebiuv1DKpmX/W33gTu+PWm8LjOIRYUHAdAaTdzQzKPfuIDYSozVxy0QV27/0PJKXKg8dydO/Z266/5mq74dqrEm3V+HjoJ/bLL7/Zjv37JRohFjx+AOCpg8UtPzUEQwYKNvI6IWoDa/fsYZP/mmwzZ85MNBWDO5NPP+McGzr4A9t1lx0TbdX4/Y8/bJvtd7Qvv/gk0QhR/dD5+yAQ+3XK4ZJUBIVCTl/BQNRWOnboaI889nhSKg4edz1+/Dc2fsxX1rJli0RbNbAu0WnNtey5p/9t9etr2kgsWOKAAKDz+hAPMMfkHX9swNzrhagN3HjDNXbtdTcmpXTw21iza09r2rSpDfrgnWq94GL1zt2s3/bbWa911040QiwYcBwjpfl36mkTjvD4QGcQgAGgsRC1ibW6d7Nffv3VpkyZkmjKMnXqVFu5TXtbbbVV7YXnnsr9JpKKKoJ3M/dYu7e1aNHC7rz95kQrxIKHftwHAZ+gz9/R7KeQvAGSELWVDddfz+66576kVMqkXLBo27GTnX7qKfafJx9LtFVn8uQp1qbD6tahQwd7963/JlohFi708yEW0Pn7S5Xi4CBEbeXC88+1K6++tsxxjjN5TBmddcZpJQ/QqyZ++OFH67D6mnbk4YfZE48/nGiFqBmKneD74z//QDzfoNB0khC1jTXWWD08BumPP/8sUeRot2pn696tq51wXPUFhIsuucy69exld99523w/F0mIqhCf4Me+n3kYKdDYyz4QeL0QtY2ePXraU089E+Re621kzZZd1l5+4dlQriq45LvTmt3tn48+bqO/Gmb9ttsmqRGi5vD+vBDw8bAp8+jstCBAXXVedSHEosROO/Wzp555xh56+FH7dsJEGzLw3aSmatxw40220iodbMuttrSvh3+2QF4xKkRliX06gwDwcSB4el9JUGZwgMzHYQhR2+i9bi8bPGSonXr6WfbYIw9W+QRo1qyZ1mH1LnbN9TfbsE8/Cnc+l/11CVGz+ICQJntdPigU+iHASIjazEortQy/gQ7t29vGG26QaOePu++9z1Zqs5qtv15vmzBupDVv3iypEWLhEvtyBoKYEAm8cSyjYaHGQtQG8OIdHOt33XFLopl3fvv9d1u71/p27vkX24CnnrAH77s7qRFi4UNfHpOmC2sKvgFylImXhaiN4BDHcd650xqJpvLg93L6mefY6p27hyecjh/9pfXqtU5SK8SiAf26DwIop11pWu4xFwC6NL0QtZVGjRolUuUZNHiItW63mv37qaft1ZdfCK/hbNhw/l+yI8SCIg4IAGUk1AHahJEC3vTkK5iE+DvwyaefWeN5CApTpk61Phv0tf4772GXXXJhuNS0a5fOSa0Qix4+INC3Y5QAmRcR0abM2IGRg5VoAFkBQtRmrr3+JjvqyMOSUmHws7j62uutXcdO4UTqmzFf2n56yb7IGPTvnA2if6e/L/OSHSiZQFwnRG3k3ffet8MOOTgplQe/gwceethatm5r9z3wT3vnzdfCc4uwQC1ElqAfT/PxAPpyVx9xKAF8w7ixELWBL4YND+sAjRuXnz7CMf/I44/ngkG7MEL4ePAHNuLzj23Vjh0SCyGyCf259/3Qwf/ngwIrfa5AIGo7Bx5yhN18w7VJqYQxY8fZtv12shat2tkFF15qHw18P9yE1mLFFRMLIbJJmk/3OjwMssyzjzzQ+SgiRG1k4sSJduoZZ1nXtdaxlVq3txVWamMbbbKFbbzRhvbt2K9t5IjPq+1Na0IsLPyJP+GJP/WMBfmRAgODb5imE6I28eC9d9nhhx5ip596kn2RGw38MGFsuBMZZa0ZiNoCHX6MDwz08/kH4hVqANhIiNrGlltubqecdILts/de1rTpMjrORa0Ex7VPgD4/PubzdzTHhkDBQAghsg98OS9B9RcTEe/3y71PwQcIn/tGQgghskWaXwexby9z8xqdvw8SCgZCCFH7oG+H3/eBIn/zGpXEl2ET1wshhMgO3vEzp0wfjzysKUBgcABxmTZCCCGySZoPh84HB+RhpEAFiA2QFBCEECK70Jd7f+5zL+fXFGJD4GV0JoQQInvAl/tEKNO/I89PH3klYR3wHQkhhMgO8OX07Xyxjvf19O/5Zx95fIAQQgiRfeDX4xN8+nnv8xEw8lcfeUMaUSeEEKL2AT+PxBva4PPzj7mI39XJwMAkhBAim6Sd4CMQwLfT15OiC80eBQYhhMgmaSf3cUCAHKaPWBk3gEFFgUIIIUR28AGAU0bUMQ9BAS9WYBBggGAiCgxCCJFd6OOB9+/xA/JCUPDBwDt/34kQQohs4k/wCf096+jr84/OZgCgTNhACCFENvE+nXChmVAuc/MaFhnYmAZxWQghRPaAD6cf97IH/j7/PgUm4mUhhBDZBQHA+3jksQ5Azo8USFwGaTohhBDZIF5MBpw+wgwRchDKFDxxWQFBCCGyC306fLkPAEj079SXCQqoVAAQQojaSxwEgPf7ZdYUYtjINxZCCJF9Cvn1Mq/jZCKsSwsYQgghsoV/xh3WFPyAgL6/zM1rlIEPDkIIIbJLmn9P8/GoD0Ehvj8ByQcKIYQQ2YX+naCMkQKvSvL1pWOJFOKOhBBCZI+0E3zoeDmqT2WuPiJp17QKIYSonTAgYCCQGhRoQFkIIUTtwvt2BAMk6MoFBU4Z0UAIIUS2oV8Hhfw6r0zKv44TxIEAZQUHIYSoHVTky+Hvyyw0o0FaEIBOCCFEdqF/9/7c+3r6/jJBQQghRO0k7eQ+7aKifFCIL00CvkydEEKI7EJfjiDh71FjHoICK/2NDGiInIZCCCFqDwwOPOmn38+PFGLn78sKDkIIUTugL/d+nfmcOXNKRwogHh0wkgghhMg2HBHQr8f+HX6/bt26pUEhzVDBQQghagfw53zeEXw6yrGPR55/nwJgI1T4QMB6IYQQ2SU4fbe4TPx6cn5NATAQKAgIIUTtxPt3DgCQqC+30MzAACh7nRBCiGwSBwTgfT9SmYVmD3TUp9ULIYTIDnT6XoZvpw6gnH8dJ/EGhB0IIYTIHnEAgBwCQMr6QhgpxA7fl30nQgghsgcDQuzHucDsKfOUVDZiQwUEIYSovWCk4IHPD9NHhZy/DxBCCCGyC305/T3vWYhjQLnpIy97CumFEEIs2nj/zSCAu5eRI/nAUC4o+GjiE/VCCCGyhfff9OdMKHtCUMC8UlzBBiSuF0IIkT3o1xkQ6OupDwvNXoGyDwBxAyGEENnC+3T6fOS8+sj7/dRLUuMA4BsIIYTIFvTp8OMMCMwJF53D1Ud++oiNSSG9EEKIbFHIvwPIiAVhpADDYsYKCEIIkV3gz9P8eKzLB4UY3wFylH2QEEIIkR3ox2Pim9dSgwIDgo8gcVkIIUS28Sf/gCf/+aDgo0ioSCIIDYUQQmSb2JczKHh9uCSVq86AlyihjDqNEIQQonZAf86cJ/8oMwUNnL8PAMh95KBeCCFEtvH+3vt2+v0QFFgZFLnI4Y19cBBCCJFN6Mvp62OoywcFj1+RZgcKDkIIkV28n6eM3Mvw8/n3KTCnEcrMqRdCCJFdYj8O/+5jAOrDkIBTRqwAvrECghBCZJs4ABD6d+TQ5+eJvJFHAUEIIbJPfKKf5vOhT11TSAsEhYKGEEKIRZvK+G/a5EcKDASMIExCCCFqH/D19Pvw9fT94SmprAAMBmkNhBBCZBP48RheaYqblllf7uoj4INBWr0QQojsEJ/4M4fe+3mQnz7y0Mh3pJGCEEJkFwaAQn6dcggKPkrwOUi+A99QCCFEtqCP57PtAPy6v1GZNuXWFOrWrRsqGRAAjYUQQmQP+nIfBEAcJECw8EEBMpMQQojaQaGT+9jX58OGr/CNOWLQaEEIIbILT/Zj/84y83D1EQtshEQoe50QQojsAV9fzJejLr+mEAcHwDLwshBCiGyRFhC4xkD/jjyMFGJD6GJ9bCOEmH9mz55ta/fawLr37G2duva0Vdfoaiuu3NaWb7lKwXTDTbckrYWYN7zT9zlvWqN/Rx5GCh4YsAFg2euEEFUDP8Zvvv3Wvvv+e5s0aZL9/scfZa4ESUO/QVEV4OuRcBwF558bJfhjirFgsTPOOGPuxx9/bCussIIdeOCBNnDgQBszZow9++yzpUZJw2GfDgm5yCZnn3uh/fjjD0mpatxz1+0hP/Two0JeVTp16mQnnXhcUvr78MKLL9lBhx6ZlIpz9pmn2QnHHZOUhKg8nbutnffnAHL//v2tefPm1qtXL2vXrp1tt912dsstt5QGheWXX94OOuigEBRGjx5tAwYMyJ+5KCjUDvbYe3974823klLV+Om78SHHtEZ1sO8+e9p1V1+ZlP5e4Ae6wkptklJhFBTE/IIpyhgEhWWXXdZ69+4dgsL2229vN998c+klqfXq1QvOn8njI4zILv969CH7ZMiHtt8+eyWayoNj4pyzTrehQz6wHyeOS7RmP0wYa7ffcqMt27Rpoqk8u++2iz32yIM2cfyov21AAPhujz/26KQkRM3hfT79fJk1BcpeB2OgwFA7aNmyhV179RXhTP+4Yys/9YNAAMe1UsuW+WMCYF5yl513tC+HfWLfjv060VYMAsEtN15nm23S1+rXr59o/76s16dXIglR/XinT1D2ibpyN68h548+rSNRezj3rDMSqThnnHZyIhWnYcOGtvjiiyel4igQCFFzBGcfLSzHoA4pf0lqbEy9EMsvt3wiVcyqHTskkhBiUQL+nD6dAcDDOJD6mAssMNNACCFE7cEHB0A/T30ICv766BApkrvcFBiEECL7eD9O/06/zwBBm1DrnX98Aw0bCLGogWNz9uw5NnPmrJBwl3B8/NYUJfsyO7cfM23OnDmJdtEA+4Z9mjUL39PMhf5diZonzY+nrTHALqwpoJKNYiNSSC9ETXLLbXdYy9btw/0RuLa/Zet2tnKbDiFBz0dFoK7XehtXykHvte8Bts32O1rfzbe29Tba1Fq1XTX01SLXF/pbMdcX+uPjJnbcZfekpdnnn38RbEr2pX1uPzpai1btgh30733wYWJZs+y174H5/cC+QV5pFXxPHVO/q3XX2yhpKWor9OH09ciRcHJAHWJBucdcgFiHztLshKgp+u+8W3BgF11yeTjL9Zx/7ln24oCnrdmyyyaakmN47LhxwRnCAf7ww49JTXn++/qb9tHHQ2348BE2atRomzFjRtjGnNyPBT+Y/+X68sf///5XIq/eubttttV2Bc+4od9plz1slfarJ5oFT6euPcL39N/X3ygTEBs0aGAP3HunHXP0EYmmFHy2cePGh3b9dtw10YraBv7O8ck9dBwx0M/np48IK31jXy9ETTJ16tRwJvvBh4MSTVm+/GKoHXPUEbZ2zx42IievvtpqSU0pcPBde6xrG2+6ZaIpy/jRX9o9d92WlCrmm2++Dfv062+/JZriTJs2zVq3K79f1Q32adKkX5JSKXib4oRxI23bbba28885yy447+ykpjwDBw227fvvkpREbSMODLGfRzk/UvCBADqvF2JhMCUXENp0WKPoSQlu0/f899UXE6k8I778ytbsvnZSKqVx48a2w/bbhRv6KnOfBR5ihycAXHrxBfb4Iw/aiiuskNQUZvr06XbwYZV7xtH8sGqnrgW/J4wYJk+ekpTMjj7y8ERKZ9DgITY9N1oStZPYt8c+PqwpEBoj9wECKDj8fbnuhpts3wMOqVQaNnxE0qrqtOvYKZHSufjC8xKplPo5Z12Mn3762Q4u8gC6xx95KJEKs9JKLcMd2YcdcpBtuklf+2zoINtyi82S2sI8/8JLiVT9/P77H4mUzl333JtIlWO/3N9S/D3wawogjBTg8OOAEAcD30j8vZgwcaK98uprlUq4wqU6OOnUMyo85g7Yf99EKssaqxefqnn+xZdsypTSM2dP61YrJ1JhevZYK5FKefjB+xKpOKedeU4i1SzTciOVeeGDDxfOArlYcFT0e6LfLzN9BJlBwAcDyuLvS5Mmi1cqVRcPP/JYIhWmbnK9dUz79u0SqTAb9N08kaqPpk2XSaTCPPLo44lUvey91x6JlM6xR8/b1BUuWxW1i9iPe9+PxAsmylx9xEa+MWRvI/5+4AmmY0eOqFTq3q1r0mr+wRVAlYE34cQ0rcQTWydO/C6Rqo9TTjoxkQpTXSOpmBuuvcpOPD79sdr33X2HLb3UUklJiFJiXw/K/Kq88+cIgbkQNcUtt92ZSMUpdFwuvXTlHODkyZMTqXrYaMMNEqk4C+ok66wzTguL5XHafrttQv3o0WNss622DZeeir8fab8XHItMJP9APCSeedHAGyowiJri7XfeTaTiFBoprNWtWyIVZ+zY0vdCVAfNmzdLpOJ8O2FCIi1Y8Pv9eOgn1mWtdUIg6LPhJvb558OSWvF3A8cD/Dh9uc+9PgQFzCUh90GAUJ9WJ8SCANf1VwVcl18ZqnvevH69yj0OHO9kXpDg0tt2q3YK9y1svV1/+/HHn5Ias5136h9GD+LvC305/X5MONWKz7i8oYKBqGkWq1P+QJ0X4jueC1K1zZSn0v1V94ZLGDHiyzAiwE16/r4EgmBwx603JaXiVDawiuwQn/jD76f59xANUCHnLxYVVli+cu9v4NUSMZ998UUiFQdvoatO5syu3IPw1lij+h97cdyJJ9nGm22VlMpz8w3XJlLlwGMxRO0hbUQAn+/1kJHy9ymw0gcI30CImgIv8a8MhU5k/vzjz0QqTosVV0yk6mHa9MpNezVu1CiRqgcEx3898Z+klM4eu8/bM40UFGoXab8V+Hfv7ynn72guFACgZxKiJjjkoAMTqThpBzr448+KgwIeU1HdfDz000QqzIJwthtuskUiVR/Nm1Vu0VxkG/yGvI9HCtNHEAr9wBg9CtULsSBYbrnmiVSYQtNHlbm6563X/y+Rqo+XXq64z+uvuTKRqo/qvooKNGrUMJFEbSHNh8P3A9Tx91Tm5rUY1jGCiL8nc+ZUcuE2R7NqOsMc/ME7iVQYPK00jY8+GppIhenYoSrvkk7/LTz576cSqTC77bpzIlUflV5YnwfqaKG5VjEv/jv16iPig4FGCn9frrzm+kSqmI8+/jiRqgaeVnrOmacnpXROPyv9OUIVHavffzsmkeaPF196OZFKqczlrUMHf5BI5fmjEusghR4fXpmpsDW7r5NIZtv22ymRCvPVV18nkqgN+BN8AjnttxJGCnwZR1oDJlH72HHn0jeIFQPX1V91zXVJqTDfffd9hU/rJB3X6FLh/QjHH3e0HXrIQUmpPO+8+34ilfJwBc8WQkCo6uWWODO/4657klIJ6220SSKlc9cdt4SnqxbiyGOOT6TCvP7Gm6nrJT3WqvhmvZ9++ilcroo05KOKAzde2/n4v55MSiLrpJ3c8z6F2L/n1xQAKtMaQ0e9yC6nn3lOeAsZncP7Hw5MairmmutuzLfruEbp8416rLteXt997d6JtmJwZow3krHtjbekv+TmsosvsOeefrLg8bfjLqUPgkNQOumU9NFF69atwnX61XX9/XkXXGydu61t5114SbhJrNBUFnjjtZdtxx36JaVSPsh9/9vtsHP4/JU98eq4epdgf+wJJyUas+efrXjayoO31K2zds+kVJjj/3FK/u/z2++/J1qRRdKOL/6mvM+HXOYpqSAOBqL2MHbc+GqZf/7jj9LRwIQJExOpaowfX/gu29691rUfJ46z4489utxU5/sffJh3XGlBaaWWLcOD+oZ8WLlHZ1SGXXbe0XbdZSf7+eef7Y477y7o0LffdpsQiDp3WiPRlGX8N9/Y4CEfJaV54/33yz7aGm9Wq+j32rBhw/A94i11Lzz3lLVoUblLctFvo1xbkW388YFjFsn/nli/2CmnnDL3k08+sVatWtm+++5rAwcOtDFjxthzzz2XP9iZD/9s/g5gIaqbW2+/054b8IKNzh2reGUnDlE4vZVatrBOOSd8xaUXW7NmZd/KVhkw2qhoxLNDv+3snjtLRjZ46und99wfpmQwHO/de1074rBDFtoJ1YP/fMRuyo26vv/+h7APeJz3Oj172n333JG6T9jnw448xj799DP78aefcp9ntjVs0MA6tG9n22yztZ1y0gmJpcgynbqWjAxxDNCf9+/fP7y5sHfv3tauXTvbdttt7bbbbrPFTj311Lkff/xxbnjdukxQGDBgQDhg2AFQUBC1nXkNCkJkAQQFHxAAggKuFuzVq1cICtttt10ICmH6iM4fiWcTvrEQQohs4316mp9HHABlHnMRG7JOCCFE7SH27T4OpN6gEBsLIYTINnT6MV4Pf19m+oh4uVBHQtRGKnN11qeffZ5IQmQD+HD6dR8A4hx1qSMFf5kSDGksRG3ngosuTaTCjB//jf32m67bF9mBPpz+nMSXpGKAEDSx02ejNJ0QtQ1cTnr0cSdaq7ar2vMvvpRoi7Na527Wut1qdsBBh9l9Dzyk34dYpEk7qccxi6dZxP4//45mwAqWY70QtRE8C+jf/3naZsyYkWgqx/Tp0+2l/3vFzjjrXHvq6WcTrRCLJvTnBGWMFBgDWJ+/o5lKlgkDggKDqK18+cXQKqeddtwh6U2IRQ9ebgq8T/f+nvowUmACzAHkQsFCiNoC7uqsaoofvyHEooT384V8OX1/GCkgIZKwASu9zFwIIUT2oK/3Pp06Ajk/fYQzHcrM2UgIIUTtAD7d+/34hD8/fVTI+ccNhBBCZBN/wg98gEAOff4xFyA2ZFJgEEKI7OPXvmL/zjxYxMEgHlJAJ4QQIpukndin6UB+oZn4tQWPAoMQQtQe6NN9cIC82EknnTR36NCh1r59e9trr71s0KBBNmrUKHv++efLXNsKhn06JJFqksVszszFE1kIIbJL3QZTc//X/Ak2Xh0bn9jzfQp4yU7btm3D+xRuvfXW0quPYqBnYnlhoIAghKgtLCx/5h96ypEByl5P8msKqCjk+AvpFzRz5+qGICFE7WJh+LUwLeSCAfA6AD3KddIiCKAc5zWKgoIQoraxkIOC9+Ve5pVJ4T4F4CsBA0WcCyGEyBbw30jw84V8OsthpBBTKJIIIYTILj4QFBoIlBvHxI3iaCKEECK7MBjQt3sfDzkEhTgQ+Ea+LIQQItvEQSD27/nHXPjcNwJxWQghRPaJT/oh56eP/J3MPjAoIAghRO0gzZ/Hfj+/0BwbM4IwivhoIoQQIjvQv/vn2iFnIKCvRyrzjmYCXUxsI4QQIhvQ4Xs/Xkguc0kqKtgwLVgIIYTIJvTnsV+PBwH5q4/iQBCXhRBC1A5iv+79fn6hmdECOeedaMg6IYQQ2Yc+Pc3Hh0tS/eIDyvFdzmwohBCidkDfD+D/mYIGgr8KCWXmgLkQQojskebDERDSrj7NBwUfAHxgAD5ACCGEyBb05d6Pp/l5kF9oJmwUd+JthBBCZI94acBDXx+CAoYRcPqx42cUobEQQojsAl8e+/O4HO5T4EIzUhwcqIsbZoEvhn1RLhWLlEIIUVvxPp5l4P095HBHc7zI7BtS5xtmhbvuvtvW7LxmmcTV9gXNEUcfmUhCCLHwgZ9P8+MMDvT9+aekhoKbRkI5zkXlmTVrViIJIcTCJ/bh8Osg1pd79hHK/myadd6mNoIz+0suu9SuvvYa+8cpJ9sxxx2T1Jj9+eefdugRh9nDjz4S8p8n/Rz0M2bMCOVHHnvUDj/yCJswcULQH3bk4WVyIYRYFPABgL4/Dg5hTYGJBj4AwJApa0yZMsWOOvboMqkQOLM/68wz7dSTT7Hrr7nWtt12O5v0yy+h7sST/2H33Hm37bv3PiE//cwzEv2JobzPXnvbXXfcaR99/HHQ333HXWVyIYRYmHj/TRl+3vt2lstMH6XBIIGUNZo0aWK333JbmVSMOouVjpC222ZbO/e8c4O85eZbhpxsteWW4fvYc/c97fwLL0i0Zv377ZBIQgix6ED/7X25DwaeMH0E4jymkD6rHHzYIfkE0hagZ8ycEfIVVlwh5KTpMk3tr8l/2cYbbRxGFv95+qnQz3kuQAghxKJGMT8PHQJE/tHZzIFvQDmOJlnnvrvvzSfgPz/ZYP0NQv72W2+GnAz99BNbasmlgrzEEkvYLjvtHPr54Yfva933JISoPaT5J+qQz5kzp+TmtdghMmKAv5OTe+bZZxLJ7PAjD7cD9ts/yD9PmhQWlcHMmTNt/PjxQT7m+GNt2rRpQQb4QtMisBBCLGy8L4fMMn0WcqythqCAAitgSOdGHchicNh+u+3slVdfKZO4eJzG+uutb/845SQ7/czT7cYbbrK6desG/S033WKPPf54uJro0ccfs9tuvjXob83pMXV0+FFH2BVXXREWncl5Z59rb739VlISQoiFi/fnwN+CQCAvduihh84dPXq0dejQwfbYYw8bNGiQoTxgwIAwgkBHbDT8s49CXlPM/V89+9/shklpwYI1AU4lCSHEgqJOvRm2WJ3ZSalm6NS1ZyKVsuOOO1rTpk2tT58+1rZtW+vXr59dffXVCBbpN6wRBgQhhBC1h/ikn3kICkjEG/2d0ChBCFFb8Sf6aSf91KEcogEEb+iDBPH1QgghsknaST90jAP5+xQ8HFYIIYSoPXi/Djn28/D9YfqIUQLQMC2aCCGEyB4cBTAn3s/T9+cfiBcb0oD4xkIIIbIJfXkhn54PCt4g1vngIIQQIpvQl8e59/XhgXgkzQB4GyGEENkCvhx+nE+v8D4dsvf1YaTgDWnsGwkhhMg+dP4eBgzW5R+IR1gRGwohhMgmPMn3/jyW6fPzVx+lQSPfWAghRDbxvj72+wwMZdYUQLFGQgghskt8gu99POvK3LrMSMFE0NCXhRBCZA/4cgYC+nmWmeeDQr169cKCMxv5hoBlIYQQ2cX7dO/XGSDyQQEFRg7AXAghRO3ABwEve8JCcxw5GDGoAwoSQgiRTdJO9uH7gff/IL/QjApfGXdCOyGEENki9t8oe99PIJe7+igODMwXBtg21jmUlJSUakuKfW5NAT9OX+59ut+f4O+PPfbYuZ988ol17tw5vI7zgw8+sDFjxthzzz2XNyI1/TrOIUM+tZtv1stvhBC1h+OOO8TWXrtbUqoZ4tdxwq/jdZzLLrus9e7dO7yOE+XLL7+8bFDYfffdwzuaR40aZc8//3yIagSd1HRQEEIIUXXS3tG8ww47WLNmzUJQaNeuXQgKl112WcnVR35IwZEBcibghxtCCCGyDf09fTyAXGahGTLyOADEDYUQQmQX+nvKgOUwUvAO3wcAGsdBQgghRHbh0oD37ZTDU1LTKoAPFkIIIbJJfGKPcqzLjxRQETv/2Bik6YQQQmSDQn6d/j8fFCB4Y5R9kPCNhBBCZI/YrwOUOY0Emb4+BAUmgIo4SCgwCCFE7cH7eD7qiL6+3B3NKHudNxZCCJE90vw8fDqSX3RGCmsKVPicxJ0JIYTIFml+nYnABgEiP1LwOZ+eR+IOhRBCZAf69/jkH3msy3t/X8HhBPHRRAghRLagf/cU0uUfcwHHj5xJCCFE7YB+3Z/g0+dTJmH6iNNFkJni4OAbCSGEyA706yD26/T3LC92xBFHzB0xYoR16tQpPCX1ww8/tNGjR9uAAQPynbDRsE+HhHJNM2dW49xOlF3nEEKITLHY/6xu/WlJoWbhU1K98+/Xr581b968zFNSL7744tJnHzGhURxJFiZzZi2ugCCEyD45PzZnZs6fLUS8P499PUC53NVHADIT8XKNgWAwt+xOCyFEdsn5s4V8kgtfzmAQ+/V8UMCagl9XALzLbWEyVyMEIUQtY1H1a/D9IR74AkEw8GUhhBDZBT7dn+TDv6ed9EMXHp3tSQsIcYdCCCGyA0/8Yz8el2FTbhzjAwJldiiEECKbpJ3Ye9/O+vz7FHwD6jxpHQohhMgGaSf23vdDDuvLLHhYKYQQonaQNgAA0DEGBN+PNYW0UUDcmI2EEEJkD+/4Ca8y9b4+PxyoTGAQQgiRXeIT/dRAgf98pW8EGXoFBiGEqB34AOD9Pv19/uY1bwhoQBQYhBAiu9CH+zzNr4eggOQrqQPQ+7IQQojsEd+TBujXvX9PXWj2Vx7BuFBEEUIIsehDH+6dP307QRkpeP+06SMhhPi7cvudt9vBhx0S0rXXX5tos4v37wwEzBkcmPILzTQA7IBGChhCiL8Ds2bNCoFg8JDSd8cMGz486GbNnJloskeaf/d+HrAc1hTiBrGREEL8HTji6CNDfuXlV9h9d98b0q033xJ0RxxzVMizSBwAYrw+jBSg8AEglgt1JIQQtQWMEsDWW21tyzVfLsigcaPGduzRxwZ5ZoZHC6DQiT70rCszfeRzoGAghPi78MXwYSHfesutQu7p2qVLyF97/bWQZxX6dpLm4/PTR3HugS7uTAghahNzZs8Jed26dUPuoU+cMSObIwXuv8+RvN/P6/fdd9+5EydOtNVWW8122203GzhwoI0ZM8aee+65fDBgo+GffRQa1hRz/1fP/je7YVKadw45/FBbfPGSd6JiaIih37133RM+z6IAFq8wZymEWHjgsvzTzzrDfvnll0RTHPiU66+5zurXr59o5o069WbYYnVmJ6WaoXO3tcPnpO+DP8eL+ps2bWp9+vSxtm3bWv/+/e2yyy4rmT4CPlL4QODzrNFk8SZ28w03hXTHrbeHgHD8P05IaoUQwuzQIw6rdEAAU6dOzS9IZwX6cJ+I9+/Iy93RDNnnJC5nEXzGKVOmJCWzY084LpytH3N8ySISOfHkf4RRBvT+LsDjTjw+6OPA8syzz4YDCwfKz5MmJVqz8y+8wG669ebQ5r9vvB6+w6OPOyaUH3jowcRKCCEWLPB9SLEf51NSPfmFZuINYuOsg2uPN9xwwyDDMd9y481h+gb5iSf9I+ivue7aMDTEqOLWm24Jzh6cdOrJYcQB/Q3XXp8PDIMHD7bll1/e7rnzbrvztjvssisuC2cSYOJ3E+2gAw4MbTbbZNOwzdtuvjWUd+q/Y7ARQogFDXx8/JgL6JgA/X1+pMDFFcispHFWmTxlchgJMH048EM7aP8DQx0cM8Hn/fOvP4PcePHFbZIbSnLOv169ejZt2rQgI7redP2NQb79rjtsvT59ggwQUK674fog44+w5BJLBhnrNLvtsmuQwdJLL51IQgixYIGPS/Pr1BGUw+s4CRtmPRiQJZoskb8BBem4Y0qnibC4jumgw486wv77+n8TrdkxRx4VyggiRx17tH07YULQX3X5lXbv/fcF/UmnnFxmGipmzNgxiVTK2HFjbZ2110lKQohFmVU7dsz7jQ3W3yDRZhf69DgIAPp85DjhDQ/EQ4KSKW6Y1lHWuf6mG8J00F2332mbbbpZoi1hz933CAfD7bfcZldcdUWiNTv26GOC/rprrg0BpRDLNm2aSKWsuOKKNjo3WhBCLPqcdsppiWR24P4HJFL2YXAgLPuHoAYJQaGQ4y8UKLJOpzXWSCSzcePHJ1LJZaKeJZZYInz+WE826buJ/fbbb0nJ7O777rEzTj8jKZXSuVNne/CfpYvL8fyeEGLR4elnn0kks+EjRiRS7cL7dPp4pBAUIBRy/Gm62gACwYUXX2Qn/ONE+/333xOt2V133BkCwKWXXxYWmTfPjSLwHeBZKNBffmVJfvqppwf7/fbZ16678Xo7+9xzwtVHjRo0tObNmoe6mHPPOscOCX1fGq5MEkIsmrzw4gt23InH2T9OOcmuu+G6RFu74Ak/EstgsT322GPut99+a927d7dddtkl3Lw2evRoGzBgQH4EQeOs3bwmhBAVUWgWoCIwlTw/LIyb1zp17ZlIpYOAHXbYwZo1a2brrruudejQIdzMduWVV5YsNMP5c07JjwzY2OuEEEJkk/xoIPHpKMP3Uw/CJamx0jdgYBBCCJFt6Ovp24n38/lLUqlgA49vLIQQtYnTTzmtzNU3FQF/ePihJTe1ZgXss3f8JNZBzq8prLXWWrbzzjuXeSCeX1NAPuzT0rcR1QRaUxBC1DYW5poCfTnAA/CWXXZZ69Wrl7Vv3z6Ur7rqqrKPzmbyxGUhhBDZhAEB4KQ/zb+H6SMmDKE450SdEEKI2gd8PXw8AwP9fRgpkLSoweCQVieEECLbMDjQz+dvXiN0/sh9EkIIkW3SfD3g+jEI00fe8ftGXhZCCJFd6OsL+XjGgHLPPmIjbwzishBCiGyQ5vyBX2xGjlTu4lw0ZiUSO4MshBAie9Cfx6Sd7Jd5nwJgQwUDIYSoHcCfpwUA6LjQDODv8/cp+AaQY72vF0IIkR38yb736dCzDkAO00dpFb4M4rIQQohskebbyZw5c0Jd/uY1GsZRhFAvhBAiezAg0Jd7/05QF0YKfk7JEwcGIYQQ2SXNp/tyPijEz8BggIAOsoKDEEJkG/p1n9PHE8SCEBS8EkZpAcDbCCGEyBZw+MD7d+/XIYe01157hUdnd+vWreijs0FNv45zyJBP7eab5++Vd0IIsShy3HGH2Nprd0tKNUPao7P79esXXsfZp08fa9euXXg95+WXX26L7bnnnnMnTpxoXbt2De9o/vDDD8M7mp9//vmwGk3QUU2/T0EIIUTVQVDgCT5zBIHmzZuH9ykwKFxxxRWll6QyehCODkhcFkIIkR3ow70vh+zLiAMhKABW+OAQBwohhBDZozK+nDZlHnPBqKHAIIQQtQc/GvDE/h23J5SbPkLODgp1JIQQIjvAr8cBgL6eeshI+TevxQHAG8adCSGEyBaFfH1czo8UPChTx2gihBAi+8Qn/P6kH7owUsA8kodGCghCCJF9eM+Zp27dumX8O2NB/nWcaSggCCFE9okDAvD3oZHwmAs6/rgRy8iZhBBC1A74IFTEACaU8y/Z8TnwOZMQQojsA3/OkYI/4Q9BIZEDdPyooGGcCyGEyB7+xD7Nn1NXdoU5Byr8yCDOhRBCZI84EGD6iH4ddfT9+TUFT6GrkYQQQtQO4Pvp/ynD15e7JBVlPneb0UMIIUTtwPt0ysxDPGCEIJB9o7heCCFE9qAv9z7d+3b6/XJrCpxngoFvIIQQItv4kQEToVyHd7ohMYJQTmsghBAiu8S+nGX6/BAUCBQ0QO5HCl4WohAvvPiSbbTpltZ7g75248232cyZM5OaUt586+1EEtWJvldRCPp1EPvy2M/nF5p9QICOhl4vRCH+/PNPW77lKvbfN96yt19/xT58901r23YVa9V2VXv8X08mViXsvtd+ibTgOOTwoxLp70NNfK8im3jHTwrpwrOPmBgMGASoE6IYOEY6rN7FfvpuvF139RWJ1myH7bezHyeOsxNOOtWmTp2aaGuGAc+/mEhCiDTo5+nj6e8L3rwGkCswiIrYYadd7YTjjklK5Xn8kYdsw75bJKV0Brzwkq3WuZtdfuU15Y43TkFde92NttY6feyP3KgEwO64E06yjTbZwqZPnx50YMaMGfmcchqzZs0K+b+feto6delhb7yZPv3yzrvvWc9117N9Dzg4tb8XX3o5t+/d7dLLryy375iePfGk06xHbr8HDR6SaMvy9DPP2eprrmUXX3pFufbc3tHHnWgHHnJEkAH6ha7PBn1t8uQpiVaIdHBcMQiQ+FgjISjElXFjIYoxcNAQO/vM05JSeTbpu5F9NOi9pFQeTDs1W7apDf/sYzvm6CNshZXa2JQppY5u0y22DTZHHXmYDXr/beuYG5X89dfkYHdtbmTy2v+9YK3brWaTJv0S7IcNG57PKadx4MGHhz4222QT++yTwfbUM8+E6S4P6tHvoA/esfvuviPUjx49Jqk1W3HlttagYcPcvn9kxxxVsu8e1F9+6UW59u/au++9by1atUtqco4997vD51puueVs2KdD7MTjjwntv/56VGJhYXtoc8hB+9tWW2wWdF999XXo9/prrrR33nzN9tn/IDsmFyCEKER8cu99fCyHoACBCbCxNxZiQdCm/eo28L03bb0+vcPz3ZdackmbOH6UtV9tzcTC7OuRI8M01OKLL27169e3b8d+navvHKarGjRoENJb/33FTj71jGDfo8da+ZxyGq/+93WbMG6kNW26jNXLbfvmG66z1q1a2WuvvxHqf/3tN2uYc/g77bhD2DdsB074xJNLA+Ayyyxtm2+6SahfZpll7LOhg2zwkI9C3Tbb72gfvPOGNW7cyOrVq2snnXi8HXvMkaEOtM45fAS5DdbvE9ovmfvs+Ewb9C1x/gRrND179LC99tw9lDfMjYxgh32rV6+ePfvUE/bu+x+GOiEKEft4XwaUw5oC72hOCwZpjYWoiC233aFcSmPqtGnWtm3bpFQCHL+/Kg744w/OMGaNNVazkaNHJ6XKg215/vngPXbGWecGedmmTe2bMV8Fmay2akf7wo0+fv31t0QqYcUVVrB11u4Z5EMPPtB23WOfIJOzzygNKJgWa9NmlaRUynLLNbcJEycmJbOOHTskktl3331vy+dGFjEfFxmJCQHgy+njgS8zD/EgNsSP0Rvyx+hthKiIKy69qEz65JNPk5ryYAolTp4VV1whkUqJn88VmMdDtFOnNRKplDarrGLffPNtUio57nfdY+8wjYP9uuyKq5OaEl596fn8Pm/Qd3MbM2ZsUmO2y8472lprdQt1mO6p7NVBCEa+H8/oMWNSvw+MNIQoRrETe9ThWEfKTx/R6ccNFQxEZZgzp+yZfY+1updJxcBUSFoiuXFqIlUvaYvG06fPsEaNGgUZC7iY47/80ovDlBX26dSTy87dd+tWctUV0i03XhfuzzjksNLLYbEOgboJ40fZVltuHgJEscVvgOfcY6osjcaNG9vs2bOTkhDzT3zCjzJSGCmwkAb0CgyiGFddcYmtvma3pJQd/IIxefudd61zMoLYrv9O9spLA6xjh/ahDD74cFAileAXxLt362rffTPaBrxQ/nJYrFkcctABdvCB+4crrIrx7bcTbI3VV0tKZemyZmcbOar8NNk3uTZCFCPNj3vfz1gQ1hSoACx70nRCkAP338+mTZtecHrkltvuSKTyHHbIQbbF1tsnpRJe/r9Xrdd6GyWl+aPVyiuXm+9P4/PPhyVSCfsfdKgNeObfQV59tdXsi2Fl6/fe74B8IPj550m2RpceQSbYJtc8MGp44sn/BJl89PFQ227brYO826472+FHHRtkMirn8GfMnGlNmjRJNGVB3/itfvX1yERTwnobbpJIQpQnzb9DRz1BOYwUChEHDCEKgat4cDaM6ZGuPda1XXbfO1xKifJ7739QZjrIc+nFF+QvzTzz7POsW89e4Wa3ge9X7ZENN994bW700j30W4gllljCjj3xpLAWcOoZZwfbC847O1zRA+649SY76ZQz7Khjjg9XNmFdYMK40stFsSC87TZbhXannXm27bDTbuGzY6oJ4K7uk3Lt1u2zoZ1x1nnhstkGDernF6Jvvel6GzlylLVs3c7OPOf8cC/DehttGq60Kgauztp40y1t8622s1NOPzNs/9OPdPWRKE5FJ/wMEov1799/Lu42XWONNSwn28CBA3PD6twQeMCAcleA4FpsIWoL7VbtbGO+LjsSEKI20rnb2uVO7uHvl112Wevdu7e1a9fOdthhB7vqqqtssZwQgkLnzp2DEkFhzJgxISjwxc5EQUHEpM1vZwVMW7368vNJqfbg10CEAJ269gyjgjASSHIGhV69eln79u1DOR8Upk2bZp06dbJ+/frZ4MGDw0jhueee00hBVMhjjz+RSNnjtDPPsasuvyQp1R54k5sQBCMF4EcLGAQ0a9YsP1JAULjiiitssVwgmIvnxnD6aNCgQalBAdEFt+ILIYTIFn6kACAjKGCk0KdPH2vTpo3tuOOOISjk71NgjkY+mgDWCyGEyCber/vgANn7+DK3hcaVBHrfoRBCiOxBP06fjsTAQH25ZwXQyJMWKIQQQmQL+nLkTD4ggHJBwRuxg7RAIYQQIht4/+39uvf1SCiXeyBeZWQhhBDZIc2XFzrRL/PsI59AnAshhMgu3r97EAd4tWkdPIKYkYM5KxkwmAshhMgu8OWxvwc+WOSnj3zyz6pHWQFBCCGyj/flsV+Hrwd57+8jhQc6BgshhBDZhL48lkm5oOANIDNIxA2FEEJkC/hyD318TPD72223XXjMxZprrhmefYQH4o0bN86effbZhf7so8HDv7Ab/vVwUhJCiOxz4h772jqd1kxKNUP8mAsQPyV1++23Dw/ECy/ZgSEjB9YT4mAghBAi2zAgcITgAwRgOUwfhSFDYkh8Oa4TQgiRXXxAoH9HDn3qzWusRO4bCCGEyDbetyN5/4+ZovxIoRBowCSEEKJ2QL9O/89yCAosEC+DYkFDCCFENvC+3Y8UvL7MSIFGLMcdCCGEyB7exxP6d+ReH64+It7Ig3KsE0IIkQ28/45P8FH2vj9/8xpJc/5xJ0IIIbJJRT6+3CWpaQEgrRMhhBDZwvt3yN63s67M9FEM65AXsxNCCLHokxYEPKjPTx/RGHcz09h34GUhhBDZwQcAyvT1cV14nwILPvcoIAghRHaBD6dvpz9HGXLs38MdzR6U+ewjHyDSgoUQC4NX7no0kRYu+++wq23We/2kJMSiTezrC5EPCszr1q0bchJHFyFECbNmz7LZs+ckJSEWbeITe/r0WF9uodnPMykQCFGYx1581t4a8mFSEmLRJg4C3vd7X1/mjmYPjRQYRNZ44bYHwxQT0vO3PphoS1i1Tbugf/nOh+3/cnmD+g3spjMvSmrN+vXdIl//8p2PWMMGDey0g49Oasvip4/QZonFm+S3i7TS8iuGOiEWJeDTvc+fM6fsaLfcfQogLUgIkQUG3PKAHX7h6bbl4XuHdNJVF9rTN94T6nBc33LWJUG/9RH72la5/F/X3BbqwNJLLGlH7LZvvn7rI/ax5265P6mtmPsuuia/XaT7L7kuqRFi0QKBgQkXG9HnI0+9T4GjA9Sl1QuxqIIz+4k//pCUzL4eP8aaNF48yMfsdaBddf/tQSaHnn9qIpmde+SJduq1lySlEo655OxEqpg9Tk0fUQixKEL/zuBAOYwUGARifHAQIgt8P+mnRCrPNhv0tbejNYBffv8tkcw6d1jVRowZmZRKGP/dhESqmEK/IyEWNgwAnti/sxyuPoLSX3XkG6NeB7vICo0aNEyk8vww6WerF11d5/njr7/K/XAWWyx/f6cQmSb24zzWkftUcPqIwUKILNF0qaUTqTwnXXWR/fPym5NSCSftf1gimT3wzBN27hEnJKUS7r3o6kQSIrsU8+c+WEDOBwVfAaBnR0xCLCqs0a5juQQGff6JnXbQUUEG5x99kn3w6UdB/mPyn9agfj07eKc9wvG87YabWv169UMdePm9N61P9562wyZbhvr9+u1ir7z/dlIrRLaJfTyAjonl/PQRSZN9IyEWNm9/NNB22WLbcgmcc/NV9sMvP9nztz4QrhwaMfprO//Wa0Md6HfsQTb62/F25qHH2qhvx9ljLz1rU6ZNS2rNtjlyv3CvzhmHHGP/lwsSWGP47Y/fk9qyYL3hp19+CTL2KSZNJ8SiBHy89/Oh3K9fv7kzZsywNddc07bbbjsbOHCgjR492gYMGJC/kY0BYfhnJWdcNcXg4V/YDf96OCkJUXXWWbO7Df7ik6RUckXS1+PG2KsflIwIMOLwi80PXnqDHXbBqTZz1qxEI0TVOHGPfW2dTmsmpZqhU9eeiVQ6C9S/f39bdtllrXfv3tauXbvg/6+44oqS6SP/UDwkysTLQmSZi4492VZpuXKQV2i2nPXfZMt8QAA3nHGBLde0WZDbrbyKrbjc8goIolZA/86T/LTZH8SCMH0UG8U6ykJkHUwP9V2njz165S226xbbhZvMPFsdvo/ttW1/e+TKm2297j3DDW5C1AZiX84gERNGCnEFy6xLsxEiqzz47JO29+nH2q2PP5BoynLTI/fZPqcfZw8//1SiEaL2EZ/s08enXpJKNEoQQojaQZqvp3+nr0cq8z4FKgFHB0heL4QQInuk+fBYB39fZqRAmUGAicFBCCFEtqEvR46FZfp4UubR2XEOvCyEECJ7eN/OIIA8fmw2KDNSgBGIO2ASQgiRPeC/va8nvB2B/h15/mlfDADMAXMhhBDZx/t2HyT8ACAEBQi8e5kGQgghag9xICDe7yPlb15jBeQ00joTQgiRHbx/x0CAZa9frH///nOnT59unTt3Ds++GDRokI0ZM8aeffbZ0MhT088+EkIIUXX8s49I2rOPrrzyyrJPSfWjBa8XQgiRXbwv934+jfyagocBwQcGBQghhMgm3sd7v068zy93SWpaAwUEIYSoPaT5epbzl6QCKEks+7IQQohsEZ/cx69MYH3Bx1ykyUIIIbJJ2ok9T/h9XQgVcPpIvsIHgrTOhBBCZAPvz2OZ/h0jB1xxmp8+im9eUyAQQojaAf25DwiAtx1AT7nc+xQYEJCzLrYRQgiRPeDb/Ql/7OdRF0YKGDawggGBMnPqhBBCZIs0/x37dcghKOA/Jo8v01gIIUT2oP/2QYBXH3lQX2ah2TcALCsgCCFEtoE/974cawi+DBk2+aDglZ64LIQQInvEJ/dpvj0EBX/VEWFj5goMQgiRbeDHvS+PgwTJTyrR2Bt6nQKDEEJkE/hv+PE0X84y1xjC/5xbio3ZiRBCiOzi/Tj9Ov29r0NgyN+nEOfAywoOQgiRbRgMmDwoo74O3uaPkQITK2kQNxRCCJFN6NcBcsqgXr16ob5O3bp1gyIU3HWrviFQcBBCiGzi/Tdl+HbIPjCAEAVY6fG6tIZCCCGygffnsS/3fh6ES1JpRJkdUM+yEEKI7EF/Hvtx+nuC5YQ6nDJiRdxIwUAIIWoHDAxM8P/08cxDRIiVyCkzWPhoIkQaJ592hi3fcpV8Wqf3hvbHn38mtYsOs2fPTqRSxo4bl0jp4PMsKBZk30IABgNSzK/n1xQIZCReiQR8kBAiZk7uWIFjW2aZZeyn78bn0zNPPWGrrtHV/vXEvxPLRYOWrdsnUikbb7pVIglRO4kDQez36edLLzfKQaNQkRtWxI2ESKPFym3ttltusHPPOiPRlLBSyxb248RxdtyJJ9uUKVMSrRCipuFJfSE/znoMBvJBgZGCMlK83iBEzE8//RyOk1133inRlOesM061TbfYJimVTpds2HeLICO9+NLLQUegw3HXtce6eZuBgwYltSVA99XXI/P15Mqrr83rWrXtaNNnzAj66dOn5+2Q3//AQ3bE0ccFmXXjv/k21Bdihx13DXZI99x7f6ItAboZM2fm6zF11nezrXL7PTixKAX1xUD9pEmTgvznX3+F0Q37vfb6m4KeQPf1yFH5eiFivH+Pcw905e5oJigzGECO64UAt95+p/Xp3SsppXPi8cfa2HHjk1IJK6zUxt5589X8VNORx5xgHw4s6zxXzI1APvt4UN5mx132tInffZ/UlrDL7nvl68GW2/SzH3OBirrRXw+31m1XDXWNGjXK2yE/6MD97c7bbg4y61Zp3SrUp7Fa5+722CMPBTuk2++6x6665rqktoQ27VfP1y+91FKJdt6AYx8zcrg1b97cZs2abR1WW9Mmjh+V73fIRx/Z3vsdlFiXsNOue+TrhUiD/tz7dUJdGCmwIs0AQI+y1wlBnn/hRTv4oP2TUuV57f9eSKQSvhnzle2w065JqYShgz9IpBJGfDHUeq+/cVIq4fOhQxKphE8+/cyuu/qKpGTWoH59u+eu2+3o405MNPPP+eeeZU2aLJ6UzD4a+J5dc92NSamEb8eOTKT5AwEBAWCJJk1CebMtt7VXX36+zO/zsYcftNf++3pSKuGLT8p+D0LE4Bjyx5G/HYF65Pk3r3ljyDSOGwnhwXExP8dGlzU7J1JhWrZskUglLLP00jYjmQoiftP/efoZ23efPZNSKVttsVm56an5odgUGalXr+QJAfMKfmcICN99M9rq5wIZ+fKrr6xb1y5JqTD6fYqKoC8HkJH8ccP6/NVHqIyNPGwghGeHftvb/Q/8MylVHdw8M7+888579vAjj+fn1platV3Vpk6dlljNPw0alDprj79Sb37BdNr3346xlVbpkGhKiT8PEpg5c2bIhagM3rdD5iOOAH0/UggKLCAVcv6oEyLmmKOPsHffez8ppXP9DTdXamQA/IE6r/TssZbtu3fpGkOcqkqh3wYvyKgKuEoLn71nzx529z1lF7DTPgtSgwYNEgshKiY+fln2AQFyfqRAWMkgwFyINJotu2w4fu648+5EU57Lr7rGXn7h2aRUwu+//55IhZk2rezZ/a+//WaLL944KZVnn733tIcffSwplfLJJ5/ZE08+lZTmn/fe/zCRKs9qq3a0H3/8KSmV8GfKDX38nb343FN29nkX5KfJVl5pJfv0s8+D7Nlz73lfxxF/X7xPB5C93/eUOcWBYaGhcKEOhMBZ7nkXXmIHHXpEoilh7NjxYVrk3/96pMw8OVijS49EKqF1u1XthZxD9KzaqVsildC5aw97/503k1J5cMbetm0bO/nU0vslcPfyltv2s9132znRpINLUivigIMPKzNl02WtdeyUk4ovYN9w3dV26BFHJ6US1uy+TiKlg0Xj1u1WC/K7b71mW2y9fZnf5Qn/ONV+q0RQFYLE/jseCDCHPiw0A+RIPoJQZiMh0sDxgemMtbp3KzPvffBhR9i4USNsow03SCxLmTBuZJjrp+2N111j66zdM6ktYeSIz2ylVUqvz3/isYetZYsVk9p0Br73VliXYJt2q3a2caO/TGpLuPeu261thzXsmOP/kWjMTjv5H8ERP/6vJxNNeUZ/9YVtvOmW+b4PPvAAO+2U0j7SaNy4cbgaim065QLb+Gh/YpZffrkQ3C646NLcyGhx+3zo4HB5LvtYscUK9n8vPpdYCzHv4DeL5G9SRo7yYv379587efJk69Gjh2299dY2aNAgGzVqlD33XMlBxwZg+GcfJZIQ8w8cG4JIMSpjI4SoHJ26lp5w8SR/hx12sGbNmlnv3r2tTZs2ts8++9gZZ5xREhT++usv69mzZwgKgwcPzgeFeCpJQUF4Brzwol151bVJqfLg7ttVO5a/ysZTGRuRzoBn/mNNmy6TlIQw69xt7XCC72d+EBRwg2SvXr3yQeHMM88sDQprr722bbXVVvmRwvPPP1/u8kAFBVEdaKQgRM3iRwok5/tzJw9Nw0ihXbt2tvfee4egENYUEDn8NFFamdFFiKpSGWevgCDEgoW+3yfoUi+wLhYghBBCZA/4co8PBJ4QFApdhuobKDAIIUR2oQ9ncEA59uso56ePaAhY9p34eiGEENkj9uuUkTMWlLt5DRUYOaQ1FEIIkV28L2cQAPTzISjgP04fUUlDoIAghBDZxvt0j/f3yBELwvSRv6uN0JgNhBBCZBOe8Ht8mf4fujBSYAJsjJyJeiGEELWD2KejHIKCd/yAjwGmjsFCCCFE7cL7fg4GygUF3MWMMgxoBBQchBAiu8S+nj6dOf1+mD7imgKVhGWvE0IIkT1iXx5fYETyL+4HaTKDhRBCiNoB/Lv39wS+PiwgpBkoEAghRO3B+/RCMuJAuWcfpUUPoCAhhBDZxPt1L9OvI0fKB4U0I8I6byOEECI7eL9OOQSA5GpTyPTx+fsUioH6OFgIIYTIFt7Xw6cjef+OPISJtDuaPWwohBAim8Qn9/TpPiCAEBRipx8HgLgzIYQQ2cL7+djf08cj5dcUvNNPk30nQgghsgv8un8aNnL4eMwa5VLZhQYmrwM+UAghhMgO9OOAMn2/9+2Qw2MuYhgMWIfcdyqEECI7eF9OINetWzcEB/p8kF9oJjDksMIHAt+ZEEKIbOJ9OX299/dlHojnjWHg64QQQtQeYh+PHAOE/BABChr5HEkIIUTtw/t4+v38A/GoYE68LIQQInvArzOlwboQFKCg42fOhigX6kQIIUQ2gC9n8gEgjXLTR55iDYUQQmSD2LfH/h5l+vr8JakwYGKDuKEQQojs4X05fT7xZcil16LmiCvZiQKDEEJkm0LBAP6dqVxQSCPuSAghRPbxJ/vw83w9Z7kX91OmntHDdyCEECJ70I/HAcH7+XBJKgokbsQ6byOEECJ7eH9O2T/RApQLCgDlODgIIYTILrGfp2+Pn5Zabk0hKHORg4GBuRBCiOwSn+gzEBDqQ1Cg8/dGPhAoMAghRO2Afp5+H7lP+cdcAD5CFfiGwAcMIYQQ2caf7EPm2kIdXoZUr169co4fZQUDIYTINv7kvxiwyy80e+dPmR1VtkMhhBCLHt6/F/PrsMsvNMMAKS04eJ0QQojskubXfaAos6YAI1/2shBCiOxSzJ/D9zNIhJGCjxhpKDgIIUS28X7eDwC8DMJjLqhAjjIbMwcKDEIIkW3ox3kvmgflOXPmlF1oplF827OvE0IIkS3ov+OcQQJlXIkK359/IJ6/RyFGowQhhMgu8OGxH2eZdSznF5oZHFgGvk4IIUS28f4dwLfz2UdMZeeJcrCCMjuJOxNCCJEN4L+9byfQ161bNymVUOaS1DgAsCMhhBDZpZgf93WQy1ySitwHgthYCCFE9vAn/4S62P+HoOAbeOef1pEQQojsQr/OtQSUfcpfkuphZawXQgiRPej8kftAQLyvL7fQ7Bt6fAdCCCGyBYMB5UI+vkxQoDItAMQdCCGEyDbw9fTt+aAQB4BCzj8tUAghhFj08f7b+3isKzAwUF/u6iNf6Tviy3iEEEJkC/p0kHaCDx31dXDjgg8CfNwFEvR5w+h5SEIIIbIL/X1M/nWcgMEBOQOC1wkhhKg90P97/14H72YG3vlzdKBAIIQQtQv6dfh5+nov59cUfKWCgRBC1D7g3zFlBB/v/bz3+2XWFAgMGCSAl4UQQmQTBgP6dJZ9KnP1UYxvKIQQonYA306/DtmXcyOJ9Ney+QZCCCGyS+zH4d+hg//3ASHRlQaFtIZCCCGyTezjfSCI/XyYPqIhKmODuDMhhBDZxN/BDNL8ff4pqcjp+ClzaAHixkIIIbID/Tp9OcuUQQgKvPqIyTfyOiGEENnEO38v08cD+vowUmAl8WXKyIUQQmQP7995FzOnkoD38WGk4EElO4hlIYQQ2QQ+3AeC+ISf9eHqIyh98gGADZgLIYTIJvTv3p/T30MXgkIoRSBQCCGEqH3wNgQGh9jfh5ECogONGDVIXBZCCJFN4pFC7PPLTB8BGnsjXyeEECKbeN+e5s+hmzNnTunrOJFTjilWJ4QQYtGn2Ik9fTxsyjwQj0qAnGUmIYQQ2YNOn/gy/TymjsL0kXf2kGlMQzYUQgiRTeDL6eu9TODnsZQAfZk1BRA3gKzAIIQQ2YfOHzn9fJyXeSAeYAV1vrEQQojsAT9OX87kfTt1Yfpo6tSpNm3atFAA8chBCCFE9mEA8MSBAdRp0qSJLbnkkmUqKPsGQgghsgn8eHyy7/08aNy4sX355ZdWp379+pb2nmaUvU6jByGEqL0gFiDl72/GtBGA82fyxEFDCCFEdkjz4fDz1CMPawqhlAMKBgKuL3jiICGEECI7xD6cZe/3Q1CYOXNmEPwjtGHko0pcFkIIkR04CvBA5/06y+ExF7NmzSqzrgCdT76hEEKIbOH9OcGSAQMB+PPPP61ly5Yl00eIIDSmkU++IyGEENkE/pxA5loyQBxo0KBBSVCYPXt2UAIEgDgQ+I6EEEJkE+/XIcdTStCFZx/FicMKAkPfmRBCiGwR+3AGBOrh8+vVq1eypsAA4CuB78QHCSGEENmCPtzn9PEIECgjhaCAFysUCwBxWQghRPbwgQA5fTvXFsJLdqj0jt8HCCGEENknza/7wEDqcNiQVkm9goQQQmQb+PNCPp5Azo0ayj9b2zeMOxFCCJE94hN8BgTv8zFIyF99VBG+MyGEENkCDt/7cci8AomEoBA7e0YPwLwyQUMIIcSiC/y59+Uoc4GZdUj5oOCNKafphBBCZA/6esL1ZCZQ5uojRgrfEDKTEEKI7OL9u5e9DoSgAGUcEGiAPK4TQgiRXejzAX08KXNHs6/wgUIBQQghskvsw1mmz6e/xxpD6SPyEnxgACjHOiGEENkBPpyOn+UY1CPlp4+EEELUXmJfTzkOFPmRAgziShA3FEIIkU28H/f3KECPBH+fv3mNSQghxN8D+n0GiBAUOBIAWGSI73BTsBBCiNoNH3cUZO/wIfsgQaBL0wshhMg+/uQ/9Y7mOACg7OuFEEJkGwYC+nb4+fDsIyhQ8I7fTyExQDAXQghRe4C/Z3CAnw9XH3mHTwPgAwVzIYQQ2SLtpJ4+nQ/Fy+eoQCDw0YLGzIUQQmSXQr7c+/swSsAdzT6CpDX0owUhhBC1Ax8QPOXuaKaRz9OGHkIIIbJDmh+Hf2dCfRgpsIIjAk4jsQPqhRBCZJfYj7OMnAnkAkPJ4kLcgEEBesgsCyGEyCbel3ufTxl5mauPfAVlBQMhhKgd0Ld7n4/ZIQI5v6ZAY8Dck6YTQgiRPbyvZ2IcCCOFunXrlqn0UKcRgxBC1B78bQiesKZQr169UKCBN0IwUEAQQohsk+bHvc+nrw/TRwgKDASMHsTLQgghsknsy1H2CQOEfFCoX79+MPLDCUYNAp0QQojsQV9OP84ycq9DYAh3NDdo0KDMCjQDAxIbsRMhhBDZwjt+gDJ8Pv0+8hAQSlIda9Sokc2aNSs0YCLsTAghRO2BJ/tMuOAISwnh6qPGjRvbn3/+GSoQJNjAg/KgwUOSkhBCiCwwcNDgRCqBJ/0MCvD5kBEUkEIEWHzxxe3HH38MhgwKbAggIz30z0cTjRBCiCzwz4cfS6QS/Ak//D0T1pbnzJlTEhSWWWYZ++mnn/KVNGYwQCdIb7z1dqgTQgiRDV5/860yJ/kEowLokWNNAUEhLCOcfPLJc5dddlm788477Y477rCPPvrIhg8fbu+8847NmDEjP8RgdBn+2UchFyLmy6++tvHjv0lKoqZYZZXWtvpqqyYlIcrSqWvPRCrLZpttZiuttJL16tXLEAPOOecc69evX0lQaN++vZ133nn28MMP29ChQ+2LL76w9957z6ZMmZI0Lx1ydO/W1R795/1BFoJ88OFA+89TzyQlUdPssvOO1qd3r6QkRAl773eQffrZ53n/TXCiv+mmm1rr1q2td+/ewdffe++9tsEGG5RMHy255JLWsGHDMHzA5alogCuSADrzo4VPPv0s6IXwvPDiy4kkFgb6/kUa8Nc+IMCPe3C1EaaPPvzwQ2vSpIlNnz699I7mpZZaKiwyIDigjMXneF2B5R123j3pUogSzj3nzEQSCwN9/yLG++nYjxMMAlB+++23rVmzZjZt2jRb7KSTTprbtWvXsJ5w+OGHh8AwaNAgGzFihH311Vf5juJo8+6br1rTpk0TjRBCiEWF3377zdbfePPgqwl8OIMDwPQRfH/37t3tkEMOsX322cemTp1aMlL4/fffrXnz5vbaa6/lp5EwlPARJe4cGxRCCLHoQf+cdkIPMEKAn8cyAWTcq9ayZcuSS1Jh9Ouvv1qrVq3CFUc0Qu4DQRprdl8nkYQQQiwKxH4ZfhyBgSf5yLE8wJN/jA6wfIArkGbPnl0SFLC40KFDh9AQEYMNAOrZGYMEc1zb2rnb2kEWQgixcIE/5vOM0oDvRsLUP/w8/P1DDz0UyphyCkGBzh8jBUQK3MSG6MEFCD+FhKDBgAAgQ9dlrXUTjRBCiIUB/HA8VUQfHfttLBcgIMDXv/XWW2Hq6Jtvvgk3r9X548+/QiPcqIYbGXCtKoYSCApYX0BQYOc+QADuAOahEKEQaYQQQtQc8Lu4QQ1+2AP/zIBA/83nG+EpFggIGBRA7tixY5gxCkHhyy+/Cp2NHTvWOnfubOPHjw8jBjRYfvnl89exIhG/ISTqsLihy1WFEKJm2HHXPW2DvlskpfJ4P82gAJ+ONWNMGT3xxBPhPrW2bduGgcHMmTOtzk8/TwoNcEdbly5dQkDAMAKjhRYtWoRIgk7iEQOjEJJn1KjRYdSAO+mEEEJUP/CvGB2MHDkq74Phm5nTTzOHD0fi4jKmjuDrX375ZWvTpk2un5FhpPDrb7+XvrgfixPoAAa33XZbmHNC4iWqDA4cMWBDMdwZ7CRurcZOIx17/EnlHt8qhBCicsB/wo/Cn+Kkm0+W8CflXqYfhp9Ggt+GD4c/X3nllUNAGDNmTPDxGAz88ssvYaTwy6+/22Kdu3Sf26FDO+vYvl2IHhhW4BlIuJlh4sSJ4TJV3OWGYQUSVqcx3YQgwp1Azp1IA3WA9WnleZFJmo6gDqS1IYXaEvYf59VJRX1yf71NsTZp+5rWRzFoD3wfvn1an7RJax/j7eK+0/A2bMc+KmoLaFfZtt4+tinWrhiV2V4a81JXqIwcFLNNw9v4vtLapdl6oANpbWO8bWW2B3y5UF2hvgpRGft57TMN9AEqs4+0BbEd65AzIPCEHgEB/h3POurUqZNdcMEF1rNnT9t+++1t8ODBITCM+2ZiyUhh1KgxoXNECjwcDwvO1157bYgmeGASggU65A0PiDrYWLGdi/H1kFku9gXEbUChbUIf18X1xNd5PWDZ63mJV9yfL88vcR9p5WI28f6zztuwj2LtCD9XbA98m7R6llkX1wP2gZyyb+ehDZKv8317PftLw9vHbZHHbeM6loGXuX8xabq4ncfXkbS+Y13crlAZeVpd3H9Mmk1l2/kcQPZlEH8eErfz0J76Qu29nrZxXzFxX8XsK7MfoJDegz7ifSzUr7cFrPc5EgMCb05DwmWoWFgeOHBgeKwF7mYeNmxYOPGf9EvJhUL5OaDp02eEEcDXX39t6623XmgwatSoMJ20xBJL5Oeh4uCAxJ3gTsX4Dxfb+A8H4rKnUP/EbyeGdcW2h3bejjL78znq8KXHxLYxhfQkrR46r4eM7TOvLL4Ptk+DeuRMsC+2rbgv3zauA5XRcZt+u2ntSNr+efu4LcvIC3021qX9rQH3L+67UH/E16Nt3N7jbbk94NsUkmPibcX7ybo0m3g/PLSvrJ5AjwQ7JoDct6EN8TKJt5HWb0X4PiraHvD6ePsxaftRqF/g69LseLLKfpl8MEDC6AAJPhwn/EsvvbS98sortuaaa9qKK64YAgLWlCdPmRr6yx/pHw4cHKaGcHcbVqIxYnj11VfDFUhYdEaHvNmBQcEHBo4cuFNp4EvjHwowB14m7I+k/cHS2lX0xwFxu7R+YuJ+07bDz8ccpOVMnrhM0Jfflt9GRbDPtJz9+r5iHfWAbQlt4vbMfSK+HqAt+/V28baItyG0jXOQtm0yL9tDjuTt0rZHCvWXhu+b2wPUe2DDxDKh7Nt4WxD3V6hcaLvEywD2XJdMw/uEtP1h+0LbZ3u0RR3rUaZzBGnbj+09LCOP6/w+QE6r932ngTasRx7va1pb6Lg/tKEdyoT1lPEdcTGZQYEjBPhvpNVXX92uu+66cF8arjbFIABBYcbMmaEfUHf5FVa8AMLs3Cih1corhY3zDucffvjBXnjhBdtyyy3tjz/+CA288/c7lEZsRwrZe2Djv4h56QPt4oPQ20OGDXUsp8G2lbEltCW+PUhr7/uN7Ql1FdV7Yp0vU8Z2/fcVk9YGoF1c58sgLhejKm1j0tpSV6zfQu28nmV+/rS/ZzF8XzFxHbdFudA243aVxbcr1Efa9kBsz3KhfjxptoXaQV/s80KuTD8ktq8qxbbPOuroP4G3I7HOt/VQz8STcwYEjg58QMAlqJj9wahg/fXXD0ED9zggTfjux/x28kEBfPPtt7ZSyxahkp3hhf5YpUZkgR4fih+MuZe9jgkwB5BhRzmuQ+JBwDr+GGJo75OHZbZn2dt5PaEu3g/CcqwnbI/EbaftA5Ovo+yh3sveJpbx/Xp7nwPIfpuEZZ9iO+b+b+1Js6Uu/rszUcec++/rAcvzovN1zIHXMfltMhHKsY6fCXgbJhKXCXWsj+182esJdPF+U18oT0vsgzbAfzYQ2wP+rdLw9j6xjnmsp5wG6tL2FXhdWmId87S6WAcK1TOxLi0nKPu/k5cL6diOOb5r5kgMBrzkFNP78N2Y1UGCD8d9CFgCwFQR7l7eeOONbbXVVrMJEyaEk/3f//jTpk2fEbYBwtVHiRzo3nVNW3rppUJHuE8Bb2L77LPPQoecf8IUExIWpv2VSViTQMI0FD4cZAAZiVRmCEUK1cd6X6bsc8B65GkHcpp9oT6or4rMnDLrAG0rIu7L5yCtn4q24evZH4hl4u0K2QNvQ4rV+zpPWvtYF/fliet9HsP2cV++zHa+D8hIfkrF1wGUcRzGNpDjPllP4nrKoJC974ttQJo+rT3wesjFpm58n2l5Gqjjb5O2SCDWA5Y9Xufti+WFbElsSwrpQLG+QDE72gD/uZkAp+15q4CfMmJw4Mk9RglPPvmk9e3bNywN4CGouNpo0qRJ9t0PP4f+SLmgANbu0S2sIyAw4AokBIVPP/00yJhWwvQSggESZAQH3g2HgICEgwVBAR+GOUBOmcTlYsCWX0xF7WgL0uxZjxxfLnWVxfdJGTl/5Gn1pFg5rgNpOuD1yPk5AMqoj4nbgLh/387rAW19DgrJIK4Dvr3PWUfSbFjv7dPqQVoZ+D7idrFNIWhHfD/I+YP2ukK5BzpCm8oS98m2vhzbgLiNL3t9jK8rZAc9dbRj7utiCtVVpC/WZxqVbYd6UMimUPs0PXQ8PlimDXKWqYMty5A5SkAwQI7pIr+OwATdiy++GAICggPaMiBM+O6HnL8u+3iM1KDQpMnitvqqHUIHCAwYhowbNy5cy4oRwlZbbVVmtIBggODAEQOen4HAgBwOEh/OBwl+CcDLAB+YTrUYrGd7lCF7fSzHtl72OWA98fpiMttVJLMd8HWetPaEtsX6jfH1cX8g7iPuL27j7eN2wLcFvn1aXayLiW3S2hTrB3oeW5Xdnv/RFoN9etK24W0qsx+s93bIK/MbSYN9gULbjvWU2a4YhfYpblto29UJ+vfb4T5Q72Wvi/F9FKOydh4cX/hbAr8vHgYD5Ew+ICDxqlB/pRF0eFfOxx9/bBtuuGHQcR0BAeHXX3P5r78nWyklNSiAViu3sBVXWCEEBSRsCI4fr20bPnx4uLktrFrnggJHC8gRCJA4amAw8AHBy/4LiL+cNNmX4/YeX+fbxKDOb9fbUvY5gMwykm/P3LcjvhzLHt+2UJsY9sE2lAHLJO6vmD11yHEw0j7OaUNo6/Flvw3C+nj73A7w24x1lIsBO+wbZUK91xUCNvF22C5Nn7Y9wn1HjuOo0HcM0vQ+R4rtiC/HdWn4Ptgv968Q3hZQjrcVb9+3IdgW9LT1OYjb+zrAetZ5CtkB9lPos8bboS1y1BU7hqiHDdoAv13Ass+R0AYJgQA5pozg4FFGjgAAH80cIwRcPYpAgKuMMMuDbfz1119hlIDA8P2Pk8I2YgoGBdB2lZLboXFdKyPP5MmTw6gBNz+sssoqYdECq9kMDAgIyDmNhMSggIQvg18AysR/kfxCAPT44PwSC8E2/GOyP+T8Yqnz/RP+YWnnc8Ay8Hrg+6UcE/dHGYnb9npvC9iv13nYxsM+fP+F2nvibTFP+24LlZHQDon1lQVt4r8H8H36MuspV6TzsA4wTzsWQNwPcn5e3xZAz++LsN/4OwJpMnLCss+9DXL2WxG0QXsCmftXCG7X56BQG9qRuJyG7x+k7ZOvZ859AaxHqugzAW/PMmD7+G/s6ykDXx/beh3wfaTB4wb1kJngC/0aAtcR4JuZ4H+ffvppW3fddYMd7kdAMMBJPEYOP//8c7l1BE/RoADartLKmjZdJqxeI/pgKgkBAOBdzrgbDhvv0aNH2ChHCkwMDPhyGQRQBvhiCv3R+CX6HEBmGYl/MNohAW9POYZ1sU1aG6+D7A8W6tJkENsXsvWy/1wgrU+UkYO4jngbktYu7g+gjP3g34g2Ht+e+H4K1QNv4+tBofa+TNm3T+vL6+J+Ymib1kf8NwGwo8638zYefp8kbTuA/ZLYDsTbiNsA6JD4N0S9t4NMaAf4WQnrqPd9AOo8LKfZ+zrmcXuPb4t9ANwfwj6o52dhv9wH5vE2KXs9ZI9v778LbAs562IbJBDXE6/3wKkD9OMDAkcK0COn/Mgjj4SFZD4KGyfu8Ms4mUfCAvM3335ni+VsC1FhUACtV25pyyxTMlrg4gV2ChEJO/P++++Hl/xjVLHddtuF6MXpIz9CQBkfHGV8eOhQjr8kfjEo80v1eNvYxtcByOwv3gYPHuDb0I7t0upiGXncl28f98ltp9UR3w9lAh0S+mE5zQb4fkC8Ld8Oet8XbeMcsOx1AOX4u4ht2LYQher9Nln2tshRjilmQxl6JP5dvEzYj2/Peuj83zWGbT3si/3F7dmGfcMhIPf6tJxtfRlARuI2UD8v+L65HyyDtD59GySUvY45dZ60tt6WeviUtO89tvUyYBlt8XnS8HVs54n7L5QXgjaE9tguQI6Evz1y+F4mjAzw2gNMFeEl/LjUFOW11147P4MT7lbOBQTcXvDNhFxAWKxwQACVCgqgxQrNwzMzOFpgdEJCcEBA+OSTT8LNEd99910YWWyyySbhslaAL5XBATngF4UvwR9g/gv0On5Z1Hm8nnbUUY9yGrQnLMd6D/XsO83W6yD7gw5/XG4DxP0B6LwN8bZxH2ky7TzQIfF7p33cB6De43W0B2l2IK1fAj0Svx/aIYetbwvivmgHvB7Edvy8bMN6kqbztnE/rPdlADv+jdP69KCO9uwHuT9GkHtb4vtmH2ltiu2fr2c7bwu8DYj7i9tB5jYKEdt7GXD/WJeWE9gW2ifax21iWMc+UOY+EPblKaTzsN73DZl2vg/I2C7KSPwOEQRQhqP/4osvwgIyHkOEp5zidgHcPrDOOuuUuQCIowQEhInf/5jrpex+plHpoACWXWapcA8DHD4iFIMCFjYwOsC81XLLLRcejYHnc+OmN9wVjTks3CQBWzx7AzfCIcCgH7RDBPRfUlrugQ6JMu0AZJZxkPALpV0xYMPEPpCzH5RBWj+0pcwy+/EHLPL4ACZs5/uL7XwdAyzLqCO+nW8D/HaIr8f+gdiOcpoOiQezL9OOOqS09pQ9aX/D2BZlJuD78Dq2RYptfD3wMr8L6nwdQJlnqpUFfcZ9sG/KLAMvF4J9xt+Xl/1niWE9ctojZx1lD3T8G7MNbVlG7on3gXbAt/Vl1oO4DnC/SVobb+/r4v3xdqjj54M+3g7xdbD1fwMC2ZcB+/J66ODU4czhO7EwDKcOf4nHXiMQ8PXJ8LPwxfC7CAJoh0AAGcEBMkYKxdYQymL2/38IdwOQD07LAAAAAElFTkSuQmCC;" vertex="1" parent="1">
          <mxGeometry x="139.99999999999997" y="110" width="301.04" height="640" as="geometry" />
        </mxCell>
        <mxCell id="FhRJj4_u_BITY9b72M2X-2" value="" style="shape=image;verticalLabelPosition=bottom;labelBackgroundColor=default;verticalAlign=top;aspect=fixed;imageAspect=0;image=data:image/png,iVBORw0KGgoAAAANSUhEUgAAAd4AAANLCAYAAADvqvwaAAAAAXNSR0IArs4c6QAAAARnQU1BAACxjwv8YQUAAAAJcEhZcwAADsMAAA7DAcdvqGQAAKvZSURBVHhe7N0FQFV3/wbwB4MUAxS7u7u752x9derm7O7u7u5NnTnbzc2a3d3d3Q0CSoO+5/vjoKiogHC4F5/P/vy959wLXC689znfX1pkz5nnLYiIiMgQMfR/iYiIyAAMXiIiIgMxeImIiAxkkSp1OvbxEhERGYSDq4iIiAwUYvDu3rpOv0VERETfomzlmvqtQOzjJSIiMhCDl4iIyEAMXiIiIgMxeImIiAzE4CUiIjIQg5eIiMhAnE4UgS5cvIRHjx7rRx9KmzY1MmbIoB8REZkWZxcX3Lt3H8+fv1DHiRM7IVWqlEgQP746jiw+Pj6wsrLSj77O19cXs+fOw/37D/QzQMOG9ZEvTx79yPR8PJ2IwRtB9u0/gPUb/tOPQlat6o8oU7qkfkREFHX8/PxUsXD5ylXcvn0bL1+66vd8yNHRAenSpkWWLJmRPVtWxIoVS7/n2124cBG37txBjWpV9TOfFxAQoMLW08sLGzduwrPnz/V7gHLlyiBj+vSwj2uPJIkT62dNR6QH75s3b+Cr/UKtP3MF8/btW3X/q1evYKH9Z28fB7Fjx4aFhYX+iK+Tr+Hv74+YMWMiRoyQW8vlfg9PT3h7e8M+Thx1RSWPj2jyXI4dP4G//v4HlSpVQKUK5TFoyDD07tkd167fUN83RYrkmPXbbO0PIglaNG+ifyYRkfHkPUveF+f8MR8PHjzUz4ZOunRp0aJZE1haWobpPftj8hyuaIE/f+FiFCyYHz/V+59+z+etWv03jp84qR99XrMmjZE9ezb9yDRE2gIar1+/xtFjx7Fo8RJMnjxNP/shebF37tqDiZOnYtr0mZg8bTqmTJ2hqkW5mvkaCdObN2/jn3/XYcas33Hv/n39ng/duHETv8+ei5GjxmrfZxZGjRmHP5cs067oXuqPiDgHDh7Cmn/W6kdERKbtyNFjGDNuYphDV9y6dRtjx0/C2XPn9DPhc+nyFazUgjQsnj57X+F+ifur1/ot0/XNwSvNFZu2bMPI0ePw36bNuHHzlmoKCMl1LRC37diJvLlzY/DA/hiifWTIkA5bt+3A3Xshh2gQqR4nTZ2uXSEtxJmz5/DkyVO8ffPpMtMuWrjOW7AIAVrl3b9vb4waMRS/Nv5F+/r3sGT5CvV8I4JU9oePHMW69RvVbSIiU3fw0BFVKHh6eupnwk5aK5cuWxmq6vNjUnxdunQZCxf9qRVb/vrZ7883B6+vr5/2S/RAzRrV0bF9O+TMmV2/50Pygq/fsBFpU6fGD5UrquZlaa6oVrUq7O3tcfz4Cf2RIbtz5w5yZs+OVi2bo1bN6vrZTz24/1BVz6VLlUSCBPFVc0imjBmQQ/tcF+eXcHNz1x/5bW5qFxgSusGdO3de+4NcoV6Tv9f8q/2RH8bevftVhe7hEf4/dCKiiBA/Xlz1vvutpAstrva+HVYHDhzCqr/WwMbGRiuIftbPfn++OXjt7Gzxvzq1UbRIITg5JULMGCH3o3p4eKgqNWXK5B/0y1pZWSJzpgy4cvWaCmfx6PFj/Db7D3UuSKWKFfBjlcpImyYNrK2t9bOf8vX3Vf9Kv24QCd/4Wgi/fftGq4S/3qQdGlLVS9N3cPLzSTUuwX9Ru6qTEYK3tQsGucKTkXhERFFJ+j7Lli2tH4WPvJ9W0d6LM2fOpJ8Jnf0HDmKdVnxpb8Ro8uvPWkGUUb/n+xNhfbxf4+3jo/61sbZR/wYXRwtJab6QSlG8fvUad+/ehbOzszoOi+RJk6lgv3rtun5G7xu+cQu2dnaIFzeufpaI6PtTqkRx5M2bWz8Ku0KFCqBwwQL6UehIy9+WrdtUS+fPPzdAhvTp9Xu+T4YFb9DgqZBGIQeNNvbX2/wzZcqIoYMHoljRIuo4LJIkSYwa1avhxImTqrl31+49WLj4TzVH7ecGP32xWiYiiu6kmbjhT/WRPn06/UzoZc2SBfXq1lEBGloyAHXDf5vg4+Orvvf3XOkGMSx48ek4qC+ysbFWTRphJZ+TLFkSWGgBf/7iRTVP7fr1m4gb1177YLVLRCQFUN3atcLU3yuP/dL4mpDs2bMPmzZv1Y8oiHHBq2fo2xASOOhMeIL2Y/cfPMDsOfOQO1dODB7QD507tsfA/n1VVb1g0WLV10xE9L2TMTnt27WGra2tfubzZL2FHt06q8U0QksGl27aspXjW0JgWPDG1lc78ff/dHCTn963G/SYb3H+/EXVrC0rRAU1YUu1W65MabWc471gy4wREX3PkidLhvJly+hHn1e5UkUtdB31o6/brVW6GzZu4lTLzzAseO3s7FQQurm56Wfee/bsGZIlSxqmfoPPCZqf9nFfbpw4duqPwOM1K14iIiGtjKW1IqVkyRIhruwny0OWL1cWRQoX0s98nVS6W7dt/2TWB71nWPBKp7qMpLty9eoHi1jIalIy9SailvgK6sd9qoV5cLfv3FV/RDKtiIiI3qtSuSLSpk2jH72XNWsWVKpYXj/6uj1796k16xm6X2ZcH69G1jGWTn1ZI/TI0eM4qn38uWS5Wugif768+qOAm7duY8KkqThx8pR+JvTy5smNhAkTYuWqv9UfwclTp/Hfpi3YsXOXmneWInky/ZFERCRk4JSsl5w82Ptj6lQp1WCqkCrhkMiqWNu273w3g4U+z9DgdXBwQOtWLdTtv9f8g7//+RdW1tZo16YVEgbrP4hhYRE4hzeMI6FFokQJ1SCANKlTYeN/m7Fi5WrsP3AAZUqXUotnR9R0opjaBURYB4NJczcRkSmSAujnhg1Ut2D8+PHR5NfGoV73YO++A/h37bqvDqSSNf179en/7uN7FSXbAsoKVV76es6ydFhIASaLacSOHeubRjrLoh3SrC07JUVE/3FwsrvHrj171epUoeGQIAEqlC+nXXwk0M8QEZkWeW8+d/6CGugqzcyhef999OgRVqz6S83T/Rr5ehLwwWXJnEkVRl+zees27Nq1590KhyGR7kRZVjh9urT6GdPA/XiJiIgMFGnbAhIREdHXMXiJiIgMxOAlIiIyEIOXiIjIQAxeIiIiAzF4iYiIDMTgJSIiMhCDl4iIyEAMXiIiIgMxeImIiAzE4CUiIjIQg5eIiMhADF4iIiIDMXiJiIgMxOAlIiIyEIOXiIjIQAxeIiIiAzF4iYiIDMTgJSIiMhCDl4iIyEAMXiIiIgMxeImIiAzE4CUiIjIQg5eIiMhADF4iIiIDMXiJiIgMxOAlIiIyEIOXiIjIQAxeIiIiAzF4iYiIDMTgJSIiMhCDl4iIyEAMXiIiIgMxeImIiAzE4CUiIjIQg5eIiMhADF4iIiIDMXiJiIgMxOAlIiIyEIOXiIjIQAxeIiIiAzF4iYiIDMTgJSIiMhCDl4iIyEAMXiIiIgMxeImIiAzE4CUiIjIQg5eIiMhADF4iIiIDMXiJiIgMxOAlIiIyEIOXiIjIQAxeIiIiAzF4iYiIDMTgJSIiMhCDl4iIyEAMXiIiIgMxeImIiAzE4CUiIjIQg5eIiMhADF4iIiIDMXiJiIgMxOAlIiIyEIOXiIjIQAxeIiIiAzF4iYiIDMTgJSIiMhCDl4iIyEAMXiIiIgMxeImIiAzE4CUiIjIQg5eIiMhADF4iIiIDMXiJiIgMxOAlIiIyEIOXiIjIQAxeIiIiAzF4iYiIDMTgJSIiMhCDl+gjr169xs1btxEQEKCfISKKOAxeomCcnV3Qf9AQNPq1GcaMm8gAJqIIx+Al0r19+xZbtm7D2nUbcFsL3Nlz56FVmw74d+0G+Pr66o8iIvo2DF4ya35+fvDy8tKPvo1Utjt371Uha2tri6SJk+DGzZsYOnykFr7r1fciIvpWDF4yW94+Ppg7b6EWjKNUE/G3evPmDVxcAr9OrRrVsHL5YrRt0wqubm4YNXYCjp88papiIqJvweAls7V5yzZMn/kbli5fieat2mLT5q3fVJVaWMSAlZU1YsSIgVy5ciJ9+nTo3KEtfqpXFy9dX2L48NE4wfAlom/E4CWzdfPmLbx+/Rr+/v44cvQYevbpj9HjJsDl5Uv9EWETI4YF4sWzV7djxoyp/o0TJw56dO2MUsWL4/zFi+jTfyDOX7jI8CWicGPwktnKkCEdLC1jw9bGBvny5tEqVmDe/EXo0rWnqkzDWv1aaF/AKVEiddsv2GCqpMmSYuTwIahUsTyuXbuBEaPH4t79+wxfIgoXBi+ZreTJksHKygqJEzth1owpGDdmJJIlTYodu3ajVdsOOHDosP7I0JEm5kROiVRfr4+Pj342MJDTpk2DAf36IGvWzDh44BBGjBoLZ70/mIgoLBi8ZLZSJE8OJycnvHr9Wo1s/qFSRSxe9Adq1qiG589fYPDQEdi8ddsHIfo1dra2KmifaZ//sbRpUmP08KHImTM7tm/fqfqXpambiCgsGLxktuLFiwuHBA7w9PTEtWvXEStWLGTJlAkjhw1B3To1cO/ePXTt2RsbN21RVWxo2Fhbq+C9d/+efuY96fctUCA/+vbpBfs49vhzyTIsW7ma04yIKEwYvGS2ZBSyja01AgLewM39lX4WSJjQEUMHDkDzpr/C28MLI0aNwYJFf4Zqvm+8+PFUwDo7hzxAS0K5WJHCGDpkAOzt7TFDq3r/Xb+B/b1EFGoMXjJfFlBVroSen5+/fjJQAgcH9OjWBa1aNNMqYi9MnDQVa9dvhLe3t/6IkMWPH199TVlE43NhKv3K0pzd8Kd6cHNz1772NJw9dz7UVTURfd8YvGTWtOyVtR7xJuDD4BUyFahLl47o0K6N6ucdPnIM5i1Y9MXwtdc+J2bMGGoVqy9VsbFjx0arls3x4w+V8OjRQ3Tr0RuXLl3R7yUi+jwGL0VrEqRtWjVHj+5dtHAOwKzf52DNv+u08A15wJW1tTVixoiJNxLmX6lgEyVMiP59e6Fg/vy4fOUqxk+ajKdPn7HZmYi+iMFL5s9C6l5V+4ZIwrTpr41VhSr9wSNHjcWyFStDHBQVO3Ys1Y8roRuaXYlSpUqF4UMHIVvWLNi9Zx969xuIJ0+f6vcSEX2KwUvmT1WYX64y48SxQ5dOHdCpQ1v4aoE7b/5C3LlzV7/3PQv5T8vwN1pA+/l/2nz9MQnpnDlzYPSIYUidKgV27tqFSVOmcY4vEX0Wg5fMmkWMwD9haRr+Gqlmf27YANmzZcWDh4+wY9eeT5qFg47fvA1QTdOhVahQAQwa0B9JkybF6r/+wZSpMzjHl4hCxOAlsyXVZuzYlqrWDe2I4vjx46FGtR+1xwfg+IkTnyyuIc3PAdrXkqlKMWIErtccGrLqVcUK5TBr+hRkSJ8Oy1euxrwFi9XiHkREwTF4yWzF0ILXPo6tuh2a/lghAeno6KiCVT60/6ffE0iCUr5WrJgxYWVlqZ8NHfnaBfLnU32+jg7xMeu33zF//iK1wAcRURAGL5kttbZyIid1WyrX0Iwmlp2Mzp2/oG5nyZIJVpYfhuuDBw/g6+MLS+18rFihr3iDyHMqWqQwRg0fpuYEz5k3HwsXL4WHB8OXiAIxeMlsyQpTGTOkU0Xrs+fPQ1X1ygpXBw8fgY2NDQoXLKh97vuKV4L77r378Ne+Trq0aQIr4nCQ51WuXFl069IZfr5+mDp9Jv5cukwN6iIiYvCS2ZLQTJ0qlQrRHTt349mz5/o9IfPy9sa/a9fh1q3bKlgzZUyv3xPIw9NT7esr+/IWKlRQPxs+Ui3XqlkN7dq2Vv3PMn94ydLlrHyJiMFL5i1zpoxIkTwFnjx5GuL0oCCvXr3C9JmzMHrseDVaWZaSDGqmFrJE5KpVf+HYsRNwcHBUfbXfytbWFm1bt8T/ateC60tXjBozHqtW/81NFYi+cwxeMmuyUUGpksVV3+qG/zZ9smazVJunT59Brz79MXfuQljGtkTvXt1R5YdKamlIIZXu1GkzMG7iZDUtScJSRiZHBDs7W/X9WrZoqp7L5GnT1bKVodmwgYiip5hOiZMM1W+/07RxQ/0WkWmT5mbZl3ff/oM4f+EiEiSIj6RJkqh+38uXr2D13/9ixOhxOH7iFBwdE6B3z25o/Esj1TwtVe6lS5cxdsIkLFm2UvXNNm/WBJ07tFMbIUQUW1sbrYLOjxjaczp05BgOHzmipjXlyplDXTCERBbvCPAPUBcCMno7eF80EZmXxUtX6rcCWWTPmeeToaC7t67TbxGZPhlUtWfvfvTq2x+urm4qiK2trfD02TO8dHmJGFqgFiyQHz26dUa+vHlUwJ45ew7ztcrz6LHj6nMKFy6EFlroFi5UQG2uEBmkuXvGrN8x948FsI9rj2FDBqJGtapqN6TgZBN/2dBBRlg7JU6EvHnyqE34s2XNCienRGrENYOYyHyUrVxTvxWIwUvRgjTjrv77H0ybMQuPHz/Wjt8ibty4yJolM+rUqonKlSsgnnb88NEjrF23XqtwV2iPe4L06dOjpRa41ar+qKrlyCbhK329y1asUvsGz5o2BcWKFdHvDXT16nXUa/CzunCQkdYSsrLedNKkSZBbq5Jr1ayB4trnyAXC5ypmIjIdDF6KtmS6zqOHj3Dp8hXV15s2bWqkTJlCBa6XlzdWrFqlVpS6efM2kiRJjHp1a6Pajz8iY8b0qgo2ilS0A4cMw/oN/6FIoYKYPGkc0qRO/a6KffnyJZq1bIvDR46qaljmG8sa0vfuP1DLUNrZ2SF79iyoWb0aqlb5QQvwhAxgIhP2cfCyj5eiDQlPWbQiY8YMyJI5ExIndoKNVik6Oztj5qzfVTOvq6s7ShQriuHDBmuVcA3VdGt0aMmAq+xZs+LchQs4eeoMHj54pKpeCVQh/ctvtf/27Tugbo8ZNVw1k+fJnUsNJpNgvnz5Knbv2Yv9Bw6pcJbwlb5kBjCR6fm4j5fBS9GaVIjjJ0zGoj+XIlbs2OjRtbPam1dGLUdlSMkFQv58+XDy5CkcO3ZcPTcZgCUhqgaMpUiBa9evqwFisqBH5UoV1cVEyRLFUKlCea2ST4m7d++rx+zbf0B9yEhpqZxl4Bj7gIlMB4OXvhtubm6Y9dtsLF2+Ao5aRTh08AA0bFBPVY1RHUzy/R0dHJAsWVI1Ils2bJA+6ezZs6l1oq21Sleq2AMHD+Hateta6GZExgwZEFsLaAntvHlyoUypkkjo6IBnz1/gytVrOHjwMI4dP6F2bEqWNKnqF2YAE0U9Bi99F2Sk82KtypXm5UROThg5fCgqV6ygRgSbCgnFlFplmzx5MrWMpYRsWq1izaAFrFTj0g/9Sl/i0sXlJcqVLQ0728BNIeRzHRwSoGDBAihbpjScEiXCo0ePcfHyZTXC+/yFC9oFRhwk0s5baiHO+CWKOgxe+i6cPnMWI0aPVYOshgzsj6o//qCWcTQ10i+dIUN61e+7e/c+nDl7FjlzZlcVqzQ7p0qVCse0aljOp0mTGjm0ijh4FSsBLXOC8+fPi1IlS8I+Thzcv39fzWneuWsPLly6BFtbO60ydlS7LbECJjIeg5eiPVdXV/QfOARXrlxTi2U0/fVnk6p0PybhKc3IMmhq7/4DuHnzFkoWL4Z48eKqqlXu37V7r5r+VEmr2uPog7CCk8dIBVyoYEGULFlcPebW7TvqAmTX7t24ePGS9rXiIkliJ9VcTUTGYfBStCejfX+f8wcypE+PUSOGqr5UU2dpGRvp06fD2XPntLA8py4UZL1o+TepVv2eP39eVb0yrShf3tyfvZCQCjpRooQoUqQwimkfMtf33r176mvu3LUbN27cVBWyk5OTqqiJKPIxeClakxHAM3/7XQuqi/i1cSNUrlzRbPo3pcJNnTqVqm6PHj+hBl7JalXSDJ08WXLtgmKfmtubJUtmtTnEl0gASx+xLLRRskQJ+Pv64vYdqYDPYcvW7XB96aZV2dLEbaeqZSKKPAxeirZk9SrZ1m/mb3NUpSfrMkvTqrmQ/lcJS/lX5ufevHULRQsXUhVs4sSJ1baGhw4fUaO1K5Qrq0Ytf42qgBMmRIkSxdX85QDtNbpy5QpOnjqtBmH5+fupPmYZRU1EkYPBS9GWs4sLevTqozazb9m8KaqpAVXm1ZyqBlulz6Dm58r83mfPn6FE8aKqrzdF8mTYs09GLF9UG0HkyJEtVNWqBLk0ZSdLlkzNA86cMaNaOvPCxUs4eOiw9nrdRdYsWZAgfnwOviKKBAxeirZOnDyFufMWqDmvE8aOercSlLmRDR6yZc2iBkbJvFxfXz+12IajowPi2dtjtz5dqFjRImp1rrCQvmFZ2at0yeKwtIqN27du4/TZ8+/mEUvzdkTuzEREDF6Kxv75dx327z+IevX+h4rly+lnzY9UnQ4ODmqhjx07d+HUmTOquVmWjEydJnVgU7F2keHj44fy5cqoKjks5OtLyBYvWhTZsmXDlctXcP78BezYtRsPHzxUI6wTJEjA6pcognwcvBxVQdGC9H8eOHxYbQFYIF8e/az5ktArX74satWsrireP5cux42bt9QCGu3atFYLY+zcJaF8Vu1gFB4S2NL0PHf2LHTp1AEOCRzwz9r1aNG6vfp+bu7u+iOJKCKx4iWzJ8Ejmw3M+n2u2ou3c6f2kbanrpGkWVgtKbnvIG7evKn6c0sUL4bESRKrHY6OHD2uBpSVLV0q3H3ZEvCyBGXRooWRN09uPHr4UDVj7923H/fv3UeqlCnU/OCwVtVE9B6bmina8fH1xdTpM3Dp0iX06dUDhQsVjDZTZBI4OMDF9SVOnDyJ+w8eIF/evEiTOhUSJUyEzVu34drVqyhUsIDa/vBbyOslS1eWKlVC7Ut87do1nDp9Btt27FJLUcqmDLK9IqceEYUdg5eiHVnRacrUGbC2skb/vr0RL148/R7zF1MLOqni9+7bhwf3H8DTy1ut2SzbGcrCGDL4SitbUb5s2W+uSqX6lRWvpPLNnSsXXF3dcP3adTWnWKYeWVpZqh2SuPAGUdiwj5eiHdnX9umzZ2qxiYQJHfWz0UeqVCnxvzp1EFMLvIOHDuHq1euqGbp+vbqqmVgGlN25e0d/9LeTJSWLFimMqZPGY+KEcaopW6YfjRozHiNHj9O+171w9ysTEYOXzJzsQiQbxvv4+CJf/rzRch1iad6tU7sWMmXMiJcvXbF3/34VfLJ6Va6cOdQazzK3NyLDUKpfaTmoWb0qpk2diE7t28DKMjYWLPoT3Xv2wcnTp+Hv768/mojCgsFLZu2FswuOykbysWKiZPHi0bYPUla0khHO0py8bcdOFcC2trZq0wTZgWnLtu3w9PLSHx1xJIBl5asunTth4vixar9geb07duquRj6/fu2hP5KIQovBS2ZLRvTu238Ad+7eRZHChdTaw9GVBG7FCuVU3+7Vq9ew78ABFYqFCxZQo45PHD+ptgOMLLFjx9JCvjx+nzEVNapVxdOnTzF67Hj0HTBILfQhLQ9EFDoMXjJbUm3JohkSSo0a/qQ2GYjO0qROoxa98PHxxt9r/oWHhycyqebmnFrl76ymF0Vm36sEvazrPHL4EHTv2lktwiGvf/uOXbBsxSrt+bD6JQoNBi+ZrXtahXfp8mUkdkqMgvnz62ejL9nIvnr1H9Vm92fOnMGDBw9Un3a5MqXxVqv+ZZUrb29v/dGRR5aubNumJWZOm4wqlSviiVb9yqCriZOnwVm7AODAK6IvY/CS2Xr27LlW9b5WW+nJ3FOjSLDIalJeXt6qudsoUnEWLVwY2bNnV328shOTnMuXLy/iatX+tWvX8ejxY/3RkUsCX9aKnjhhLDp3aKeex/yFizBo6AjtguCh/igiCgmDl8yWLCjh5+eHFCmSR+rcUglaT08vNV/43LnzWL5iFTp27ob6DX/BnLnz4eLyUn9k5LO1tUGOHNlV4J/Wql4ZWZw6VQpkyZxZTamS/lYjyY5GHdq3xbjRI5A6ZUps2LgJAwYPxY2bNw29KCEyJwxeMltPnz5Rg3oKFcwfadOIJDxk16OBWpjUb/gzGv7SFH36D8K6DRvV6N7R4yZg567d+qMjn/RnFylUSP28p0+fhZubu+przZM7txbCAWpakdEDnWROcfVqP2LypPHaRUAqbN+xS12YnDl7js3ORCFg8JJZknC5eesObGxskTxZctXUGZEkMJ5pFeT4iVPQsk17rFi1Glev3cDzFy/g6+v7LlAkCGUnHyPJloEJEjjAQ6vCZSN7eQ4VypdFHDtbnD93LkoGOclzyJ8/HyaNH4NcWkV+9twFtGrTAbPnzlMb9xPRewxeMksyiOj0qbOIHz+eWtkpot2//wD9BgzBzN9+V03MAQGfNptK2JcsXhQF8uXVzxgjgUMC2Me1h7ePN168cFbnZC3lOHHs1cWIPPeoEEN7PQoWzI9+fXupi4AHDx9i7PhJGDZyNJ49f64/iogYvGSW/LWK19PLE9ZWVrCztdHPfjupZO/eu4c+/QZi05atahDV50jgd+zQDvG08DeSjbU1ChUoAE8PT62yPI832nOWDQxSa8/H/ZW7GmUcVWQBExl0VadObXVbLpBWrV6D4SPHaBcJL/RHEX3fGLxklry8vFT42traIVasiOvfffXqlVqTeO/+A1/sK7Wzs0O3Lp1QIH++CG/m/hrp382VKwfeav/JYhpvtOdpo118JE+WDL4+vjh+8lSUDmySPt8qlSvBWrtAEDIAbu269VrlOwbOLi7qHNH3jMFLZkeq0oOHDsNHq6YKFswHK2sr/Z5vI19XduHZum3HF9chdnRwUBvH16xRTfVtRoUkiZ3USO6Tp06rdaplF6MMGdOr6vfhw0fv+qCjStIkiRHX3l4/gmo5WPPPWkyYNEWtLU30PWPwktmR0bvHjh1HgFbVFS5YELEjaCqRDJr6a80/n12EQppOEyZMiG5dO6Fdm5aws7XV7zGWVNhZsmTWvr8dnJ1faMHro55b1ixZtH9jwvWlqzoXleR1SpIkiX4U+JzFihWrMW4iw5e+bwxeMjseHq9x4+YtxI8XVy2eEVFNvdI3KotQSBPux6R5t3ixomq1piaNf4aVVcRU2eElTd3WNlZ49fr1uz5d2U3IxsYa9+7fg6urqzoXVWTvXienhPqRBdKnT4v27VojYaKEWLFyNRYvWc7djei7xeAlsyMLVshyiY4JHZEkcWL97LeTqjFmzFiIYRFDhbl8WFrGRvJkSdGyeVNMmzIBZcuUivLQFbIzUeqUqfHq1Wvcvh24F2+ypEnU6+Hu/goenp7qXFSxsrREunTp1G25LkqVMhV6dO2Mzh3aq9d5waLF2L1nn+qnJ/reMHjJ7MhWgLJkYrKkSbUKL+JGNCdNkgRNf/1FbQIvg6YqV6qAnt27YuG8uejbuwdSJI/4+cLhZWNtg0yZMqiBSzJtR/p0ZdlM2T5QquBbt27rj4wa0v8sFyzaE1PtB7FjxdbOWaJmzWpo2awJXmsXDEOGj1SLgBB9bxi8ZHaePHkCP19/Vd1FZPUpYdG82a9YMO93LF7wB2bPmo5OHdohT55cERrwESFGDAsk04JNBlXdvn1bjWKOFTu2uniQXYtu3LipPzJqSFUrVbmF9q+QJnC5ZokfLx46dmiLUqVK4M7dOxgzbgIePX6iHkP0vWDwklmRym7Hzt3w8fVFunRpETNWxI4qlvBNED8BEiZ0VMERVaOWQyNnjuwq4GQ1LXld5LmnTZNGu+ctPLw8o3xks6zjLE3OUvVKNS4XC0KWuJRtBbNmyoLjJ05g4uSpqnmc6HvB4CWz4u3jg1tahScNmPny5lEV3/cqadKkauGM69evq43p5bWIr4Wdhfbf0yfPVDN0VFIXRXpfuTTTy0WCkGO5aBg5YgiSJE6CDRv+w5Zt27ipAn03GLxkVq5cvaZGNDs4JICjo6PJ9LlGBXkNUqRMiefPX8DlZeAoZrs4cRBDq9IvX72qmpyjkru7uwp/aTWQ0czBye9N+tGbNW0MT09PTJ46g5sq0HeDwUtmQyqi8+cvqEX3y5QupZZI/J7JylDSnCvN7nfu3FXnMmZIh3jx4qo1nL28vdS5qCK/L/mQfvj0+gjn4GSK1v/q1kbFCuXUHr5TtPB14fxe+g4weMls+Pn54/jxk9obuSVKlSxuEtN6olKsmLGQMmUKtfDH8ZMnVbWYNGkSxNGqXlkERBbSiCryXGRFLelvlt9TYqdEgXd8xClRIgwc0Fe7YEiPAwcPYdmKlYZva0hkNAYvmQ33169w5eoV2NvbI0vmLPrZ71dsy9goWqQQLLT/GT97+lwtSBErZky1S5CsXPUyChfRkOCVucTScpw1S2a1i9TnpEmdWi1KIs3Ps36fi63bd7C/l6I1Bi+ZjRs3buDBw0fqjVrNEf3OScDGjRdPTdm5/+C+2uDBwiIGZNlICWFvr5CXvjSCt7cPLl26rMI0f768aiTz58ho7IYN6qNpk1/U/N7fZs/lTkYUrTF4ySxI8+PBg0fUQJzy5cp+sYL6nqgKN4aFWs3LSw/aGDEttIrxLXz8pKk3akhTt6yoFSeOHfLmyf3VQXDSHN2sya/Ilzc3zpw5h5FjxqufiSg6YvCSWZB5nps2b0GypMnQ8Kd6qkoiqBHDUuX6aiHrH+CvVb8WquKVplp/v6hbC1mauZ8+e6bWj86rhWloJE+RHD17dFVzfv/5d532+97KUc4ULTF4ySzI3F3Z7k5WkUqUKOSBOt8j1bSsVZMStBJSUlcGzZeNytCSqURubu5qdTH7OHH0s18mP0epEiXQqUNb9TMsWbZcrVJGFN0weMnkSYCcO3cBXt7eqr8waAUkCnxtAvNVXhMLtS7yWy2EJbhiy6pRUcTFxQUBfn5InjwZbMKwfaI0SVer+iNyZM+Gy1cuY/7CxWo0O1F0wuAlkycDhQ4fOQoba2vkyplDP0tC+r7fvH0Dq9iWiBUzhha90tSshW7s2B9sRG+0i5cuqwulxImdwry6mKw33ad3D8SJExdLl61Qy0oSRScMXjJ5L13dtOrnClKmSIFUKVPoZ0kEBAQuUuGQIIHayEEqRun/tra2QkJHR/1RxpIq/Pnz5+rfzBkzfnVg1cfk8cWLFkGFcmXg6uaGf9et5969FK0weMnkyapML5xfIFXqlEigBQwFkmDzk5HL2r9JkyVVC2e81apfPy2kpOK1s4uaHZVk5Pnde/clQdWc6/CQi4f69epqP5M9tmzdgbXrN0T52tNEEYXBSyZNqrl/166Dl5cPShQrpgKFAkkz85WrVxGgvUYybUdeGwldH28f9br5RlHfqLOLC86cOQtrK6tvulDKlSsnypUphZfa1xswaJhao5soOmDwkkm7/+ABdu/Zp/p38+eXgVX8kw0iFeCpU2dU5WtrG9jM/PDhQ7i5u8PWxgZx7Oz0RxpL5t/KR5KkSdSqVeElo6GHDhmk/d7zqcVBZIqRzE8mMnd8FyOTJsFy5+5d5MyZA5kzZ9LPknjt4YGHjx+rkC1RvJg6d/nKNbi6uiJTpkyqCjaa9MXu239ADfjKnCmj2kEpvORCIpkW3s2b/qrW51791984cvSYquaJzBmDl0yavNHKG7AEizRd0nv37z/EzZu3kDFjBhQuVEiF3uXLl1UFnFu7UJGN/I3m5eWlRiFbxrZEnVo11QIf36pChXJoUP9/eOHsgjHjJmj/Ouv3EJknBi+ZLKncjp04iXhx7VG8WBH9LAkJ16PHjqmlGbNkzqRWe5IFK06dPqtWiypYML+6YDGaNDHfuHEb9trvLE2a1PrZb2OnXUB07dwRWbNmxvkLF7Fl63b18xOZKwYvmSSp3mQk6/XrN1C0SBFkypRRv4eEp6cX9uzZq8K1UMECqu/7wsVLuHLlqppylTFDBv2RxpIN+B8/eYzUqVKpj4giq5XVqlFdu9DwwqI/l+LJ02f6PUTmh8FLJunR4ydqiziZItO0SeMoGyhkiqTaO3/hgvZxCalTplRbA8pm+Bv/26TWbC5bptQ39a2Glwz22n/gIPy1fwsUyAd7+9AtFRkacmHxv7p1ULhQQe1i7DpWrFzNub1kthi8ZJLOn7+g1mYukD8vShQvGiXNpqZKmpcXLFoMD08P1K9XBylSpMCD+w+wS6uAkyZJjFo1a0TJJhLS97r/wCHYWtuiQb3/RUj/bnBJEjuhfbs2sIwdG+s3/Ienz57r9xCZFwYvmRwZtbr/4EHt3wAUL1Y0wt/AzZlUu/9t3oKdu/YiQ/r0qF27lnq9/vrnX7g4u6B6tWpIly6t/mjjyHM4euw47t27hwKF8iN16ohrZg4uX548anT7nbu3sWXLNu310O8gMiMMXjI5z148x/Ydu2BtbYNiRTmoKjipKhcvWQZfXx80afwLUqZIjrt372HNmrVqs/nKlSupitBoUoUHBWGlCuXV8pWRwdHRAQ1+qg9//wBV9Tu7cIQzmR8GL5kUHx8fLFr0J168eIFKFcurqo4CSbjNnbdANcOXK1sGVapUUqtXrVz9t9r7tnLlCsidM7v+aGPdf/AQp8+ehZNTIhQpUlg/G/Gkr7ey9nchi6ncu3cfC9TuRVxKkswLg5dMilRvq//6B/G06q1Pr+6wszN+LqopUtOHjp/AsmUrtNcmHjq2bwtHBwec00L4rzX/IFHChGj8cyNYW1vrn2EcWU1q1+49ePz4KYpqoZsmkpqZgzg5OaFZk8aIGTMGdu7erTbRIDInDF4yGUH9l8+fv0CxYkWRKmVK/Z7vm7wuZ7RqctTocXj12gPNmv6KvHlyw1ULnOkzf1PLKbZo3hRZs2bRP8NYt2/fxspVf6mR5z/VqwurSF7oRAbaFciXH+nTpVODyu7eu6ffQ2QeGLxkMh4+eqRGq8aMFRM1q1flhgg6Z2cXTJg0Ve1xK1OHZBUnGXAmq3rt3btPDThq8NP/oqRvV6b0rFu/ETdv3UaxooWRL19eQ0agJ0qUUH0vd/dX2Llrt6q6icwFg5dMgoenJ2b9Nge3bt9B9WpVUbJEcf2e75u3jw/mLViIQ4ePqBWqhgwaoDaXl1Wq5i9cpHYmqlWrhtqPNyo8ffoMm7ZsVfOtGzVsoDazMIKlpaVaSjLgTQC2btum9v8lMhcMXjIJR48cUxueS6i0atFMvZF/7/z8/LFx4yYsXbZCjebt27sHsmXNogZUbdq8GWfPnUeePLlRUQugqJjnLBcFy1euwrXrN1C4YAE14Mko8vNmyZRJdUfcvHkb586fV03yROaAwUtRTkalyjxU6ausVaOaquy+dxIiBw4dwrgJk7UjCwzs1xelS5VUgXPhwkVMmT4LsWNbonOH9nBKlCjwkwx27twFLFm6Qq0T3b5da8QN56b34ZU8eTKUKllS/f0cP35SuyDhrkVkHhi8FKUkYGQjBNlzV1Zg+l+d2qoZ8Xsmi1FINTt27AS4ubmhQ/s2qFa1inpd3LWLk4WLl+DRo8eoXbO6FjzFo2SPYk9PT6xYtQouL1+iZvVqyJc3j+FVt6zOJRcjdrY2uHDxolrHmcgcMHgpSknf7pKly/H69Ws0+Kke0kbBqkumRC5EZErVgEFD1YYDTX/9Bb80aqAGmsmiEUuWLMOG/zYjQ/p0aNGsSaSPIA6JPEcZ0PTfpq2qb7ne/+pE2UC49NrfS7y48dXYANnNisgcMHgpSj3WKrfTZ86oHXV+rFwZsaNgjWFTIYF27do19Bs0GJcuX8ZP9eqhbdtWsLe3V/ft3bcPc+cvVMcD+vVB2rRp9M80llwY/Db7D9XX3LVLxyjtGkjklAgptb+dp0+f4PDR4/pZItPG4KUotUcLkyePnyJ37txIlSqFfvb7I8F6R6va+gwYjH37D6F8uTLo17fnu9HKz549x4xZv6k5zvW1ClPuj4omZmkGX/XX36opvHChAqhXN+qqXSELreTPnw/e3j44eeoUfH25ihWZPgYvRZmXL19i46YtakpMqRLFoqTZ1BRI6J7Tgqxbr744dfI0ShYvhn59er0L3ecvXmDMuAk4e/YCfqhUUTU/R8XGEep5nr+Af9dtQIL48dXziBMnardrlH7eHypXUKO+d+/ZC2fnF/o9RKaLwUtRQt7Ejxw5hlOnziB7tqwoW7Z0lFRwUU1eB1kYo0fvfjh85CgyZMyAsaOGq1WZhAximjptJlb//Y92X3qMHDFUjeaNCjJ3eNyESXjw4CHq1qmp1ouOimlMH8uTO7cWvI5qTrFMbSIydQxeihJeXl6q2o0VMwbq1a2NxE5O+j3fD1n1acN/m9CqbQdcunwNuXLmxKjhQ5A6dWp1v7OzM6ZMm4HVf/2NTFogDxnYX+1JGxXkAmH9ho3q4kDmEjf5tXGU7PkbEqn+kyVLpjbYuHL1mnquRKaMwUtR4s7duzhy9KjazUbmYppC5WQkmXu6dt0GDBw8TA1WKla0IGbNmIoihQtplb+FujCZt2AR5v6xAHZ2dhgyqL/amzgqWgUkyGRJyN/n/KGWZmzapDHSRdHArpDI306unDnU7WPHT6gLGiJTxuAlw0llMn/BYjx7/hwlSpRAihRR03QaVSRU/5i/AEOHj4KHhyca/9II48eORsYM6VSIeHh4YNqMmVi4aAkSOCTA0CGDUKJ4sSi7OJEm3GEjRuHhw0eoVbM6qlSuaFIXSvJc5OJE/n365Cm3CSSTx+Alw126cgVbtm5DksRJ0OzXX2Br+/1s/Sf7DEvz8eQp0+Hh6YFff/lZNS9LBSnB4ePri6XLV+KPeQvVceeO7VG9apUoGzns6emFBYsXY9fuvciVKycGDeiLBFG0LvSXxIoZCxbafw8fP4Kzi4t+lsg0MXjJUDL3c8uW7XB1c0fFiuWibCs7o0lz7dWr19C3/yAtVBcgRqxY6Nq5kxas7d71lcpj9u8/gJmz5sDK2gZ9endHw5/qRckIZqFaJhYu0irvperiqG2blkjo6Kjfa1qkeV6W1nz1ykM13ROZMgYvGcrN/RX27d+v3sjLlCoVZaFiJC9vb+zYuQudu/XEpi3bYG1jg+5dOqFt6xZqneMgMr1q4aI/4eHxWgXyz7Lbj/bYqCAXSJu3bsPvs+eqC4KunTugSuVKJtXE/AH1vN6oZnrZWpIDrMiUMXjJULt378b1GzeRKWN65MmTSz8bfUk/tkzB6dm7n1p0Ik2a1Bg9chiaNP75g3nLsjDFug0bceTYcbUlYlQuTCGhdfTYCYyfMBnur16jYYP6UTZ3OLTkQuGtVvHK6ygjm2WfXiJTxeAlw8hG97Pnztfe2KG9mf8ERwfTbLaMCFJ5yYIOnbp0x4KFf6qqV+a9Tho/Rm0q8HEl+/TZMyxdtlKdb9G8CRwcoqYfVUL39p07mDRlGh48fKQ2Z5DqXAYvmTLZQlH9YWkuXbqMe/fvq9tEpojBS4bZvXuvWiwib+5cqFWjulZBRc8/v0ePH2PIsJHo1LUHDhw8jHTp0mLc6BGYNX0yChcqGOKUoFOnz+DGjZvImSMbCuTPF2VNurJK1tjxk7SK9zgKFSqgBlPFj/++OdwUycWC7Ez0VvtPvNYuemRpTSJTxeAlQ0hFIhVgTC10amqha2cX/UYySx/tuvXr0a5DF6z55184OTmpvtoFc39HrZo11GjgkEJX5p3u2LUL/gEBKFG8BKytrfV7jOXi4qJGXG/ZugM5c2bH4AH9kCxp0sDuUxN35+49FcDyIc3NMnqcyFQxeMkQV69dw9HjJ5AwoSOKFy9iuoN0wkje6H18fHHs+El01irc7r364fKVK2jUqAH+XPgHunftrCreL/280h956uQZrbKMi+LFikTJIhmvXr/GjFm/Y8XKv5A0aWKMHD4UOXJkN4vfk6z1fevWbfW7COLyklsEkuli8FKkc3d3V32Gbq5uqFb1R1VFRQfSLLt+43/o1qMnWrRui0NHjqJgwQKYNmUi+vXuhRTJk4dqgJRclMgiFenSpkMafblII0l/9Jw587B02Qo4JUqoVsnKnTMHYpjJxdFLl5dw0/7GZDpREO7NS6aMwUuRTkaZ7t6zTy3u36lDuyhrSo0oUlldv34DvXr3Q9duvbB2/UZ1rke3rpjz2wy1g1Bod+2Rz7t58xa8vL1QtEhhw3f78fbxVktT/j73D1jEiIlePXugcsUKJrMO89fI67dt+w48fvzkg4pXmv2JTBWDlyKVvBkeOHgI3t7eqFihPBJpFdXnyGNlNx7pozNVshzh9h270L5jF+zYtUetNd2yeXPMn/s7WjRrovaHDUvzbGD/7h7tlgVSpUxhaDOzr68vlixZrja1t4xtiR5dO6Paj5XNam61rKx18PAR9bPIVoXSlSGcnbl6FZkuBi9FKg8tSLft2KnCqGjRz/ftSuheuXIVHTp3x5at29W8TFMjKzmtWv0XunbvhQuXLiNP7lz4c+F81TQro5WtrCz1R4aeXJBcu3Yd1tZWyJ0rp2HBqzZpWL8BEyZPVWtHN27cCM2aNo6yBTvC6/mL5zh95qz2vK3Rp2c3dGzfVl04yHKcRKaKwUuRRsL0jPamePPGLTglSqSmEX2O9MmNHDMOW7dtR98Bg1QoBG86jGovtApq9NjxGDVmAjy9PPFLowaYMnEcMmXK8E3Toh49fgJXNzdYWlrCwcFBPxu5fLXQ/XPpcowYORZvAt6gdcvmaNu6pXoO5kaamKW6lT2dq9eohsyZMqnq/fXr1/ojiEwPg5cijVSte/bug7dWKVavXvVdM2BI3mghK4OV5HNkoNH8hbJ0oqd+b9R69uw5RowajT/mL1ZTftq2aYXhQwchY8YM3zzq99Gjx1pIeKglNGNbRv5KVdKUP2/+QowZN0ENqpKfpWf3LnAwwY0PQuPCxYuqYi9WrKiariV/Y/I6SkUvWxgSmSIGL0UaqUT27jsAe3t7NKj/vy+O8JVqyyp24BKKUuleungJM3/7XfXdRaWnT59i0JBhWLtuI9KmTY3JE8aqAWIR1SQrQRgQ4Ie4ce21Si1yg1dGl8+cNRtTps5Qu/n07tVdrRdtroPdXr50xdZtO7XXLi5+qFhBzRGXvzX5W5K+X+kaIDJFDF6KNNdv3MCt27eRNk1qZEifTj8bMqkbgzfZempVzKI/l6rqNypI+Es1KrsJbdy0BUkSJ8ao4UPxY5XKsIvAbQxlcJVUZvZx7BEjEgc1yZrRQ0eMwm9z/tC+Twx06NBWDQaLEyeO/gjzoroxzp5VG9/LXsVBc46ttNCNHTuW2hrw2bOo+dsh+hoGL0UKeWM8duwEvLy8kTt3rg82BAiRNNl+1GwrnxtV00LOnj2H7r36YOeuPUiaNAlGDh+ivcEXjfARv2oEt/Za2VhbqSo04r1Vay4PHzkGf69ZiwQO8TF2zAi0aNokyjZhiAjSvPzP2vWqWm9Qv+67/mn5meJpVe+rV6/w5OlTdY7I1DB4KVJIoJw9fw5vtX9ltO7X+kJlE3N5RPDHSchZGdwMKn3NsnvS4GEjsG//AaTPkF7155YtUypS5rbKBYp8T7kwCdxTNuJID+et23fRTwarrduAFCmSY1D/vqhRtSpsbc1r9HJw8pqdO38B+/YdQMaM6ZEje3b9HsBG+7lSpEwBf/8AtWYzkSli8FKkkGX8ZNCQVLGyFd5XfZQ5EsAOCeIjsVMi/Ywxbt++raYLnTx1BlmzZFEjlyNzQQkJEbnWkK//rQO1PiYjfgcPHY5du/cio3YBMW3yBFSv+mOEV+1Gc3Z2xuSp09VqVbLTU/A9ja21C5ikSZJot96qwXny+hKZGgYvRQqJEAmSt2/ffJypIdPfH9UOM9onSEXWvVsXNVjGKE+ePMXoMRPUTkH58+XDpAljkStnDkOCKlbs2BE2h1fCRkJXpj/t2bMP6dOlxbAhA9WuR+bcvCxk1Pu6Df/h8JFjKFQgP36qV/eDiyJ5DW30Pvjnz5+b9GIs9P1i8FKkkDfAxE5O2i0LvHr19TmVUuxZqn5gC8SwiIE8uXOjRvWqhlVn8iY9dOQobN+5CxnSp8fggf0MWdBCrjekKIsVK2aEVbxPnj7DyNFjsV4LqLTp0mDUiGEoXqxohFfUUUFGyv+95l/1d1Gndk3EixdPv+c9abKX11RGxLPiJVPE4KVIIW+MefLk0v61gJubm37286SPs26tGkiXNg0qlCuHPr26R+jo4S956eqKiZOnYuPGTWr09YRxo5BXe+5GBFVQMMTSXi8L7YLjW92//wDDRozChv82qeblEUOHoFjRwoZdwEQmmZu7+u81aoWz9NrvSVZC+5j8zuTCTbi4vGTFSyaJwUuRRiremDFiqTD4GgmGWlrw/rlwHmZMC9ww3ojgkybZ/gMGY9XqNXBySoxBA/qp721UUAUFb8yY0serboabTBkaOWYsNmgXEClSpMDwYYNRskSxaBG68jpJF8Cs3+eon6d1i2ZIkTyZfu+H7O3jqL8dmWrkE8XzwIlCwuClSJMsaTJYW1viybOnoWrykykhUqUlSBDPkNCVCmruvAXYuGkzEidJjHGjR6gpQ0Z87yBBa1IHBm/4v69Mu5KqfdPmbUiVKqUaiV20cKFoEbpC1rSWFbfc3dxR7391ULNGtRB/NnkNZVyA3MeKl0wVg5cijexEZGNtjQsXLkb5ClQheeHsjP82b9bC7w1aNm+K8uXKGD74yF8LfwkL6ZcMb/C6urph4pTpWK1V7Y4JEmBgvz4oW6Z0pPdPG0UWGdm0ZYvaWjJZsmT4tfHPn11tSy7vZI6vBK5/gH/gCSITw+ClSBM3XlxkyJgJN27ewrXrN/SzpsPXx1dVUBK22bJmjZKgsnj3PQMHBIXV8+cv1OYSy5av1CrdVBg9ejgqViinlk+MLnbu2o3BQ0aqwXcD+vdGhgzp9XtC5qP9XqWFJWaM6FHtU/TD4KVIE9feHj9UrggvT0/MnvOH2nTdlEhlJDv1ODo6IHnypPpZYwWOwH2rfUiTaNiSVzaVGDhkKFauWq02CJApQ1UqVzLLXYY+R5btnDxtBlxevkS9/9VGtR9/ROwvzanWXsuAN4HN91bWVtqFjXHdBkShxeClSCP9bDIlSCqU7Tt24MrV6/o9UU+aL2UNZmkCz50rl1qLOSrEkGUitWx4o4I39GQbxbHjJmDT5q1qINU4rdI1un86sj18+Ag9+/THxYtXkD9vXjT55Wc17eprAvwD1MWMo4NDtGlup+iFf5UUqWRkc53atdUqVgsWLFJVZmgGWkU22dlm+46dsLGyUXvRfnUt6UgSQwtKFZXaSxLagUCyFOLUaTPx9z9rkTxZMowcNgQVK5Q3+8UxgpPRyDLwTbaVzJY1M36bORXp0qXV7/08+dvy9QscT5A5c6YvV8dEUYTBS5Guyg8VkT17djW3tFvPPmrR/qh25uw53L5zB1mzZUbmTBmjrFKU76quQ7QboXkOsrfxgoWLsXjpcqRMmRITxo9BmdIlo1Wl6+HpiTlz52Hlqr/gpF24yZzulClT6Pd+mazR7KpdVMnrkTNH9mh1MULRB4OXIl3qVKnVmsepU6dWqylNnTZDbdsWVZWvNC/LFCJZy7dokSJRujVeUGDKZhJfIxvXL1u+Ar/PngsbG2v06dkdJYoVjbR1pKOCTK/atHkLZsyaDWvtZxw7ejjKlikT6guLV69f4eLly1rgxkIqLazZ1EymiH+VFOlkAFG2bNkwoG9vJEnspLZzGzh4GB4+eqw/wjgS9rLO786dO1W/bvVqsmlA1P3PQAJFPqRpVfbl/RzZMP/3OX9g/MQpqu9cXksZvRzaQDIHMq9605ZtmDhpqgrgLh07oEK5survJ7Tc3Nzx+PFTJE+eHFkyZ9bPEpkWBi8ZQt48y5UtjSmTJiBTxgyqqpk0eSqePXtuaOUre7ROnjYdHp7eaNmiqfbmnClKw0uqVXltZFqQr6+PfvZDsi/xH/MXYs7c+SqcO3fqgHr16n52Lqs5kqDds3c/Rowcoxa+6NC+DRo2qBfmav7x48fw9PBA/PjxtY9P13EmMgUMXjKMVGqyhOGMqZNQo1pVbNuxE5269sCRo8fh4xNy6EQkGcm8du0GnD9/UW319/HONlEhWbKkak1q6W9W2yh+RJrFl61Ygd9mz0WMmBbo3LE9fmnUAJbRqO9SKt3NW7aqfYMfPX6C+trvpW2rFrCxCfuewU+fPVNTxBI6OuhniEwPg5cMJX1umTJlVDvm9O7eDQ8ePEDnrt0xYtRYXLh4OdJWuJL+0RWrVmP23HkoXrQI+vXtpea+RrWMWvXv4OioBgS9ePHig+pfbu8/cBAzZ81WFw2tW7ZEy+ZNYGvQ5hFGkN+3rEg1cvQ4PH/hjPr/q41uXTvBzs5Of0TYnDt3QY0OZzMzmTIGL0WJuHHt8csvDTFz+lTkzZsHq/5ag+Yt22Ds+Em4dPlKhCxuL8Ela/weOXoMg4YM197cxyN58mQYNLCfGnhjCv2jtlpVJ/2RXt5euHDpsvac9Ts00uQq6xO/cHZBg/r10KpF03BVgaZKRmjLxVBfrdKVLoBaNaqhX59eWrXqqD8ibOTi5MrVq+r3niN7Nv0skelh8FKUkabnPLlzYcLYURg2ZAAcHBJg8ZKlaNK8lRp8tX3Hrk+qwK+RvkLZMOD0mbNYvmKVmr7UtkMXNec1U6YM6N+vt9oY3lQGJUlTd/mypdWcImlufqOvuiRV2+69+3D8xEkUyJcX7dq00i5W4qr7ogP5HS1cuBgTJk1Ri4HIWtmDB/ZX63uHl0xTu3nzltqjV37HRKbKInvOPJ+8q+3euk6/RWQMCUwZYCTTjZYuX4m79+6pYM6eLQuqVK6MnDlzIE2aVGoZyphaWMlaxDLQSBbkkM0OXmrVoUxRunjpEvYfOIQ7d+7C/dUr9bWlyq1ZvRp+afSTqi5NbSTwf5s2o2OXbihYoCAW/DEbceLY4ZX23Dt27q6amseMGob69f4XbUYwy/7HY8dNwuq//lbLWzb59Wd0bN/2my4s5OJs05ataN+xC0qWKI75c3+PskVRiD5WtnJN/VYgBi+ZFGkufPDgITZv3Y6/tDfmW7fvwF8LZXu7OFo15Ag77V9rGys1j9Xfz197E3dTu/O8fv1arQUtA3VixIipVswqWDA/SpUohnx582qhnUZ7kzfNAUk3b91GvZ8aqqD4e/UKJEuaFIePHEXzVm3VcpCL5s9BCu2CwdxJOF6+fEWNKt+5cw/ixouP3j26onat6t/cby19xV179FYXMd26dELXzh31e4iiHoOXzII0tcomANu27cD2Xbvx4P59uL500ypcT7VkoqxQJH+4MlgrblwJZSekSZ0KhQsVQpIkTsidM5da7cja2vSrnlevXqN+w19w9eo1zP59BsqWLoUhw0bizyXL0LFDO/Ts3hWhWaPYlMkF1cmTpzFm3HgcPX4SWbNmRp+ePdQUs4hYXer+gwdo9GtTvHR2xV+rlyErB1eRCWHwklmRJmiZx+rp6aEGG8kay9Kk7OfnC1lvImYMCyROnBipU6VSA7Zk8JGEsTk1y8p+wAMHD8ViLWg7dWiLJo1/Rss27XHr1h0sWTwfBQvk1x9pnry9fbBu/QbVn/tMu5jKnTMnBvbvq/1c+dTvKiLIeIC27Tshe/ZsWL5kkWquJzIVDF4iE7R33340btpSDS4qVDA/tmzdjuzZsmHJonkmMe0pvKSv+rfZc7Bw0RLV5169WlUMGTQASZMkjtCLo7HjJ2L6zN/Qvl1b9OvdQ40PIDIVHwcvRzUTmYBsWbMgS+aMaiu8des2wtPDUwvc+GY7fUj6cx8/eYLRY8erpS5lQFznjh0wfMggJEuaJEJDV8Jd5gLLa1WqRHGGLpk8Bi+RCZCqtlDBAiqQZDCZdgNWVtZm1WQe3N27d9G7Tz/VfG6t/Rx9e/dEj+5dkDixk/6IiCEBv3X7Dly7fgMZ0qdHrpzZ9XuITBeDl8gESJVWpkxpNbo3KGzNMXJ9fXyxd98+dOjcTatC92thmAFTp0xUy3NGxt64snnEjp271ajmWjWqR6u5zhR9MXiJTICEba6cOZA6VUpVxcmHv7+v9q/+ADMgU7qWrViJLt17q/2Oc+bKickTx6p1sWW+bmR4+uw5zp47p0aylylTKsIGaxFFJv6VEpkIhwQJkC9f3nejsv38ZRUr009euUi4c/cuRo4Zpz6kz7VWjRr4feZUFMifL9Kay+X7ntUC/unTZ8iaJQtSpjD/uc70fWDwEpkIaW4uXapEsLnHph+6MhXq1OnT6NS1O5YtX6U2N+jTqwfGjh6BNKlT64+KHLLU5MrVf6nVy4oVLQqbaLR5BEVvDF4iEyGVYb48edSc5EgqEiOUbEAh83O79eiDU6fOqHW3p04ajyaNf4G9fRz9UZFDFlg5eOgIDh0+ggQJHFCkcEG1jCiROeBfKpEJcXJKpFW9JVVzs/TvmmLNK028spiJTBPqP2gI7t2/jx8qVcSkCWNQtkxpWFlFTn9ucD4+vti+c5dar7ti+bLImYOjmcl8MHiJTIjsViSL/NvZ2eK1x2v4+vjo95gGqTTPX7iA7r36YMbM39Xa2C2bN8O4MaOQMUOGSOvP/dijx49w4uQpODo4oPEvjSJk2UkiozB4iUyIBFeOHNmQPGly3LhxUw1aMgVS5bq5uWP1X2vQuUsPtUSjzMkdOKAfunbugIQJHQ0LXQn7des34t69+8iVKwcyZcyo30NkHhi8RCYmQfz4SJ8+Ldzd3VVVJ1VmVJLvf+36dQwfOQoDBw/B7Tt31eYGUyaNx68/N0ScOJHbn/sxCdwVq/5SVa7MD+a6zGRuGLxEJkbmvBYvXkwFnuzH6+Xtrd9jLKlyZcvFf9euQ8tW7bH6739gF8ceHTu0xdTJE1C4UEHDl2eUXY42bdmGR48eo3zZMqhYoTzn7pLZ4V8skYmRIJHlIx0dHHHx4mW1frPRJHSv37iBPv0GoE//Qbhx65bacnHO7zPRuWN71bdqVNNycLJgxpp//oWtjQ3+V7c2rK2t9XuIzAeDl8gEpUmTWk3PefHiBU6fPqufNYZME1q/4T906NQV/23eAocEDujetTOmTZmAIlqVKxv2RwVZFvLPJUvVKOpKlSqgUKEC+j1E5oXBS2SCpKIrVbKkGkh06PAh+Bg0ulkWo1iybAX6DRiMy1euoUjhQpg9a5oWvJ2QPFky/VHGkwr82LETmDtvIVKnTo3+fXupvnAic8TgJTJB0tycMWN62NrZ4eTpM2qVpsgkwfb48ROMGTcB4yZMgq8W+A0b1MOMaVOQN2+eKN9qT10QLF+uPc83aNL4ZyRLmlS/h8j8MHiJTFSWzJmRMnkKPNEC8dyFiyocI4N83UuXL6tlHxcuXqqFfkz06tEFQyNhw/rwCAgIUE3fO3ftQbZsWfHjD5Wj/DkRfQsGL5GJcnR0QJkyJeHl7YUjR46qEb0RzcPDA5s2b0GnLt1x+Mgxtb7yoAF9taqysVp32RQcP3FKq8Qnqr5muRhIlCihfg+ReWLwEpkoWcVKlo+0j2OPw4ePqqk9EUmab+f+sQDdevZRG8lLf+7M6ZPwc8Ofgm3UELVevnTFuAkT1SCzxj83jNTdjoiMwuAlMmGZMmVEypQpcfXqVZw7f14/++3uP3iAIcNG4rfZc1RTc/OmTTBt8gTkzpXLZObFPnz0CN179sbpM2dRs0Y11K9Xl3N2KVrgXzGRCUvo6Ih8+fLAy8cbO3bu+ubmZglZZ2cXjB8/CctXrFLVtGzj169PL6Qwof1sZUrTnD/mY+v2ncifLx9Gjxyulqgkig4YvEQmTJqbK1esABsbW5w8deqbm5tv3b6Dvv0HYP1/m5EqVSqMHDFUjRK2sTGdhShev36N6TN/w4qVqxE/fny0atlM+zeefi+R+WPwEpm47NmyIUP6dLh79z4uXbkSrtHNsvzkjZs3MWDgYPy3eZv29dJj0sQxqFypgknt7CMjmNesWYvZc+apZuU+vbqjQrmy+r1E0QODl8jEyc4/spiGh6cn/vl3rWqGDQu15vP+A+javRcOHDqMzJkyYsSwwShSqFCUz88NThYJ+fuffzFlxkw1j/iXRg3RoP7/VNVPFJ0weIlMnIRjmdIlEdfeHvv27Q/T2s1eXt7YtmMn+g4YjDNnziFf3ryYOW0yihYpZFKjg9W0pk1bMGr0OLx0eYka1X5Epw5to2x5SqLIxOAlMgM5c+ZQI5xfvHBWo3xDQ9Y2XvTnEvTp0x8PHz1G1R9/wPQpE9UiFKYUuu6vXmPajN/UxYHLS1fUqlUTw4cOUv27RNERg5fIDMSxs0O5MqXx5k0A9u4/AO+vrN3s6eWlhe5STJoyDe6vX+OXnxti9KjhavMFUwld6auW6n3MuPH4Y/4C1afbrm1rDBnUDwkTcpEMir4YvERmQEKpUKGCsLO1w65du3Du3Ofn9MoApY0b/8OUaTPg7+ePpr82Rt/ePdRWfqZCQlfWhh46bASWLF2uVsnq27snunfpCIcECfRHEUVPDF4iM5ElcyYVvu6vXql1i2Xnoo+90QLtyLFjmDR1Ol69eo0a1auhU8d2qn/YVMjzPnL0GDp16YYt23ciefLkGDF0iFaVN4CNjY3+KKLoi8FLZCbixYuHBj/Vg2VsK5w4cUINnApOqshr165h2LBRuHv3HgprIS2VrilVkDKIauXqv7TQ7YFDh4+qaVKTJ45H9WpVTGqENVFkYvASmQnpm82eLSucEiXEtRs38OTpE/2ewNC9fvMmhmihe+HSZeTMkQMD+/VGsmSmsX2erLh14eJFtUzlwMHD4OzijIoVy2Pi+DEoXrQwpwzRd4XBS2RGUqRIgaxZs8DN1RW3b9/VzwJu7u4YNnw09u7bh6SJnTBm1HDkyZNbvzdqyTxiaRpv0qwllq1YqUK2Q/u2mP3bDOTPl1d/FNH3g8FLZEak6pWlHv0D3uDcuXOq0pVN8kePGY99+w8gSZIkGDxoAPLkzh3lo5cDm76vY/CwEejVt79WoT9H8WLFMPf3mejQtjVs2Z9L3ykGL5EZkX7QbFrFK+7cvaeacHft3otVf61BDC1oW7VohmpVq2hVZdT2l8p0pu3bd6Jth86Yv2ARPD08ULd2TcyYNhnlypbhICr6rjF4icxMokSJYGlphWMnTmDzlm1YuHiJWm6xVKmSqP+/ulE6SEn15V66pKYJdeneC9dv3EDOnDkxetQIjBoxDEmTJDapxTuIogKDl8jMSPBKM+2DBw/Rq09fnDh5So1cbtempXZf1Cw8Ic3KHh6e2PDff2jdpgOWLFsJP38/1K/3P/y54A/tgqAO7O3j6I8m+r4xeInMTPx4cWFpZYmAgDd46eqOWFqFW08Ltjy5c+mPMJaE7pWrVzF46HD06z9YNYHLqOpJE8Zh6KABSKJVuUT0HoOXyMxY21gjdqz3W/nlypUT7dq2gq2trX7GGLI5oZf05e7YiWYt22D5ytXw9fNH2bKlMW/OLNSsXpVVLlEIGLxEZiZGjJjv+kllKclKFcvDKVEidWykB/cfYMSoMejZuz/u3LmnKlvZ3GDqpPFImSql/igi+hiDl8jMxIxhoYJXPmQxjfLlyqgANoI0K7u4uGDjf5vRoXM3LP5zGV66uqJA/nyYPGEcGjWoj0QJE4LDp4g+j8FLZIYstPCVsC1evBjSp0+vn41csvnClWvX0G/AYHTr2QfHj5+ApZUVfm7UALNmTEWpUiUMuwAgMmf8XwmR2QmsJ2XakKz8ZGVpqY4jiwSu7CQ0b+EiNGveGus3boK3t7faI3jU8KFqacrUqVJqlTjfTohCg/9LITI3ejuuBG7aNGkidV6sLPe4/8AhtGrbQa2Odev2HTg6OqBjh7b4Y84s/FS/LuLE4QAqorBg8BKZm7dv1ZBiWztbpEsbOcHr5e2FEydOYvDQEejYpRtOnjqNBPEToGGD+pj7+yz07NZFq3JTcUchonBg8BKZGdnP1v+NP2LGiKmmFkW01x4emD7zNzRp0RrzFy6Gi8tLFCyQT21qMHHcaBQtUpiBS/QNGLxEZubS5atwcXZRTb7WVhEXvNJvu237DrTr0Bm/z54HN1d35MubB+PGjMS8Ob+hcKECiB07tlZh659AROHC4CUyI9LneubMWXh6eqmN7uPHj6ffE34yRejps2cYNWYcOnbuhu3bdyHA3x9Vf6ysArfxzw3h5OQUqX3JRN8TBi+RGZFm5tPnzqqm3rx5vm3rPwnxhw8fYcGixWjavBUW/bkUXt4+qrKdNGEsxoweweUeiSIBg5fIjNy7dx/nzp5HYq0CzZ8/fJvIS+C6urph67YdaNOhkxpAde78BTg4OKJ929ZYOH8u6terqzZeYJVLFPEYvERmQpqE9+zbD2cXFxQokB+JE4etGpXPf/zkKRbIfNyWrdClew+cPXMW6dOnQ59ePbBs8QJ079pJC+AE+mcQUWRg8BKZCXd3d+zYuUvdrl71B9hYh25glTRPP332HNvUxvRahTtsFE6dPodECROhR/euWLFkMTp3bI8cObLByspK/ywiiiwW2XPmkU1GPrB76zr9FhGZiv0HDqJ1245qNPPK5X8iRfLk+j2fkupWmpRv376Nf9dtwM7de3D71h14eHoibZrUaPxLI1QsXw7JkyeDZSSvfEX0vStbuaZ+KxArXiIz4KtVrbIxgaubG0qXKoWkSZLo9wSSoPUPCFDBevv2XWzXKuMhw0aicdOWmDZjFm5cv4nkKZKhc4d2WLJ4Plo2b4q0adMwdImiACteIjPw6tUr1G/YGBcuXsLMaZNQo3o1dd5TC9qHDx/i2bMXOH7yhBokde3aTTx7/gxeXt6wsbFRo5Tr1q6NAgXyqkFZgXNxOWiKyCgfV7wMXiIzcPXadfzcuCkePHyEggXyI2fO7AjwD8DDR49w4cJFLZhfw8/fDzFjxkJce3skTZoEuXPlQsWK5dTj48WNq38lIjIag5fIDO3bfxBt23eEs8tL/UwgqVzjxbNHgXz5kDVLZmTOnBnZs2dDwoSOWtjGg6Ulq1uiqMbgJTJDPj6+2L5jJ44cOYa32n8y+tjePg7SpU2rpgOlTJFcO7bnfrhEJojBS2SmZJSyfASRSlY+GLZEpo2jmonMlARsrFix3n3IspEMXSLzw//VEhERGYjBS0REZCAGLxERkYEYvERERAZi8BIRERmIwUtERGQgBi8REZGBGLxEREQGYvASEREZiMFLRERkIAYvERGRgRi8REREBmLwEhERGYjBS0REZCAGLxERkYEYvERERAZi8BIRERmIwUtERGQgBi8REZGBGLxEREQGYvASEREZiMFLRERkIAYvERGRgRi8REREBmLwEhERGYjBS0REZCAGLxERkYEYvERERAZi8BIRERmIwUtERGQgBi8REZGBGLxEREQGYvASEREZiMFLRERkIIvsOfO81W+/s3vrOv0WEdG38fL2xts3b/H27Ru8efsWAf4B8PD0gIeHJzxev4a79vH61Wu8ko/Xr+Dm5g53d3e4urrC5eVLuLi8xLNnz1Gndk3079tL/6pE5qNs5Zr6rUAMXiKKNL6+vqj0Yw0tYD3grQWwp5eXFrgeePPmjf6I0PuxSmUsmj9XPyIyHx8HL5uaiSjSvNUq3Js3b+HuvXt4+uyZVtW+ClfoEkUnDF4iijSxY8fG3N9nonvXzkiTJrV+luj7xqZm+qK69Rth/4GD+lHk2vrfOuTNm0fd/qlRY+zes0/djmxbN69H3ty59SOKLNLsPGX6TMyfvwiubm762dBjUzOZKzY1E1GUsLS0RK/uXbFowVw4OjrqZ4m+Pwxe+qI8eXIhb57cSJUyBWLGjKmf/XYxYsRAksSJkSVLZhTInw8VK5RHwoQJ9XuB/Pnyqo9UKVMiVqxY+tlvJz9DYicnZMqYQf1cZUqXQoJ48fV7KbLJ771woYIoXbKEfobo+8OmZvoiGRzj5eUNNzc3PHjwAGv+XYcFi/7U7w2fpEmTYPDAfiiYPz/ixrWHjY2NqoYsLCz0RwR+Xx8fH7x0dcX9ew+wfOVq7WOVfm/4ZM+WFQP69dZCNyPs4tjBxtoG1tZWKgzIWEuXrUD3Xn31o9BhUzOZKzY1U5hIGNra2qiwLFiwAMaOHoF9u7YjU6aM+iPCxkoL2KmTxqNu7VpIlSol4sePDysrqw9CV8ixtbU1kiZJgkKFCmDq5PH4a+VSOCVKpD8ibOT7zJ41HRXKl1Pf19HBQf1cDN2okSjR+9YNou8N33UozLJkyYR2rVvqR2FjY2uLQgUL6kdhU6pkCdSoXlU/CpuMGdNrHxn0I4pqMWJEXLcFkblh8FK4ZM6cSb8VNtK0a2dnqx+FjVTBQaOewypL5sysbonIJPCdiMJF5meGR8xvrHSkLzg8wvt5REQRjcFLRERkIAYvERGRgRi8REREBmLwEkWAgIAA+Pn5Be7A4+mpduCRbe5ev36tbnt5eal5yf7+/mqOsqmTn0eer2zd90q27dM+5OeSc3KfuZONGuT3JT9P0I5J8jPKJg6BvzcP9fPKloay1KW5/N7IPHABDQqXs+fOo+IP1fSj0EueLBlOnzisH4Xdug3/oVWb9vpR6LVo3hRjRg7TjyKGhOmFi5dw+PBRnDt/Ac4uLnjh7Ax3N3ftDVvezD0RO1YsWFlbIa69PeLFiwdHRwckSpgQBQvkV/OTZTGPiFwR7Ft5aGGzZcs2bN2+A7du3cajx49VEMlgunhx4yKRUyKkTJEcZUqVRJUfKn2w2lhYbN+xCz//2kw/Cp1vXUBDLork7/b48RO4cOkyXrx4ofb6dXN3V4ErIezj46tWSpPR97a2togTJ476uR0cEiBJkiQoWrgQSpYohsSJE+tflejruB8vRYjvNXil6nnxwlkF0/SZv+HOnbv6PeEjy2V27tgOxYsVhb0WzqEhVZja0zbgDQLeBGgVmR88tZCXCu212mA+8EMCM+jfV6/c4eYmm8y7wdXNFc+1n0Eq163/rdfC01FVdPI77dSlO27cvKV/py9z0kJ42OCBqFa1iloEJSyMCl75GZ9rAbv6r3/w++y56uLoW8WKFRMd2rVBq5bN1UXUx4u/EH2MwUsR4nsMXjetkp099w+s+Wct7t67/9mmRwmhhj/VQ66cOeDr54edu3aroPkSWc6yya+/oEH9/6kVu75k0Z9LMGXqTPj4+qgqTpb0DE8zqFR0+3dvQ8JEiTB67HgsW75KNbeGRezYsbTK9wdMGDsSCRIk0M9+nRHBKy0So8dOwNr1G/D06TP97Kfy5s2N8mXLaFWtg1bhP8GSpcvVBcrXpE2TBr17dUOdWjUZvvRFXDKSKIykP/Dy5av430+NMGnKdNy5e++zQSfNxhPGjcb4saPwy88N0bzpr1i6eAE6dWj7xSbli5cuo0+/gWjdrhOePHn6xSB11yrYx0+eqGZST0+vcIVuoLd49vwF2rbvhDlz54c5dIWfnz/Wb9iIJs1bq+djKu7dv4/qtf+HOX/M/2Lotm3TEps2rEXvnt3RUrs4GzygLwb176Pf+2W379xB95591YVV+H8H9D1i8BJ9xe49e1G/0S+qyv+asqVLoXbNGvpRIKmGOrZvi9SpU+lnQiZv3lu2bkOd+g1x6vQZ/eynqlSuhGFDBqJSxQr6mfDx9vZB67YdsXnLNv1M+B0/cRIjR48ziQCS59CrT3+cO3dBP/N5sufzm48Gi9WtUyvUfddSVbdp31n18ROFFoOX6DPkDXzX7j2qmvtS1RREKtoB/frAyurTVbKkGbZ50yb60ZfduHETLVq3U8ERUpBlzJAe7dq00irp+Th57CBq1gh7k7+QSv7Bw4fq67Vq0Qyzpk/BRK1aL12qZJhX+pK+1KXLV2DNv2ujPHz/WvOvCtTQuHr1mrpoCM7Ozg41qv2oH32dDMxasHCxfkT0dQxeos+QQTl9+w9S00lCI3OmjMiWLYt+9KlaNUMfkI8ePUb7Tl3w8NEj/UzIUqZIgWmTJ6Ju7Q/7kEJDKnFpCl//718YOXwI6v2vDn5t/DOWLJqHIYP66Y8Km9lz5sHd3V0/Mp6E/oRJU/Sj0Nm3/6B+670c2bPrt0Jnz9790WKaFRmDwUuGkiBxSpY63B/hGVgVHjJoqWv3Xqo/N7Rk44gvDbKRLQ1l8/3Qunb9BiZOmqpGHH+JbG/YpXPHMFepsg9yh/Zt4Ojo+MHzlsFdrVo0R30tiMNK+qqPnzilHxlPLpJC0zoR3N27d1X1H5yTU9imSUmf+9mz5/Qjoi9j8BKFQEbd7ti5Wz8KncROTvqtz8uWLat+K3RW/bUGu3bv1Y8+L1nSJGp+bVhI2FrG/nxYN/6lkRr5HBZS9c2e84d+ZDy5+AjrXr8WMWJ8csFkHcbpUeL4yai74CDzwuAl+ohUP8tWrNKPQk8WyPia0IRzcBJkv2tBJlOGvkSCQxZ+iEiylWL8UPxMH9t34OA3z28OL3kdOncMW6tIzhw5PglehGMLyYcPH+q3iL6MwUuGih8/PkaNGBruD5kfG9lksMzhI0f1o9CT1Y2+Rn7+sLp06TKePnuqHxknXry4KFqkkH4UNidPn9ZvGe/nhg1QqGB+/ejL5GKp3v9q60ffxtnZdKZTkWlj8JKh7Gxt1Qja8H6UK1dW/0qRR0bFyjSRsJLRsF8Txy5sTbfipasrDh46oh8Zq2TJEvqtsDl69HiUjW6WlaVmTJuMOrVqIMFnLnSkf7typQpYt2Y1Ejo66mff8/f7cr96SD4umok+h8FL9JG//1mr3wqb0PQLfm1Vqs/ZE8rpMREtc6YM+q2wkTWeo3KUr6wq9fus6Th2eD9WLF2MIQP7o0unDhjQtzcWzp+jVk/7c+G8T0ahy6A6WUykSfOW+pnQixnBTf0UfTF4iYJxd3+FU6fC10wamj7WWLHD9+Z86MiRT0beGiFp0mT6rbCR1/Fro7Ejm/TbSnN5+XJl1OjtAf16o0vnDqha5Qc4JEig7pegPXHyFCZPmY5GjZsiS468GDR0uNosIaxkQwyi0GDwEgXz8mX4++lCs8tQ7FixPx3IEwrPn7+AayjWD45oDgnC3ictPDw9ouRC4Wuk+VvWz753/wGmTJuJnHkL4sfqtTF2wiQ1il02mpDfj+zGFFYRPbiNoi8GL1EwsvNPeIUmUGOEMHUltL42sjkyyIYPshFCWPl4+5hU8MqWfzJgbtCQ4ahV9ycUK1kWY8ZNUBtfBCf99L17dsOQQQP0M6HHpmYKLQYvUTChXaUqvMIbuiIqmm7l+Vpahn1Oq39AQJQvHSlkhPrGTZtRtkIV1KxTH3PnLcCJEyc/+T3Lr6V4sSI4fng/enTrgkSJPh1w9TWW4aiS6fvE4CUKJqz7ygb3Vvvva6QKDG8gyYhwcxFTzYMN/0XGt5KLlNV/rUH12vXQvGVb3Lh5U78nZLJS18L5c9XexCI8vyNZQYwoNBi8RMHY2oT/zVM2pv8aCYTwvKlL/7FdOKYiRQQ/v7C3AsgFTIwYURO88hqPmzAZHbt0V3Ogv6ZUyRIYNKDfB4uFvA1HM7lMUSIKDQYvUTCOjg76rbDzD/h6U3B4m4vz5ckTJW/s0iTr6+unH4VenDhxtIsF4/s8pUVhzLiJarWv0GrdsvknO0q9eRP2iyMGL4UWg5coGFmbuFzZ0vpR2Pj7fT2gwtuHXKJEUf2WsWRaUHgk1C5gwjMo61vJPsYSuqF9neX3LX27HwtPqwSDl0KLwUv0kZ/q/0+/FTaysfzXhGdkskxTKVO6lH5kLBcXF/1W2OTJkztU06si2oaNm8LUqlC4UIEQVxwLz4hsG+vwjw+g7wuDl+gjP1SqCCenRPpR6Lm/+np1+Or1a/1W6KVNkxqZMmXUj4z1tf2AP6dc2TL6LWMdOHRYvxU6SRIn0W99KOBt2IPX2poVL4UOg5foI7KsY/FiYW/adXX9+gIX4akgy5cr+9k1hyOb7AkcVkUKF0LWLJn1I+O89vAI1WCq0Hgbjj5ea1a8FEoMXqKPyNzVls2bqsUuwsLd/cPFGELy4GHYKkipvNu1bRXm5xIRpJ9z774D+lHoyH643bp0jJJm5pcuL8O8PvTpM2dC/JzwNDWHdx1u+v4weClcwrsAvpe3F/zCsfPLt3J96arfCp0C+fOpRfXD4tnzF/qtzzsdhu3yZHDS8KGDkTRJyM2hkc1Nu5C4cOGifhQ6OXNkR6FCBfWjiPW1kcZv3oT9b/Lqtes4f+GSfvReeHanCu+Idfr+MHgpXO7du6/fChuZmiI714TX7du39Vthc+bcObx+7aEffZ1UvZ07tkOJ4sX0M1939do1/VbIrly9hvsPQr9ZevVqVfFD5Yr6UcSTUdj37t/Tjz518+YttfJTaMkgpUED+oZqoY/QtA587P79+18cbZwwYcIwr5csX2/UmHEf/E3uP3gIEydN1Y9C7+zZ8/otoi9j8FKYBQS8wfqNm/SjsHn9+jVm/TZbPwobWcB+67Yd+lHY3L17D+s3bNSPQkeC5LeZU5EsWVL9zJdduXL1i+G7cvXf+q2vk71iZ06b/E0LenyNj68v1q3/Tz/61KbNW+GhveahIU3hI4cPQbGin07N+ZiE3ZGjx/Sj0Lt46fIXt0eU31fe3Ln0o9Dbu28/8hcqjvqNGqNSleqo99PPqtoPqynTZoR7+hV9X2I6JU4yVL/9TtPGDfVbRIELzL9wdsat23ewZ+8+TJ42Hdu27whXP5g4c/acFqA78eTpE31xhrdqAYPgO8LIm7MEw4sXzrh56za279iF0WMn4NjxE/ojwkae687de3BWq3xlY3k/mXOrVbWyh+6X+iNlIYjKFSvgshaq9+8/0M9+3p0791C9apVPKi/53CHDRmgV5JdHNUuA1atbB2NGDoe9fRz97NfJvNVlK1bB2Tlsg7euXb+OzJkzIX26dKrKDyJV3/CRY9TvPjTatm6JVi2afXVXH5eXL7Ww34h5CxZpF1Jhb87duWs3Ymi/r0SOjogb1/6Tvu+nz57h4KEj+lHoyd/bnTt3tb/Jp+p2wQL54ar+TkLffCy/A/n7ks+Rit5Z+9+Mh4cHHBzCvygLRQ+Ll67UbwWyyJ4zzydtN7u3rtNv0feuWYs22LRlq3ozikwSfls3rUeunDnU8a9NW2BLOKvbsJCRqJs3rEX27Nn0MyGToO7TfxBWrvrri315EgTjx47Czw1/ehcKMr+3Y5duao7pl8gCDIMH9kOLZk30M6EnTcKyvZ30WYaVDAoaNngg6tero34PO3btQbfuvUJV9UnQ9u7RTe1z+yWTpkzD5q3bcfHipQjbID9RooSYNnkiKpQvq58JvMApVa6SCrzw+vGHyvhjziw0ad4aO3bu0s+GT9Uff8DCeXP0I/pela1cU78ViE3N9EUyNzWyQ1fIm3FAsECTatcIEoq+/l9fcUoCZtzoEVi+ZCEqaRXw5/oSpbIeMGio2lS9R6++6NKtJ36oVvOLoStfq1nTX7F541o0a9JYPxv55MLAwSGB2gy+T/+ByJ2vMPIUKIrmLduEKnRlIJWESvt2rfUzn3f+wkWcO3c+wkJXyB7FH++fnDJlCvy9ahlSJE+unwk9aaru2rkjpk4er37f/fr0DNfXIfoaVrz0Ra3bdcSxY+Fr3g2rpX/OR47s2dXt9h274NDho+p2ZFu2ZAGyZ/tyxRucXIicO39BVXFHtddG+p5D2yQrpElXliqUCrdhg3ro2K4NEiRIoN8bPuGpeCVoNq5bg1m/z1FdB9IM/rWLLAkkaeJt36Y1WjRvGuodebr17IPdu/fqRxFn5IghqPZjFf3ovUuXr6DRL03w/IVzYLfCF8jvIUWK5JgwdjSKFS2snw304MEjNG/VRg2MkwuU0IitXUjZaq9tKu0iYMjgAShVorh+D32vPq54GbxE4STVm/QJyuhfCWIZ6X1b+gmfPIWbmxtc3VxhZ2uHePHiqQUwUqVOiZQpUiBDhnTImiULUqVKGWELY4Q3eI8e3Ku2wrtx4yaOHj+OCxcv45r2NR49egxnFxfV9CxNumnTpEG2rFnUEotycRSelb2MJgOd9h84oH0cxpmzZ9UqXC9fuiKuvb0aMJcuXVpVtRcpXFj7N9tn5+HKamNSrZ84eUoF8L379/H40RPVKiCtNImcnJAksRPSp0+HdGnTqsVDMmi3U2jBKyFMxOAlioa+JXjNIUSJzBn7eImIiKIQg5eIiMhADF4iIiIDMXiJiIgMxOAlIiIyEIOXKBqQ6bdf273nY2/fvgnXLjxE9G0YvETRgCwSIesgh4Wsk33l6lX9iIiMwuAlMnNStf4xf4FalD8sZM3piZOn4erVa4YsC0pEgRi8RGbq8ePH+GftOvxQtSamTJupnw2bs+fOo2KVamjXsYtaT1o2GWAIE0UurlxFZGZmz/kDs36fq7bAiwyyHaEsfbh44TwkS5pEP0tE4cWVq4jM3OMnTyMtdIVsliCVsI9P6DYFIKKwYcVLZGaOHjuuNmWIbD/Vq4u4cePqR0QUXtwkgYiIyEBsaiYiIopCDF4iIiIDMXiJiIgMxOAlIiIyEIOXiIjIQAxeIiIiAzF4iYiIDMTgJSIiMhCDl4iIyEDRYOUqC7wJiAW8iYW3b3kdQUQUXVlYvNHKRX/EiOmvHZnPLlrRbOUqLXT9rfA2wJKhS0QUzcn7vLzfy/u+vP+bK7NOqzf+WuC+iakfERHR90De9+X931yZb/C+tWDoEhF9p9T7v5YD5shsg/eteurm29RARETfQiu+zDQDzLip2Xw61omIiIKYdR8vERGRuWHwEhERGYjBS0REZCAGLxERkYEYvERERAZi8BIRERmIwUtERGQgBi8REZGBGLxEREQGYvASEREZiMFLRERkIAYvERGRgRi8REREBmLwEhERGYjBS0REZCAGLxERkYEYvERERAZi8BIRERmIwUtERGQgBi8REZGBGLxEREQGYvASEREZiMFLRERkIAYvERGRgSyy58zzVr/9zu6t6/Rbpuvt2xh442ejH0Wsnbt36bc+ZWNtgwL588PS0lI/YxqePnuGxE5O+hERUfQXI7YXLCze6Eemq2zlmvqtQKx4Q7Bi1QpcuXIlxI+bN2/Az89Pf6Rp8PLywrz5f+hHRERkyljxhqBD546YNX2mfmT6PD09MXrsaIwcPlI/Q0QU/bHipXcCAgK0C4O36uPNmzfqWP6V44+F9jEBbwJCfEzQ58qZoO9LRESmixVvCL614m3Tvi2aNm6Ci5cvwd3dHTFjxYSrqysyZ8qEWjVqwdraWj3u0aNH+Hf9Wni89lDnXr9+jWTJkqFWzZqIHy++eszTJ0/w1z9/w9fXD7Fjx1bNynHixEGdWrWRJEkSHDl6FMdPHMflK5eRL28+1KhWHU7s6yWi7wArXnrH398fS1csQ9KkSdC1cxd06dgZfXv1xu3bt7F2w3q5alCV6uIlfyKRYyL06tEDnTt2Qo9u3fH8xXP8tebvd5Xr8lUrkCN7DnTv2g2dOnRU/8aKFQtr1wdeHBUpXBgtmjWHQ4IEaNm8BUOXiMjEMXhD4OvriwWLFoT4sWXrFv1RnyehmSd3HlStUhUxYgS+xFZW1mjYoBEOHz6kRiAfP3ECsADq1qmjXbEFPcYKrVu0ws2bN3H//n117v6DB8iYIaO6LSR0f/2lsfa1f9TPEBGROWHwhsDCwgI2NrYhfkg4fo18fq6cOfWj96Rp2Fb7GtduXMPBQweRNnVaxIwZU783kDQjJ0mcBKfPnFbHmTNlVk3N9+7dU83WclEgzdIpU6ZU9xMRkXlh8IZA+lIb/tQgxI+yZcqqx9y4cQMzZs384COIhGncuHH1o/csta8r/b2v3F/h+fPn2mPs9XvekwpZgtXl5Ut13LBBA6RLmw7zFy7AqLGjMWnqZKzfuF719RIRkflh8IaTtY0NkidP/sFHEDUK2T9AP3ovaFSyjfa5ceLYwUerXj+mPjfAH7a2gQPH4trHVQOmhg0Ziv59+qNE8RI4cuQIlq9cru4nIiLzwuANpxRa0MrI4uAfQd4EvMHjp0/0o/ekqdjb2xspU6ZC1qzZ8OzZs3eDqILI4hwvXV2RPl16dfz06VPVvCzixYuLklrwdu/aXau4b6pzRERkXhi8keCt9t/+A/vxwtlZPxNY7R49fgwOCRyQNk0alC1dBnfv3cWDBw/0RwTOyT1/8QK8vbyRK1dudW7RkkU4cuzoBwHt7OKs+oKDe/OG83eJiMxBTKfESYbqt99p2rihfsuUWeDtm9j67Yi1bv06eGmV6cVLl0L8SJY0mWou/pyNm/5DkcJF8M/af+Di8hLPnj9XX/PK1Sto16at6v+Vz7eytsb8hfPx/MULuLm7YevWLdi1ezeaN2uGxE6J1deSf5cvX6ZC2sPDE4ePHsG/a/9FrZq13jVvS6jv2LkDvj6+SJAgAezs7NR5IqLozCKmPywsTL/oWLx0pX4rEIM3BI8fP1ZNwp/7yJI5C2xtbfVHf2rjxg2oXq0aypcrr32tR3jy5AnSpE6Ln+r/hEQJE+qPAlKlTIXs2XOoCvbBwwdIkTwlGjVoqM4HcXRwRPZs2VUz9YMH91WlW79uPWTNmlV/ROBgLnt7e9y9ew9p0qQOcWAXEVF0Y67By5WrIkHrtq3RuVNntfAFERFFDq5cRURERF/F4CUiIjIQgzcS/FjlRyRKlEg/IiIieo/BGwlkxHHQqGQiIqLgGLxEREQGYvASEREZiMFLRERkIAYvERGRgRi8REREBmLwEhERGYjBS0REZCAGLxERkYEYvERERAZi8BIRERmIwUtERGQgBi8REZGBGLxEREQGYvASEREZiMFLRERkIAYvERGRgRi8REREBmLwEhERGYjBS0REZCAGLxERkYEYvERERAZi8BIRERnIInvOPG/12+/s3rpOv2W6PD19cOPaY/2IiIi+NxkyJYWtrZV+ZLrKVq6p3wpktsF769ZdDBs2ST8iIqLvzZAhPZAuXWr9yHRFm+AlIiIyBx8HL/t4iYiIDMTgJSIiMhCDl4iIyEAMXiIiIgMxeImIiAzE4CUiIjIQg5eIiMhADF4iIiIDMXiJiIgMxOAlIiIyEIOXiIjIQAxeIiIiAzF4iYiIDMTgJSIiMhCDl4iIyEAMXiIiIgMxeImIiAzE4CUiIjIQg5eIiMhADF4iIiIDWWTPmeetfvud3VvX6bfMgQXe+MfG27cxgbe8jiAiirYs3sDCIgAxYvlpB59El8kqW7mmfiuQmSeVFrp+Vnj7JjZDl4goutPe5+X9Xt735f3fXJl1Wr3xtwysdImI6Lsh7/vy/m+uzDd431poVz4MXSKi75F6/9dywByZbfC+VU/dfJsaiIjoW2jFl5lmgBk3NZtPxzoREVEQs+7jJSIiMjcMXiIiIgMxeImIiAzE4CUiIjIQg5eIiMhADF4iIiIDMXiJiIgMxOAlIiIyEIOXiIjIQAxeIiIiAzF4iYiIDMTgJSIiMhCDl4iIyEAMXiIiIgMxeImIiAzE4CUiIjKQRfaceT7ZUX731nX6LdP19m0MvPGz0Y+IiMgI7q/ccerUKZw4cRI3b99EQEAA0qVLh8IFCyFP7jxIkCCB/sjIFyO2Fyws3uhHpqts5Zr6rUAMXiIiCpXrN25g/oL5eOH8Am/evIGF9t/bt1qEWGj/Z2EBBwcHNG70C3LlyqV/RuQy1+BlUzMREX2Vq5sr5i+cj2fPnyGGRQykS5sOpUuVQvly5ZAhQwbEjBkLzs7OWLRkMR48fKB/FoWEFS8REX3VqDGjcfPWTcSIEQMNfvoJJYqVgLW1tbrPx9cHZ86cxcLFC+Hr64uUKVJi2JCh6r7IxIqXiIiipVu3b6kPUahAQZQrU+5d6AorSysULFAAZUqXUcf3H9zHlStX1G36FIOXiIi+6OnTp4F9uZpmzZqpqvdjcu5/derqR4FhTSFj8BIR0Re5uburfx0SJEDsWLHV7ZDEihULiRM5qdvOLs7qX/oUg5eIiEIlRsyY+q3Pi6mFL30ZgzcE//z7zwcf/65bix07d+DGzRt4+9b0O/JDy9/fH+vWr1MjEYmIIsYn43XpIxzVHIJWbVujcKHC+pEElB8ePX6s+jny5smD5k2bw9LSUr/XfHl7e6Nrj27o2a2Hmg5ARBTk6bOnmL9gAW7duoU3HxcckhoWgTeDqDm9H4WunEudJjVaNmuBZMmS6WcjDkc1RyMSqi2bt3j30bZ1WwwbPBQD+g3A4ydPsP/Afv2RRETRz7NnzzBuwgTVyvdJ6IqPQld8HLpCzt25cwfDRg5X/1IgBm8oyaosqVKmRKUKFbFr9y79LNScNTc3N7i8dIGrqyu8vLz0e96TFV5evX6Fly9ffvYxUn3KffKYV69eqWbgj/n5+cHd3V19L/n348cEvAlQ52UJN3lO8iHfO0jQ91DPQbsdNEqRiCg4KTDc3Fz1o28n7113793VjyimU+Ikn8xybtq4oX7LlFng7ZvPj677Fps2b0LVKj/qRx+SYDx6/BiqVP4B129cx4KFC3D6zBncuHFD+/c0du/ZjZgxY2ohnUo93k8L5uUrlmP33r24dfumeuyu3TsRK1ZsFeTi7NmzWLB4oVqO7crVK+pryL8ZM2R8N1dOmrkXLl6Ew0cOa1/nNvbv348Tp04ibdq0iBMnjnrMixfOajm3h48eYs2/a3D23FnkzJFTfY2jx45h+crluHb9Os6cPa36rBPEj49Tp0+jWNFiaqk3IiLx+NEj9T4XkbJkzoIM6dPrRxHDIqa/VhSZfgGxeOlK/VYgVrxhINXj1atXVSC6uLhg5m+zkDlzZvTs3gNtW7dBpw6dUL5ceS3gVqi1TMXOPbtw7/49dO7YEa1btkbH9h1Qt05drPlnDR4+fKges3b9WvzS6Gd1X5tWrdG7Zy9Vze4/cEDdL7f/XPInkiZNij69eqnH9OjeHXHj2muhvuKDqvbm7Vt49PgRBg8ajP59+6sFy2/evIkVq1agWtVq6NCuvfZcOmsXV7+qgWNERJ8IoSn527GFLQiDNxTeBLxRAw1W/bUax04c1wKsKvwD/FG0cFGt8q2imqGD5MmTB/5+/nDWqk9x7/59LTCTwcb6/UAwufKTsA6qMj29vNS6p0Fix7ZEs6bNULRIEXV8RquIPTw91Pe1sAj8lcWOHRvNmjRTzdJSbQeRpu+fGzaCtdX7VWUOHT6E8mXLI1fO9wuXp0mTFnnz5NOPiIg+I5R5KQOpPhbSOWLwhkj6Qrt07/ruo3vvHpg0eRJu376Nls1bIk3qNHBK5KTWKw1qCg7q65XAlSlHfv5+6nzeXHlw6fIl7Nm7Fw8ePFCPkb5VGeFnYxMYxomdEuP3Ob/j6rWreP78Obx9fGBnawdHR0d1vzRhJ0nyYXgLadJOnToVjmsXA0ESxE8AJ+3rBXf56hUUKfx+lHaQrFmz6LeIiD7jM9kp733yXphWu4iX96vPDa6iTzF4Q2BpZYn+ffp98NFP++jVo6dWrWbWH6X9UWkBeuLkCcz8bSZGjR2N8ZMmYMu2Lfq9gfLnz6/C+tyF85g0dQpGjxujHi/NwUGaNW2qVcXJ8efSpRgzfixGa19r85bN8PXzVfdLs3b8eHE/qKyD2NrY4sWLwGZtYWdnq996z8vTC1ZWVvrRe3Ht4+q3iIhCT4qGHt16oG/v3ujTqzd6de+hwpdCh8EbAtnyKnHixO8+nJycVF+pNO8G8fDwwKQpk7F7zx7VZNu6ZSuMGDpczfENTtYvzZolCzp36IjxY8aiTcvWiBcvHkaNHoXHjx+rx0iVWqtGDYwaPgID+w1E+bLlsP/gAWzfvl3dbx8njmqODomvnx/ixn0foCGFs4SujHT+mOwoQkT0iRAK1eDNxqVLlkL6dOlgaWmlpl+mSp0aVatW1e/VhFjostk5CIM3nGRSuQya6qQFavFixZA8WXIVsjJtSP3N6X94Mgr68ZPAgJXgTqf9sTZq0AixtT/Wa9evqfPSBB3EwSEBSpcqjcY//4JTZ06rc5m0Kvv5i+dqSP7HZLRztmzZ9KOQpUqVSnu+N/Wj96T/mYjoEyFkZPBm4/jx4+u33osXrAAIOWNDTOPvEoM3vLTKUirj4COKpfrcsnUrLGJYqMFX4vjJE/htzu9aIL9Wx0IGREkF6uiYUB3PWzgfFy5efDevVv6VME6SOIk6LlywEF6/eo2LwR4j31eCWebk5s375UFShQsXxj9r1+L582f6mcDncPToUf2IiCj0Ll66+EErmtw+d/68fkRfw3m8IfjSPN4g0vwrg5qOHD2iKtHzF85j/oJ5WlUbC+nTpVcDodKkSYPUqVLjjBaQ27Zvg5enJ65evYZVq1dpYZlXNSlL07AMUpjzx1w1ad3F5SX+077/yVMn8WvjxqofVpqKkyRJrAL6xs2bcHd3U89x0+bNaNW8hXZfYEB7aF//+PFjKFumrDoOIoO3XN1csXLVKnh6eWj/o7mkNqzOnj077t27x3m8RPSBJ9p70bEvzOOVQaDyXpQ6dWp4au87y5Yv/2CQZ0hyaO83GdJH7NK05jqPl2s1h2DNv/+gbu06+tHn+fj4qMFVso6zhGfqVKmQNUtWtYCFnCtWpOi7x8liFlLFykhkCWZpHg6+p6Ws6nL58mXVVJ3QMRFy586ttuAK7pn2x35BC3hZucrRISFy58r1QWC+1qrqA4cO4odKlfUzH7p+/boaOe2vXZ2mS5NWPYe169aqzasTJgysvomIZCbFjFkz9aOI8VO9+qj8mfem8DLXtZoZvERE9IHTp7Xg/e3D4P3cJgiq++vjPl152Efnfqr3kxa8lfSjiMFNEoiIKHr4yuCqIOpcSAOpOLjqixi8REQU+UKY6vi9YvASEdEHZGGe4OsWfCsZRJog3qdTkL5XDF4iIvqA7HqWMX0GxIoVSz8TfvI1ZGpkrlzv14r/3nFwFRERfULWn5etSmXO/7f0z8q2pbKjW0jL1n4rjmo2GIOXiOj7xlHNRERE9FUMXiIiIgMxeImIiAzE4CUiIjIQg5eIiMhADF4iIiIDMXiJiIgMxOAlIiIyEIOXiIjIQAxeIiIiAzF4iYiIDMTgJSIiMhCDl4iIyEAMXiIiIgMxeImIiAzE4CUiIjIQg5eIiMhADF4iIiIDMXiJiIgMxOAlIiIykEX2nHne6rff2b11nX7LdL165Ykzp67rR0RE9L3Jky8j7O1t9SPTVbZyTf1WILMN3lu37mLYsEn6ERERfW+GDOmBdOlS60emK9oELxERkTn4OHjZx0tERGQgBi8REZGBGLxEREQGYvASEREZiMFLRERkIAYvERGRgRi8REREBmLwEhERGYjBS0REZCAGLxERkYEYvERERAZi8BIRERmIwUtERGQgBi8REZGBGLxEREQGYvASEREZiMFLRERkIAYvERGRgRi8REREBmLwEhERGYjBS0REZCAGLxERkYEYvERERAZi8BIRERmIwUtERGQgBi+ZFR8fH9y+cwfHjp/A3n37cfTocVy9dh3u7q/0R3zq8pWrOHDwEPz8/PQzFF0FBARg9569uH79hn6GyPQweMlsXLl6DY0aN0O1mnXxv59+RoOfm+B/DX5Gzdr1UPGHqvhzyXLtjfeN/uj35i1YhA6du8HDw0M/YxokIFxcXPQjighyYdakeWssW7FKP0Nkehi8ZPLevn2LpctX4oeqNWBhAYwZNRyH9u/CtUtnceLoAcyb+xsKFiyA0ePGo2//gXj9+rX+maZry9bt6iLCx9dXP0NE3wsGL5m8Q4ePol//QWjbuiWWLl6AGtWqIkXy5LC3t0diJyeUKF4M0yZPwISxo7F85WrMnbdQ/0zT9ezZM9UsSkTfHwYvmbQnT56gVdv2qPpjFfTp1QPW1tb6PR+KGTMmqlSpjJ/q/w/LV6yEp6enfg8RkWlh8JJJW79xE1xd3dCyRTNYSDvzF8TSwnfY4AFo2OAn+Pn562e/7OSp0+jQqSsKFC6Bij9Uw8xZs1U/4cdatmmPWnXl6/rh8JFjaNqiNYqWLIvmLdvi9Jmz6jHSJL59xy40bd4K+QsVR+euPXDj5k11X5BNm7cibcZsGDBoqDouWqIM0mXKhrPnzqvjkOzZu099jpu7u/r+Cxf9qZ5L4WKl0a177y8OJHJzc8Pvs/9Ajdr1kDNvQdSp1wCz586Dy8uX+iM+9MLZBWPHT0TpcpW0j8oYPXYCnj59pt/7oZfa72XKtBkoX+lHFC9dHkOHj8LDhw/1ez/14sULjBk3EWUrVEbBIiXRXnvdDx8+qt/73opVf6mfV7oM9uzdr/rzS5eriGnTZ+mPALy9vfHnkmWoWqMOSpatiIGDh6mLNCJzwOAlkyZvzA4ODsieLat+5suk+blHt86IFy+ufiZkL11d0aVbLy0kW8NKq6Ib/9IIFcqXxe69e1GoWCk1Cjo4b28fPH/+HD1691P9yMmTJUONaj/C08sL9Rs2xn+btqggmTZ9JlKnTo369evilRYcP/xYU42+DpIzR3aMHjkMtWpWV8d9e/fE6BHDkCxZUnUcEv+AADUwTL5OmfKVse/AQZQqWRz/q1sLLq4vUVsL07nzFnwwalsuAnbs3I0fqtbE9p07USB/PrRr3RK5c+XC5i3bUE0LrDt37uqPDnTm7DlU0i4+Ll26gpo1qqHqjz+oEeNVa9bBqdNn9EcFunX7tvY1aqvR5T9UroTaNWvg/oMHqFK9trpQ+Nj0mb+pi5sLFy5qr3N51K9XB7Fjx0bz1u3wa7NWePT4sf5I7efVfg75eX+bPRctWrVF3LhxkSNHDsSKHUvdf/HiJdT+X+DPnDdPbtStXQte2u/hfz/9glV/rVE/O5Eps8ieM88nf6W7t67TbxFFrVJaNZNfC40pE8fpZ8JOwnLHzl3Yu3Mr4sePr86NGz8JM377Hds2bUC2YKEu/a49evVVQbNHe3yMGIHXpr80aYFt23cga9Ys2PDvXyoMgkgIHDx0GOXKlsHKZYv1s4Hka929dx9/r1qmnwkk1VrPPv1x9tRRJE2SRD8bsh27dqPRL01hZWWJaZMnok7tmvo9gQE7bcYsTJ46HSuWLkbxYkXV+efPX6jAzJ4tG+b8Nh2WlpbqfJAadeojoaMDFvwxWz8DLQBbIlHChJg0Yax+JtCgIcOxYeMmHD+yX4WlaNehM/z8/TFvzm/qOIhUpTKK/OSxg+++p1yUNNcCVH6HjRr+pM4FuXnrNmpr1XuOnNmxbPEC1aqxZOly9TtLlCgh9uzYov2bSH804OHpqSrgl1rFvmHt3+r5BnmmXRjJ7+LGjZto16YVhg4eoN9DFLXKVn7/v1nBipdM2qPHT5AhXTr9KGLcv/8AfyxYiEnjx30QukL6ikePHK4CeOXqv/WzgWxtbTFq+NAPQlcULJBf/dusSWP1b3DVqlZR1fPrCJjKVLlSRVTXquzgJKhat2yOzJkyYdnylfpZ7XwMC/yshVyfXt0/CV2RQ/u59+478EFfuFxs5MqZQz96r3PH9li6eP4HTf2HjhxFFu17fqxpk1+wfOmid491dnFBTy1E/1en1iehK9KnS4sJ40bhoPYa7dy9Rz8bqFmTXz8IXXHixClV8c6cNvmD0BVO2mO7den41S4JoqjG4CWTJk2IsfQq62MHDx2BU7LUIX5s2rxFf9Sndu3Zq5qkpbk2JDY21qpJdvGfSz9otkySJDGyZM6oH70XL1489W82rRr+mKOjI968eQN3d3f9TPjVqlH9XcUZnFwQtGrZDFu27Xg3PSmh9n27dOqgPd8Pw1EuKLy8vNUFxtu3b+Dl7a3fA+TJnRv/rF2v+n/9tWo2iFSeOXJkR6xYgU29onChgti2YyecnZ0/eKy8FtKcHvQ8r1y5ppr1q1X98IIhOGnRSJI4Mf7Vvnfw17tkiU9/P+vWb0C+PLlV03lIShYvHuJrRGRKGLxk0hwdHfDw0SP96EOpU6fEgH59Pvn4mjNnzuL1q9cYNmI0unTr+clH1+69cPbcOdy7f/+DRTdsbWy0ULbRj96LGTPwf0Zx4tipf4MLqr4iotsxS5ZPK8wgObNnV4ORPh5gJEF25+49bNiwCSNGjkGL1u1R+38/aQG7TrtTHhD4OCHVsXx+xcpVVdPw2AmTVH9tSKuC9e/bS/Upl61YRQ00Gzl6HHbu3I2XL131RwR68PCheg6pU6fSz3wqrn1c2NnZ4dmz5x8MinNy+rDaFafPnkP27Nn0o0/JRUKcOHH0IyLTxOAlk5Y6VSrs2rU7xDmvMpe3S6f2n3x8zZOnz7S8eQs3dzc4a9VdSB9p06VF6VIlVbUaJIZWJUql+DmR3cQZV6vSP8dOD30Pj/dNx89fvEC3nn3Uql6Dh4/AydNnUKRwQUyfMhEN6tfTH/WeVKo7tm5CuzatVQCvXPWXFtTtUKJ0OWz8b/MHlW2a1Kmxcd0/6NW9mwrbNf+sRZsOnVGkRGn1eUEDveRiQIJXWhE+RwZNyesqX1+q8CCWlp9Wrrdv34G9/eeDVfrkU6VMoR8RmSYGL5k0Gc185+5dNQgnosgI4qRJk+K3GVOxdNH8z37MnjX9k/7cqBQ8VD8mTb7C0cFB/evm5o7WbTvg+ImT+HPhPOzathn//r1SLUKSKVPGDwIuOAm1li2aYvPGddix5T/889dKVKxYAa3bdVRToYKzs7NF418aqkFOO7f9h7VrVqpA79V3gFrIRCSIH19dkHi8/nwft5+vrwpd6YsOGsz2OWnTpP6kqg5OLpQ+Hq1NZGoYvGTSalSvpr0pB2B1BE4TkcFQsnKUzFn9nFevXql+2Yj6nhHh0uUr+q1P7T9wSFWh0tQqZGrP2XMX0Ld3DxQtUhgJEgQGYBC3EJqP3bWfWebHCqlAEyZ0RO5cOTF4QD8Vivv2H1D3CZkq5enppW5LWMqUrxzZs6N3z27aRU0S1ewsYSpNzHL/lWvX1GNDIiOUpTk7Q/p0iBXry/2zpUqWwPHjJz+76tdjrVL39OLiKWTaGLxk0goVzI+WzZtiwcLFWP33P18NwqDFLL6kUoVysND+W7R4iX7mQ1I19R80FN179dXe4EOuDL9VzFixVBCGJdhX/70GviGs7SxTh36f8wd+/KHyu4pRqkhp7v14VLCQBUKOHD2mbkuTe5D+A4Zg8ZIPpz0JmcYkmR28Gh06bCRm/fZ+KlIQGdgkoW2hPVZ+vqxZMiNZ0qRYu26j/ohP7d6zTwVm3Tq11Pf5EplKdefeXTVFKSS7du/9oJ+YyBQxeMmkyUhamY9ZUQtLmRMrqyrJPE2pSCWEZAELCR5Z+WnoiFGoVrOOqvDy5Mmtf4VPSXU2dMgAFTKySIM000rYysdTrRKePHWGWnyiTasW2vf/fJ/ut4gXN64KsufPnqvwDd6X/DkPHz5Sq07JfNWgz5GFJ4ZpP7dUpA0bvu+3lcCVinX9ho3vBohJlSg7PDVp1ko1/crX8PV5H+RFihRSYXr46NF3q3dJBSxNzBLiZUqXUudE+fJl8efSZaoKllHSQj5nz779aoWqShXLqwCWEddzfp+BY8ePY9jI0er5yvOQ7y2/ww3/bcKoMePRvNmvyJc3j/o6XyJBXqVyZbXyl0zTCqrQZX7vgUOH1QVaWC5miKICF9AgsyDzYP/9dx3GaMErRZqsTCXTjN5ob+Le2hu+q6urmsrSv08v9aYfvG82pAU0JLRlnq6ElkOCBGraT0CAP5xdXqqmz9mzZqBypQrqsUIW0Hjy9Ck2rv37k/WiJQwHDx2hdksK+vpBzl+4qJZUPH3iCJIHW53q2vXraolK+b4JEybEwH59Pju9KWgBDelvnTBpMh48eKRGe0twy3KOsS1j44/Zs9TgqKCqVEJZWgj69h+kKs6MGTPg/v37WmX5FD+o+cBV1PZ50j+bJ3cu9TnSh9xvwGBs2rJVTZ1KpAX3ixfO2oWJCzp2bItWzZu9m6ojQTx85Bi1/Z40LSd2SqQeJwO6mvz6C7p27girYPOHZfGRdh26aL8XeyTQXm95DWXa0qNHj1Xo9uzeFXHsAgeIBS2gcfrEYbVC2MekC0CWp5QBX4m15ym/P/m+8lzHjR6BLt17oXnTX7mABpmMjxfQYPCSWXHRgvHwkaM4d/6CWsJRpvdIP6KETm4tQGTKz8dkYYkLFy9h4IC+sNMqsODu3r2HnVqwSR+k9C9KCEl1LYOCgpPKWNaM7tWj6yfzRCUY/17zLyZPGKsqvOBksY5RY8djzMjhqp81uKPHjqvtAWU5yoYN6oW4eIUICt5jh/epEN21ew9OnDytRgzLAiASpCFNvRGXr1xV3+OJFrjJkiVRfaSyzKL00fbuOwCNGtT/YL6sBLY0Q+/XqkkJMhkhXL5sGbVi18ejtuWxsta1LGH5WKtkZZS5VMXycwRvlg4igbl9526cPn1GVccZ0qdH6dIlkCVzZv0RgaSSlW0gx4wcpkI6JNJ/LMtVSsXt6uqOTJkyoLJ2wZVcew6du/VEae3nlKZrIlPA4CUyM8GDVwZQEZF5YfCSWZDVjmRBBQKOHDmGXn37Y+XyP0NseqUvy5zp09XGiIzE4CWzIINkhgwfpR9936RJV/pUZQDVx8299GWyw5LMxyaKSgxeMgsyUlmWGySoRTBkv9lF8+eqgUwUNtKnTRSVGLxEREQG+jh4OY+XiIjIQAxeIiIiAzF4iYiIDMTgJSIiMhCDl4iIyEAMXiIiIgMxeImIiAzE4CUiIjIQg5eIiMhADF4iIiIDMXiJiIgMxOAlIiIyEIOXiIjIQAxeIiIiAzF4iYiIDGS2+/E6u7li69FD+hEREX1vKhcuBsd48fUj0xVtNsK/+fA+Bs+dpR8REdH3ZnjrDkifPKV+ZLq4ET4REVEUYvASEREZiMFLRERkIAYvERGRgRi8REREBmLwEhERGYjBS0REZCAGLxERkYEYvERERAZi8BIRERmIwUtERGQgBi8REZGBGLxEREQGYvASEREZiMFLRERkIAYvERGRgRi8REREBmLwEn2jgW26IGOqtPqR+VI/R2rz/zmITB2Dl+gblcpfGI7x4utH5kt+Dodo8HMQmToGLxEpfaaMxpVbN/QjIoosDF4iUk5fvgC316/0IyKKLAxeIgPFjhUb5YuUwJB23TCt73AM79ATNctWho2Vtf6I9yxjx0bNcpUwtms/TO49BN1+bYWkiRKjWJ4CmDlgFGLFjKk/MlCCuPHQut7PmNxrCMb3GICmteojjq0dejRpg19r/A8WFvoDP2OW9jVzZMyiH0F7fsPU18yUJh36tuiAKX2GYmy3/trzraQ/gojCg8FLZBB7uzjo07wd2tZvjLdvgQvXL8Pb1weNqtbCsI494Bg/gf5IqMDs9mtr/PRDTTi7ueLq7ZtImtAJM/uPQIUiJQMHQQVL0uROSTBGC+iCOfLg1sN7uP/4EYrmzq8FZT/k1MI0ScJE2qO+nLzyNe1sbPQj7ThVWtTQQnZw226wtrLC9bu34enliSY162FQmy4hXiwQ0dcxeIkMEMMiBtr872fkypQV/aeNxag/puOPNSswbv4stB/RH04OCdG/ZUdVEUs81q9cHQWz58LI2VMxadFszPlrKQbNnICtB/eiWN78H0RoDC2A+7TsAB9fX3QfPwyzVizCzOWL0GPCcLx6/Vqrkp30R4ZNrFix0OCHGpi+bD5GzJ6G31Yuxsi507FkwxoU0UI9a7qM+iOJKCwYvEQGSJwwIfLnyIU9J47g5r27CAgIUOcD3rzRKtqXWL97GzKnzaBVnWlgHycOiuctgGMXzuDKnZt4I+WxRoJ13j8r8OjZU3UcJL8W0BlSpsHqrevxyuO1Vk2/hfz32tMDyzetha+fr/7IsNt6aB+OnT+jPc/A5/tGe74HTh1XzdwcAU0UPgxeIgPEt48He9s4Woid1oL0jX72vTNXLmrVbiwkdkwEGysbJEzggIOnj6ugC06Oz129rB8FkiZibx8f3Hn4QD/z3sNnT7QA9tSPwm7/yaP6rfdevHSGhVZlW1la6meIKCwYvEQGkIFS0nT71PmFfuZDz1wCwyyuXRzE1KpJq9iWWmh+WNkGeer8XL8VKI6NnVZB+6sK92NSAX9LxSvV+McC62/NVwZrEVHIGLxEBpDmXxlRJeEbEglm4evvpx4nzcuWsQLPfczS8sPz0lwtoR0zxoejnIWEuIVF+P9nHlJ1TkTfhsFLZABpCvbRKs/UyZLrZz6UInFS1YwsFaqfVr16eXt9dvnGVElT6LcCvXR3VYOyEsSLp595L0Hc+GpEMhGZDgYvkQFeuLrA1d0dxfMUUFXoxwrmyK0GTz148hgeXp54/PwZShUoovp9g7PRQjR3pmz6UaBLN6+pijlzmvT6mffSJk+hpiYRkelg8BIZ4KW7G/7aulHNs5UpOnHj2KvztjY2qFGmIqqULId/d27BvSeP4OnlhbW7tiJr2vSoV7karC0DK9aUSZJhVOc+WmUcOMI4yNU7t7Bx7078Ur3Ou2CPESMGCmTPjSY16qmmayIyHRbZc+b55H+Vu7eu02+ZrpsP72Pw3Fn6EVHU2TZ3OfwD/D+bbwNnjFfLMYq6FX9Egyo1EVMLxhcvXdSUHAnKTft34Y+/l6vHBKldvgoaa2HqHxCglnKUjRgkZK/fvaXm+f7Q9hf9kdJHbInezdupytntlbvqI45rZ4//9u1AmYJFcerSBUxZ8of+6JDJzyFzhY+eO/3uuOXQXrj36KE6Dk7um7ZsPv7TAp8oqgxv3QHpk6fUj0xX2co19VuBGLxE36h0gSL6rZCdu3ZZVbxCKlFZZUpWoZK+V+n3fe7ijHuPH6qADU7COXWylGrVKbnt+todV27dRPsGTVAoZ2783KeT/shA8vVkPm/8uPFUf7F8XRc3V8wcMBK7jh38JNg/Jj/HhRtX4ewaOJJZjo9fPKsq8I/JfbKS1aPnIY+8JjICg9dgDF6KzmSZRw8t8O48uv/BXF5ZuGJavxG4/eAeJi6arZ8NDMKLN6+pKjo4WV1KlpL8beUibDu0Tz9LFD2Ya/Cyj5fIBMmIZtnooEiufPoZqDm+HRs2Q8L4CfDn+r/1s4GkOXlo+x6qHzhIqiTJ0aJOAxXGshgHEZkGVrxEJkj6fTs3aoaieQrAx9cHfv7+sLO1hZe3N5b/9y+2H9qvloUMEi+OPfq36oT0qdKoKUmyfrOdrR3uP3mEKX/+oZqyiaIbNjUbjMFL0Z2Eb2KHhGrks2yy4OfvpwZZSb9tSGytA5eaDFrKUaYnyWNDWtGKKDpgUzMRRSjZSEEGL924dwfX7t7Cbe1i83OhKzy9vVRlK4Oe5ENuM3SJTA+Dl4iIyEAMXiIiIgMxeImIiAzE4CUiIjIQg5eIiMhADF4iIiIDMXiJiIgMxOAlIiIyEIOXiIjIQAxeIiIiAzF4iYiIDMTgJSIiMpDZ7k706MVzLNy4Vj8iIqLvTbNqtZAsYSL9yHRFm20BiYiIzAG3BSQiIopCDF4iIiIDMXiJiIgMxOAlIiIyEIOXiIjIQAxeIiIiAzF4iYiIDMTgJSIiMhCDl4iIyEAMXiIiIgMxeImIiAzE4CUiIjIQg5eIiMhADF4iIiIDMXiJiIgMxOAlIiIyEIOXiIjIQAxeIiIiAzF4iYiIDMTgJSIiMhCDl4iIyEAMXiIiIgMxeImIiAzE4CUiIjIQg5eIiMhADF4iIiIDMXiJiIgMxOAlIiIyEIOXiIjIQAxeIiIiAzF4yWy8ffsWj588wanTZ7Br917s238A5y9chMvLl+o++rwHDx9iy9bt8PPz089EjUuXr2D3nr1R/jyIohKDl8zCixcv0LvfAPzwY038r34j/PxrMzT8pSlq/68BqlSthTl/zIevr6/+6OhDLigOHDj02Z9t+46dcHNz048+b9++A/i1WUt4eHjqZ6LGn0uWoVPXHtrz8NDPEH1/GLxk8s6eO68FbEMcOnQErVs1x5ZN63H14hmcO3UUK5YuQrlypTFx8jS0aN0Oz5+/0D8reug3cDDGTpiEN2/e6GfeW75yFZq3bKtVj/76GSIyBwxeMmnXb9xErbr1kTChIzZtXIv2bVsjU8YMiBs3LhwdHVGwQH6MHDYE//y1AidOnkKT5q3g7e2tf7b5u3Llqn7rUw8fPtJvEZE5YfCSSZv522xYWMTA6JHDEE8LWwsLC/2e92LGjIlcOXNg+NDBOHP2HJYsW6HfQ0Rkehi8ZLJevXqNtes2oGP7tsiaJbN+9vOqV62CxE6JsH7DRv1MoD79BqJIiTLw9vGBs7Mzxo6fiHIVf0Th4qUxYtTYEPtIh40YjTz5i8BLq55furpiwsQpqFC5KgoVK4Whw0fBxcVFf+R7EyZNQebsueHp5YWNm7agas06KFO+En6f84f+iEBPnz3DyNHjUKR4GRQoUgLde/bB1avX9HsDtWzTHinSZMSRo8dx/MRJZMiSEz9Uq6n6Rhcs+lPdN3nqDPj4+iJPgSLImjMfrl2/oX/2lwUEBGDuvAX4oWpN7TmUxoDBw0Ksntdv+E99H/dXr7Bv/0HUrd9IPV5eCyHPu1jJsnB3f6WOP/b8xQv1+TKw62vu3b+PnHkKYvrM3/Uz7+3avQeNm7ZAzrwFUaVaLfXzh9TnXbBoSfTo3U/1i8/8bQ6Kly6PWnXqY+N/m/VHEJkGBi+ZrHVagL59+wa//tJIP/Nl1tbW6NypA86eu6ACNoi/FjReWhgu1N6wq9asi6dPn6FO7RqoXbO6ap4uWaYiNm/Z9sHIaP8AfxW6S7Xq+YeqNVR41NIeX7d2TZw7f14L1B9UMH3wOf7yfbwxasw49O7THymSJ0fOHDlhY2OjPwJYuHiJFlblcPPWLdSvVxdNf/1F9d/KQLHpM397FyjNmjTG5IljkS5dWqRNmwbjxoxAt86dYGlpiZIliqn7KleqgFixYmHYkIEYPWIInBIlUp/7JSdPnUb5Sj/i1KkzqPrjD6hbtzZuac/lxxq1sWLVahXKQeR5yfOZN3+h6j9PkCA+ChcqCCvtdRb+/v7a/TI6OeQR5fLayOcHf41CIhcdjWSgXK0aaNOqhX4WuH//gXpd+g0cgtSpUqluhlKlSuDvNf+i8o811Ajp4Py05/L06VP876dGWP33GuTPlxfJkiWFra2t/ggi02CRPWeeT/5XsXvrOv0WUdSRgUO379zB7h1b9DNfd+v2HVWVLV+yCBXKl1XnpAqSALWxscaa1SvUG3IQb28ftOvYWU1L2rtzG+zsAt+kBw0djjlz56vQ/GvlMhQqmF+dFz4+vujcvQeOHTuBnds2wSFBAnV+zLiJmDJtBlKkSI7tmzfC0dFBnQ8i059+avQrpk+diHp16+hnA0mIt+/UFX8unIdyZUvrZ6H6tyXQ/161TF1YBCcV9vQZv+H0iSOqD/xLlq9Yha49eiNVqpQYN3okypcro98TGKBDho3E3//8i7VrViFrlizqvLQ2tG7XUX3trf+tR8qUKdT5IJ279sChw0exa/sm1ef+sWfPnyNH7gI4eewgUqYI/Ny+/Qdh46bNOLBnB+LHj48XL5xRo3Y99XxGDBusHhOkXYfO2Lx1G/bv3vHB95bn26pNB9VysHHdGsSIEVg/SAvFo8ePkTtXDu3n+Ovd75IoqpWtXFO/FYgVL5ms8xcuwMHhw/D6mmRJk6p/Hz76sOk0hoUF+vXp9UHoCmtrK0yZOF7dP2/hQv1sIHlD79Gt8wehK6ysLDF+9ChYadXngoWL9bOB5HO6alX3x6Hr4empmrhLaxVbjWpV9bPvSfX5Q6WKqlKLTGVKlfwgdIVUzX169UDixImxdPkq/ex7jRrUVxcTEU3mZDdt0RrFixdF39499bOBpNl86/adWK1d9Hwc+PJ8+/frjbv37mHbjp362UDx48fDgj/mMHTJpDF4yWRJn6wMnAqLoMcHbzIV9nHtUaZ0Kf3oQ/JmXbZMafw++w9VTQWRardc2Q9DKki8eHFRqWIF/DF/4QeLQcSOHQsF8n8Y1EKat+/ee4Aa1atpwW2ln31PnnfzZr9iz979nzz3iFT1xyr6rQ/F1V6fnxv8hDVa1Rv8NRBlSpcOcVBbuL0F3Nzc0bptB1WBjx8z8pOg/OfftUifLi0KFfj0tRQpkidD8mTJ8N9/Wz5oys6SOTOSJk2iHxGZJgYvmawsmTPB3d1dPwqdF86B83iTJkms/v1/e3cCZ2O9x3H8NzGmGoxBGsYyMzFDoqnG0s2lkLTaSTe3UMnVy70lIYW6tLlKVJZC28tVqV4vN5VlFJmpKZUrWWNsbVfMWJpBMff5/c//jGPmzDTM9HjO9Hn3Oi/Pec7mPEfn+/y33/HTbtpziumOrVu3ruzdmyXZAROtKoWHO63AWvZaYTrumJWVLdnZxx+jLV4dCy0oKytLDhw4YAJlyNC7g15mPj/bTNr67vsf7KPKXkJCnN0qrHHjJHMMfgoYH1cxBY5laWnrX99v5rbtZgw42BplLRqiJysFj5H/Mmz4KDPurpOyAk98tNvf3/UMeBX/QuFZbdu0ka2ZmfkTjkriyy//a1qPzZpdYPf46L5gLU2/M+1tga+lX+D+/cFEnOm77bDTMj8uTCo6rd6CdCxZn/uoEzJaPSrYxWlWyjVXd5ajBVqcZalyZKTdKuzss32TwHQiWiDtUi9LOU7wnnnWmWZ8dv2GjWb517ECE7B27PrWHI9gx0kvOnO8ZYsWknLJxSe0eIMde8BrCF54Vpcu10mO8yW74J2Fdk/xtItUS0c2adLYdEMGOnZUZ+gWXR/4wEHfkpjAYDqW55vVWxRtwaoqVSqbP4tzthM0Gvw6M/nFWTOKvcTFNbCPKnsaWEXZs8e3RCq6WuEW+6nIzQn+Wvr8/3rsEdNjoOPhk5+eKtud1m+g+PgGcr7zOQY7PoGXB0ePLPaECvAigheeVb9ePbn88nYy9qEJptvxt3z62SrzAwqdOnYoNCaZeyjXzLItyoaNm+Si5GQnRKvYPb7W7/c//GivFfb1uvVyYfNmQWf0FlS9Rg1TAOTjjIwil9foiYMug/o9x3i/+WaL3Spsxco0E3ZRUVF2T/EqhodLnvPfsWPB348en2C0Varj6voZ9ezRTVJSLpGHxj9yQsWxju2vkE2bNsuRIn5MQY+hdsvrWu/fWq4EeA3BC08bMniQ+YGECY8+EXQs0E9rNI8Z90+Jja0jAwfcYvcep0Ue3n9/sb12oszMbbJk6TIZOmTwCYGd47TY3n03+FKmbdt3yLvvLZI777i9UMgHo2POSUmJstB5vqIKTrz2xptyU7/+J4xZ+ltzwaIl3Ak+peFXUm+9vcBuneibLVtl3mtvSI/uXUv0flTD8xLMuuXs7Gy75zgN0anPPmevFU1f6957/m6KhMye83J+iPbp1VP27d8vz02baa4XpK+pS52enDyF4EXIIXjhaZe2binTn50iS1JTTZGF9I8/MV2iOq6qY5G6JOWdhe/KNdd3M4Uy5r4yR86pWdM++jgtPPHGm2854TbfTKDSL2ttYa79ep2pEnXJRcnSqVMHe28fXbbyn4Xvydx5r5vqVf7HaOEGXWPa7ILz5eqrO9l7F09f/7EJD5vAuG/kaNm6NdM8lz7nwZ9/NmtmR40eY4piBK7Xja0TKwcPHpTcnBwzPhwYMdWjq5uxUT0eelJS3ImJX1r6x6ZqlZ7M+N/Pps2bZfiIUVKndox073riesPitL+8nekVePHlV0yVKn19fb4ffvzRCd1pknsocOy7aEmJiXLrX/vJzFmzzZi+qlXrHBk86DZ55LEnzPHXCWz699XeAC2sMeGxibJ58xbp3as7k6kQciigAc/TL1z9haKxD4+XNc6f0dHRZsKP7tcWl5Y01C7LYf8YGnQGrhbQWOq0aJ+Z8qSMHjNOcn7ONTOPdbnS7t27pV7dejLr+WlSP2C9qBbQeN1pgb4wY5o8MHacE34/m9fVoNn9v91Sp04d85i4BvXtI3wFNKbPfEFWZawMGv5Ka0n3v22QOXGoFlXNLEvas3ev6WK+c9DtcpfTwg+sdLVoyVLpP3CQKUCh61n1NbXLWukx6XT1debvolWrHnWC/WLnBCIYfwENPTHRGcFnVNDZ19GS54SlFqLQ7uUXX5ghiYmN8lu8/gIan2ekFVpLq/T4awt+2H0jTXUoveg+HZdv1KihTH16kjS/qGWxBTT89Hj07nuzOZGYP2+u09KvZD7bWXNekqeeniLR1aJNIY+c3BzJ2pttJrY9P/1ZuSj5QvsMvgIaKSkXy8xpzxDG8JSCBTQq1Do3Zpzdzndrv752Czj9NAg0UHv37C5t/9zGFMnQoNCu2xtuuNYUxujTq0eRk5wWL0k1LakRw++Rvjf2kdrO4zXc4ho0kFtvuVkeuH9EoYIX+mPtX6/bICNHDJOb/9LXTNY623mMTgjq1+8meWD0yELhqjWfz3Jaq1d2aF/khB99HzffdKM0PO88s3ZVX7dD+yvkgVEjTGENf/exn3bnNmnSRMKd1nd8XJz8qXWr/PvEnHuuXHppaxNSWp6yZYsUqV7dV0WrIG1V6wQzXSs8sP8tJkgjIyPNsezdq6eMcd6PLqkK7GbWZT9ahlF7AvS9F6T31YC9pvNVco4T/Hr8NfgHOM8/9K7BJli3b98pV13ZIf9kQpcr6Wen66YD36v2LiQ2aiTbd+x0QjrWHCddE63vSQuL6HHSky1d8tTP+TzGPni/NAg46VG6vEhns+vfIfB9AKfbS6/Os1s+tHhR7pkWb+oyWZ666IRWVnF8Ld63JP2jZVLjJKtnAUCggi1egheetGFj0b9De7ImTposn3zyqcyZNcNUaCqJqc9Ol0WLl8qrL812wvq3Zy3Du7Q1rT0MwOlC8CIk1Klfdl+U/olH+gVcUqfyGHiTrotOX7HMXgPcR/AiJOjEobIy+elnJOOzz8ykm8B1usWZPuN5WZK6TGa/MCN/MhNCk44l6/pk4HQheAEAcFHB4GXOPQAALiJ4AQBwEcELAICLCF4AAFxE8AIA4CKCFwAAFxG8AAC4iOAFAMBFBC8AAC4ieAEAcBHBCwCAiwheAABcRPACAOAighcAABcRvAAAuIjgBQDARQQvAAAuIngBAHARwQsAgIvCmjZLzrPb+VZlrLRbAACgNFJatbFbPkGDd83qVXYLAACURvPkFLvlQ1czAAAuIngBAHARwQsAgIsIXgAAXETwAgDgIoIXAAAXEbwAALiI4AUAwEUELwAALiJ4AQBwEcELAICLCF4AAFxE8AIA4CKCFwAAFxG8AAC4iOAFAMBFBC8AAC4ieAEAcBHBCwCAiwjeP7D169fL+PETJC0t3e4BAPzewpo2S86z2/nWrF5lt1Ae7dy5U5YuTZXPP/9cjh49KhERETJ58lP2VnjRsWPHJDt7n3z//XeSmZkpBw4ckP3790vVqlUlKipK4uLiJCYmRqpVqyZnnMH5tBd98cWXMn/+fMnKyrJ7Tl7FihWladOm0rfvjeZzR2honpxit3wI3j+QX3/9Vd5++21ZseIjsx1o2rTn7Ba85vDhw7Jx40ZJTV0mW7duNSGcl5dnLmFhYeZSoUIFiY+Plw4d2ktSUpI5mYK3jBp1v3PylG2vlU6PHt2lY8eO9hq8rmDwcmr8B3DkyBFJT0+Xxx9/QpYt+6BQ6MKbNFj37dsnS5Yslblz/y2bNm0yn50/eP330eu//PKLuV3vp5+xtojhLWUVuurgwYN2C6GI4C3ntFtr0qQn5ZVXXpVdu3bZvQgFhw4dkg8++FAWLlxoArgk9H4LFiyQ5ctXSG7uIbsXgJcQvOXUnj17ZN6818zkqR07dti9CBXaiv3qq7WSlpZm95yc5cuXy9q1X5nnAeAtBG85o12Oq1evlgkTHjFfvjk5OfYWhJKffvpJVqxYccpdivq4lSvTnBOwvXYPAK8geMuRdevWydSpz8iMGTMlNzfX7kWo0Vaqzlzetm2b3XNqtmzZkj8ZC4B3ELwhTifXZGVly5w5c0zobt682d6CUKUTqHSilC71Kg19vIYvk+kAbyF4Q9zixUtk4sSJ8umnn9k9CHXaQi3pZKrfomP9tHgBbyF4Q9yiRYtKtSAf3qNBqb0YZUGXsBC8gLcQvCFOiyWgfNGCGJGRkfZa6ejz6PMB8A6CN8QNHDhAunTpIjVq1LB7EOq05GOVKlXstdLRkpKUkAS8hf8jQ5zWbu3c+Sq5995hplwgX7KhTz9Trb1cFrSMpD4fAO/gW7qc0OL4PXr0kLvvvluSkhJN7V6EJv3sEhISpHr16nbPqdFekPj4OP4tAB5D8JYjOpbXsOF5MmTIEOfyN6lcubK9BaGmfv160qpVq1NurerjWrduJfXq1bN7AHgFwVsOhYeHS5MmTWTs2DHmF0z4+bDQo5+hBmejRo3snpOjk+40uPV5AHgLwVuOaYu3e/duMnz4vaYljNBSs2ZN6dq1qyQmJpZ4ZrLeT0+6unXrZh4PwHsI3nJOv4h1rG/YsGEyYEB/M9kGoUEnytWtGyt9+vSWtm3bmnH8ogJY9+uYcLt27aRXr55Su3ZMicMa7qhUqZLdKj16MkJbhVrnxoyz2/kG33mH3UJ5EhsbK5dddplERFSSDRs22r0+1113rd2Cl2h46tKixo0bm3HfqlWjTEEM3a8/kB8dHe2EbG1p0aKFdOzYwXy+OrRA6HrP3r17ZMeOnfbaqdPP9oYbri/15Du4Z9r0mXbLJ6xps2TfL2oHWLN6ld1CefXtt9/Khx8ul4yMDGnevLncdttAewu8TMNWf+T+yJEj5qKtKL1oOEdERNh7wYv0h0vWrFkj+/fvt3tOXoUKFSUhIb7MlpvBHc2TU+yWD8ELAMDvqGDwMsYLAICLCF4AAFxE8AIA4CKCFwAAFxG8AAC4iOAFAMBFBC8AAC4ieAEAcBHBCwCAiwheAABcRPACAOAighcAABcRvAAAuIjgBQDARQQvAAAuIngBAHARwQsAgIsIXgAAXETwAgDgorD6DRLy7DYAAPid0eIFAMBFYU2bJdPiBQDAFSL/B9zpvlV3wGkSAAAAAElFTkSuQmCC;" vertex="1" parent="1">
          <mxGeometry x="441.04" y="121" width="356.66" height="629" as="geometry" />
        </mxCell>
        <mxCell id="FhRJj4_u_BITY9b72M2X-3" value="" style="shape=image;verticalLabelPosition=bottom;labelBackgroundColor=default;verticalAlign=top;aspect=fixed;imageAspect=0;image=data:image/png,iVBORw0KGgoAAAANSUhEUgAAAqIAAAK2CAYAAACVRv5+AAAAAXNSR0IArs4c6QAAAARnQU1BAACxjwv8YQUAAAAJcEhZcwAADsMAAA7DAcdvqGQAAMBPSURBVHhe7N0FQNzWHwfwH26FFupC3b3b6p27u/vWuct/7u7u7u7uvnVrt3aru7tAgeJw/N/vl5e7cBwkOXKHfT/bkZcXvSuELy8vScwhhx1VRUHmzp1PCQlxVJCfR+kZGboWAAAAAMBQkJ9fa05MHv0QxWaN1GOhHTI2kWJ1GQAAAAAgatpnxCCIAgAAAEDDQBAFAAAAgAaBIAoAAAAADQJBFAAAAAAaBIIoAAAAADQIBFEAAAAAaBAIogAAAADQIBBEAQAAAKBBIIgCAAAAQINAEAUAAACABoEgCgAAAAANIuaQw46q0mW/uXPnU0JCHBXk59X6MPumoqqqimJiiLKy2qr3FE+t1fvpnp1NMbExpKqptLSUiouLZFhaUkLF6lVZUUEVlZVqWZ8szy+fT31YagEuq5L8L9So1JNPVVXP9RVqPT61YExsrHV2qUtOTJSy12Sd8p7NLWq837rOnIfHucZ8S3qCfkO60lhEqvnz4PdijBvbMBbR86ox4/Pmslq3rMayHrW8uUIZ5QJP1/PrGsW6bAj+ZXig9sE/W/D81nXWZK6/+mcVtIy5Lf82uay/GYKpeXhJmSL7ZVm/f/nQbOfV62bm/vIy1fc9aD2h6OmMS8Hbk3VKSZE6mUtGa0yzrEvodZSXV6rvE72UquPl+COLjw/8fPA0c2nr+2H+fbLS8zBzP4LmqFHH6/GvU72C5+dp/JOpfsrl572ivJwr5VjRo2dPWrBoMW3ZkqPnrqld69bUf/BAWrliOW3ZvNlYv1o+PiFBHWsSAu/Dsu8m6/6YU3k8uD5UmckqdUX1euM915hfvXyqvlK95F9B7xPPa/7bmP8Oss88UC+zzv858jiXpV4Njf+FdVrwPlj3y1hW869LRvSo5d/NOm8QWZ9M53nVsNq6FL0OwfXB082dt04LGlrfhyzJ39jVfv711BrrDgjsp3rVOHbo5f2s03Q9zy9Fcz7z+KgncaGawDqN6fxFbVf9zuNq4/M1ppnMfTTXZE7icX9ZtmNs26ng7djimWu8n/opKyuj2Lg4/6fCv/X4vcSq32Wx/Jm4xMvxWuI4Q6j95XXHx8dTclISpaSmqHIipaWlUlJysrwVn6+KVq9aTVtycyUTbN2aq/453H4wjVdBfn6tOTF59EMUmzVSj4V2xp5JzSuIJqpwN2rUSEpLTaJNmzbT1twc9UuxguL4m1D9o8eog0hcnP4mUkP5JpJvJi6TzMfi5BtUzafq5JtWluDvG6mQ72Zejr/J4tUyPvWfWkJ9Qxrf2DxfXFy8bIN/IRkHLw6zHGx9sk88XlFZIeuo5JSrp8eqeTly8A8KT5Mffr0fPj6YWLZt4j3k72uuilXbluVDHCv9zHFZb9AkXoi3rcrmOnSV0IvJF/ls9P6pXVL7zxM0XkZ+2Mz51JDnUSvlwB4oq//4/fC25CM31snvo1ItLx8dr5fXo17+nbWWmR6X9ep1CVXHv4B5OocOqeLlVNEYU7ig6ni7vC+yXjXg+dWfIxQj04w6/vfjfyNzYXO/zaGfmp8/S/kkzbJaiV6Ngbch9bxeNY1fapyncz0fwNTAmFUXeB6hRuV9qqFMUQXZf6Mo31PyPSzb5hkMemn5t5HPnZexzGB+/rwiY13mNDXFX9RlNRv/zPD8CepAXKk+hMR49f2uJiSqg7K5q5WV6iekUoU8Lqv9qqxQ/+5qea7nT8T4vufvb2MBHvJ+GN8fBtklNWL9t+XPnLdV7bPhsqzGWJf5XuR7UY/z9spV8MxqnSFzmXW8b2Vl5VRSUkpFRcXq57RM/ZFaTNuKSmVZE8+flpJIqampcsxJSUlVryRVTvAfO3iPeLglZ6sKpvHyPWP+0jP/MOX3zvXyc63xOL+fQGCUagO/FXmvUjAG8r2nwi9//vpz5P3j+cxjGG8tTk3naQkJibIf/L75FyiHb5+P/+g2/nCuVJ8LT+Rjmgz5A9d7ywPjc7T+2xhfje9sQ+B7iBcw6nl/pE5GjIEsYs6j63hZZs7rn8Sz8X963PjeNeaT98PfF3oecx08znPzzxH/x+/fyvxZ53XwuvjjMtapp+vZedy/qBpy0ZxPluF6vYw5L6+T37P5vnmyUc//xubnw/8HfS6yvKrjggqQvIv88yCz8/y8Dp5NfeH1yL8/z2qug+vVQvy9wOsOrEtN4/Wb/5zqxd8XvO7YODUPf0ZqHp6fZzZn56/8+fE8xmqMz9d4f2qcZ1TM720eN9+brESRVXKF1Jnr1vulyzyzNHLoFfI6jPnUy/gmVwXjZ8NsEJHVCmNdMq6my88gD9X3PNfx9zk3QsXGGr/fKyqMRiber3L1PV+ljkOV6mdAjkdqo7Jl3r65L/wzoLZtfs9zNZeNn10+dvDPjPojT342eH7+fazWqdbH8/O6eRL/LPlkG2qoynzszMzKog4dOlBhYTH9M32GhOampsUH0WT1F8fOO02iJYsXUUFBgforJE2+aePUD01qSgq1aqX+KlG/ECUMqn98+aZT3zD8y4YPuhXqFyKHQTn4KvwNyt+D/I0j34P8RX238g91nDlU4VK+wdS4HABlFvkR8P8wMv5h4O9C4xeLsSrjh9eYh9dlrId/gGJl3/gXh/HNzy/jh93APxTGdsx1mazr5DK/5BeQHg+e38r4geP9NrbLs/GaZH5VMNZqrscc0wcCNc7vlw9SzFiHcZTjWfm9Gfth7DuX+YeP5zY/JnO/9Ob0Nsz3Gqg3v/J+GGVjXwMft/FZ8fK8D8Z61UT5bI35jXXrZWX9vO/G+xBqqJbWyxrTGa/X/HfmZY11+Nek6vn9cknVqJmMxfRUNc0oGus1N8Wsn5exXp5u/vvzQcvcrjFuMt6j+X4C+2Oun1+VlWq6/nD4Kx8s+a93c1XGUI+oBfh9G+vlUeOXk7E0z8vLqrDJ/6my+e/I8xn7YGyT/yDj5WWfVR0f+PkAbtbx+zH//bnFlOuM739ZhaKmGP9Lnfl9JdtRQ94nxvvhn0nVmdPljxZZF38x5mW8Ta6SdynV8k7kF0Lfvr1l6A/kair/Mck/6/yLZN36TZSjguSiRQspvXUWLyxKCvOpR69elJXZhjp3bG98Jmp549/M+Dfkf0s+y7Ji1Wr5bEzymel9D8xrbJ+Zn6+EFf5PVevZZcj4o+Hjivk+ze9PY7qxLv73NuaLUSFV/bHMn4+qM7+neJ+MX5zGNirVsU8+B1Unvyh5fcZUNc7/1rwP/O+l90/2nb9/jX0z9kXvoEWg1iwZ79dcv/m9ZnwGqqCnm4xtmdMUNcmcX96TLBeYaC7KQ55Wof59edO8DoP5mRrjsiwXpY7HjZe5PE8PbMv49+GZrds218WsPztGvVqZqrGux9wXc7+NOcz5jXqeh+dl/nr1n/HdbqzLPMYa65ZamcqMuTgQGWU9g5pfDdRQXnoJrjN+Fvl3FW/T+pka71l+jvRambwXYyXy+9bcV3MeHuPvPWa+dx6VY5NRbXmPanvqP3N+8zM03xvjSUbRmN/E9dzo4+Pf4Xp5HvCyso/qffH3v/kZ8vJx6o9lPuvJa+LpvD3+J+GfeV637JOqMz8f492Y9DbUS/ZZwi0PjWDM4VL+8FQrTFDb4T9UucytpbwPnB94/Zw/SlXo3FZYRIXbimQf+L0WFhZSeno69erdl37+5Vf1R3EJb65Ra5FBNCMjnUaOGEZrVq+Wcf6F10oF0MzM1pSiwmdRUZEKpYVUqIaF6h+5RP0y4IMs/yDxi78f+R/c+MEKlHlovIxvMP5f/tIxFpB5zW8/Kal6np+nc63B+EbjOaSOp5nL6/l4mtGqIFvRZZ5F74968Q+k8UOuXnp5o2iswfhBNcpcJ+Pm+nkxWYuxHi7xNoxljWnGPsmo3lFN6qzbMjbPM8lyUqPm4Pl4FcbGZB6en6u5LrAvRpnrjYUC8wl/wcDr4Spe1jw4yGKyPmO/jOk8h5XxjqVWr8T/Ppk5zmXePn8f8NFX75/xWfMktWZenFcmFeqr+mcx63jIL5lgYcyu36sayjjPy0FUxvT8aiCfiUw0ao1tqbJM00OjSk80Z+T/jYO1uQzj75vALyOe0Vie/83lQM/15goUY/3Gfprr0otVY9Zb1xmYjScY07iO5+VtGfgzVC/9j2dsVeGZZGDUmT8DZl1gyMsH6phRyz+PqqQ3Y27b/N43ZlJfZCgr4IIa5Tr1UnXcamj8UWr80hk2ZKDUGcvwLMbnwvh7ZN2GTfKLZNu2QtqyZQsVlZSrXyix1LZte8pIbyW/vNu1bSPrqPZ+1Iv3jv+4nD1nvnwWMl5eppbhP3KNfda7JXPzUsZyqqQK/HnK2mReI/z4PxNjIf+8MspfzLJmBAuZS4b+75Og732p47l02cRF87hU7bOxzMN41NyuTFMj5m7Iz7G5XV0XiqxRr5bXJT+TXFYvLplr5GmyLi5w2dg9KRtz+Fcj48ZqjDUwc92Bn6Ogafp7zNie8W/CZA6egfEsqmgubnw2xu8QY794Ik/lMhdD/dyqeeX7IjCrkPUZdf7VSDV/fjK3qg8EtCr1Pc8RyBg39iOwD1IlQ3Pf5B3pepmPmRsRuk7NZLwvcxovYEytVsdfzUUU+XmUUmCa+W/JnwGT5bms6839MKuNsrF9o6x/HvT8xk5Y51df1P+yfvWSKmH+4RWYT69S6nglvM7A+zH+/Xkeo45n5uk8JTCPdRvmPvL3OONx+blT2zUboWQeWYanqZeaxseMpKRESktNk2NJenoapSSr/FKs8kt+AeWrYw43jHE26dq1K/3732zKU4GvMapvED1kbGLTCaK777ozLVu2RP0Dqr8yVPjs0qUTtVJ/OWzauIk2btpEeXmF6kDPp9CMH8by8nL1C2Qb5asPiVtA1XeK/qtJFdV/ZtO68f1jfDPxD6k0w1v4vx3NgpX/kzN/yKUYmM9cyL8Ck1TooYVZbQqa7J8WXK8ELyqs8+sy/0xw0Tp/bWUWahoPmX8+6wyBgX9e/3xKjWWZOWMQ67Ihl2PBy9aYQQlet5on1OfgL+hKmccybygyq2Vec1tSbxSrz6PHTTJPqErrOLPU8UCWM+mRau8paB3+ZfwzGEN/vcmynB5EGf9AWn4G+U1Z3pgRydSL/0BQI7yPPLfxayA0eX/qA+GWvfj4GOrcuauscuiQQWpct5aomYxfGMbQ/OU0Z95CObuyft06ik1IJl9FKXXq1FlaOwcP6ifBksmyCi9nlGKoVAVPDqKMl+eN8h/Feo+q8b8nbl2XP2BY9WORE8Z7VS9eRc3NKKpS3q+eKGWjaPJXmfXm7liYVf75dAUPzFH/96BlaN0cVwUzZ2XmfCFZZ7SyrJwnm7P59yWIOY9QBd4/k9SbE3W9ua7gj63aejTLqpog8ydKfw+qX5T+n0z9xQxfJq7m9+zkfZu/ZnkVnP1VNpNh4EO0jvi3XG+yRv82NPnH40pzz4NnsMMBUxflcwp8AtKYxa2m/MOttsEtqHyMkOtVWremVq1aSSg1wyv3L89UmatTpw6U1TaLSktKadXqNdJdiI81vfv0oW++/UGvvXGobxBtlaw+v8YcRDt36kgd2rdVQbJU/rE6q3+cpKRkWqsO6hs3babiomI5xc1DDpzcGmoETD4lU+noBwIAWo5kFSrbtW2rSjE0bOggaZXgXxDmQZADpfxeMkZp4aKltHXrVvnDduy4cfTnlCnSJahNZib17pktxxpexmgJMgKsGWS5RfS/WXNkPbk5uer4VChlAADGLbDcl5WPQXHqj2Lud86n5lPUkI8taWrYsWN76tJZ/fGrctDaNesk2yQnqz+ON2xUWWiDXlPDqW8QZY0yiO62607SgsB/AWRltqYuXbvSqpUrad36jRI2ucl6c84WKtpWKH+JcH8LswUDAKA2rdLV8Uz9scrHjLZts6RPF6dO7hsqfTnNFKqGHCjz8vKli490+9m2jVJbtZILCjiM8ik1bsWo8qk/emP4dCkvY/Q159P2vip1nNqcY/QXVyssRBAFABt8+ElMSCTuUZ+ujjdts9qpkBor/Uy7de1C3bp1pQ3r19OW3K0yc5eu2fT9jz8ZCzeAuoJo0ugHKC5rOz1Wu0YVRHfZeSeV+FdK8zVfBMC3Qli6dLkKnbnSIrFl8xbKzy9Qvzy4v1W5/KIAAHCKg+j61ctVmKygCp9PcqfRqml202FmGjUYJUtLqbR6BuYwp8ipRRnniyCNVlYOt4nqWNqhczZaRAHAFW5g49P13Aedr49p266d3KGkTZs2NHDgACosyKcNmzarPFRBXTp3pZ9+/U0vGT11BdHE4ddRfOc99FjtGkUQbac+3I7t25LPV0GdOnaQ0/ALFy2RiwRKSkto9eo16h+CO4N7008EAFomDqJLFy+kzMwsOf3FFyPx8YZfEik5U/oZ43K63jKBfzmYLyse55ZQPpPD3YkqKsrl3sRbc3OpR68+CKIAUC/cSBcTF0vdunSVbkXpKpwOGtBP+qyv37BJzRFDGzfn0ObNW4wFoqCuIBrf40hKHHieHqtdXJ8+fW7yVVaQ9bV2zWqKVX/Pc18Evv1RpPCBe5edJlFyUjwlJcZT165daNGSpbR8+QrKzctTw+USho0r3GvkZQAAV/jWKnzqnAMoX0HPAZSHfIqe73jB40bZGOcLMvhlhlF+mePmNOt0OdWvj1UcSLnvKPce5Rtcc3cAAIBwyR/AKg8VFOTT5i1b5HizceMWKiouoUED+8kfvxxQhw0dQkuXLZdjUqSVqRBcW06sKttMCdmHqHzMx8Xaxex/wEE1Et6sWbNVOEykktKyiLWItm/fjtq3baM+WKK+vXuoD20Fbdi4SW4gvXrNWul3FdziAABQHympafIkJDOEmsGTw2R9mccrCaDqlwV3H+LwyePZ3btTiTq2AQB4KSY2jrKzu0kY5Au8+SLKZctXy4XcObl5kqsiqa4WUZY48HyK73GEHgutQYLorjtNUh/QFkpNTpInsMybv1BuscQtoHz63bzHJwCAl5JTUmn5sqV6rDpuPTDDpNmSYP1jOHg6l611plDTevTsRaUlCKIA9WX+bEF1fNq+Z+9elJSQSEMGD5Cr7IuKSql9h4707XeRu+WTXRCl2ERK3uF+is0cpitqqn8zgEsjhw2h9RvWSZ9Qvurrv1lzVWLfSCtWrKBK7hoQRggN/kVgMutrmx4ur9dXm/puJ1r7acfJfjTEZ9pYPp+myOt/02j9W/Axhn+JWU+rW198hTu3kPI85nzGaXqj1dQcWl/BdeZy5jr4hdPytWvMP4fh7lsk3lNj2pdIcLqf/PNUH5H+PILXH63Pn+9ZunTJUtq0aSP9+98sysnJow7ts2jtmlU0fOhgPVcD8JVRyT+XU8W6b3VFTVFrEU1NTZEmYw6anTu1VwF0nvQtWL5yJfnUQTqcby7+B67vN2WA+TEEWkLMdfvL/A3l3171+WviixmMUmAfuSL0/CG3ZxH6vQbWF7w8k3FVlrnqWLcbjpfnfZD56n7PLHh9TrdR3/fihHUbtW+v+nsMtQwPmdTa7HPwdoxxLoVezr/uWtZrXV9gXvkamMb1amid14m6th28LSvrdoyysQuM64P3I3g8NF5B7fPwgTozsx2tX79W10QHH/Oye/SkLeoXBPO/D/We9FsW5vs22b1f67zMXL76csZnYtTzeGBaqLrqAp9nzfXa8y+jhnpDhqDx4HVbx7nMeDxUPeMqHjUmBdYj1ASe05jEX/1j1dZnsm6vusByLNSyAdXnZbWul+tDrCd4/TLOhaA6Flwv1DTZC11vzstq3+9atqvGg+uD1bacKsi+1bW8dZrddkLS23BOPhn/kLfJrPvAQo2b+xc8VAWeQearMS0E67Ta5qtreVbXcmoC9e7dW24zN2LoILmQie/qsUqF0vx8b8/M2LaIWsS2GUrx3fanuMzhFJPSSe2n0Xc0KkF0QP9+cguTxPg4qlKf29KlK+QKUr6yi68urevDdsP8h+Ehv7ilgvuCJSWnqqHRF4z/gfhWCHyFfmWFT/pRqCX1/8Zy8rg2aZjlj8bBvvEs+lPkt2J+oOaS5rjQ8/qnmctyna7k7yNhzsS4zpyXqbKMmvWmUMs6ZVmXrFsPTcHjduyWr219XF+DWckL1Chb1mSdLsxp1qHJLNdYqFZ1rQ0aJzm+qH8ovo9ncVGRcRyIMm6JTUlJk/uRyjeOJseZ2GpVBvMbrAbzu05PVIOQs/kZU81jS+2sM1g3bpaDh8xarkNtqzMFj1tVm6YXDjm/nlaNOVOIZfzjlnmqraOusim4zlwHM6c1Udbdt759xmX9fWvy7t3ymtTv50q+iyaPGeMGa9kUXBdqntr556xlkZrVwTW8h+o/+SyMYZwKV/wY3Th+zKfKPPGx8cb9htUva/OOGnwtDPch51/g5qNJmZlhrELVOcH70LlTJ3XMSaU+fXrKE5D5IRuFJeW0ePESPVf9uQmitYl4EB01cgQlxPM/VRVtycml9es3UE5OjjzcP/g0PH/gJvODr+0fxoqncqDkpw1kZrWV8c2bN1Fubq5cRcYXJPCpMpk3jH/QpobfY/Bn1FTwv5Pb7hlN+f02NU39e6uh8fc2vl/dc/KZhXPsaGhNbZ+b0vduY9tXc194yIGUG8nSM1pTFmcWFUu2bNlM5WVlNbIKz2++F7MulJDzqWFGejplZralzp07Uru2mSqMqjBc7qOZKud5odEH0ZEqhPoqyiglOZHWrtuoAugWWrt2bbX+UvyhseAP0FpvZdYz/gdr0yaLEhLjaYMKuPn5eVIX/A/JgtcDAAAA0BA4y5h5hv8Y4RZSDqZdunSlClXeujXH/0eKNRdx2RyadcysNwUyDz/bPpE6d+lCbbOyqIsKpGpp2lZYQnPmztPzhM+LIBrXv/+Am3TZb+PGjRQfH1ev+4gOHjRQAiifBVu5ag3lbs2lVWvWUKVNp/3gD5NZP3B+8Zvu0KGj+guCb9y6SZ4FzS2fHED5tBvPH/wCAAAAaAys+cTMLtyFZ2tuDuWoF9+DmPuWc+YpKSmu1sBmZprgrMSCp3OZW2Dz8/KkFbakrIxaZ7RSGS9BziLnqvxUH3XdR9SpiLSI8psfO3o7qvJVqBC6lvLUB7By1UqjL4QFf0ChPkgrcx7+y6BDx05UWlJK69at8f+jmMNgfENXPkf//ttv+P9RAAAAABpSUVERnXDK6bR50xZat369rg0wW0I5+3CI7N6zJ8WqQMOn7znPmLnImqGs5VB4Oq+rR48e1Dozk7K7dKbYuHiaNWe+7E+4GuWpeX6zO04cS3kqZW/avIW25OTQmtWr9dTQH1ZdHyDXZ7ZtRyVFxeofYZPMy0IF0PvuuYMOOmB//zwAAAAAjRnnnE8++5wuv+IaXRNghlLu0tilazfJN/zEybpyU91iqFu3btS2bRa1b9eWkpKTaerfM9S69GSXGmUQ3X7UMOlwu1XtHPfbXLVqtQqN7oMhf8gxMXHUrl17WrZssR4PNDmzDh3a068/fltrqygAAABAU8Lhc+yEnWlrXp5/nHHwLFP5atCQobRh3do6g2hdQZWndenShTp37kxpqamUnJJM/8yYpae640UQ9TTB7bnbTvIh8YtD6KZNm4mf1+yWcRq+M5WWFtOKFUvlQ+OwaYbQSy46nxbNm0m///w9QigAAAA0G5xrpv35Ky2c+x+dOfk0GecX9yPl/piLFy6giopKatuuQ61hs66QyhkrJyeX1q1bR74qH1VW+mivPXbVU6PPsxQ3evT2VFhcQomJCbRs+Urpc1BeXlbnhxEKz94tuzstXbJIriLj5c2wecxRR0gAPffsM2UcAAAAoDnixrf/XXax5B4+lc44D/EtKUtLSyQnZXfvKX0/neJ18ovvZVpaVkbLli2nhPhY4ses9+nTW88VXZ4EUf5gsjIz5VZNCxcuJr4xfG7uVtchNDEpmVJSU2nJ4kX+VlB+bb/dKPmHuPXmG/ScAAAAAC3Dn7/9JC2kfJN6xhmJr4KfN3c2tWvXQWUlZw/qCOSyKtqwfr2ML1y0lIoK8ym7Wxc9Lbo8CaKTxo+ldWtW0dp16yVhr1yxQr05dzfpzchoTcVFhZSbs6VaK+jXX3xCb73+spQBAAAAWiIOn7/8+A199fnH/sY6Pl2/evVKeZISP9LTDe46uVzlNb49FF9czreO2m2XSXpq9NQ7iPbs0Z0S1ZtPSkqkDRs2qiCZI83G/CE51bp1G7ktQWlpqYzzh9u+fTuaP3sG9e7VU+oAAAAAWro+vXvRgjn/yqPLzTPH+XlbqbComJJT0vRcTsRQgspr27Zto7Vr11FSYjwlp7aitLRUPT066h1E+/XvS3m5m2nBoiXk8/GNV40w6VSGCqEbNqw3nruqmAH2j19+kKQPAAAAAAEcPufOnE5nnXG6jHN2KikuoqLCbXKjejf4pvZ8xn7R4mW0ecNamjBurJ4SHfUKonvvuTttUiGyYFuhCqAlKlGvcXVKPkUl902bNvpvTcAfbFZWlvQHBQAAAIDaXX7pRXTk4YdJfuIwWlRUKBcexcXF6zns8cOGVq1aSYWFhVRUXCp5buLE8Xpq5NUriCYkJlFaajKtWLFSJfHAI6ic4A+Mb/NkfeQnNzP/9ftPegwAAAAA6nLn7TfTRRecJxmMXwUFeZSc4q5VlDMZ3zR/yZKlVF5WJPcXjZawg+juu+1Eq1YuozXrjBZNvieV06vkq9T8HTt2Vum7QMb5g0tLS5NmZgAAAABw7vxzz5J7jJotoxvWr6MuXbL9Z5zt8HJr165X81dSbm4+5WzZQnvsFp17i4YdRDMz21FqcjKtX7/e9XNKu3TNpqVLF8sHxG+ehzOn/6WnAgAAADRfRx13IvXsO4j6DRpe47X3fgc5btizmv3vNIqPj5Mgytlq3rzZ1LmL81sy8VMwOY+tWrOGkhLjKC6+XifNHQtrK3vuvistXDCXNm3JkQ6umzdvVrXOPjRuLl6+fKkeMyyeH96jpQAAAACaAr7x/KjR4yVszpjxn9wHNJSly5ZT/8EjqO/AYbrGuXmzZkgQZbz+FctXOO4vyoutXLmKfGo/c3K3UlFxMfXv309PjZywgihfkMTPoufW0LLSErldk5P0zkk7Pb21/ykA/GF99tF7/g8NAAAAoLn56utvJVxu21aoa+xxNuLQ+uVX3+gaZ9549UV/rqqoKKesdu0ct7AmJCZIRlu9eg0VFeRRm4x0PSVyXAfR9u3by03ri0tKZWc3btwkw+Awab5p65vv3LUrLVu6WMrcbDx+3FgaMKC/jLc03Kf2gYcepcuvuJquuvYGWrR4iZ7iDl/l9ufUqf7X7Nlz9BQAAIDmhfPG1GnT6OFHH6drrruBnn/xJbkHplt/T6/9mpQNGzfSgw8/Ji8vfPTxp3TuBRdL7gnHhZdcTn//M0OP2Ru9w/Y0oH9/2R6/+Nn0WW3b66k2VGbje8LzhUv8DPpefftRYmKinhgZMfsfcFCNmDxr1mxp8SwpLaP0jAxda5g4fjQVFBSotLxWhaBtxkPzfT4JnBxGzWENqi4pOZlyt2zRFcYp+ZDzNgLLl6+gb7//gdq0bk1HHnGYrg2YP38B/fLrb9SlSxc6YP99dS3RZ59/IU+Y2mP33ULejJ+D440336bHajrqyMNpzOgd9Fjd+HO/4qpr6dSTT5Tx+QsW0p9/TaWrrryc2mYZz6WtC4ffDz/6WI8F8DfuZZdc1Gj/bQAAoOV54aVXaO7ceXqspuOPO4ZGjRyhx2r3+x9/0udffEl33Hazrgl49bU3aL0KYhs2bJDxbt260rChQ2n33XaRcbcWLV5M++x/SNgh1OrF556iSRMn6DF7fGqfMxlnhcy2bam0uFh+r5u/27me98tsMDTrebxHj54q/6VT+3ZtqVt2D2nRDaUgP79GTnTL9SfTrn1Huc0SPxJqiwqV/EbMIBqM601dOnelHOlLarzZe+66rdEGHW7l/eqbb+iM00+lPffYTVotrZapkPqX+ovszDNOpx122E5aNtn9Dz5CI4YPpzMnn0ZPPPk0Fat/9GDr1q/XpdBm/PufLtWNP28OoWzIkMHy6tKls4zzXQmc4L8q+b0Gv9av39Bo/20AAKDlueqa6+sMoez1N96ib779Xo+F9seUP+mjjz/RYzX9N3OWP4QyPkX95Vdf6zH3Ju60e50hlFse+YE+/DK7Ldbm1Mln65Iz111zpfwu5+1z/urUuYv/dzvnM+vveTPDmbktPz9PGh2Tk5PUWM185yVXQbRnz+60cuUK2ro1X3aruKRE7byRqPkNmW+Eh/wy3yR/uLm5OdXe9OGHHqJLjQ8/ZeD4Y4+Rcps2bWTIHn7kMXnPXVXgO+mE46WuU8eOEshZQUE+ZWd3k/IhBx9Ia9fVfbqAWzJPOlGtx/K5OPW/K6/RJZKgzK/3P/jI/2/g1t133kYdOnTQYwAAAI3H+PHOnvYzoY75/po6jT7+5DO6645bdU1k3Xbn3dS6dWs9Vh0HUMYXFPFtl/j0N19vw4G0rt/jjz3+pC7ZO+WkE/zr4pyWp7IN5zEzbPI0a4MhM1tIN2zaJPmzsLCYCrdtk8e4R4qrINojO5vKioulfyNfVRUnO2xM4x0337B1yG+yXbv28gQlE7cYNmYD+vej9HSjg+60af/QccceLeULLziPUpKT5RuGQ/Wff02jm26+ja6/9iqZfuX/LpPT7m+98y59+tkX1Kd3b6m3io0JfOS8juHDhtJ9d99BQ4cOkbp4F09D8Epqaqp0Rbji8kt0DQAAQONx8IEH2D4D/dyzz6RWrVrpser49/UHH34ctRDKHnn0CV2qjrMR5wgOoWYjHpe5jkMpj5s5KtjDjzkPouzYY46SIW+HcxifRrc2CrJQ20pOTJb8tmnTZmlIDLdrghOOgyjvKO9UYnISlZWVSt9QTtacnrnefGPm0HxjPJ6ckirzmf532cW61Ljl5eXRT7/8StuNGinjwf9448aOllPiX3/7nYx/+fU3tOsuO9ExRx0p31T85KhgGSH6UvBfaeZFRu3bt5NhNPEfBn366NAc9B4BAAAag5tvvF5aDUPhi5979+6lx6r7+5/p9N77H8iZv+Df45FSsG0bxcXF6TEDZyV+cT2/j9LSUskJ5ql5DqEcpHm62WLK89fHbTff4M9fPOQ7F5llU3BuY5WV5XJ6nu8Tz1M3b95kTIgAx0G0V8+e6oMqk1sP+Hx82t1ovjU/JPMNBH9o/IGuWrncPz09vVXUvhHqg79B7r73/pChmU/dm++TL2T6/fcpUv7jjz9pl513kvL1115FH33yqZSt2rVr63//v0/5U06xv/veBzLOOMhGW+fOnWQ/Hn38SRquW2YBAAAam9tuuVGXAjp0aE+HHxa6u9/0GTPorbff1WPR89prb1JK0GM2Ofzxi3MRN+Rx+OSsQZSswlKG3JOdsxI3ZPGLyzy/mZ94yK+vvwl94VBt4uICUW/5siXV1sms6zezDc/DjXFqi1Su9rV16zZSFwmO1zpkyCDaqgIYv4ydrbtTraltu/byAH0zfE2f+ocMGzN+f9defxPdcdstusbATdSMOy+/8ebbUuY685uNH1O6Tf0VxJ565jkaNdJoSQ1mhtUFCxZW+2ZonZHh7xIQTVdefZ3sR35+AW3OyaEsB1fcAwAARBu3JAafXr/i8kt1qbqZs2ar39Xv6LHoeumVVyVwBuMsxPXcJY4qjQuJunYeTINH7UOt2veSO+vwdJ7PvHjJzE/mkG8H5cb82f/KkLfFLa2Z6ne8NXuEwoHUbFcsUNlg3dq1tPOOk4wKjzkOoosXLVA77qOiomL1KvR/QG5FKlF7ie8hNnbMaGmpNF9s4aJF8o83bOgQmjBhHL340is0a/YcuvnG62Q6D7kfyksvv0qHHnIQ9evbR+qD7b/fPjVOIfDncv111a/OD5f5zWqHbxPF94U1X/Hqm7+8rEz9oMfZfpMCAAA0BA6jJ55wrJTvvfsOGQbjO9C88urreszw2edfyuvzL7/SNZHDd9cJZrY2ctCMU79ne3YZQOlpWdQ2qwt16NiD2nTuLb+DuaXUin8f84uX59/vq9es1VPc4+VDBeRQOK5VquDK4bi0tERtv/p+ecXRfUR5x3cYNZzyC/Jp5arVtH7dOt2cXDcOV3xD1OLiIinzevA4z4Apf/4lV7r3VYH1rDNOdxwgGYflpUuX6bEAbpXlC6AAAACaM75FYvDpb9MqlVXqEhMbQ926dtVjAR9+/KlcvGt18onHuT5TOHL7cbR5yxbp98n5x3rKm0+7jxw5kipzk6kspoxmzP2DWmdl07bSYvIVbZL3xC2XvIzZKMTLmeWdd5xIzz/7lJSduvu+B+iZZ1+QdcbH84VRoR8vGoyv+s/MzKTs7Gy5r/pff1e/sb4X9xF1FER54/379aZNm4x7TK5YsVzPWbesrLbqm2GlP30/9/TjtOsuO0sZAAAAoDl68OFH6Z77HpTGIQ6QHCQZB0G+Or5Pnz5UVlZO8+fNo0rp6sgBNU7mS05WAVVf7MwNVGaINRurHrj3LjrowP2l7FR5eQUNHGp0F+SGxC7dsqmwIF/G68Lb7tWrt9zYn0Pp39Or3+s8aje0HzlyOOVuzZUH4MvlUw610q2pJrNvJAAAAEBzdfqpp0gXRrMVk5llbu1csmSJ3IGoX/9+cr/y5GTjPqIcQq2toTzkHMUvHueX2xDK+EFEJt4ONzA6UVXFGa5KrvXhU/TmvdK95CiIVlaUU0lxCZWW2J+Ot+LHSZl/BTBrKAUAAABojjIyjAuPOVQyDpBmBuIy1/NtMPnF43wKnwMi13OANS9YMufnFzMviK4PXm9Zec3bS4bCEY63zUGU+67279tXT6k/Dt2DBg12FkT5En7+UCpUIC0tqfnYylD4jebm5uoxfsSn8fhJAAAAgOaOn55oPuqbw5zZummWOXRa7yNqhlBz/mC8zOOPPKjH3BsyeJAuEW3Rj1y3pfaX98m452k5xcU7io2OcLidN2+u0xbRCiOIqg8hL8++TwHjPhB8M1Tzw8zKypQhAAAAQHPHN9BnfErbFBwwzVDKL+s0LgfPy+s54vBD9Zh73OJq4lsyOelryXPw2XCjm4GPViyreZF0fTkLor5K2YkY9ZmY6d5Oon48lOntN17RJQAAAIDm78vPPpIsxE8oqg8+JT91yi96LDwfvPumDLlVlrtcJji8cr64pFi9ByMYOz2l74ZtEG3dmq+GiqGKSg6VVSqQVk/otUlOSZahmei5LwAAAABAS7H9dqPo+muvlsY8a8uoGwUFBfTKi89Rzx49dE39xcbFSb9UJ7j7ACc5DtQJCYlGpYdsg2hycgpVlJeTT/db4OePOsFNwBxCzc62AAAAAC3NBeedTQ/ef48EOQ6V5gVMdng+nv/rzz+mvffaQ9fWn5nNEhKcBdFytR9VPqMLQXJyktwH1Uu2QbRb1y7SN7Sikj+4GIrR9wS1w8+iRwgFAACAlu74Y4+mNSsWy43xuYsjB0w+XR/cD5Tr+MXT27VrSxvXrqBRo0I/LjxcZjaLs/QZrYtcQKUWqVRZkC9YStFnvL1iG0T5Q+MW0coKfT8stSNOVEpwBQAAAABuSZw/ewbNnD6VRo/eQQIe9/3k0Gm+uG6P3XeV58P/89fveknvcRh12lQoWVnNXMWNkhUVlJqSakzwiG0QjY8zHk3l81WSj6qqXXVVlzIVXhlaRQEAAAAMnTp1pM8/fl9aO0O9Xn3p+ajcachxg6Futa1QIZmDcp/evWTcK7ZBlO8dxbtQUVHpuDWUcXIGAAAAgManeqeA2vk4iKqX2SLq9JS+U7ZBtKioUDbOLaLGTjtr4eSbs7Lg/g8AAAAA0PCcZLQ4ebySZFE5213l87brpW0QLSkuNltl5cp5p2fa+XQ+w6l5AAAAgMalUjcY2quShkgOrdwwmRLtPqJFxcZVXdw066Z1k2+Cz9AiCgAAANC4lMv94e1Jg2KVT64T4izIV897yTaIVpRzE6wKky6DqNpjgSAKAAAA0Mg4DJTSR1The4nytfblZd4+Xck2iHLy5V3g/XAaKnk+lZuljFPzAAAAAE1TIPtxtquisrJSPe4N2yAqfT0lhFp3xgE9K1pEAQAAABobh/lM8p/xYpUOT+k7ZRtEJUhKo6bDHdbMplyGMAoAAADQsKx5zGkykzPbnAP1subF6F6xDaKBU+vu+oiaz6ZnCKIAAAAADYsznZnJ5LZMTkgI5YKRA2NivM109n1E/YEy1gzDAAAAANDEcGumtYHRCaMx1JiXL1aK+qn5AN55XXQJFywBAAAANCxri6gbgRjHraK66BFnfUTrudVw3jQAAAAAeIeDqNk46AsjmkUizTnsI+quRTO4BTR4HAAAAACiixsGw2kcrL6Mt3HUNojGxsZyQ6yUnW46+E2iRRQAAACgYYWbx/wNimpxrzOdbRCVjq26RRTtmgAAAABNX6yLUGcNn15nQYcXKxk7gJZNAAAAgKYvnD6inELNs+RecdZHFH08AQAAAJqRMAKlWiTqp+Zlg3qjZh8B606glRQAAACg+QjOdtbmyJgYhyfTHXK2thAB1MTh1KxHKAUAAABoCmo/2x18tyMz3Vkzn1ecBVG1zeDNWnckeIcBAAAAoGmwZrrayozHvc58tkHUeBap2rAxWi0Vs1A7CQAAAACNnxkurfmNy2a9MEOgGnqd8myDqE92TIdOf6nmTlrfAAAAAAA0fmaOs4ZRLvtDKNMRz7ydp5dsg6ixU4GQGSpwWuuq7TgAAAAANEJGduMMZ75MoeqYquGJeswbjvqImpsMFTFr7KTHOwgAAAAA3op1cfW7P/9xxPO4vdHRXoTTFItACgAAANBYOc9p5pxy+j6sO+HXzjaIcgSVplgZAgAAAEBTZ1wD5J7XPTDtg6hcNQ8AAAAAzUeYidLjJGqbMqt8Pq+7AwAAAABAg3PWKhqYi0venh+3D6J6KNDvEwAAAKCZcNbUaM5lpEBvz5Q7WhviJwAAAEDz4vP5dMmFqjCWqYOrWItbhAIAAAA0D2Hd+93jLOgqiAYe9AkAAAAATVl4t9psgFPz5rl5xFAAAACA5iG8p2F622HTNohK/wG9n+b9RAEAAACg6YpVIdR1i2gEYqBtELWmZbdPWMLTlQAAAACakyi3iFqDqNtNh9fkCwAAAACRwg2F/F+sw4cW+fOfinVVVd5mO9s9kFZNf8umtykYAAAAAKKP46TT2zdZo2dMjLdZ0FkU1i2bODUPAAAA0PT5wo5oUW4RddpsWxNCKAAAAECzoaKd142MtilTmm2RKQEAAACahfpcwxMTE24DZWi2azN3lrOouxQcU683CgAAAADeM/JcGK2MKtZFvUWUN8j/caR0FyzVUh7vLAAAAABEl5nmwg6wdXDUImrGT3ebRmsoAAAAQJOnA6BkQo/jnaMWUT9XSdTbxAwAAAAA0ecPnyraVTm745NjDnucumsTdXpfKgAAAABoQjxuEnV0ap77iLphLAMAAAAAjVF4Oc37dGd/at7nI+4lKpt2mIL5dL7HXQgAAAAAwCOxLpJaoJem93dEsj81b90groIHAAAAaFHMKGicIfc2CzrqI2revgkAAAAAmq5wbq1pXcLrW3PG7jC8L7VN0WNaVVUspXYerMv126DXOwwAAAAADSNwU09vxPrSu9OgQd0p1RIYY9tvT8MHd5WycR/R8DfqdV8CAAAAAKgfI/W5byz0ed0iOmdVHsWkt6M2ibpGyezenVIqN0q5WpBEqAQAAABo8qqqfOqlR2xw+jNnjY31NgvGlhQVk48SKNESRFNSUojKiqVs3BNU38ApxB7bnXrHqXkAAACAxo3zWl2ZLRA/PQ6inDCDN2s0fFpra56c54DKO8wtpqFuYI/4CQAAANB4mLktFOmKqTNdXQ8m8rqBMeRV88Y2jB2NjVVZVVWE2qz5Zsx5QqntDQMAAABA9HAmswuSPA/nOpOZAf1L2SzvVsggWlxcTJRouZReZUlrnOSdCn4zsqP6xcz5rfMAAAAAQONhzW9mZrOWhS5L46LH7Yshg2juylVUHN9Byv6dkq8G6w5am2+5LlQLaLU3AwAAAACNgpndrEPz5c94OttxnddCBlHfpr9p1ty1eqwmM2yaO8Q7ynXmG1BT1MvjyAwAAAAAnoiNMbpVWkOoGTzNnGcOmVmqzy09Q4mN2TKX/vj5L1peaNlYjI8K186RsgTLoABsBlDrDnKd+fL51DB4IQAAAABoMGZ+C2bmN5NZ9tepgb9omc8LIVtErThsWgOnVW07w51cvU7MAAAAABC+4DzH486CpZpHL1pLJAybbRBl0rrpIgAbb8rFAgAAAAAQUcGh0y6EBoKrGupo5/M43jkKom4zpSRsXQYAAACApicQVNXQ45ZQk30Q5Z1QG3fTFCsXL0VqjwEAAAAgariB0Ux1Hj/h00EQ1QnUDMXW2zXVDW2iAAAAAE1d4Ax+VfRPzUuzrGzU7ZbRIgoAAADQ1HGbpJECvc92tkHU31HVzbl5AAAAAGgmAo2RgQuYvGEbROVUPG/TZYMo7iMKAAAA0PTpy4V02dt8ZxtE4+LijBDqMgDjYiUAAACA5kHyp4p2sdFuERXIlAAAAAAtluRPFUZ90W4RlVPz9dim130JAAAAAKB+Kh3fBcnIcmaLqNdsg6j0BdApOJjZT8Achrq1k9d9CQAAAACgfqzthGZ+qy2zcW2k2hVtg6i0aMp+1dw5nsY7b7Z68jPmETwBAAAAmg7Ob8zMc5ztquU5VTRHYz2+o719H1HZcpV/5xjvnPky6xFAAQAAAJoea64LznMyHsN5j0ekhr94xjaIxvJV86T7BlhwALXuMA9rJGgAAAAAaLSs2c2a65h5yt6aPc0qr9gGUXMnLA2iNcKmf0cVa8spAAAAADR+oRoS+ZS9kesCFyt5nfIc9RFV+bjGDobaYbOVFAAAAAAaP85uoRoROc+ZraX+yRHIeLZBVHZA8m/1nQwVOBFCAQAAAJoOzm52+U2yoNdNoZqjFlG1C8E5FAAAAABaCCOs8llybznuI6r2wBgCAAAAQNPXCLKdwxZRKekhAAAAADR5Ts+3y3z88j642gZRwTug9xX9QAEAAACaOhcXmPN8kgP5wiap8YyzIGrZUQRRAAAAgJbETJ/2Fza5ZRtEq/jSfV0GAAAAgKbNCJNu0p2aV89u3EnJO/Z9RPlmprxRtIQCAAAANHlGEHV2Utygw6d01YxyEDUehK92OIwNW5+4BAAAAACNhZuMxsFVvTjARvvUfPXbN3m7cQAAAABo3OQOSl5fpaTZBtHqnVIjsxMAAAAA0DhJFtR50OsmSUcdBIyNIoQCAAAAtEjSIhr6ufT1YR9E/S2ibjOw15kZAAAAABoE58EItEnaBlG+WCmwXTfhEi2oAAAAAM2GNE5629Bo30dUv4xg6Sxcen2zUwAAAABoaA1wap6vmjc26Txcer2TAAAAAOAd4/acbnC2q1K5MMotonFxcboUXrhE6ygAAABAY+MmiEaugdHBXliDpLNQaQ2faB0FAAAAaBwCGc1NQyHPa8wf63Gssw2ilZXms+b5K0IlAAAAQEtV5XEWtA2i1a+aBwAAAICmKnCm2m26M+d305JqzzaI8g6jmycAAABA0xfeqfnIsQ2ivsrKMM/IG2/Q/6x6AAAAAGgwHEIDQTS8891Rv2o+Juwb2htwsRIAAABAw+MQGm4uMxfzOtfZBtHq3GzcmDeQvAEAAACgcXB3xjpSec7+1Hy1U+vh7QTCKAAAAEDDMq77MTNZmC2jeugV2yBa7Yb2IfJk7SEzUI8gCgCR8smnn1O3nv3om2+/1zUAABBK9TxWPVLyNPNVl0qPr/1x1CIqu8T7GyIGm30Fgncc0RMAwmF3EAx2/kWXUGVlBZ182mQ69IijXS8PANCSmcdMznPW/p9cH+p46v7RoHWzXZt/J2QQCJ1mvVk2m3vNevV2ZAgA4NT0Gf9S/8HDaemy5brGXllZBd11x200b9a/NG3aP3TXPffpKQAAYCc4fFqHRraTYsQaGG2DqCRkKdXcBTOAmmWrKpedYAEA/nflNZSfX0DjJu5M11x/U43jSiiJiQnUNiuT2rRpTV98+hE98tiT9NgTT+mpAABgh4+1oY63Rs4zyv4Gxqoon5o38Mb1DgSp/RdF6PkBAGpzyUXnU3JSEr39xiv0+htv0fhJu1Al38u4DqmpKVSwbZuUhw8fSh++9xbdevtd9N33P0odAADUzu4P/sB0YxgTE+VT80zlZNe5EjEUANzaZ5+9qaS0lCaMH0dLF86hSl8l9R8ygkrLyvQcNaWmptK8eQv0GNG4sWPouaefpONPOpXWrd+gawEAwA3rKXsRPO4R2yAaG8uNsWrjdQfmGmwCNgBADfH6Lh1FRUVyx46/fvuZunftSoOGjqK8vHyZFqxXr140a/YcPWY48IB96dyzz6Qdxk6k/IICXQsAAAHugprZMup1vLMNopWV3BeA20TdbhpJFADc4z+6zUfIxaow+sN3X9GE8WNp5A5j/afgrYYOGUwlJSV6LOCG666mfn170/gdd8GjhgEAaoip89hY7ZS9Oi4b7aHGVy85aBHlWWL8TbR2fQkAAOrHf8QTfOx57eUXVOAcQoOHbUf5+dVbRjt36kiVFRV6LICX++Hbr6iqsor22PsAXQsAACZH/TOZRD8dRT3Oorb74E/LyJ8AEC0hjjeffvQe7bzTjrT9mIm6xsAXN1XUckET/yE97a/faOmyJXTgoUfgD2kAAAt354r4+FlFVfqMlVcctogGNlqj8yoAgOdCH+heePZJ2la4jbbm5ekakoub6nrSR1pqKs2d+S/9++9Muux/V+laAABwhfOfesVE+4b2ZouomT/RogAAkcR/7PpqOc4kJCSo6bFUWRFoAV20aDElJibqsdD4Fk/z5/xLH338Md1w8226FgCgZXPctsgz6sNyVbTvI8otol7fMwoAoDZ8tXxxcc2Lj9jmLVvkvqKZmW10DdH3P/xIfXr10mO145bRP//4lZ597gW66dbbdS0AQEvlU6FSF+3IfJFpiHTUIuq/Yt5xdAYACE92t270xhtv6bEAPgW/86570R6776q7DJE8hYnvFXrWmZNl3E6H9u3p+2++oCefepbuue8BXQsA0BK5aGTk+OdvFfU2C9q3iKoN8ybdh2GEVgBw7+KLzqNHgx7ROXXq3zRg8AjKyEinl194VurWrFlDw7cbTYMGDqBRI4dLnRODBw2kd958lR546FG65bY7dS0AQEvjroXTyKLeZzvbICqdUnUYxYVKABBpRx95BPXt04d69x9CRx5zAvXqO4gOOORwOuqIw+nP33+W1tCD1Pj2YyfR8cceQz9+95Ve0jm++p6Xe/zJp9XrGV1r4G4Bk886hz77/EtdAwDQHDkPopz+/I2hHl8rZBtEq9/s1NuNAwCE8tP3X9HBB+5Py5evoOOOPZqWL5lPd91xC91+593UrWc/KioppRWq7vZbbwr7D2RuSX3r9Zfp1tvvpBn//qdriVauWkWffvYlnX7mOdSxa0/Z3s233UnFIW6aDwDQdLk4Na+YDZIxsd42StrvhW4NNYrebhwAIBQ+1jx4/z007c9fJWxWVlbQ4OGj6IWXXpGWzO+++oySkpL03OHbdZed6YrLL6F9DzjE/wjR/v36yvPrx44dLWH3rttvoddef5N69xtMF116OZWWlsp8AABNm4ur3y35z+ubJ9kG0bLScgRQAGgwHPxGbT+eunXNpsXzZ9OA/v30FG9cevGFtO/ee9J2YyZQeblxvOM+pH/+OZW2bs2jE44/lhbNm0mvv/IiffnlN9S99wC69PIrZV4AgKaLI6C7VBkXGyt3LvGSbRA1Lk7lIOomjFYhvAJAvXHXoNHjdqQhQwbTd19/FrHjyovPPyMXMe24y54yPnqH7Wn06O3pqONOkHG2264700IVSF996XnpP9qz7yB66JHHg7ovAQA0Jc6OqdXn8vY4bH9q3uSiT4DPV4Ub3wNAvT31zHPyFKUP33sr4n/cfvzBO7Rp0yY67YxzZPzDd9+iBQsW0aw5c2TctNeeu9OCuf/RU489TPc98JD0IeVACgDQvEXmGGwbRCVO8rbD60oAABAWPv1z1z3307NPPe6/b2gk8TZ+/vFb+vyLL+mPKX/K05r4tP3+Bx5ao9WTQ/GBB+5Pq5YtpLtuv1UCafde/emTTz/XcwAANH5OGw2NufgrBzxvGxrtgyg/3F62yXfgd7ZxNIYCQH099/yLlJiQQHvvtYeuibxuXbvQ1Vf9j44+7iTpA8oXMmWkZ9DlV1yt56iOA+lJJx4nFzVddMF5dMbZ59Hw7cZSbu5WPQcAQDMgwS5GxUH/I448YxtE4xPiLQEUTZ0AEB033nI7PfN09E95X6wCJfcX3W70eBl/963X6PU336YNGzfJeCj8WNLLLr2I1qxYQq3T02jg0JH02htvOf7jHQAg2twlOqMltMrnkwcdeck2iPIVUoEH3OOgCgCRx/fyjI+Pp9122VnXRNcH771Fm7fk0OVXXk2D+CKmSRNpvwMP0VNrFx8fR7/+/APdc8dtdOVV18qV+Js2b9ZTAQAaD3eJzpjbp/649vg2og5OzauNIn4CQDRNPus8CX8NJS01le6641Z6/Y23pCX0jVdfpNWr19CmTc5C5cknnyA34W/fri0NHbED3XXv/WgdBYBGxUmeNPvHSxY0D2HRbhE1GdvHgRQAIosPeHPnzqHHHnlA1zSMk088Xm5sf8RRx8mFS3z7pj33PUBPtZeQkEDffPkZvfDMk/T008/K1fWff+H+caQAAA3Ff6Eoh0/OnxIDGyiIyvYtOTT4r3v8tQ8AXvj5l9+oosJHbbOydE3Duf/eu2jhokVyU/0nH3uE1q1bT6Vl7p6stP/++9LiBXPoqisup9POPJsmn3WungIA0DCcZLZq83BRvSKR9WyDqOTeEBvncWtdqHv84UbPAODWnffcR2dOPk2PNaxDDjqQWqWlybPm27RpLS2kL7/yup7qHF/MdMF5Z9Pff/5OP/z4Mw0cMpK2bMnRUwEAoqu2QFl7buNumt6HUGYbRLljqiEQNK1vgHfaOm4tR+PefwDQfPDxY+bMWSq0GTeVb2j8B/b5KkC+/Mqrsm9nnTGZHnviST3VvexuXWn+7H+pb58+NGTE9nTTrXfoKQAADc+a2/j4Z810huqNkF6wTYrGBs2XwdwJ69DaodWEFlEAcOObb7+n9PR0ateura5peBeefy75Kito/vwFdPGF59LGjRspP79AT3UvMTGBPvvkffrys4/oqaefpbETd6523AQAiCYzwwUPzbJ5fDKbI2P0uFfsT81zIjZK8jWY9ZR8IHjioAoA7r33wYfUv1/fkF19nNq2rZB++fV3Ouiwo+iRx8JvvTTxafV2bdvTY088RcnJySooZ9AHH32sp4Zv1MgRtHr5IiouKqahI3eg0tIyPQUAIPI4qZlB09oSagZPZj0Wm7VV9Tg+h+IgiBqzWPsGmDsmITXUDgeqAAAcmz79XzrhuGP0mDvr1q+n0eMmUZ8BQ+iIo4+jP//8i2674y6qqKjQc4Tv4ovPp2+//0HKB+6/H736mvt+oqHwvVJn/D2FWqWmUZ+BQ2nmrNl6CgBAZJlxkrOb2fppFZzxTP6s5xHbIGqmSuuGzR0L3kH/uMc7CQAtw/p162nChHF6zLkffvyJRm4/jlasXFXtuLTfvntL2Kuvvffci4qLi2Xdhx16CC1cuEhPqT9ucf3jtx/JpwLznvscQM8896KeAgAQOeaRMjjLmcx6r4NnMEen5kXo/QwpcIoeAMAZPuhVVvkovVW6rnGGQ+GxJ5xS42DaoUN7euHZp/RY/XTu3FGePc+nz4cNGyLlkhJ3t3GqC4fRyaefKuXrbriJXnzpFSkDAHjNHzDlq73agqpXbIOo7IDsQ2R3BABatrz8fDne8G2S3Dj0iGNqHCjT0tLon79+9+zOHbyexIRE2rBxgwrKrShWBcf8/Dw91RunnXqyLhFdec319Pa77+sxAADvhN3CGaEYaH+U5gO87LOx45FOxgDQMn322RdyE3s3B8mCgm20ecsWPWbg0/FLF86hpKQkXVN/vE/p6Wn0zTffSyjNyMig9z74SE/1RpfOnWTIXQluuel6uvDiy2juvHlSBwDgFbc5zjo3l73OgfZBlH8pyDZl8+7fAIIrADjwyquv0+6776rHnGnVKo26du6shq3klPnvv/xALz3/TPh/8ddh3332ofc/NMLn8GFD6e9/pkvZK/xIUMYH5bPPnEwXnX8u7b7X/p52AQAAMDlNZ7oZUr4yr4+vtkHU3KCxC94f3AEA2Oq1a+mIww7RY87w8Wn631OkBfT7r7+gfn376CneGz9+LC1ebFykNHr0aPrpl9+k7BV+L3ExsRSnA+k1V19B3bp1peHbjUG/ewDwnNNEF8h/xv2Tqjw+HtkG0crKSnP75heBlk4A8ArfYilnSw6NHzdW1zQ+kyZOoKKiIikPGTSQKsq9v+9nQlIipae30mNEU//4RQ6/Z513gVEBAFBP4eU3vYwaxHjU995kuzbp7C87za9AfjZbSu3+UkdgBQA7i5cskYNbYmKirml82rVtK4fCgoICaXnlK+i9Pr6VlZXRjpMm6jHjOPvVF5/QJ598RtP+/kfXAgCEhzObmd/cUcvwchGIdLZB1H+glR2ouQfmVal1HZARRgGgLvc/+AjtustOeqxx4lssJSQmyVOb+vTpI8e13Nyteqo3+JfEHrtV7yfbq2cPuuqK/8ndAfipUQAA9REqkwXX8Xi1Oi7zi6NgtE/NG8k5xmgLlS+BHbTupJmwq+24wvXBdQAAVp9/8RWde/aZeqzx4kd8/jFlivxdzsc2bh31Ct+blO2+2y4ytLrkovOpe3Y32v+Qw3QNAIB3zKxm5rVq+U4PRQTinG0QNfE+mftl7izvOE7NA0B98O2X4uPjaOKE8bqm8UpKSKAlS5fpMaLSMu/6ia5fv0GOqa1bh76P6rdffU6LFy2me+9/UNcAAHgrVOOhjFnSaElJiS55w3EQVfsmLyszhPJOW8sAAE698trrNG7sWDkANnZ8I3vuG2ruq5fHu+9/+JH69O5V6+eQlpZKb73+qnRjyMvL17UAAPXD+Y2PZdaXGUj5xQJHOh/l5ubS2DGj9Xj92QbR6i2eoQ+Q5o7atY4CAAR74YVX6NabrtdjjVt5WQWlJCfrMZKnLHnlsSefpgEDB+ix0HacNIE6d+5Ex590iq4BAKgPHTTNwKmH1j+2+cVjepJMKystNkY84LCPqLGr5g4CAHihpLRUTs33jeD9P71UXllBY0bvIGU+HrZv317KXtiwYUONC5VC+ebLT+Vm+stXrtQ1AADhCt3AWGvDYkysTFvp4fHHYRA10jAAgJf+UYGKn4rEV6Q3dhw8i4uLqFevnnJ/ZT42evnHeVlZOWV366bHate+XTuaNGECTZjk7ilUAAD1odslpYtSp07GI4m94PDUPB9wjVZRnH4HAK9cd8PNdOThh+qxxo2vaucb7w8fPox+/2OKPBM+MdF4ClJ9bdq0WYbjx42RoZ133npNLvC6+robdQ0AgHvO/5hWOZAHVUZ/0rVr10qtFxyfmucmUZ7ZP+6Al60FANC88PFh3vwFdOnFF+qaxm3Kn39Jyy3f1/Odd9+XllGvvPzqa5SUlCTh1gm+f/P777xJL770CuVu9fZepgAAtdIPOfLy1nW2QdTAzaFVkobdBFE38wJAy/LYE09Rt65dqX37drqmcbv9zrtp0oTxEqA//ewLuvqKy/SU+nvp5Vfp9FNP1mPOjN5he+rWrQsddcwJugYAIHLkjvL6pLiXDY2OW0R5yEU3G0eLKADU5o677qVbb24aV8sXFhbSzFlz6OmnHqOp0/6WY9t+++6jp9ZPcXExbd6cQ/+77GJd49zXn39Cs2bPpkL9DHwAgEgxmiMNUQ2ijDcnL/XFzcbRIgoAofw3a5Y6lvhon7330jWN2577HEi77LQjtWndms469wIVGi/17Pj2wUefUJvM1pSamqprnGvbtq3ce3S/Aw7WNQAA9twHychdtO7w1LxuFZWvzqFFFABCOe+Ci2m3XXdpEn+sfv3td7Rs+XJ6+cVnadbsObR58xY668zT9NT6u/7Gm+nyS923hpo+eO9tmr9gIa3fsEHXAADUzdWxV6KcOb9PLRsr/dS94mhN+lop9dVdsESLKAAEW7lyFS1evJReefE5XdN4bd26lSafeQ49+tD9lJCQQAcefDjddsuNlJiYqOeoH35cKD+p6ZSTwu/n2bFDB+rUsRPdcOMtugYAoG6uGgp1lDPyaKyczfLyDkqxixYtouBXcnKSnqx3lgOlDNwlYLSIAkCwY044mQ45+EDHV4g3pEm77En9+valIw4/lJ5+9nmKi4utV2gMdsjhR9GRRxxa78/iyccfpq+++QbHXACILBVCvRZbUlJKIV/qr3ShQ6gBBzkACN/nX35Fy5cvp/vuuVPXNF7cEsp/+fOTjPj+oXzV/Juvv6Kn1t+ff02V+4c+cO/duiZ848eNpfKyclq9eo2uAQConftT8zr/cYuoUfKMbRNnlTS/6s063Dr+KgeAUC69/Eq6/tqrqVVamq5pnB5/8mkVmr+maVN+ldbKI446lgYNHOh/vKcXTjp1Ml179ZWe9LXiXyo9e/Wk5198SdcAANQu7JymFpPbOHnI9gjoP0haG0YBAFz6a+o0KijYRmeecbquaZy++/4Huv3Oe2jm9KlyJfvHn3xKf079mz587209R/3d+8CD0jf0vHPO1DX1N/m0U+n5FxBEAcBjkjut4bPK0wZH2yBq7ZDqbQYGgJbkqmuup5NPOoHiPLza0msff/IZnXDy6fTV5x/LjfZzcnPp3AsuoZdeeIZatfKmFTcvL4/uf+AReufN1zy98vTgAw+Qx5BywAUA8Iw1c0YgCNoeBf39CFT6dZd/jblxmh4AyisqaN78+XTJRefrmsbno48/kXuEvvHqizR82FCqrKykcRN2okMPOYj22WtPPVf9HX7UsTRkyGAaO8a70/ysXbu21Co9nX774w9dAwBQk+tcJjFQLcOLqRdfuB7VFlG+WCm8zaH9FAAMt99xN/Xt04c6tG+vaxqX6264SYXQi+jWm2+U+5uWlpbS9qPHU+/eveXWTV754cefaM7c+fTph+/qGm917tSJnnr6WT0GAFA7x9nOnNEMpOrl5e057YOomXp5o64SaWBmtIoCtFxlZeX01DPP0h23N777XPKx6cSTT6fnXniZPvvkfTrj9FOkJXTXPfah+IRE+vKzjzw74JaocHviKZPpzttvDuspSk4MGjyI/pr6tx4DAKidmyMbxzhjfu4fqis84qiDkmxcbdTlbUQBAOiZ556ntNQ02nHiBF3TOHBAnrTTrvTzL7/S3FnTafT220n92Ak7UX5+Af31x8+ehVDuaz9y+3E0csQIOuWkE3Wt91qlpUhrbklJia4BAKg/PhZK9JR+7VUUF+9dILRdE7cYyMZ5J1wEYO+yMgA0VRzAHnzoUbr/3rs8C3VeWLhoEQ0cOpLWbdhA06dNoazMTKl//c23aEtOrqr7g+Li4qTOC4cefjQVFxfTxx++o2siIzbG2OeZs2bLEADAynqG2l1O03P7jGFlpXcpzzaI8lWdRotooBnX7an2xvQLCACiZ+q0aVRaViZPUmosrr7mOtpp172oS5fOtHDuLLnIh/FN66+8+nr65IN3PHuEJ7vz7ntp6t//0LxZ0ynew3AbSlFRkQzffCuygRcAmr66klnNnGfMHRtrDL1Mdc5bRNXX2uKnzFNHOHUbXAGgeTj5tDPpogvO1WMNa8HChdR34FB65/2P6IP33qTffvqu2qM1f/n1N4pTB9lhw4bqmvr74suv6aFHHqefvv86Yv1CrbZuzZPh3/9MlyEAQG2sqc7MaeawtgZEnzlfrYnQPdsgKjsj26u+U6F2msvmOAC0bMuXr5Ab2F90wXm6pmHwPhx+5DG06x770v333EWL58+iCePG6akBN95yGx1/3HF6rP7+/vsfOv3Ms+mDd9+kAf376drImjVnjhyDN27cpGsAAGpj5Dq73FZtMo9ISA0dVMNh39vUvwc1d5R33kzN1jIAwDEnnEw77zjJ09Pcbmzbto1222Mf6jdoKFX6qmjNisV08EEH1HqcWrx4KZ11xml6rH4WL1lKBxx8GN19x200ccJ4XRtZfAzOy8uXcl6+MQQAqB3nusBDi8xAag2mRtl4mUdOfsSndZ76sg2iPt4BS9i0MltBTV7uGAA0XdwKuWLFCnr+uad0TUC+CkmRPlT8N2sWDRgygopLSumbLz+jj95/u84/lMvKjKcRde7cSYb1sWzZctpxlz3o1FNPpZNOPF7XRt68+QvkivkhgwfiWAwAjlRVGcdFPj5aj5F8DAk+jhijxtXzsXUcT92yDaJxsdy5Xm1WbTT4cXR1Hey820UAaGqeff4FatUqnVJTUnSNgQPfwKGj6LTJZ+ka7z3+5FO01z4H0LHHHE1TfvtRnpJkZ+q0f6S/aH1bb9etX0+Tdtmd9tpzD7rztpt0bXTw+87u2pk++fD9OkM3AICBw6eR40IFzxrksMLzVPn7inrBvkXU59PbNjbulHe7CABNzbvvfUjXX3uVHgvgP2b5hvGff/kVLV68RNd65/obb6Zbb7+bXnvlRbrv7jt0rb0ffviJWqW30mPhmTt3Hm0/egKdevJJ9PILz+ja6OELo5595ilKTU3xf84AALVTSc1xWOMT8iYueZfybIMok54B6i9sn75/FABAbTgALVu+nA4+8ABdE8D35jRb6/Y98BAZeuWCiy6mZ59/iab8/hPtuftuutaZ3Lyt1CYjQ4+5981339Hue+9PZ511Bt12y426NnpycnKlNWPkiOEqhMbJLVaWLl2upwIAhOY81pnXyfNz5n1G26RHbIOo0VSrXmrIBzfbplsAaNFeff1NymzThlq3rhnsrKeM+clGXuBj0qFHHEXvvv+x3CapV48eeopzfA/R5ORkPebOCy++RCeezI/uvIVuvO5qXRtd+x5wMJ11xuny+fJHnJ6eTqtWr9JTAQDqh8+NG0dvn/QP9bL7j20QlRYMLqiNIoMCgJ2169ZTr172YXDc2DG6VD+Tzz6P/pn+H82dOZ0GDuiva93hsz0JYfQPfevtd+nq626iN197mU456QRdG11T/vyLVq5aTZddcpGuIcrMbINbOAGAZ/gSJSMCen923FEfUeRPAHCqb5/elJ+/TY+Fxn0YX3/lBT0WvhtuuoW++OIrmjrlV8rKMh7TGQ5uVU1MCNzc3okvvvqKLrr0f/Tay8/TbrvurGuji/ebHxow+dSTq11oFRsTS5u3bNFjAAD1wRcycQRl/DXKQdR/Kh5pFAAcOPTgA2njxvV6rKaH7r+H5s6cUe2pRuG46577pE/obz9/R506dtC14anyVbp6tjw/QvO0yefQKy8+R3vusbuujT5+Nj4/1vOWm2/QNQZu3f39jz/1GABAdW66WfKcfCreXCQm6A5K9WW7NrMfAA9c7Ldw80YBoHnggMn3ES0vD90H9Jijj6SsrDZ6LDyffv6FPDrz+68/pz69e+va8JVXVKj9TtBjdfv19z/o4suupCcff5j23msPXRt9paVldOnlV9HLLzxbo79W64wMWrJ0qR4DAAif9A5Vec44zPh0GPQu3zluEeVh0LGuVnw6HwBaJg5FmZmZNO3vf3SN9x5+9HHq1KkjDR48SNfUT2Wlz9Hx7ZtvvqUjjjqOHn7wXjr04IN0bcPYYdxE2m7USNp9t110TQA/VQoAwCvG4ZG/cmzkocNA6IDjFlE3gm98DwAty5lnnE7nnHeBHvPeunXradedd9Jj9ZeQGGfbAf/Tzz6nE089gx575AE65qgjdG3DmHzmObRlSw59/skHuqa6Sl+l3LkAAKC+5DIllQWNhknvrxty3CIKAODUhRecJ/e2fO2Nt3SNd/iMy5ZNW+jmG6/XNfUXFxNX57GOb74/+azz6PVXXqQjDz9M1zaMF19+hT79/EuaM/OfWvu1lpdV0I6TJuoxAID64jBqlIz2Se/OfDtqEXXbJopT8wAtG99n7qP336HLr7ia3njrHV3rjVtuu5MSkxIpIyNd19SfceYndBBdvGQp7bjrHvTgfXfTHrvvqmsbxu9/TKErr76evv7ikzpbPDds3EiTJk3QYwAAAWE1MPpzqPqqlvcy5jkIorH68Ow2jgJAS7b99tvRm6+/TJdefiW9+toburZ+iktK5Dn233z1ma7xBrcsFhUV67GAmbNm0U677kmXXHQBHXfs0bq2Ycybv4COPOZ4uVKfn6BUG75IjPuI7oQWUQAIIZwul1WcP42S5MJw1lEbB6fm+QopPRIGnNoHaLm4HyffaP6mW2+n/115DVVU1O/554cfdSwdsN++Yd+4vjZ8H9AlSxbrMcP69Rto7/0OohOOP5auuPxSXdswFi5aTLvusa/sxz5776lrQ8vLy5ezUuirDwBeCZwb576i/IhP77Kdo1Pz5vbD2ayXqRkAmh6+0fzi+bPlWNC7/yB64qln5Hn0bvDN2Q894mg5CD31xKO61jv7q3DLLaLmLaf4IDtxx13p4IMOpHvuvE3qGsrPv/xKO++2F5126kl08YXn69ravf7Gm9S1axc9BgAQwMe28EKkWkYWMzJdlFtEzR2usp85BC9TMwA0TXzQuueu2+nvv/6Q0/TZvfrTqZPPppycHD1HTfkFBfTCi6/QmPE70dARO1BqSip99vH7Efnjlp9K5FPHqs1bjP356JNPqaSshJ587GEZbyjPPPs8HX3siXTrTTfQHbfepGvr9tKrr9NhhxysxwAAAsI+fnKUsywa1SBqboyHiJQAUB8d2rejKb/9RL/+9B0tXLiQBg/fjnr3HUQjdxhHO++2J03YaTfqP2g4devZl/oOGEp33/cAHXnEITRv1gx6/dUXI3q6OSuzDU2ZYjyN6JrrbqRbbroxIqHXqQsuvoyuv+lWeuO1l2ny6afoWnvcpeCIww/VYwAAAfVqHJRFjds3eXlRekz3Hr3r3Ku+fXpSWVk5bSvcRkWFhbR69Wp5IxJM9TAY72Baq1aUt3WrriFau3KJLgEAGLaqY8TiJUvo77+n06zZc+TG8n369KJDDjqQevToTgkJCVELgzffegd9+fU39N1Xn1HfgcNo9fJF9X4MaTj4+DlRBfJVq9fQjGlTqL0K707xBU177L0/rVy6wNUjSwGgZejSvY8uEXXtlk0b1q/z/4EfKtNJnZret09viotPkDNTsbExtGnTJopLSKaC/HxKz8jQc4fHNoj27tWdKioraVtBARUWFtGaNav1FGMH+RXcSoEgCgBNzebNm2nIiB2kT2uiCsD/TZ+qp0TPli1baLsxEygjPYP+mfq7dBlw4+DDjqK0tDR649UXdQ0AQECoIBqMM121Cx5VOPUHUXV8iVPjGzduUEE0xZMganuey5+UuayDshlAJSmrHeIdNl9cBwDQ1LRr145SU1PliUXp6d7do9SpWbNn07BRo2nihPE0c8ZU1yGUj79//zOd7rztZl0DAGDP2pjIZTPb+alYJ9GOX74q6U+v0ilP8YRtEOWDG++BdZPWEMpD65tAEAWApmq/ffeSoXGgjZ77HniI9tj7ADr7zDPojVdfqnF6zAm+up6P19ylAQDAKTO3mQ2LZsbjlzkuhyQ5LBl50MuuP7ZB1GAcFM2dNZnjElYBAJq4Ky6/TIalJSUyjDS+XdQ++x1EDz78GL379ut0w3VX6ynu3XTL7XTKSSfoMQAAZ8wsV1vGMwTuJMr1lZUVeqz+bIOo/GUuW+ehuRsAAM1Pj+7ZxgVKUTjUrd+wgQYOHUlr1q2j2f/9Xa8nIRUUbKMFCxfS+eedrWsAAOzJQ4sc4PBp5FLz4OjdQdI2iAYSsTFE6ycANGf77rNXxI9zX3z1FY3cfhwNGzqUZs2YVudz45245robKLtbNnXtghvZA4Bz1Ro96xBoh1QFjxslHbWIyibV0OH+AgA0WXfedgtt2LDB8ke4d/hU/KGHHUWnTT6H7rjtZvro/bf1lPCVlJTQu+9/QI8/+qCuAQDwGgdQHnr/R7p9H1GzOZa/IIkCQDPXtm2W/AG+dNlyXeONadP+oV79BtPMOXNp4dyZdNopJ+kp9fPMcy9Qq1ataMzoHXQNAIC3jNvYGziPevmHun2LKF8Rr1thY+xjKwBAk8ZXg44fN55uuOlWXVM/3Ap6wMGH0UGHHkGTTzuFliyYTRkZ3tweiltD77z7Pnr9Fdw3FAAiJ8aSOzmExnp4et5ZtJQdUBtFiygAtACXX3Yx/fDDD3osfHyD+v6DhtGKlato5r/T6KYbrtVTvHHuBRfRhPHjaOyY0boGAMAhF5muWuzkrprRbBENdNqvfi9RAIDmaruRI2S4dm3Np4449etvv8sN6gcOHCgXJLVv5/xRnU6sVOH2y6++RWsoAITHcairIh+3gOrsWeWrokoPL+h01iKqdzbaN3kGAGgI/FSjjh070sOPPq5rnOOWgquuvZ6OPOZ4Ov/cs+nLzz7SU7zDp/t32WMfuvvO2yg5OUnXAgC44KZFtFr+41PzuugB2yBqPO7JKEt/URcicdUpAEA0XHbpxfT2O+/qMWf4DNJue+5DL7/yGn3/9Zd0zVVX6CnemrjTbjR40EA66YTjdA0AgHNu81lVUPD08hy5bbLknfX3SUWwBIAW4tijj6SS0hJas2aNrqlbRUUFbT9mAm3ctJkWz59DQ4YM0lO8ddSxJ1Bu7lb6+IN3dA0AQGTJxUoqC0oKVKGwsrKSS55w18TpEFpCAaCp4ycs9e7dm+578BFdUzu+en34yNHSb+rfv/+ktLRUPcVbV1x1Df3y6+/0288/ePqsZwCAukiq44ZJPYyP8y4+2q6J76dn5kqnDbHWIIpQCgBN1bVXXWl7en7Tps3Uu/9gymqbRTOnT6WEhAQ9xVv33f8gvfzqG/TLj99Sx47tdS0AQBToAMiJjq8X6tmrj1HhAdsgyn2ezAAazsVK8qx6AIAmaK89d5eD5MpVq4yKIH9OnUrDR+1Ahxx0EP328/e61lt8CuzYE06mBx5+jD54903q36+vngIAEB2xEv9UnlNDvodou3Ztpd4LDttWqyQFI1QCQEvCrZsDBg2g/Q48VNcErF+/gQ457Cg6/vhj6YnHHtK13uKGAL4w6bff/qBZM6bSxAnj9RQAgPCEc9baaIg0rhniZWbOmmtM8ICjU/O85XAjKE7NA0BT9vQTj9OWLZupwtI5v7CwkLYfO4FG77AD3Xf3nbrWW4uXLKXuvftTUXExLZj7H7Vt610LBACAG0ZDZIw0Snbr1s3T23nat4haNoZMCQAtTd8+veVU1DL97PmysnLaYdyOlJWVRR+9/7bUee36G2+mSTvvRjtsvz3NmDaFUlMjc/ETALQs9WkclHZJNfQ6CtoGUdmg+sJp2NVtRKsFWK93GwAgetq160Bvv2tctDR+0s5UUlJM//7zl+dXrm/avJmGjRxNL7z4Cn34/jsSdHF1PAA0BhLlVBD0upum42jJYRJ5EgBaonHjxtAnn36uwuh7tHrNWvr2y88ozuUDPurCx9cbb76Fho8aLS2t8+f8R+PHjtFTAQAaljQocv70cRb0NgzaHkkl9+ovwRnY3BnuUO/1jgEANBZ777knrVixii68+HLac4/dqG9f725dsjVvK/UZMISeeuYFeu3lF+nnH76m9PRWeioAQMPjp2waVBb0tkHU6al5/lrl75zKodMMnjwM7KAxDgDQnPTt10eObXya/JUXn9O19cPru/f+B2nA4JFyIdKaFUto99120VMBAKKHj0fcqMgvc9x8mePqiy7LwDPOzi2p+GvdbvDOmTuOllEAaI5Sk1NkeOLxx1b7wztcGzZspDHjd1RB9CG68PxzadqUXyk+Hn1BASD6gnNbcMYT/tPjgXvLe8XREZX3I9SGrTtvlnGvUQBobmJi+XRUDN10w3W6Jjz8PPrL/ncVDR81hjZt3iI3wb/26iv0VACA6LMGT2aWrUNOdmouGY/xsH88c7Q2I1s6C5jBbwgAoKnjYyCflk9KStQ17v3886/Uf/Bwev3Nt+n0yafQ4vmz8JQkAGgSfCrWmVcKmWfBvWIbRKWFU+0AJ2G+l57XOwAA0NhVVFZICA3ntHx+QQGNn7QTHXnsCTRowABasnAO3XHLTRQfH6/nAABo3IwjHzcyxjpslnTO9qhqtm7yht1EULSJAkBz8cADj1LXLl31mDO+Kh/devud1G/gMBVGi6Qf6OeffkhpuDk9ADQxkunk9LgqGafJPePwz/tAGHXK68QMANBQvvr6GzrrzNP1mL0pf/5FAwePoMeeeJrOPvMMeU58jx7d9VQAgKalWpdLj7tfOgyiRqxE108AaGlKSkqoWL2OOOwQXVO7/2bOpBHbjaFDjziGhg4dSssXz6Obb7zWkyvtAQA85ybYyazV76LkBcdHR95wTAySKAC0LHff9wC1ad2aUlKMWziFMn3GDBozYUfae7+DacKE8TRv9gz64N0361wGAKChOU11gTsi+Tz/w9r52lRqNi7gBwBoGfjizOdfeJnuufM2XRNQUVFJr7z2GvUdMJj2O/AwGjRokLSAPvnYw5TZpo2eCwCg6TMaTiPTGGkbRM0UzPeNitFNuLg9EwC0BHl5+VRaWkojRg6jTZs30zvvvk+XX3E1DRg8grr17Eu33HYXnXP2WbRq2SJ6+flnKDk5WS8JAND0+S9YlyjIX2KoKtq3bzJ3ooofdC+lQDhl1lDK5eBxAICm6s+/pspwzPidacjwHeiSy/5Hefl5dO01V9I/U/+gxfNn02WXXEQJCbgVEwA0TcHZzVQtz+mhlKJ91TzfO1ROyqvtmgHU3GlzJ82yNaACADR1++6zF61ZsZjWrlpK61cvpTUrl9KzTz1BJ51wHHXt0lnPBQDQtJj5LZTgTMdzSljUEc/rrOeoRTTURkPV1fXGAACaIr7xfHxcHK58B4BmwcxqwYnNDKAmf9ms16NRf7KSbFfvTMgdDKWuaQAAAADQIMJp0TQuVjeyXcNcNW/utMOdRwwFAAAAaHysLZ3O8bxGBqyqaqBnzUtZvepsCa1FOMsAAAAAgHeq5TFnbYsGaYjkZWPDalGti/2pebXT/t0OM1B6vdMAAAAAUA9hRTpuDY1yEOUQaebIcPYZraEAAAAAjYybPOnPcg1wH1Ghtl+fOIkwCgAAANCYcBJ1ms94Xj1/tE/NC7VNbzcLAAAAAA3GVSOhOa8Oox5y1EeUdxaNmgAAAADNh9NsZ1zrwzPzK8otorxx2U9pFa25cbmYyfICAAAAgEZOR7rgDBc8ZFUyr7FA1K+aZxxAebNqN2U8eKetQtUBAAAAQONjDZZmhgsekk8N1Wx8Y3uvc559EEWwBAAAAGhedLyzC5Y83QyrxjnyKAdRc3M10jEAAAAANHuS/cz853EMdHRqnrftT8MO+gYgrAIAAAA0D5L9JP81wJOVeMMxMWbvUIRMAAAAgCbPRZ6U6CdffF43iLroI4oACgAAANA8uI51Rg9Rb9tDHQRRfxOsx02xAAAAANBQnCfRWEmLfM08t0t62zBpG0RxKh4AAACgmXHRwMh3b5IWUTX0OhXan5oXoW5lDwAAAABNkptEKY2Sgds4eclhEDX3FnEUAAAAoHlwmEZVADWiqJv06oyjIGrcSV8VgnKo9bQ9TuEDAAAANB1mdOMMZ+a44LIu+M+Ne90k6SiIGjlYqWUnQ5UBAAAAoGng0+7WDFctz8kpeZ315Kt3bIOo0R8gsAOmSPQTAAAAAIDosTYm1soyzev4ZxtEeceqZKPVt1znDmtO5gEAAACAxstIcyoHcsHjaOfsYiUfXymlyy6g1RQAAACgcXHbUGikOWOZiopKGXrFWRBVgdLcZ7ctoWgVBQAAAGgcws1l5lLrN6ynYUMG67H6c3RqXqKwxGF3LZwIoQAAAACNkNuT1jrTxcXGUklxoZS94OxiJbVxY3/DTNEIpAAAAAANqj55TK6ql/+INm3aZFR6wNGpeb53FKIkAAAAQMti5j8ech7kQBqfkGBUesBZiygPLV8BAAAAoOly2jganPyqfL7otohyM678JzuMdlEAAACApk63M9oykx/PzmXOheVlZVLnBUen5g28+ep7HaqvAfqDAgAAADRu1rgmjY66wjr0ZzruH6qKZnjlBkqvOAuiVUafAN60jOqdk46rumy+AAAAAKBxC9UiauY4a56TMr/U/JGIec6CqJorVMhE8AQAAABomjjHuctygUZIrzgLoj61QbXhmFhvNw4AAAAAjZ80oOoQGuNhFLQPorxBDqFc5EAKAAAAAE2bq0hnbYhUiTA2xHn9MNkHUU6/8h8AAAAANAeOcx3PqHKnNErKQrrCI45OzRvtoc7h9D0AAABA46VypXMq1nG0i0S6sw2iHCplwy7CJb+5SOwsAAAAANSfuzZDY2Yju/JX71KebRCV2za5bOF0OTsAAFhwA0BFRQWVlpZSUVER5ecXUE5OjgwBABqEvwWVQ55/pN4cBFH+YpRdQRgFAHDktDPOpg5devhfHbv2pC7d+1B2r/7Us+8g6jtwKA0cOor2O/AQvQQAQJRZcl1VlU+X6s/BqXldcJtGvQvLAADN2v333EU7TZqoxwAAIs95H1EjCJrzx8bGGmfLPRLTvUfvOtsu+/TuQWVl5VRYuE29CmnJkiV6ikHuJxW0Q1yXmZlFubk5uoZow5rlugQAzc3YiTvTsmXh/YxPn/YHdencmTp166Vr3ElJSaEVS+brsaatrKxMWkFru+Czf7++9NvP3+sxAAB3+GyLKbt7D1q1coUeM5h5zsx2PIyLi6eBAwdQfEKCOt6myp2bNmzYQEkpraggP5/SMzJkmXA5uliJWzetB0Yum6/gcbMOLaIALcdfv/9M/03/iy6+8HxdU7dDDz5IAij/gdqta1f5C3vdqqX0+ScfUNusLD1X3T796D1aMOffZhNCWWJiIu2IllEAiAIzrllZc5w/z1XraxlioXqyDaKCt2tJyQAAwTp36kTXXPU/27MfmZmZ9PSTj0oAtZ5NiYuLo9E7bE/zZs+g7tnddG1oa1cuobFjRsu6mpsxo3fQJQCAxoOP1oHbeXqXBZ0FUf5lobbpKoQirwK0SHZ9h1o7OI0zyaZVkEMrAABED0fAKjm8G5HUKw5bRDlV1uwLCgAAAAAtAEdAjoPcSdTDs+MOW0T10CWcxgcAAABoPDibhe7/aUMtI3HQ51NLRTuI1rMZFoEUABrSqtWr6bgTT6GJO+9OA4aMoM7ZvanfoGE0SY2fOvksWr68+pWjXpjy51TadY99qHvvAXIf0N332o9++PEnPTVyfOqXxHMvvET7HnAojdphPPXsO1Deb58BQ2j0uEl0wCGH07vvf6DnBoCWJnB2mwOpLtqQ2czlYjg6hp8JgzkMorwL4YVJhFAAaCj3P/CI3CB++zET6bvvf6RFixZTYWERDRk8SJ5atFCNf/7FVzRmwk4y32X/u0ovWZ31ZvN1vR557AlZL9+K6uDDjqQ5c+dRSUmJPBFp1uw5dMzxJ8t8xcXFes3eWbFylaybt33NdTfSP9On04aNG6lVWitKSkqigoJtMs/UqX/TeRdcIvOede4FemkAaAmqt4Y6D5PV5lSLexdDHQdRxUX/UIRPAGhIHAa79exHd993v64xxMfH0+rli+i7rz+nlUsXym2jrF59/U0Jchs3bdI1hsmnnUJt2rTRY7X7Z/oMuQ8ot0rWpUefgbQ1L0+P1d8LL70irZ3B+NZWs//7m5Yvnqdrqvvwo09o3wPwtCaAlsnd05HMFBgT4+WJeadBlLeIcAkATQSHQb45fLAH7r1LlwzTpvyqSwEcIoeO2IFKLcvfcdvNtHDuf7UGOtOXX31D77/zhoTcb7/8VNeGNnjYdrpUf1ddc70uVXfp5VfqEtHOO9YMqozDs11wBgCQ1lT+j/Ogh5nQURDFxfIA4JXlK1b4T2XX9nrjzbf13O6N2G6sLtV0yMEH6pKha9cuulRTds9+uhSQmppKqSkpeqymxx55UG5In5ycRCNGDKdnnnxMT6mpoqKClkWgb6rV3HkLdImoffv2ulTTI489qUsAALWJCfQv9TAYOgqiknstG8WpdwBojNasWUvr1q/XYzUlJyfrkiH41HywDz78WJcC+vbto0v2goNvsH32P0iXImPokEG6RBQXX/u9V6fPmKFLANBSWbOdtH7qcUutpSHUuxzo7NQ8Cwqf5k6GegEA1KZnjx60ce2KOl/HHXu0ntudm265XZe84fX6guXmbtWl+uHPLPhBAT17dqeHH7xPjxH5Kms//V5RXqFLANDSWLNbcI6rNs4NkroceMJS/TkPopp1B+uidl2XAACi4+NPP9Mlb6zfsEGXwpeYmKBLkbVo/qxqYX7qH79STm4uXXXtDdLdoa5bNsXGuf5VAABNnduYpubnU/NyJinGu4zn7OiDTAkAEJaJ48frUnSUlpbRTrvtJeFz4JCR9MKLL8svj1122lHPUVNcLB6ZCgC1kAwYI/9zI6NxcaN3f7xG7s9ghFcAAErPSNelyOL+rBw+s3v1o/nzAxcpXXXFZbRhzfI69yM+IV6XAKClcBfT1Nzqf+OEfAxVVXl3pw2XQRTpEgDAja1bvbtfaG34CUpnn3ehHguYOGE8XXqxUV9Vxy2akhKTdAkAWg7nmc6Y05y/imLk6UrecLYmicD8xcjCTqCPKABE28gRw3XJG5kObmJv58+/pupSZLz0ymu0Zu1aPVbdS88/o0tEvjr697fJrP/7BICmxeElP4p+xryl5OW9h22DqFycJDvLXxzvNQBA1N1952265I0rLr9El8IX6sb6pv79at6r1K077rpHl2pq3TpwJX1dvzg6dqj9HqMAAH7+q+a9YxtEAw/H5xjq5aYBALw1auQIea66U3Z3ATn9tFN0KTK++PRDXQpfXaf+t2zZokvqvfpqf69etPwCQDMneVDnQA/joMtT8wAA9ZPn4BnrGzdu1KXQKisrdammxfNn6VJN0/7+R5cMmy1BLdiCOf/qknOffva5LhnKy8t1qaadd9qRMkJcQFSwrUCXalq/oe7PJdiue+4nLaHcKvvt9z/o2pqmz3D/XgGgheE/3M3bNtX9N7wrzoKobFB98XDDANA8XX7l1boUWu7WrXTSqZP1WE38ZKTvf/hJj4XWo89A2lBLKOMW0b///E2PVXeJ5dnrbJfd99al6r787CPKzMzUY859/c13VGYJn3vuc4AuVZeQkEDvvvWaHqvutdff0qWa8vPzaenSZXrMsMvOO+lSTevVZ9mpWy/q1rNfnafm33jrHfrlt9/1GABAKIHb2MfEetc46ayPqGY5Sw8A4Dd24s7+58S/8uoburZ2X339rX/+1WvWSEgyx/lZ8XanzLmlcdio0TI/h9Jg3btny03d27Vtq2sMCxcuohNOOo02b95Mhx91LG3atFlPMbRu3VqW2367UbrGvW49+tKQ4dvLvs2dN1/XBvC616xYrMcCzPdfWFioa0IbN2kXmS8/32g5fefNV2VYl3333lPeV12OOOo4We87776vawAArPgpS0bJy4uVYrr36F3nEb9Xr+7y+Ldt2wrkALl4cc0DaChtMjNpa26uHjMeQQcAzdOzz78Y9uMqzz5zMqWnt6J7739I17iTkBBPl1x0gR6riU9L33H3vfT8Cy9TaWmprg3IyMigE447mq69+kppqbSzx97708xZs/VYdY898iClpabS+RdeQoVFRbrWsMfuu9ITjz5EbWrpj3nPfQ/qkjMXXXButf6wJ558On397Xd6zDB2zGh64dknqX37wMVIJ592Bn351Td6LKB/v750ztln0vFhPl4VABo//mPT1LVbNq1ZvUqP1Y6fpDRo8GBKiI+nFHV8i42JofXr11FyagYV5OdTetDjhd2yDaK9VRAt5yBauI2K1GvRIgRRAGi57ILoUUccpscAABqX+gXRBB1EidatW0cpad4EUWd9RFkVN8ni3DwAAABAS2Kkv8C9k2I8vGjIURA1b04f4+Ih94EurQAAAADQmIST0vz99z2MeI6CKPcHMLbqZsvepWUAgMairgup8vPydQkAoHFzk9LMec2L1qP+iE/juMtf3Oy2h3EZAKCRmDV7ji7VdNOtt+sSAEDj5upOSPoPcDMF+up4QIZbDiOt3gHvtgsA0GR8+NEnctukztm9dU1ofIU+37dz0LBRdNkVV9HWreHdSQAAoPGKVSHWu8ZGh0HU2KCXGwYAaCrOOvcCuZF8XU90MvH99bZsyaFXX3uTZs+Zq2sBAJowS/6rIr6HqHctk85v37StgIqKimjRokV6St0yM7MoNzdHj+H2TQAAAAANyXr7pm7Z2bR6lcPbNw0aJPdZ5ts3caPk+qjevonvnq+DMM7MAwAAALRUxj2RYjzsq2kfRFUSNreHE/MAAAAALUuga6YRCL28rbxtEOVblZjbt3v+MwAAAAA0L8HpL6q3b7JeoISLlQAAAABaGEtDJBerqviCJW84irT+llC0iAIAAAC0SNwcKY2SHsZB26vme/XMpoqKykZ/1XxlebL6YOL0GAAAAEATElNJcQkleiQywr1qfvDgwRQfz1fNp0gQ3bB+PSWnpkfpqnmLxtpH1IcQCgAAAE2ZyjGSZxotIwPGqGBqlr3gqI9olX+DjbOPaBVCKAAAADRx0cwzxo2YnAmkQGMZLxsmbYMobytwkZJ3GwYAAACAhhFoZLTnT4EqFFbx/eU95KBFVH3xJ1/n6RkAAAAAGqswMp1aRN/S3hj3gIMWUQ6h5gbRIgoAAADQ1LmJkoG7J+kv/gbK+nPUR9RkLQMAAABA0+Tm1LxxepyHRhb1LoY6CKJWjfWqeQAAAABwzs3FStY5+ap5vqWTVxydmjfjJ1pEAQAAAJo+N02LPmtDpM+ngql3DZO2QdRIveYGvdtwQzrp9gvo91lT/a+lEbjZ/ln3/U+XAAAAABoXN02LwRco+TyMg7ZB1MfJV7eEujoz38gbTycOG+N/9bY8acCUV1hAlb5KyldD/gysCoq2UVFJsR4z5Ku68opyKReVFktL8rbiQhkHAAAAaLpUALTkOi/PkNsGUdlY82gIdeWCh66h7/7+hTLS0unWlx/09489X9WnJafS1m35dO2zd0ndaXddQhmpreiH6b/JfKlJxiOwWqWkyXQAAACAJotzp85BPPDyXqK2QdSqOfUR5dPz5uu/xXN1bXV7j9lVhjeeehk9/tFL9OEvX9BjF98h3RW6tOtI2/UfJtPNkMrzN6fPCAAAAKB6c6j6v6EuVjIDV3PwyrWP+l8j+g6mguJCuvuNx+QVCp+OX7dlgx4zdO/YlUrKSunFqx+i32ZNpSuevIXWbq4+DwAAAECTpuMf9xU1Iql3edA2iHLrn9nI15xb+9JT0ujK486XVzDu87nXDjvTQRP3odWb1ulaote/fZ+SE5PowXeepknDxtA959xAL37xpp4KAAAA0Azo+Gc0SKoRDxsmY7r36F3n2nr1zKaKigratm0bFRYW0uLFi/WUumVmZVFuTo4eI9oYgSvTTZVl7vpi8un4YNwyasXzpKe2ovi4eIqLi6MHzrtJ6p/+5BX6d9EcKi0vo4cvulUF2FY0a+k8euzDF6lSfU7PXfmAzDf5nsuobXobuvuc62UcAAAAwE5cYuQudO5guTg7O7s7rVq1Uo/VjhskBw8eRPHxCZSSmkqxMTG0du1aSm3Vmgry8yk9I0PPGR7bINq7V3cqL+cgWtBsgqgTHESDwykAAABAJDXGIDpo0CBKSFBBNCVVzo6vX7+WUtK8CaL2fUT1kOFCHAAAAICWxZ//ZFDl77LpBUeXPZmXKzWHi5Xue+sJOuXOi/RY7dAaCgAAAGDmP+4bKv/zw5U84+76e7SIAgAAALRARkso9xGNaosob8vcHmIoAAAAQAujk2dVlfGU+ZgYd+2YdbHvI1rFJ+bNHWj6p+YBAAAAwAUz/8UYiTD40ef1Yd8iyk2wkn+NMgAAAAC0HMHxz7v2UIctomoX5IUWUQAAAICWxTwzbvIyDTpqETU2yZ1U0SIKAAAA0CJFoD3SUetqlQ6gaA8FAAAAaGEsZ8S9PjvurEXU3CZOzQMAAAC0KP4z4mrA5ZhY73qJOuojap6Qx6l5AAAAgJaFs2CgLTKGqqJ51TwaQQEAAABaMG4F5bZIlQmrqnyUkppi1HvAQduq+YBPtIYCAAAAtDT+BKgK3EDZpk2Wrqg/Ryf5jR3gOIrmUQAAAICWhfMfp1D1NTaGOnRob1R7wEEQDbSEIoYCAAAAtCxGN01OoUYqTEpJ4wpP2AZRFXz9+BlLTjmfEwAAAAAaPZVFO3ToSLNmzdYV9WcbRCvDvDIKracAAAAAzUgMUXxCvB7xhm0Qtd6yCeESAAAAoIWxnOZumBvaN6Pz7ClJKZSe2kqPAQAAAECddPaUm9lbGii9YBtEJfmaO2AMmrTzDj2VHr3odj0GAAAAAHUxsqf6EoFT47ZBFAAAAABassg1RdoHUWsfUTxmCQAAAKBFMfKffkW9j6geMjxrHgAAAKBlMfKffnkcBWO69+hdZ7Tt3as7lZdX0LZtBVRYWEiLFy/WU+qWmZVFuTk5eoxo49oVuuS942+8SpcAAAAAmq7Xb75Ll7zXoUsPXSLKzu5Oq1at1GO1i42NpUGDB1NiQgIlp6RQt65dae78RTKtID+f0jMypByuZhFEAQAAAKBu4QfRQZQQn0CpqWnUtZsKovMWyjQvgqj9VfP8JYxmWI9bbgEAAACgARiZzjgt73UvTWd9RHWbKfqIAgAAALQ0Ov+pPBj1G9pbN+hm297uJgAAAAA0JM52HudQ+yDKfQPMIBwT43zraDsFAAAAaF4a5slKfs43XoUoCgAAANBsRKKHpm0QFTqLVrk64e5x2y0AAAAANAwVQrltMuoXK/l8vsBGkS0BAAAAWhRpiFQplONgg/QRDWebEWi9BQAAAIAoi+FUx62Sxv+ecnZqXqjdcNEei8ZTAAAAgOaDW0O9zncu+ohWBV24BAAAAADNnY6BRldNj7OgbRANN3x63XQLAAAAANFXLdN5fLWSs2fNV1TQtoLG/az5yvIUlZpd9DQAAAAAaCxifBSXUKxHIiPcZ80PHjyYEhISKCUlNfrPmmdGqyj3ETXGGxuEUAAAAGjSVI6RPNNISatlBHKgo/QmV0vJLjTSJIoQCgAAAE1dI80z1m6aXidB+3esL9dnuFgJAAAAoIUxT4mrGOh1ErQPoip8IoACAAAAtEz+VlCvm0MVF6fmAQAAAKBF4jbJCLRLOuuMEEYORXQFAAAAaPr8Z8ZVuPM639kGUdl4GAk4AqEZAAAAAKJMnqypE6jX+c5di6jXMRgAAAAAmoYItDLaBlFJwXrDyKEAAAAALRCfIY9AEHTWIqq3jIvnAQAAAFoWI/9xFvQ+iTrrIxpjJFBpHQUAAACAlsMf/7xvkXTYImpwcz9RRFYAAABoCXw+H/0zfTr98NOPVFZWpmsbN5+LUCmZTn3hJbzOd676iLrhfWYGAAAAaFymTptKk886gx5/8nF67fXX6OzzzqEHH35IT21GVLCLRCOjqxZRnJoHAAAACHjqmadpx0k70gvPPi+vq6+8imbNnkVLlizRczQfnAK9bmh02EdUjwAAAACA+Oa7b2V46smnyJD169tPhm+/+44MGy2XiVJOkMsy3kZRV6fmvd00AAAAQNOVk5NDsbE1o1SbNm1o85bNeqyRctHIyPmPXxwJvX7su7tT880kip52xul0/kUXyIv7csydN1dPiY7crbm6BAAAAE3R0qVLadOmTXLm+N///qv2qigvp3L14rKbC70bKw6fHD/NQOqlmO49ete5zl49s6miopK2bSugoqIiWrRokZ5St6ysLPlLwbRx7Qpd8l5lWZouOcNBlPtxmG68+Sa6+cab9FjkcRDNbJOpxwAAAKApuef+e2n+/Pl6rG5paWn06EOP6DF7cYmFuuS9Dl166BJR1+xsWrNqlR6rHbf4Dho0mBITEyglJZW6dutCc+cZWbAgP5/SMzKkHC77FlGjHdbQDFJ9KCmpKTK84uoraePGjTR3/lz66JOPpe75F1+g9RvW0+dffuEP1tySmpubK/Obzr/wfNqSs4Xee/99uYKO3XDTDfTb77/R5s2b6cOPP6Q/pkyhZcuW0U8//yzTAQAAoOlZs2aNLtkrLIxcsKwXnx46oXJgIAFG+dR8YHPuTsw39sg6Z+5ceb3+xhvUNqut1N143Q3UoUMHGjxwMH3y6SdSN3Pmf9SxQ0faf9/9pJWXcUfkzMxMuufOu2X8tTdep8ceeUzWc8Thh9Onn38m9enp6TRp4iRq164dzZo9myaMH0+9evWi1q3r99cDAAAAQL24yZPcEMnBTi3jbQx11UdU7UEzun3TwAH95XX8ccfRGadPljpuZr/08svo/Q8/kHF2/7330xtvvUlnnXs2rdZ/AR17zLH0wEMP0pVXXyU3sf35l1+k3tSpYycZcqg1jRo5SpeIdpq0ky4BAABAc3DTDTfRYw8/GvLipUbJRYshX7huRkCvGxrdfVrN6NR8XFy8vKz+nv4PPXDf/XT4oYfpGpKOyMcfexw9/cRTcqqdxcbG0KUXX0J33H47/fzrz3TgAQdU64y8ctVKXQoE9z+m/KFLRN//8L0uAQAAQFPXs0cP6p6dTampqXTE4Ufo2ubFn3I8zoLOgqh/m82nRTSU+Qvm05Q/p8jFS+3bt5e6NWvX0nvvv0fvf/A+nXXGmVL31DPPqDD5A9173300bsw4OuiAA+l/V11BP/70Iz386CN01uQzZD6ro448il58+SX65NNP1V8VTeSvJQAAALC1fMUKf4NUk2lscndOPMDjs+O2V8337tWdyssr9FXzhbRo0WI9pW6ZWVmU20ivmgcAAAAI10WXXkwFBQV6zJ71Tj12GuNV84MHD6b4+ARp8e3arSvNnbdQpkXnqnkLV62xbuYFAAAAgOhxm9O4ITQCJ8Ztgyhv07+vzehiJQAAAIBwxLroYidPqGwOOAxGoJHR9pOs8vlUGDW27OqjRGYFAACAZujB+x+gzDZt5FS13euZJ5/WSzUy4YRKznYqF3rJWR9RfrJSQb7clHXxYod9RDOzKDcXfUQBAAAAnIpaH9Fu2bRmtfMnKyUk6j6iXaPcR5TvkxnWpfpoEQUAAABonNxEO53pIhHtbIOo3JjV3AE3/RzCafIFAAAAgMhz3s1VxUAj1EUi2jnbjSojgFpv2g4AAAAAzV9VBE9zO8zDZsdUFzsSuX0GAAAAgCiJZKRzGESNXXB1BwI0ngIAAAA0C5EKo7ZBVE7H6wRa5SZdRjI+AwAAAEBUcBSMVPuibRA1LlAyNh/jJl1Gao8BAAAAIGoieU9+hxcrVRs40myeJAAAAAAAEgS9jneOgqi5UURLAAAAgJaJ86DXN1ByFERxlh0AAACgGXER7vgaIW6MNBbxNhXaPuKzV89squBHfG4roMKiQlq8yNkjPrOy2lJOzhY9FtlHfP784wxdAgAAAGi6dt51lC55r9ojPrOzac0qh4/4HDyYEhMSKCUCj/h09qz58goJokVFRbRo0SI9pW7RDKIAAAAAULf6BNEEFUQb5FnzzOwj6m1jLAAAAAA0dpG8RshZH1GdQM1njQIAAAAA1Jez2zf5r9WPZCYGAAAAgJbEWRCVhlCEUAAAAICWhmMgp8AYjo0e37/JYYsobxSn5QEAAABaGg6h8pjPKp8a8bZh0jaI8rPm0RYKAAAA0IKpMBiJp2Y6ahFFFAUAAABoqWKMVlH+L9qn5o30a2zU640DAAAAQGMXyH9et4o6ahGNRFMsAAAAADQFRg6MRBp0dmpet4QikAIAAAC0LJwDI3VO3NHFSgAAAADQjPj00IFItkM66iNqdFFFKAUAAABoFhydEw+IVBZ1FET9DbI4NQ8AAADQ9LloETUvVopEc6SjU/NGi6h6oUUUAAAAoEWpqjIaIiPRHOmoYVZaRNXWI7EDAADBCgsL6fIrrqY+A4bSaWecTStWrtJTDB269NAlyMnJpYcffVyPAQA45CLU8QlxaYuMwJlx5z0EeA9wah4AIuzPv6bSLrvvTbfcdD0tWTCbXnj2Kbrz7nvp0cef0nN4r0efgboEAAChSFfNCJwZd9RHVH01RiLSOwAAIOCQw4+maX/+RqmpqbqG6KnHH6GnnnlWj3mvuLhYlwAAWgjXbYuRec6mbRD1SR9RxklYCgAAETHlz7/ozttu0WPVzfnvH12q7rvvf6D+g4bT6WeeQ1179KW8vHypv+mW2+m/mbNoyPDt6ejjTqTtxkygZ559gXbcZQ866NAj6bQzzpH5LrjoMv8wd+tWKVudc/5FtNOue9LxJ51KE3fanW685TY9heivqdNowJCRsu2efQfRmjVr9BSi7r3706mnn0lDRuxA73/wkdTl5eWp+gHS3aB3/yE0Z848qWcnn3YG7bP/wXTUsSfQuIk761qjG8JFl1xOO4ydRJdcfiVVVlZSt5796LTJvI7BtGnTJj0nAEDTE9O9R+8642Wvntly4CsoKKCioiJatGiRnlK3rKy2lJOzRY8RbVy7QpcAAELbfa/96O03XqV27drqmtA4nJnHlGGjRtOsGdOkzKeNOnXrRRvWLJcg+u57H9CcmUaAfeGlV+jLr76hd996Tcb33u8g+vqLT6RsXV8wnrZ21VKKj4uT8UtVGDz7rDOof7++KhD2pdXLF0s969l3IC1fPJ+OP/FUevWVFyhWd2e6Ue3LzTdcS2Mn7Ex//v6TPtNEdOfd99HVV15OTz/7HPXr249229UIoCtWrKRrb7iJXnv5Bdn+px+9R2PHjJZpPL5+9TKKjTXaEfoNGkbnn3s2XXTBeTIOAFAbPn6YumZn05pV1fvfh8LHmsGDB1N8QgKlpbaiLl0709x5C2VaQX4+pWdkSDlcDvuIRqIxFgCgupLSUuPiSIuRO4zzv44+7iRda3jg4Uf9YZJxwBs1coQeI5o65RddItp1l53p9FNP1mNErVu31qW6tWnTxh9C2U03Xkf33veAlK0hdMOGjVRRUSllDoZHHHksbdxotFZyCGWnnHwCXXXN9ZSTmyvjHELZU08/7w+hrEeP7vTNt9/rMaIxo3fQJaIE9cvADKHs9ltv0iUAABdcnOXmWSUJxnh/atxZH1HkUACIguuvuYree/9DPWb49+8//a9gf//9D7362pt0970P+F8cOE1xlgDJh7LU1BQ95tzYMYEQyLjv6srVxin4G266VVoYrr/xFlq7br3UsfHjx9Jzzzwp72XAkBHS+srOOesMuuC8c+jFF1+R1tNjjjeC8abNm2VYG7MFlfXt20eXDH169dYlAAAXXGQ7/6ze51CHLaK4Yh4AomCfvfekG28O9MG0c8rJJ9KIEcPoyv9d6n9ddsmFeqo3vv7mO10yLFu6jPbbZ2/pi8pdAfiU/q0330CjRg7XcxCVl5dTVlYmnXvOmbRgzn80aeIE2rx5C5WVlVG3bl3psksvklP4i5cskfmHDB4kQycWLqzePeqjTz7VJQAAF1zc0D6QP73Pgo6CqPw1HoEUDAAQ7LOP36de/QbTOksL47S//zEu8jnlRF1j2GuP3emU086kXH2qOz+/QC4Scis+Pl6Xamrfvl21sLfrnvtKwORlli1brmtJLkDy+Ywj+8GHHUl/TAm04H72xZeUkZFO24+d6F+G5920yWgJ5b6g4ybtImV21TU30MsvPKPHqps0cTx9+51x2r6gYBu9G9SCDADgtUD8bIBT8wwZFACihftDLpz7nwpYH1D/wSNoz30OoK15+bRiyXzae6899VwB61YtpWeff0mC6osvv0JrVhitjG588emH1Kf/EJo3b76uCejdqxftsN12tJsKoMedeAotnj+LElQITUtLpcsvvZiGbzeWzrvwEnri0YeooqJClvni049oy5YtcsU8B+Ufvv2SEhMTaeb0qfTDTz9Tv0HD6YqrrpV1MQ67X3/+CR16xDE0aefd6ZyzJ9O+++wt04K9+9brFBcXrz6b4fTMc8/TvFnT9RQAgEjiOKoSoce3ULK9ar53r+5ycOW/vIuKCnHVPAC0KAcecoRctQ4A0NRVu2q+azatWeP2qvk0tVwXmuPhVfP2QbRnNlX4fGpjfPsmBFEAiBy+32djM33Gf7TdqMCV+I3VzTdcTwMHuu+WAAAtR72DaFoadenSxdPbNzlrETXvI1qIIAoAAADQFIUfRIfIreP4ziNdu3b1tEXU4VXz+gUAAAAALY9csRSr4qC3gdBZEOWNBy6ZAgAAAICWQq5TUgFUUqO3gdDZ7Zv0EAAAAABaGLlSXqVBj6+YZ85aRAEAAACg+XDdylgVkYZJR0HUn3/xdCUAAACAps9N46bOf8bjhr1tFXV8al52IQJNsgAAAAAQZS7aFnUM1THQxYIOuDg1rzaMFlEAAACAps9F22KVzn9VEYiBDoJoIIDGIocCAAAAtCh80yaOgrGcCT0+O+7ohvY+n4/y8/OpuLiYFixYoKfULZo3tH/svTd1CQAAAKDpOv+IY3XJe9VuaN8tm9asdnZD+yFDh8oN7fnJSp06daS584yHG0XtyUo+lX4liBYVNcogevyNV+kSAAAAQNP1+s136ZL3wn2y0lAVROPjdRDt3MnTR3zanpqXK6S8bYUFAAAAgIbktrulmj8SlwrZBtGysnIJo7ztSOwAAAAAAESZy0ZGjoBx8fFU6fMZFR6xv1hJEii/zMv2AQAAAKDFkJZI9VI50Gia9I79qXm5RkpvHE2iAAAAAE1fOJEuAjHQNohWkU+90BQKAAAA0Gy4CZVVnARVFoxAHLQ/NS/NsEahCufmAQAAAJo+V109rSfkvc2C9qfmY2OlbyhvFqfmAQAAAFoaSYEqD3p7oRKzDaKJCfHqKydRtIgCAAAAtExV5PNVyX1FvWS7tsrKSmkRBQAAAICWyTg77n0gtD81bzkdjxZRAGiK7r70Wl2Kjm+eeUOXAACaC0minnPUvhpOAI1EagYAaAr2OvM4XQIAaPqqZzpv852rE/24WAkAmptBffrRUzfcRVdPPl/XGFq3yqAnrr+Dzj/2FMpolU7D+g2U+oT4BHrgfzfQref/T8ZPO/RoGVq9cOv9Mjz3mJPluHnbhVfQPVFulQUA8Er1m9h7mwUdBlEj/VZ5/FgnAICGdOohR9HowcPp7FuuonteeIK+ePJVqR/Qqy/desHldO6t19Bjb75E7z7wFCUnJcm0N+99nC699xa6/rF76bW7HqXMjNZSb9WtY2cZtm2dSW+p+a975B664oHb6YsnXpF6AICmhC9S0klQvnrJcYsob7oKDaIA0Iwcvc9B9Mqn70uZn59830tP0fiR29P1Z11IF911o9SzM2+8QoY3nHMJnXT1RVJmp99wmS7V7ujLz9Ulovh4vgsJAEATo/IfR8BIhFHnp+YliRpFAIDmoLyiXJcM/8ydRUP7DKB2mVnV+sbn5OfJsH+PXlRUUixlVlpWpksAAM2YPhwagwY5Na82i/6hANDMJCUap9tNJx5wGL37zWc0d8kiNS1R1xLtN2lXGX7y07e0w5ARUmb9uvfSJQCA5sw4NR+jvnidB22DqNEqYNxNH2EUAJqqg3bZq9qLHX/l+fT+Q8/SsH6D6NyjT6Idtx9LWwvy6Yr7b6OPH3mBth88nE477BhK1KH0na8+pdsu+B/tt+NutPu4SXTKIUdJPQBASyD3EvX46Uox3Xv0Nlpaa9G7V3e5qX1+fj4VFRXRokWL9JS6ZWZlUW5Ojh4j2rh2hS557/gbr9IlAADvHbDzHjR/2WJavHK5rjH06NKNxgwdKa2oAABeeP3mu3TJex269NAloq5ds2nNmlV6rHb8JKXBgwdTgvqDPDUtjbp07kxz5y2UaQUqG6ZnZEg5XM77iLpsDa1+qT8AQNMxadRo2lefjmcXHHeqP4Tef/n1MmTXnnkhffrTt3oMAKB5i0Syc3exkiuuFwAAaBR+mzFNTtG//+AzdJ8KnnufdbyeQnT7s4/SG3c/Rs/fch9dcMf1VFJWqqcAADRTujGSv3odRm2DqNEv1Nisuwcseb2rAADRM+W/f+jwS86ky++7VdcYcvK20nFXnk+n33A5lSKEAkALwjHQ62ZGZxcrqUzJeRTXKgEAAAC0MLolMhIx0PGpeXetoQAAAADQHMjZcZUDI/F8TWen5jmESgx2k0aRXAEAAACaOkl0KgdyaPT67LijIMobNbbruAFV8XhPAQAAACDqJIAaRaOB0kO2ydLn80k/UaN9Ey2iAAAAAC1JlSV7Wh9/7AXbIBorzaHGXUH5pqbOeZuYAQAAACD6OAWa8dPra4YcPlnJp5+sVOj4yUpZWW0pJ2eLHovsk5UAAAAAoG7hPllp6NAhFB+fQGlprahT507RfbIS74B0B5AXWjkBAAAAWhJfBHtbOjrXzv0BzCwKAAAAAC2Hkf/4q/eJ1DaIGje0RwQFAAAAaImMK+U5hHqfBx0FUeNSpUBHVQAAAABoKcwE2AAtogZuFVX/I4kCAAAAtCiBK+UboEXUaI412kSt95ECAAAAgCbKdaZTC/D/HnfXdNwiymEYORQAAACgGXBxltvInsYCDRREDV7fTR8AAAAAGjlL/OMnbnrJ0cVKOgoraBMFAAAAaHE4C0agQdJZi6jebqyrHIrWUwAAAIAmL4INkrZBVJ4vr7frLlp6v7MAAAAAEGW6JZT7h8a6a5W0ZRtEuS+AbBINnAAAAAAtjwqgRvysUrnQ20BoG0TN2zcBAAAAQDPhKtoZd0+KRB50FkT5f2RRAAAAgObBVcNmoEXUa45OzQf6BsgAAAAAAFoQSYIqCEa9j2i1U/PeB2EAAAAAaApUDox6H1G+jyhnUfe3jkJqBQAAAGgOInVS3FGLKEdK96flI7XLANDcnX3uBdS99wDa/+DDqFvPvnTmOefLH8XRtG1boS4ZysrKdKmmMeN30qX6GTdpF10CAGhc5BCsop1xptw7tkE0QLauywAAkZHdqz/deP21tHLpAvr84w9o9fLFdO3VV0h9NPXuP1iXDN169tMlAICWx4yAXjcKODo1r0v6BQAQGY889gTdc+dt1LlzJ11j6NG9uwqn19D9Dz4s439NnSbDJUuX0axZs6s9+9ictnzFSvrvv5lUWVkp48ycNlMts2nTZikXFRXTjH//pZWrVsk4M+fjIbeEWsfz8vOlHMrChYto/vwFesww7e9/qLy8nKbP+Je2bdvmX5dpy5YcKiou1mMBvMzUaX/rMaLNm7fQP9NnyNDErbaFRUW0fPkKmr9goa4FAIgMvnbe6yZJR6fmjY2iNRQAIuv2O++hY485So9Vd8bpp9JTzzwn5QMPOYL6Dx5O5SokJicnU48+A/2Bk6f16T+EClRgzGjdmvoOHEY5ubn+aV2696a8vHwJhR9+/CmdfubZ1KFDBwly242ZIPMN6G+0vvIwPj6+2nhqSoqUrfgOe6NGj5d5Obh27NpTTyE69IijaeJOu1NJaan8Yc/7YPXrb7/TChWarUpLy6i3eg9jRu8g40cdeyK9+fY71KVLZ3rrnXfp8iuvkfqFixbR6ZPPpp9//ZXWrFkrdQAAjrg4J25QOVD973WTpLPd8J+SRxgFgMixO+XDAdK0cO5MGjhwAPXr15eWL55HvfoFTqUvWTiHhg0bSr169qAlC2bT8FFj9BRS886nHSdNoF69etKFF19Gb772MnXt0oX22mN3Ov7YY6Qlsk2b1jIvD/kxx9bxhIQEKVtxkJwxbQr17t2Lhg8fJt0KjjvxFJlWVlZOU6f8QhPGjaX09HSpqwu37vYZMIRWLTNaOPPzC2jr1q10wXnnUOdOnej8c8+mf/6Z7v+s2ndoTyefeALtvhv6lwKAC4ETSQ3KURCtfnoeACAy7DrBJycn6VJ1cXFxVFJSoseq4yBpvdAoMTFRl4jS0lLp2ede8L94/Y8+/pSe6lz79u10yZCUlESz58yTMreSOlVUVERDRmxPZ04+TdcQfff9DzRhwrhq+9k9O5s2bNwo0w8+6AAZAgC44rpF1MiAXjdJ2u4Gh1A5OS9bRosoAEQOt3Ba+2parV6zhkYMG67HvNG2bVs6/rhj/a9TTz6JzjvnTD3VuZiYmofSeBWOmV24tgboiopKmjdrBn3x1de0ZYvuC6oWP/jAA6rt55OPP0IdO3SQyckq9AIARJQcx9RLZUKvmyRtg6hxEFWbtTllBgBQXz9//zWNn7RrtYuPGI+PnbAzffrxe7qGQ1uFLpGcuu7XL3BVO59eN3ErY3Z2Nz1W3coVKyk1NcX/KijIpwULF+mp1XHLam02btxYbZ8XLVpc66nyNm3a6JLh0ScCLbAZGcap+ym//kiDhm0n5b322IMuvfzKavv5408/U3EtLcAAAJ7jCKjiYOC6Ie/YBlE5uJpJ2OutAwAEmTHtD+rSvQ9dcvkV9M2330sI4/GZM6bqOQzbj51IP6hA9t0PRmj79cdv9RSi0eN3lFbF3/+YIhcr/fbT93pKdR++/7YKuDvRX39No3ff/0CtcxINHzZUpvFFSX9OnUb5BQUyvv12o2R7y1eskHGrzp0708AhI+lPtZ43336XJu68O9179x16anV33HaTXLDEV9OffuY5dPSRh+spAXyw//C9t+jgw46kVq3SaNzYMXTcCafI1f533n0fPfzo4yEvmgIAcMxVH1FukDTaJL1ulozp3qN3nevs07uHbDgvP4+KCgtpwYLqtyapTVZWW8rJCdxmZOPamgdvAIBwdOjSo9ZjSl3TAABaMj4+mrp2zaY1a0J3hbLis0FDhw6V/vWt0tOpffv2NHeecTEl350kPSNDyuGyDaK9e3WXv8635iGIAkDkLF68hNauW6/H6nbE0cfRe2+/oceqq2tac7fTjhN1CQCgprCD6LBhcseQVq1aye3uohpEzRbR/Pw8KkQQBYAIKSgoCHlj91CGjRxNs/6tfmN4U13TmjvzAiYAgFDCDaLDLEG0fYMEUTXMz0MQBQAAAGiqwj81r4JoYgKlt0qnDh070Jy5Rhb0Iog6u31TTIx5wRQAAAAAtCT+69U5DdbZfumabRAVepvebhoAAAAAGjsOodIgyQ2THodB2yBq3juPd0Lu4gQAAAAALYqEURVCzVzoFZdrc5NE0X4KAAAA0PRFLtPZBtGqKr6hvS4bA4fQfAoAAADQ9BmZjs+MSy70kIMWUUug9LpjAAAAAAA0GV43M9oGUetzRbkMAAAAAE1cOF09VQ70edwo6Wo3+FZOAAAAANDEuYh01lm9bpR00EfUsnm0iAIAAAA0fS6CqD/9qWViYsJpSq2dq7UZt7UHAAAAgCYtjDzJ7ZE+X9QvVrJCiygAAABAkxdm26LXJ8fdBVGcmgcAAABo+sIOog14at7d7ZtwGh8AAACgueBkV9Wwp+bdQOspAAAAQKMUwQTohu1uxOJ0PAAAAEDzEkbDJifCmGg/a944wa42LX0CcGoeAAAAoMlz286oGyYb6NS8CpXybFE3e+32HQIAAABAVITVXuj9jTxtg6jcQR+n5wEAAABaJONx75wFqyg22qfmAzcujTVCqWM4NQ8AAADQHFTpCBj1G9rHxuotqzndPWoeragAAAAATZ087p0DqMetocx2jf7w6auimBg3SRQtogAAAABNnZyaj42TUOju7Lg9R9HW6BcQgxZRAAAAgJZG5b8qaWBUibAhgqjkT7Vdj7cNAAAAAI0dZ0AZVEW/j6i5Ye4q6q5FFAAAAACaPuO2TVVqGPWr5o3sGSsJGFfNAwAAALQwVT4JjOb1615yFGslf8qTldyIwN4CAAAAQJTpFtEqvl4oyqfm+ZJ9CaKuGzjRIgoAAADQ5KkgKKkuhjOh24bJutmujfsCSN9Qb7cLAAAAAE0C9w7ldlFuEfW2odE2XhpXR1WFkUNxah4AAACgqQtcI9QA9xGVDaqX+x4BODUPAAAA0NRxojPiJ3+Ncouo9BFVQ/f51/0SAAAAAND4GGmQc6EMPGMbROV+UTHGs5XcQYsoAAAAQFMnDZJyhtxooPSSs66f0ibrPooCAAAAQNPGj/c0z5BH/Yb2grfsdVssAAAAADR6fF7cvJl91FtE/RtEiygAAABAC8QtokapAa6aNxpE0SIKAAAA0BKZ4TOca4bq5qBFVBfQIgoAAADQcqkoyP1FveRtj1MLtJ8CAAAANBMxRmuo1yfI7U/NW766gfZTAAAAgOaDM2isedWSR+xbRP2dRN1BiygAAABA88EXKjXAfUTNe+kDAAAAQEsklwpJCI1yiyhvk1+8WTeX7CO8AgAAADR93sfPANsgynfQN/Knu+ZY53MCAAAAQGPFMTAQAb1NePan5tWWjZZQREsAAACAlkjOjqs86PNFOYj6dAR20RgKAAAAAM0IP2I+ElnQ0al55vUjnQAAAACgaTAzqMd3b3JysZLeNHIoAAAAQIvEMZDbJL1uFLUNosY9o5BDAQAAAFoybpyMi7GNjq44WlskEjAAAAAANA3GNUoqEHrcVdNBEOXmUCOJerxtAAAAAGgKdAb1VVbqCm84CKJG+jRCqLfNsQAAAADQ+PkToMeNkrbJssrnM7apkmhMDE7QAwAAALQsgbgYE/U+oiqAcudU46XrAAAAAKDJchXppCHS46ZQzT6IqvTpv4eoOQQAAACAJstVopPUakRXr6OgoxZRGegXAAAAALQgKgBKmyhnQldNqfZcnOhHDAUAAABoiWLUf9xNM+p9RP1PVvI6AgMAAABAg3CT6qQpUn2RhxxJjXdsg2j1/qFoFQUAAABoUVQG9OdBj9kG0djYwCwR2gcAAAAAiCI3kU7mreIcGKNyoVR5xv7UvM+nC9wvwCg6ETilDwAAAACNSWys29ZFI9c1yH1EzaGKokbZAe7UCgAAAACNj894eLxjcmqeXx63M9oGUT41HxcXJ7Ey1k2TKAAAAAA0Ti4aNv39Q6uqKD4hzih7xHY34lQQNU+zR6qjKgAAAAA0Tkb+My5YSkhMMio9YhtE4xMSpFU0NjbOXRBFZgUAAABolGIdBjXOftwcGRPLFyrFUoLKhV6yDaLJSTr5Shh2ni5jPe7MCgAAAADeiIlzmNNU9uP0Z3bPTEhIlKFXbPciNS1NTs1zInYTLuPj43UJAAAAABqTuFhnfT0lfnIGjI01WkcrK6XeK/ZBNDVVbZxDKO+EmxuaOm89BQAAAIDosd4nvm5GnuP8xxevl0c7iKYkp6ivKoDqJOxUUpK3TbcAAAAA4A2nmY7nk5dcL0RUURHlIMq3s+fWUG7ClZuYOtxxrzuzAgAAAIA3nN6YPj7euIUn30WJlykpKTEmeMR2L4qKi+VKKe7UyhnUad9PvtoeAAAAABofp5f9cMOivomnNEouX75CxrxiuxvLli5XX3njsbIj8XHOAqbXj4ACAAAAAG+UlZXrUt2kYVEFQG4ZjVOvwqIiPcUbjlpEExLiJYjyjiSZt3OyUV5eqksAAAAA0JhU+bjzpb1EOcOtAmBMDJWUlFJpqbf5zjaI5uVtJV+lz9/CGR/vrKVzW8E2XQIAAACAxiOG8vPydbluZgMk9xMtKiyUspdsUyU/FL+8ooLidB/RxERnV8MXFm6rdmsAn8PkDQAAAACRw6fZi4udhcqUlBSV/4z7iFZJJ01v2QZR47J9Y8g9WzMzM/WUuhWq1GwNrXvuc4AuAQAAAEA07XPAIbqkwmVqmuNT7Mb95I3HvGdnd9e13nF0nr11emtpEY1Xr7S0NCOU2uCnMbVv31GPEeXk5OoSAAAAAERTeVmZLhF16NhBcpodbgXluyUlJCZIX9HMNs4aI91wFETbdeggrZsJ6sUh1Ok9QjOzAju8Zu1aXQIAAACAaJo1e44uEaWmpOpS3dLTW6uvMZSk8l9iUhItXLLUmOAhR0F00eKllJycrK+cIgmkTuTnV+8I6yR9AwAAAIB3gvPXxo0bdaluVVXG9T3cAMmP91zSUEF0+YoVcpm/2eezVatWMrSzauWKav1Ev/72O10CAAAAgGjIzQ10j+Q+n5s2btBjdWuT2UYeaiTPmC8PnNr3kqMgWllZSZu35Pivgm+dkSFDO7xc167d9BjR5DPO0SUAAAAAiIZTJ5+tSyS5zOmdjNq2basf7cmtos7uI++WoyDKevbqSUncWTUpidLT0x1dsMSSklJ0iais3Nld/AEAAADAG1P+/EuX+Nb0zvIbP1GJu2TyfUSTk1OoQ4cOeoq3HAfRoqJSSk1Lo7TUVLmCKjU1TU+p26rVK2R+07Zt3t8MFQAAAABqsuaupORkWrXK2bPiU1O4ITFW7iOakZGhwuxUY4LHHAfRf6ZPp4qKSn+fz6QkZxcsFW7bRt0s953q3X+wLgEAAABAJPUdOFSXiLp370GlJSV6rG5t2rRRX33SmJifl0cFKs9FguMgypfvV+onLHGn1R49euh6e/FqfitcPQ8AAAAQWZy3rP1By1w8J759+/ZytXxCfBylO7w2KBwugihRl27Z0kTLN7XnWziZzx+1s3jxIulfYDrvgot1CQAAAAAi4exzL9Qlorbt2tGKFcv1WN34lp3xKufxNUEZGa2pqDgyV8wzV0H0x59+oVat0ik1NYVi1H/p6c4Tct9+/XSJ6L0PPkKrKAAAAECEcM768ONP9BhRhw6ddMmeXJjk80mLKF9o/t/MmXqK91wF0bKyMlq3bi0lxCdIn4Fu2d0cXz2/aNFCSkpK1mNEjzz2hC4BAAAAgJdOPzNwy8zMzCxatHCBHqsb36qzc+fOctY7UWW9FG58dJj1wuEqiLK+/QZQekY6tWnTmpISk9QOOntMFHeO7d2njx4juv3OexzfxwoAAAAAnPvs8y91yXi2fEWFs1totkpPl2GGynpZ7drRokXeP03JynUQ/ebb76nSV0WJiQkUGxdLXVRqdmrhgvn6KixD5+zeugQAAAAAXug3cJguEXXv0VPlL2etoax7dndpFeW7JG3bViAPNIok10GUtW7dhlKSk+VRn+3bd5BOrU7wk5baW26Iyv0X8NhPAAAAAG+88OIrlJefL+WEhEQqLSlzfF0OX5DOZ71bt2kjjwLt2auXnhI5YQXRX3/9ndp37CQ3t2edOjnvALto4UIaPGSIHiM68eTTceESAAAAQD2VlJTQVdder8eI+g8YQBs2rNVj9rp3705VvipKSU6iuLgE+ujjz/WUyInp3qN3nSmwtntHDR3cn2JjiDZu2kJFRUX0zz//yMVMTnBzL693y+bNukatZ62zO/0DQP1cfsXVugQQHffdc6cuAUAkdegSuMd7z169aeWK5Y6vx0lJSaXhI0dQ6/R0atM6Qxocf/r5Nz01tIL8/HrfYzSsFlE2b8FiymzbjlqrneWb3Xft1s2Y4AAH1vi4+GpXYWX36q9LABAphYV4xC5EH77vACKvU7fAafSMNm1oy+ZNri4K79mzhwqFMZSWlkqZWe3o19+m6CmRFXYQraz0kU+9uPmWn0HaqXNnufGpUxs2rKf+AwZKh1hWWlpKXboHrqoHAO9xnx+AaMP3HUBknXTKZH/olAcPpaZRQUGBjDvRunVratMmUxoXU1KSKU2tg6/riYawT82z2NgYGr3DdrQ1N0cFy01UVFRI//77r6s+n4MGD6F5c+foMZLHh65bFdlbBQAAAAA0BwOHjqKcHOPKdm7c69W7Ny1ZvFjGneBltt9hB0pOSpLHevLTM6f/O0tPrVuDnppnPl8VtU7PkL4EWVmZksLbqTfhBofQocOH6zHjynrc1gkAAACgbtyt0Qyh3JDXp08/VyGUdezYSbpLZma2kXvEt8lsq6dER72CKPvm+x8pd2s+paUmy134+/bt6/o0zOyZM6Vl1OwzaoZRXE0PAAAAUB3nI+4Tyt0aWZwKkr1696FFi5zfL5SlpKRJ31B+dDtnuLVr19EPP/6kp0ZHvYMo25pfQK0y2kia5ibegQMDfT+d4pZR7jPKiZ5xGO3YtSfdc98DMg4AAADQ0l17/U2Sj8w+oXwv927dutHiRQtl3KmYmFgaMmSQ5C5+ilLrNlm0aXOunho9ngTRjRs3S9+CjPR0apuZqT6UFOrSpYue6tyC+fOoQ8dO1CYzS9cQ3ffAw9S1Rx+0jgIAAECLxTmIL+p+9vkXdQ1Rl65dKT4+nlasWK5rnOvRswclJCZSVlaWBNE2Ga2pRLewRpMnQZT9+PNvlF9QIM27rVqlUbfsbLma3q11a9dQSXExDRgwWNcQlZdXSPrv1S9QBwAAANAS9Ow7SHJQRUWFjHNXxmHDRqrMtJa2bdsmdW7w49Y7d+pE6a1aSW4rKSmlL7/5Vk+NLs+CKFuybBXFxSdQenorSk5KpiFDhoZ1246SkmJasGAu9enbV4XZ1rrWuBcd36z1yGNO0DUAAAAAzdMhhx8tuYcfHGRq27YddcvuTrNmubtLkSktrRUNHDRYTulnqLyWkppGs+e6O63vJU+DKCf1lavXUucu3Sgrsw0lJMTT8OEjKDExSc/hDl/5xY+rGqQ+MOvN73/+5Vf5h+neewB98NHHuhYAAACgaXv3vQ+oW89+knP+mPKnrjWuih+qMlVubg6tWhne0yiTkpJp6NAhlKjyWZvWralj5y6Un9+wD5zwNIiynJxcucl9ZlaWXLzEfRdGjhoZdhgtKyulefPmUuvWbahf/4EUn5CgpxjPVD373AvlH6tHn4H0+RdfuXqKAAAAAEBD4tzy4cefSI7hPHPehZdUe2Q6X83Odxbi629mz/wv7JzDIZTzGOcozmeZWZkUUxVD8xe4u9Lea/W6oX1ddt1lEm3Lz6ec3K20OSeHytWH+t+//0mwrA++0Wr3Hj1pzepVKsXn69rq+Ip9bkGdOGG8jL/39usyBAAAAGhIhx91rAz/mPKXnFqvLVhyAxw/Pn3pkiXSZbE+OIQOHzGcElQIbdc2i9q2a0utWmXQDz/+oucIjxc3tI9YEGWjRgxRX6soL69ABdJcqiivoH//+49K6/mBMm6i7tGjF1X6KmjtmjVUXl6upwAAAAA0PQkJidQ1O5vi4+NomQqgXjxmMyklhUYOHyEhlFtC+XGe3Co67e8Zeo7wNfogynbYfqQKoOXSepmbl0cVZWU0a/ZsKgzjKq/axMbGqXTfTq784u3kq+1E6xmpAAAAAOGIj0+QK9iz2mZJd8MN6zdQaWmJnlp/aa3SaejQoZSggm1mZialpaVSuqr746+/9Rz10ySCKBujwmh5RTlt3ZqngmIBlZaX0cIFCyhXP5bKa9wvNTExkTLUPy73TS0rLZVW2P+3d+bdWR3JHW5tSAIMGCGROMasZsBMln9iz2SSc3LyyfK9kkzOZHLGM5PVPiHEEwaBl7EtYZZBK1qYen7VdW/rRRJgy8jC9Uj37e7q6uq+ffv2W3d9l5aWy5rVnfeRJkmSJEnyMuB2Qe7vnDxsy+Sk4qvmdHKlGN8kXsm015ycmio/uHxZ/hBvMzqqVzUdKb/6t/+sGt+cA+OIwt/97V/rQaZHj35fFheXy+LSYvlybq7cmZ3dF8eQe0gZHPws1vDwUH0qf9jvLx22fFdLDgQ7PXPH0N5peA+WyYOTAwe/3sZmY1M+xxxy9LXXyrzNOd/WpL8bHBBP2ZfCwsKjKkm+f2ig2sK3C/NShNDGdyLK70bMa2F/O/34dtuuHZFu85Knebp/iWka2ly38Inmmc3NjX35MR78mAsXLpSp6ely9MiRcnhyQu91PzU1Xf7xn39WtfaGA+WIwpUfXCrjh8b0PtDV1cfl0cJCWVleKTdu3ChL5pgmSZJ8m8zMnC5zc1/W1MvjlH0h3J2fr6kkSZJvB97d/s471/SkPT8uND5+SPeETk3NlH/4p59Wrb3jwDmi8MNrV8vS4kI5NDpalldXy4I5pTzEdPv2nfL557+zo4dnHfElSZJ8PU6enCoPHz7wKx9DxeYbmwSbdxQPwtkM1x1SXGc3asGQRThIyAi5JPbgwQOlkyRJ9hrmIX5a/ezZs3ooiTcM4YSur2+U8ckj5caN/6uae8uBdESBS+Hn3npTv08vR9Q6irOk6xsb5aOPPioPH7z8H91PkuTV5/iJE3pQkkmbBSezvTVoMB2OZjCYDsIeoBNLpCcnD+u2pCRJkr3m2LET5eo7V/Q2ocnDh8u4OaKTkxP6efTZO59umdP2mr1wREeOn3j972t8Wzi9u9cwP99/8Pvywz+9VpbMAR0bG5EHP2wTOe+24jTy4uKSOaj5SqYkSfYOftJu1CZrXhbdOpRD5oAy/yhenUqWOBu6U5rFPlTOnU/FatwXfk6PsH1BdZIkyTeBuYfL8FevXi1vnjmjHxLiLOjEoUPyp86dP1/+/T++3k+Avgg8DP5N/cR9OSPacvLkyTI6/MScz2M2Ua+VDfPcl5eW9PolLmXNzs5u+Y3VJEmSr4sdeJe11aUydmhCkyeOKZM2b9pggc7BbMABhe3OLLROJ/MW7zRm4VUsqzZJc7A9Pnm4LOaDSkmS7AETk5Pl0sWL5djx434W1NKEh2wu4xWWyytregbnZXBgz4i2LC/zBP1Kee+9vyx3797VawbUoRaynD59ukxPT+vSPZP7t+3dJ0ny6nLk8FG9sYOjeJzQ4ZHRzvGMuQVnE3+TJ18Hz26ykB/xjQ10fcEJJeRp2Q1bVh8/rs7nkM1lY3lGNEmSrw1XbXjy/dq1a+Wtt87pQaQjXIY3H23cfCWbkMqVK1fLf394/aXONa/EGdEW7h39m5/8uNy+fbuMjo3qISYm9sfmgLKy3EvKE6/z5rBy1nQ/XsOSJMnBhYeVHq8slM2N6nTa5A3mVioMJGbhxKiyPIFef660xkJgKn4iFR2LVAd3ZGS4DI2MlUeP8oxokiTPz8joaDk8OVlmZmZ0Qo6X34+Zb4Tjx9ziB7jr5e1Ll8pPf/ZzHRy/bA7sw0rPgs50h3RWZ0VxOOlf3sm1srJaNjbWdQmfM6hzX87p8tde/hJBkiSvJlzKOn/unH7e7tLF83453uYWnEUuvzP3cEDsE/pQmf340/Ll518of8qc2K/u35PfyZWaM2++oQNlftnN9f1BJh66fLLJPaFr5dbsrDmhI+XG/97IS/NJkjwT3jk8MTGuOYZ3D4/YQSzzD0/Ac4JueMjvU+cE3flz58u//uJ9KxVHwy+fV9YRbfnJX/2o3DGHlMv1fFHET3finPIu0nVzSodsw+CIfmWOaVzCX1hYlMPKF0WSJAm8dux4ufz2Jc0lly9d1NkFnEgmduZyOZT2T5r4zdk7ZXmJXz5ZK+++9+Py61+9r3tKeQr+0oWzbtQcV8pYgc4W4arNQzdvzspRvX79f2xuejn3bCVJ8t2HeQK/Rr+4NDmhV7xNTZ0q4xMTmktwPrl9CB2IA2V8oAsXL5R/+TkO6P7zvXBEg7et49lYX3zxuW7U5QnXzSebOjqIBwS4dL+xaY6qrRGX3PiN+5WVZT00wD0TnDnVA1Gmz1mLYuVbR9WK8Kl4gIzvqN2Icl3xXfTJkn6ro4KGMj36wux12Z3sDcpJByHfrS2RF+V20gu2s7Wb/RfhWXba/J10d7PxPOUHed56Ir1bHTvZankeOy2tftCWb+XPy271tnYH84Ld8iqc5RzjnvOZGT0gCRdtThnjsjk7ODb48J1ZcNXl1u2Py+snTpTPPvusrNmUMT42XM6cebN8de9+uXAOR9QdTz8zKiNdWx6vrZebt2Zl+v79+2bjdzo4pgrNFujVIrvjSnz6LBOF6i0Alec2F7jBpxmU76Kn+bEmvzEv0p4g5M8q+6K2B3WfZael1XmWvUHaemC3unaysQ1hMtT7uOc8bapN7VbRsxpBPvhYdc1B2/Cs+naqx+Vum/x+XcLybtRv7R0YqHPAqGryf6X02eVbriWGbX7hLR1ceeEAlkvqXOXFwcQB5UA4dEdHXY9lGOfTdq6YW/Bh3njjT8rC4lK5+dtbXsV3hO+VI9rzpPzo3XfLw4f3y9zcnDYoG05fJhWOGth4fJHgcG6ag8qA43JZDCx0FNYPf5G+DWbMSM9lxLpB7gn++4hmYotQcOiJHOSuLTXsP82KTOvDq/Go2Nxc7456ejX7CHu1zT1uE8Kdtq/VGttezgMYmIs2sobkoS1Rtz7eBnf4fYegXahYt4rhEcvbMNmwqZus/WlUVHjOWP1sZSXHlunHpU+qQY88tg07repvCDthOdrpKXMWaptA7XVrtvg285rdZm1KR9hmfazbO20vYmOIeM0jjrhqWPambh7HJvV4G52uVtqmCr0vkdYtuzWODoYMxkQ4NFFeOZ0t4v5B4GU9zbb1vnW50mwjykpZ/16O+mWTslUa9oMqiu3flhWhjp5tu64PKNSZM22SltZYkAXvTz7Uy5FnehRxDQNRLQvdWFV7XOZ4X0ZZ6WPLwn5/ZqK3FtaCmzYvXMIRtclfBU0ea8hY5EGju/ce6CnUk6+fkN3/+uB6uXL5ol6T8sAmXw5qT518vRwaH8Ok18M4slXCEldt/v/W7TKiS/es8bDJHvcDCug0G4AaS5L5NsRCrBN4aU+pTwiV2hoXdV3UT2Y3/OO20ziAjx8P8f7Vh+/b2CdiISXiPlriRFV/VBohWNzb3Gb041Ttsb9uHCCzmF6bZTLigiwabaEeGLM+Yt01G1uzGNOu5yXUVNvYXBmjEKuATbKpQemqp/3D/rR/mELYJR9oYfR7rUV2NL1bnMXtYR87aNR9zYyQZ8X7PidP9vsw7Mua/ff9YqXVbtPT9sE+mr6eUha2To0o5mjvR9aTTCtrjYjSsk8ogfcJUdl3Bcnt3/eZKmIJXdS8h6vcIqynn8yxGsyW7FftaFNXF1n2Sfv8u8L1Qt/pZRoR1hhtVrBkN47YjjTAjXrdRLQfeX96HbUMeUDZSPcfgnYy7rHf1UWklrEPyX37eTtiX2UhWx1CeUuo2bLh/SYdy6dPuF1n1NoaV3qxjy36BrvMHdyGePbsW2Vi8kj5xfu/lIXvIt9TR3QrZ986ozMTv/nNR2XNHE42ZhxVaPAYPmB8x4a4vN/mB93Oo53LdZRrH1VdspicNehiENqHJoMKdQoTIUWVulQ+BjxyllofNsKCZ9sHNrtyXkYiQqU8rgK1vGw35Vp8Iuj1WjvtuiEj3fVPtQ0qh212opqW3JZqubdby0V60J7sqB6JPN8jKNVCFOj1eFp5xL6QpIFuID2jEYUdn0Bcv6tT2chrAdXl+mG27Q+iXp/LJPV/2enpyyPvtKmz9r/XI6kttb/IN3ktikB6W9pMOeRGW2dbttMTT7eFsckY7HQ9s4szHmPbdmCk2ozyyCgjvRoqz/5GzQHbsH0SO7E/CbOhA4hqr10Htc3kW2SK+zqozURYal6vT9sttH/pmkxaJIg3ZThI5Qc1/LIXbVBWB/XwZcC6fPLJJ9ao6mwaT8yZPGtzDjY42xGXztQGq4JaMMcY5SFL8D6xsK6H6xLxIOLI9SVLaDKyINIRhoxyoeO4fUL9k0CvymkHxNWkoN0+Gu8q4xDr5sTOnqM2ETGZ2iOiDTW/yqO9Ea8qRpW5Ja/L8uWMIavFBu17sspqPYNjR7YxX2VteyjjWX3fhvxpfTQ9C1pZtKHvC9eL8deUrilAt9bLfGAhZcgl7Q4zCalaaBF0ZdOtSUftIDvWQSmX1Q/NNTXe5kVrai90MqHG1Ny2OKHJYxtRZ61UgXSrjP2eUG2sMjRjG5Ef7SePAwlfD0uaCFM1t2/XALHOlEFra9jDPqp2q8+ozttFmv000m4vaq31I2f/Nb9B6xsQr2WIE0au7Ngf6+o2fd/z/QyrrkldXMn1NwLZfGJ+y5UrV8oHH14vX927J53vOumIDsCg4oGCP/rj02VmeqrMz83bMqebehmI+mK1QcHgAA0cG/yUI97LfEBpuNSR5UfbyHxwQRyB+8D1IxrZs2zqQg8ZeWGfnZcBt7HhYewAMmEg8wHrArdtR5eanGg/XxpbdxjCGOSEYdPXJWy4vjfD5WEndDQRmA1k+jJC0+LKs/XwCRNd5B5yHwv1St1krHPbvrY94Gl2xrYNypINTZomw5bSTSihbxXZQ6Y2W9zrcnnkQ5Rv4906maxmiVY36HS3yQPPw1KUR8nTQEySaqellW1XT5Tdju3t9WVbBu1QzsdlU1ctS+i2XQ7I3ArE+kba9zsq4Iw2eb4fsJ/Z/kGWbU+cNnRsS2niJ6Ztr5gttULK8VDi0+0KzUj347ejqng/Rn9ib6sDhRPG5I8T2UKunxFxG9zm89rRo+W3sx+7QsPFC2fLwqNHts42r/Bn5hmLbXNgzZxZzqpKbh+e7Z/UN6Du+09td7Q91pHAy9TyVQ9i//cDHHT7MmELHS3I7CDB99u6v9s2YRvFdqBvu/7T/mooa2urQx/QbdsUeTVpaY9HEdfzRGPGcBuD+lSrs9xEG5s745nRLhmo7ZeMuP5tf6gGvc7Qb6E/fKwTxnqyRB5h2HawbHF0lcI2ydBT1hbC7iBqExaqfui0+m7XbW9tX81jqWmIqIoNQJ5s2F8/Hvt9jsXr6MuHzOO1upro5XVMN+O0LVNLCLffr8sgbAva43NZ35+E6MfCmOd7qstUdezf1qO2ML6pg4W5qf+OkpqrE1U7CPs0upzYinaGzuD3O9CPrDsOLZfnZ2amy9SpmXL//oPy6aefyfEk/6CRjugL8UTv4OIy2enp6XJy+lQ5euSIBjGDiDMXjx/ziiheFcVDUBtKM8gYnP6lWbtKg84GjCWj87DhuBA596T6UaGP/5qrgchTcXxRayevctlg0IZAgXJqwnfIGNghViTK2YfvDLZelqqajnQaedWLNpDnOW0Y7CTHjNupCQ8NaQ7I1X4l4wvWbZLtqtF+4tBFttgWW/SrXm+ol0uGpOoqGvK2viY/IEG12+SzbcIRrtluUrlNMUPxWhcgj3y3Qx45tYx9yFZjoGZL5nm1NHGPkYuK521ncDtqJbEenRUX93VZZGueK/i29AM1JCucBTR9z3V7lMUGrxsJe11fmKLqrn0pmT6dvs62zBbrhufhUEQr0SAm21KpMmzUOB9M/jz4yH6pBwZsbhgbmygffPihfuFtJ/gVk7/48z+zssv1QckFzRN8yfCEa21qR7/O3j61q1sPo7bLQ9IuFrVsq+5mqtwlW2lsEXCGV05AY0RVWKbeA2ihTIa8Eu1WOQy50GUWHdRFEmqg2vQBTYnQqXZJRm5Xl+whrPEadn3hyh7x/1qk6hou8zIQtiV3gX1YyrM9rXo8GVHpRx6oHElPezI0WzXXaw2R1YvpR2ufZP26NerVRi0IkR+KhvSItLqhh7xBWZFX1bewXV4nc2Gtttb5tD6B0sIjvq6VLlOaHjW674bOQOR76P3TlO30GrrG2Hy0siqHMaqQJctn4da+zkYgPWnpv6/LsDhpTmxxIDs2dkhnMcdsXhsbrfeA2r5P8fW1jbKwtFzuzt8t8/PzOrDlZfO1gleGdESTJEmSJEmSfWEvHFE/jZEkSZIkSZIkL5l0RJMkSZIkSZJ9IR3RJEmSJEmSZF9IRzRJkiRJkiTZF9IRTZIkSZIkSfaFdESTJEmSJEmSfSEd0SRJkiRJkmRfSEc0SZIkSZIk2RfSEU2SJEmSJEn2hXREkyRJkiRJkn0hHdEkSZIkSZJkHyjlDxmfMvPUfNY/AAAAAElFTkSuQmCC;" vertex="1" parent="1">
          <mxGeometry x="800" y="230" width="505.01" height="520" as="geometry" />
        </mxCell>
      </root>
    </mxGraphModel>
  </diagram>
</mxfile>
